<svg xmlns="http://www.w3.org/2000/svg" xmlns:xlink="http://www.w3.org/1999/xlink" width="600" height="400" viewBox="0 0 2400 1600">
<defs>
  <clipPath id="clip210">
    <rect x="0" y="0" width="2400" height="1600"></rect>
  </clipPath>
</defs>
<path clip-path="url(#clip210)" d="M0 1600 L2400 1600 L2400 0 L0 0  Z" fill="#ffffff" fill-rule="evenodd" fill-opacity="1"></path>
<defs>
  <clipPath id="clip211">
    <rect x="480" y="0" width="1681" height="1600"></rect>
  </clipPath>
</defs>
<defs>
  <clipPath id="clip212">
    <rect x="249" y="123" width="2104" height="1301"></rect>
  </clipPath>
</defs>
<path clip-path="url(#clip210)" d="M249.542 1423.18 L2352.76 1423.18 L2352.76 123.472 L249.542 123.472  Z" fill="#ffffff" fill-rule="evenodd" fill-opacity="1"></path>
<polyline clip-path="url(#clip212)" style="stroke:#000000; stroke-linecap:round; stroke-linejoin:round; stroke-width:2; stroke-opacity:0.1; fill:none" points="622.356,1423.18 622.356,123.472 "></polyline>
<polyline clip-path="url(#clip212)" style="stroke:#000000; stroke-linecap:round; stroke-linejoin:round; stroke-width:2; stroke-opacity:0.1; fill:none" points="1040.07,1423.18 1040.07,123.472 "></polyline>
<polyline clip-path="url(#clip212)" style="stroke:#000000; stroke-linecap:round; stroke-linejoin:round; stroke-width:2; stroke-opacity:0.1; fill:none" points="1457.79,1423.18 1457.79,123.472 "></polyline>
<polyline clip-path="url(#clip212)" style="stroke:#000000; stroke-linecap:round; stroke-linejoin:round; stroke-width:2; stroke-opacity:0.1; fill:none" points="1875.51,1423.18 1875.51,123.472 "></polyline>
<polyline clip-path="url(#clip212)" style="stroke:#000000; stroke-linecap:round; stroke-linejoin:round; stroke-width:2; stroke-opacity:0.1; fill:none" points="2293.23,1423.18 2293.23,123.472 "></polyline>
<polyline clip-path="url(#clip210)" style="stroke:#000000; stroke-linecap:round; stroke-linejoin:round; stroke-width:4; stroke-opacity:1; fill:none" points="249.542,1423.18 2352.76,1423.18 "></polyline>
<polyline clip-path="url(#clip210)" style="stroke:#000000; stroke-linecap:round; stroke-linejoin:round; stroke-width:4; stroke-opacity:1; fill:none" points="622.356,1423.18 622.356,1404.28 "></polyline>
<polyline clip-path="url(#clip210)" style="stroke:#000000; stroke-linecap:round; stroke-linejoin:round; stroke-width:4; stroke-opacity:1; fill:none" points="1040.07,1423.18 1040.07,1404.28 "></polyline>
<polyline clip-path="url(#clip210)" style="stroke:#000000; stroke-linecap:round; stroke-linejoin:round; stroke-width:4; stroke-opacity:1; fill:none" points="1457.79,1423.18 1457.79,1404.28 "></polyline>
<polyline clip-path="url(#clip210)" style="stroke:#000000; stroke-linecap:round; stroke-linejoin:round; stroke-width:4; stroke-opacity:1; fill:none" points="1875.51,1423.18 1875.51,1404.28 "></polyline>
<polyline clip-path="url(#clip210)" style="stroke:#000000; stroke-linecap:round; stroke-linejoin:round; stroke-width:4; stroke-opacity:1; fill:none" points="2293.23,1423.18 2293.23,1404.28 "></polyline>
<path clip-path="url(#clip210)" d="M586.048 1481.64 L602.368 1481.64 L602.368 1485.58 L580.423 1485.58 L580.423 1481.64 Q583.085 1478.89 587.669 1474.26 Q592.275 1469.61 593.456 1468.27 Q595.701 1465.74 596.581 1464.01 Q597.483 1462.25 597.483 1460.56 Q597.483 1457.8 595.539 1456.07 Q593.618 1454.33 590.516 1454.33 Q588.317 1454.33 585.863 1455.09 Q583.433 1455.86 580.655 1457.41 L580.655 1452.69 Q583.479 1451.55 585.933 1450.97 Q588.386 1450.39 590.423 1450.39 Q595.794 1450.39 598.988 1453.08 Q602.183 1455.77 602.183 1460.26 Q602.183 1462.39 601.372 1464.31 Q600.585 1466.2 598.479 1468.8 Q597.9 1469.47 594.798 1472.69 Q591.696 1475.88 586.048 1481.64 Z" fill="#000000" fill-rule="nonzero" fill-opacity="1"></path><path clip-path="url(#clip210)" d="M622.182 1454.1 Q618.571 1454.1 616.743 1457.66 Q614.937 1461.2 614.937 1468.33 Q614.937 1475.44 616.743 1479.01 Q618.571 1482.55 622.182 1482.55 Q625.817 1482.55 627.622 1479.01 Q629.451 1475.44 629.451 1468.33 Q629.451 1461.2 627.622 1457.66 Q625.817 1454.1 622.182 1454.1 M622.182 1450.39 Q627.993 1450.39 631.048 1455 Q634.127 1459.58 634.127 1468.33 Q634.127 1477.06 631.048 1481.67 Q627.993 1486.25 622.182 1486.25 Q616.372 1486.25 613.294 1481.67 Q610.238 1477.06 610.238 1468.33 Q610.238 1459.58 613.294 1455 Q616.372 1450.39 622.182 1450.39 Z" fill="#000000" fill-rule="nonzero" fill-opacity="1"></path><path clip-path="url(#clip210)" d="M652.344 1454.1 Q648.733 1454.1 646.904 1457.66 Q645.099 1461.2 645.099 1468.33 Q645.099 1475.44 646.904 1479.01 Q648.733 1482.55 652.344 1482.55 Q655.979 1482.55 657.784 1479.01 Q659.613 1475.44 659.613 1468.33 Q659.613 1461.2 657.784 1457.66 Q655.979 1454.1 652.344 1454.1 M652.344 1450.39 Q658.154 1450.39 661.21 1455 Q664.289 1459.58 664.289 1468.33 Q664.289 1477.06 661.21 1481.67 Q658.154 1486.25 652.344 1486.25 Q646.534 1486.25 643.455 1481.67 Q640.4 1477.06 640.4 1468.33 Q640.4 1459.58 643.455 1455 Q646.534 1450.39 652.344 1450.39 Z" fill="#000000" fill-rule="nonzero" fill-opacity="1"></path><path clip-path="url(#clip210)" d="M1013.17 1455.09 L1001.36 1473.54 L1013.17 1473.54 L1013.17 1455.09 M1011.94 1451.02 L1017.82 1451.02 L1017.82 1473.54 L1022.75 1473.54 L1022.75 1477.43 L1017.82 1477.43 L1017.82 1485.58 L1013.17 1485.58 L1013.17 1477.43 L997.563 1477.43 L997.563 1472.92 L1011.94 1451.02 Z" fill="#000000" fill-rule="nonzero" fill-opacity="1"></path><path clip-path="url(#clip210)" d="M1040.48 1454.1 Q1036.87 1454.1 1035.04 1457.66 Q1033.23 1461.2 1033.23 1468.33 Q1033.23 1475.44 1035.04 1479.01 Q1036.87 1482.55 1040.48 1482.55 Q1044.11 1482.55 1045.92 1479.01 Q1047.75 1475.44 1047.75 1468.33 Q1047.75 1461.2 1045.92 1457.66 Q1044.11 1454.1 1040.48 1454.1 M1040.48 1450.39 Q1046.29 1450.39 1049.35 1455 Q1052.42 1459.58 1052.42 1468.33 Q1052.42 1477.06 1049.35 1481.67 Q1046.29 1486.25 1040.48 1486.25 Q1034.67 1486.25 1031.59 1481.67 Q1028.54 1477.06 1028.54 1468.33 Q1028.54 1459.58 1031.59 1455 Q1034.67 1450.39 1040.48 1450.39 Z" fill="#000000" fill-rule="nonzero" fill-opacity="1"></path><path clip-path="url(#clip210)" d="M1070.64 1454.1 Q1067.03 1454.1 1065.2 1457.66 Q1063.4 1461.2 1063.4 1468.33 Q1063.4 1475.44 1065.2 1479.01 Q1067.03 1482.55 1070.64 1482.55 Q1074.28 1482.55 1076.08 1479.01 Q1077.91 1475.44 1077.91 1468.33 Q1077.91 1461.2 1076.08 1457.66 Q1074.28 1454.1 1070.64 1454.1 M1070.64 1450.39 Q1076.45 1450.39 1079.51 1455 Q1082.59 1459.58 1082.59 1468.33 Q1082.59 1477.06 1079.51 1481.67 Q1076.45 1486.25 1070.64 1486.25 Q1064.83 1486.25 1061.75 1481.67 Q1058.7 1477.06 1058.7 1468.33 Q1058.7 1459.58 1061.75 1455 Q1064.83 1450.39 1070.64 1450.39 Z" fill="#000000" fill-rule="nonzero" fill-opacity="1"></path><path clip-path="url(#clip210)" d="M1428.12 1466.44 Q1424.97 1466.44 1423.12 1468.59 Q1421.29 1470.74 1421.29 1474.49 Q1421.29 1478.22 1423.12 1480.39 Q1424.97 1482.55 1428.12 1482.55 Q1431.27 1482.55 1433.09 1480.39 Q1434.95 1478.22 1434.95 1474.49 Q1434.95 1470.74 1433.09 1468.59 Q1431.27 1466.44 1428.12 1466.44 M1437.4 1451.78 L1437.4 1456.04 Q1435.64 1455.21 1433.84 1454.77 Q1432.05 1454.33 1430.29 1454.33 Q1425.66 1454.33 1423.21 1457.45 Q1420.78 1460.58 1420.43 1466.9 Q1421.8 1464.89 1423.86 1463.82 Q1425.92 1462.73 1428.4 1462.73 Q1433.6 1462.73 1436.61 1465.9 Q1439.65 1469.05 1439.65 1474.49 Q1439.65 1479.82 1436.5 1483.03 Q1433.35 1486.25 1428.12 1486.25 Q1422.12 1486.25 1418.95 1481.67 Q1415.78 1477.06 1415.78 1468.33 Q1415.78 1460.14 1419.67 1455.28 Q1423.56 1450.39 1430.11 1450.39 Q1431.87 1450.39 1433.65 1450.74 Q1435.46 1451.09 1437.4 1451.78 Z" fill="#000000" fill-rule="nonzero" fill-opacity="1"></path><path clip-path="url(#clip210)" d="M1457.7 1454.1 Q1454.09 1454.1 1452.26 1457.66 Q1450.46 1461.2 1450.46 1468.33 Q1450.46 1475.44 1452.26 1479.01 Q1454.09 1482.55 1457.7 1482.55 Q1461.34 1482.55 1463.14 1479.01 Q1464.97 1475.44 1464.97 1468.33 Q1464.97 1461.2 1463.14 1457.66 Q1461.34 1454.1 1457.7 1454.1 M1457.7 1450.39 Q1463.51 1450.39 1466.57 1455 Q1469.65 1459.58 1469.65 1468.33 Q1469.65 1477.06 1466.57 1481.67 Q1463.51 1486.25 1457.7 1486.25 Q1451.89 1486.25 1448.81 1481.67 Q1445.76 1477.06 1445.76 1468.33 Q1445.76 1459.58 1448.81 1455 Q1451.89 1450.39 1457.7 1450.39 Z" fill="#000000" fill-rule="nonzero" fill-opacity="1"></path><path clip-path="url(#clip210)" d="M1487.86 1454.1 Q1484.25 1454.1 1482.42 1457.66 Q1480.62 1461.2 1480.62 1468.33 Q1480.62 1475.44 1482.42 1479.01 Q1484.25 1482.55 1487.86 1482.55 Q1491.5 1482.55 1493.3 1479.01 Q1495.13 1475.44 1495.13 1468.33 Q1495.13 1461.2 1493.3 1457.66 Q1491.5 1454.1 1487.86 1454.1 M1487.86 1450.39 Q1493.67 1450.39 1496.73 1455 Q1499.81 1459.58 1499.81 1468.33 Q1499.81 1477.06 1496.73 1481.67 Q1493.67 1486.25 1487.86 1486.25 Q1482.05 1486.25 1478.97 1481.67 Q1475.92 1477.06 1475.92 1468.33 Q1475.92 1459.58 1478.97 1455 Q1482.05 1450.39 1487.86 1450.39 Z" fill="#000000" fill-rule="nonzero" fill-opacity="1"></path><path clip-path="url(#clip210)" d="M1845.3 1469.17 Q1841.97 1469.17 1840.05 1470.95 Q1838.15 1472.73 1838.15 1475.86 Q1838.15 1478.98 1840.05 1480.77 Q1841.97 1482.55 1845.3 1482.55 Q1848.64 1482.55 1850.56 1480.77 Q1852.48 1478.96 1852.48 1475.86 Q1852.48 1472.73 1850.56 1470.95 Q1848.66 1469.17 1845.3 1469.17 M1840.63 1467.18 Q1837.62 1466.44 1835.93 1464.38 Q1834.26 1462.32 1834.26 1459.35 Q1834.26 1455.21 1837.2 1452.8 Q1840.17 1450.39 1845.3 1450.39 Q1850.47 1450.39 1853.41 1452.8 Q1856.35 1455.21 1856.35 1459.35 Q1856.35 1462.32 1854.66 1464.38 Q1852.99 1466.44 1850 1467.18 Q1853.38 1467.96 1855.26 1470.26 Q1857.16 1472.55 1857.16 1475.86 Q1857.16 1480.88 1854.08 1483.57 Q1851.02 1486.25 1845.3 1486.25 Q1839.59 1486.25 1836.51 1483.57 Q1833.45 1480.88 1833.45 1475.86 Q1833.45 1472.55 1835.35 1470.26 Q1837.25 1467.96 1840.63 1467.18 M1838.92 1459.79 Q1838.92 1462.48 1840.58 1463.98 Q1842.27 1465.49 1845.3 1465.49 Q1848.31 1465.49 1850 1463.98 Q1851.72 1462.48 1851.72 1459.79 Q1851.72 1457.11 1850 1455.6 Q1848.31 1454.1 1845.3 1454.1 Q1842.27 1454.1 1840.58 1455.6 Q1838.92 1457.11 1838.92 1459.79 Z" fill="#000000" fill-rule="nonzero" fill-opacity="1"></path><path clip-path="url(#clip210)" d="M1875.47 1454.1 Q1871.85 1454.1 1870.03 1457.66 Q1868.22 1461.2 1868.22 1468.33 Q1868.22 1475.44 1870.03 1479.01 Q1871.85 1482.55 1875.47 1482.55 Q1879.1 1482.55 1880.91 1479.01 Q1882.73 1475.44 1882.73 1468.33 Q1882.73 1461.2 1880.91 1457.66 Q1879.1 1454.1 1875.47 1454.1 M1875.47 1450.39 Q1881.28 1450.39 1884.33 1455 Q1887.41 1459.58 1887.41 1468.33 Q1887.41 1477.06 1884.33 1481.67 Q1881.28 1486.25 1875.47 1486.25 Q1869.66 1486.25 1866.58 1481.67 Q1863.52 1477.06 1863.52 1468.33 Q1863.52 1459.58 1866.58 1455 Q1869.66 1450.39 1875.47 1450.39 Z" fill="#000000" fill-rule="nonzero" fill-opacity="1"></path><path clip-path="url(#clip210)" d="M1905.63 1454.1 Q1902.02 1454.1 1900.19 1457.66 Q1898.38 1461.2 1898.38 1468.33 Q1898.38 1475.44 1900.19 1479.01 Q1902.02 1482.55 1905.63 1482.55 Q1909.26 1482.55 1911.07 1479.01 Q1912.9 1475.44 1912.9 1468.33 Q1912.9 1461.2 1911.07 1457.66 Q1909.26 1454.1 1905.63 1454.1 M1905.63 1450.39 Q1911.44 1450.39 1914.49 1455 Q1917.57 1459.58 1917.57 1468.33 Q1917.57 1477.06 1914.49 1481.67 Q1911.44 1486.25 1905.63 1486.25 Q1899.82 1486.25 1896.74 1481.67 Q1893.68 1477.06 1893.68 1468.33 Q1893.68 1459.58 1896.74 1455 Q1899.82 1450.39 1905.63 1450.39 Z" fill="#000000" fill-rule="nonzero" fill-opacity="1"></path><path clip-path="url(#clip210)" d="M2237.76 1481.64 L2245.4 1481.64 L2245.4 1455.28 L2237.09 1456.95 L2237.09 1452.69 L2245.35 1451.02 L2250.03 1451.02 L2250.03 1481.64 L2257.66 1481.64 L2257.66 1485.58 L2237.76 1485.58 L2237.76 1481.64 Z" fill="#000000" fill-rule="nonzero" fill-opacity="1"></path><path clip-path="url(#clip210)" d="M2277.11 1454.1 Q2273.5 1454.1 2271.67 1457.66 Q2269.86 1461.2 2269.86 1468.33 Q2269.86 1475.44 2271.67 1479.01 Q2273.5 1482.55 2277.11 1482.55 Q2280.74 1482.55 2282.55 1479.01 Q2284.38 1475.44 2284.38 1468.33 Q2284.38 1461.2 2282.55 1457.66 Q2280.74 1454.1 2277.11 1454.1 M2277.11 1450.39 Q2282.92 1450.39 2285.97 1455 Q2289.05 1459.58 2289.05 1468.33 Q2289.05 1477.06 2285.97 1481.67 Q2282.92 1486.25 2277.11 1486.25 Q2271.3 1486.25 2268.22 1481.67 Q2265.16 1477.06 2265.16 1468.33 Q2265.16 1459.58 2268.22 1455 Q2271.3 1450.39 2277.11 1450.39 Z" fill="#000000" fill-rule="nonzero" fill-opacity="1"></path><path clip-path="url(#clip210)" d="M2307.27 1454.1 Q2303.66 1454.1 2301.83 1457.66 Q2300.02 1461.2 2300.02 1468.33 Q2300.02 1475.44 2301.83 1479.01 Q2303.66 1482.55 2307.27 1482.55 Q2310.9 1482.55 2312.71 1479.01 Q2314.54 1475.44 2314.54 1468.33 Q2314.54 1461.2 2312.71 1457.66 Q2310.9 1454.1 2307.27 1454.1 M2307.27 1450.39 Q2313.08 1450.39 2316.14 1455 Q2319.21 1459.58 2319.21 1468.33 Q2319.21 1477.06 2316.14 1481.67 Q2313.08 1486.25 2307.27 1486.25 Q2301.46 1486.25 2298.38 1481.67 Q2295.33 1477.06 2295.33 1468.33 Q2295.33 1459.58 2298.38 1455 Q2301.46 1450.39 2307.27 1450.39 Z" fill="#000000" fill-rule="nonzero" fill-opacity="1"></path><path clip-path="url(#clip210)" d="M2337.43 1454.1 Q2333.82 1454.1 2331.99 1457.66 Q2330.19 1461.2 2330.19 1468.33 Q2330.19 1475.44 2331.99 1479.01 Q2333.82 1482.55 2337.43 1482.55 Q2341.07 1482.55 2342.87 1479.01 Q2344.7 1475.44 2344.7 1468.33 Q2344.7 1461.2 2342.87 1457.66 Q2341.07 1454.1 2337.43 1454.1 M2337.43 1450.39 Q2343.24 1450.39 2346.3 1455 Q2349.38 1459.58 2349.38 1468.33 Q2349.38 1477.06 2346.3 1481.67 Q2343.24 1486.25 2337.43 1486.25 Q2331.62 1486.25 2328.54 1481.67 Q2325.49 1477.06 2325.49 1468.33 Q2325.49 1459.58 2328.54 1455 Q2331.62 1450.39 2337.43 1450.39 Z" fill="#000000" fill-rule="nonzero" fill-opacity="1"></path><path clip-path="url(#clip210)" d="M1040.33 1520.52 L1048.99 1520.52 L1070.06 1560.28 L1070.06 1520.52 L1076.3 1520.52 L1076.3 1568.04 L1067.64 1568.04 L1046.57 1528.29 L1046.57 1568.04 L1040.33 1568.04 L1040.33 1520.52 Z" fill="#000000" fill-rule="nonzero" fill-opacity="1"></path><path clip-path="url(#clip210)" d="M1088.23 1553.98 L1088.23 1532.4 L1094.09 1532.4 L1094.09 1553.75 Q1094.09 1558.81 1096.06 1561.36 Q1098.04 1563.87 1101.98 1563.87 Q1106.72 1563.87 1109.46 1560.85 Q1112.23 1557.83 1112.23 1552.61 L1112.23 1532.4 L1118.09 1532.4 L1118.09 1568.04 L1112.23 1568.04 L1112.23 1562.57 Q1110.1 1565.82 1107.27 1567.41 Q1104.46 1568.97 1100.74 1568.97 Q1094.6 1568.97 1091.41 1565.15 Q1088.23 1561.33 1088.23 1553.98 M1102.97 1531.54 L1102.97 1531.54 Z" fill="#000000" fill-rule="nonzero" fill-opacity="1"></path><path clip-path="url(#clip210)" d="M1157.9 1539.24 Q1160.1 1535.29 1163.16 1533.41 Q1166.21 1531.54 1170.35 1531.54 Q1175.92 1531.54 1178.94 1535.45 Q1181.97 1539.33 1181.97 1546.53 L1181.97 1568.04 L1176.08 1568.04 L1176.08 1546.72 Q1176.08 1541.59 1174.26 1539.11 Q1172.45 1536.63 1168.73 1536.63 Q1164.17 1536.63 1161.53 1539.65 Q1158.89 1542.68 1158.89 1547.9 L1158.89 1568.04 L1153 1568.04 L1153 1546.72 Q1153 1541.56 1151.19 1539.11 Q1149.37 1536.63 1145.59 1536.63 Q1141.1 1536.63 1138.46 1539.68 Q1135.82 1542.71 1135.82 1547.9 L1135.82 1568.04 L1129.93 1568.04 L1129.93 1532.4 L1135.82 1532.4 L1135.82 1537.93 Q1137.82 1534.66 1140.62 1533.1 Q1143.42 1531.54 1147.27 1531.54 Q1151.16 1531.54 1153.86 1533.51 Q1156.6 1535.48 1157.9 1539.24 Z" fill="#000000" fill-rule="nonzero" fill-opacity="1"></path><path clip-path="url(#clip210)" d="M1219.24 1550.25 Q1219.24 1543.79 1216.56 1540.13 Q1213.92 1536.44 1209.28 1536.44 Q1204.63 1536.44 1201.96 1540.13 Q1199.31 1543.79 1199.31 1550.25 Q1199.31 1556.71 1201.96 1560.4 Q1204.63 1564.07 1209.28 1564.07 Q1213.92 1564.07 1216.56 1560.4 Q1219.24 1556.71 1219.24 1550.25 M1199.31 1537.81 Q1201.16 1534.62 1203.96 1533.1 Q1206.79 1531.54 1210.71 1531.54 Q1217.2 1531.54 1221.24 1536.69 Q1225.32 1541.85 1225.32 1550.25 Q1225.32 1558.65 1221.24 1563.81 Q1217.2 1568.97 1210.71 1568.97 Q1206.79 1568.97 1203.96 1567.44 Q1201.16 1565.88 1199.31 1562.7 L1199.31 1568.04 L1193.43 1568.04 L1193.43 1518.52 L1199.31 1518.52 L1199.31 1537.81 Z" fill="#000000" fill-rule="nonzero" fill-opacity="1"></path><path clip-path="url(#clip210)" d="M1265.52 1548.76 L1265.52 1551.62 L1238.59 1551.62 Q1238.97 1557.67 1242.22 1560.85 Q1245.5 1564 1251.32 1564 Q1254.7 1564 1257.85 1563.17 Q1261.03 1562.35 1264.15 1560.69 L1264.15 1566.23 Q1261 1567.57 1257.69 1568.27 Q1254.38 1568.97 1250.97 1568.97 Q1242.44 1568.97 1237.44 1564 Q1232.48 1559.04 1232.48 1550.57 Q1232.48 1541.82 1237.19 1536.69 Q1241.93 1531.54 1249.95 1531.54 Q1257.15 1531.54 1261.32 1536.18 Q1265.52 1540.8 1265.52 1548.76 M1259.66 1547.04 Q1259.6 1542.23 1256.96 1539.37 Q1254.35 1536.5 1250.02 1536.5 Q1245.11 1536.5 1242.15 1539.27 Q1239.23 1542.04 1238.78 1547.07 L1259.66 1547.04 Z" fill="#000000" fill-rule="nonzero" fill-opacity="1"></path><path clip-path="url(#clip210)" d="M1295.79 1537.87 Q1294.8 1537.3 1293.62 1537.04 Q1292.48 1536.76 1291.08 1536.76 Q1286.11 1536.76 1283.44 1540 Q1280.79 1543.22 1280.79 1549.27 L1280.79 1568.04 L1274.91 1568.04 L1274.91 1532.4 L1280.79 1532.4 L1280.79 1537.93 Q1282.64 1534.69 1285.6 1533.13 Q1288.56 1531.54 1292.79 1531.54 Q1293.4 1531.54 1294.13 1531.63 Q1294.86 1531.7 1295.75 1531.85 L1295.79 1537.87 Z" fill="#000000" fill-rule="nonzero" fill-opacity="1"></path><path clip-path="url(#clip210)" d="M1336.46 1536.5 Q1331.75 1536.5 1329.01 1540.19 Q1326.28 1543.85 1326.28 1550.25 Q1326.28 1556.65 1328.98 1560.34 Q1331.72 1564 1336.46 1564 Q1341.14 1564 1343.88 1560.31 Q1346.62 1556.62 1346.62 1550.25 Q1346.62 1543.92 1343.88 1540.23 Q1341.14 1536.5 1336.46 1536.5 M1336.46 1531.54 Q1344.1 1531.54 1348.46 1536.5 Q1352.82 1541.47 1352.82 1550.25 Q1352.82 1559 1348.46 1564 Q1344.1 1568.97 1336.46 1568.97 Q1328.79 1568.97 1324.43 1564 Q1320.1 1559 1320.1 1550.25 Q1320.1 1541.47 1324.43 1536.5 Q1328.79 1531.54 1336.46 1531.54 Z" fill="#000000" fill-rule="nonzero" fill-opacity="1"></path><path clip-path="url(#clip210)" d="M1380.58 1518.52 L1380.58 1523.39 L1374.98 1523.39 Q1371.82 1523.39 1370.58 1524.66 Q1369.37 1525.93 1369.37 1529.24 L1369.37 1532.4 L1379.02 1532.4 L1379.02 1536.95 L1369.37 1536.95 L1369.37 1568.04 L1363.49 1568.04 L1363.49 1536.95 L1357.88 1536.95 L1357.88 1532.4 L1363.49 1532.4 L1363.49 1529.91 Q1363.49 1523.96 1366.25 1521.26 Q1369.02 1518.52 1375.04 1518.52 L1380.58 1518.52 Z" fill="#000000" fill-rule="nonzero" fill-opacity="1"></path><path clip-path="url(#clip210)" d="M1411.99 1522.27 L1411.99 1532.4 L1424.05 1532.4 L1424.05 1536.95 L1411.99 1536.95 L1411.99 1556.3 Q1411.99 1560.66 1413.17 1561.9 Q1414.38 1563.14 1418.04 1563.14 L1424.05 1563.14 L1424.05 1568.04 L1418.04 1568.04 Q1411.26 1568.04 1408.68 1565.53 Q1406.1 1562.98 1406.1 1556.3 L1406.1 1536.95 L1401.81 1536.95 L1401.81 1532.4 L1406.1 1532.4 L1406.1 1522.27 L1411.99 1522.27 Z" fill="#000000" fill-rule="nonzero" fill-opacity="1"></path><path clip-path="url(#clip210)" d="M1452.41 1537.87 Q1451.43 1537.3 1450.25 1537.04 Q1449.1 1536.76 1447.7 1536.76 Q1442.74 1536.76 1440.06 1540 Q1437.42 1543.22 1437.42 1549.27 L1437.42 1568.04 L1431.53 1568.04 L1431.53 1532.4 L1437.42 1532.4 L1437.42 1537.93 Q1439.27 1534.69 1442.23 1533.13 Q1445.19 1531.54 1449.42 1531.54 Q1450.03 1531.54 1450.76 1531.63 Q1451.49 1531.7 1452.38 1531.85 L1452.41 1537.87 Z" fill="#000000" fill-rule="nonzero" fill-opacity="1"></path><path clip-path="url(#clip210)" d="M1487.62 1548.76 L1487.62 1551.62 L1460.69 1551.62 Q1461.07 1557.67 1464.32 1560.85 Q1467.6 1564 1473.42 1564 Q1476.79 1564 1479.95 1563.17 Q1483.13 1562.35 1486.25 1560.69 L1486.25 1566.23 Q1483.1 1567.57 1479.79 1568.27 Q1476.48 1568.97 1473.07 1568.97 Q1464.54 1568.97 1459.54 1564 Q1454.58 1559.04 1454.58 1550.57 Q1454.58 1541.82 1459.29 1536.69 Q1464.03 1531.54 1472.05 1531.54 Q1479.25 1531.54 1483.42 1536.18 Q1487.62 1540.8 1487.62 1548.76 M1481.76 1547.04 Q1481.7 1542.23 1479.05 1539.37 Q1476.44 1536.5 1472.12 1536.5 Q1467.21 1536.5 1464.25 1539.27 Q1461.33 1542.04 1460.88 1547.07 L1481.76 1547.04 Z" fill="#000000" fill-rule="nonzero" fill-opacity="1"></path><path clip-path="url(#clip210)" d="M1527.72 1548.76 L1527.72 1551.62 L1500.79 1551.62 Q1501.18 1557.67 1504.42 1560.85 Q1507.7 1564 1513.52 1564 Q1516.9 1564 1520.05 1563.17 Q1523.23 1562.35 1526.35 1560.69 L1526.35 1566.23 Q1523.2 1567.57 1519.89 1568.27 Q1516.58 1568.97 1513.17 1568.97 Q1504.64 1568.97 1499.65 1564 Q1494.68 1559.04 1494.68 1550.57 Q1494.68 1541.82 1499.39 1536.69 Q1504.14 1531.54 1512.16 1531.54 Q1519.35 1531.54 1523.52 1536.18 Q1527.72 1540.8 1527.72 1548.76 M1521.86 1547.04 Q1521.8 1542.23 1519.16 1539.37 Q1516.55 1536.5 1512.22 1536.5 Q1507.32 1536.5 1504.36 1539.27 Q1501.43 1542.04 1500.98 1547.07 L1521.86 1547.04 Z" fill="#000000" fill-rule="nonzero" fill-opacity="1"></path><path clip-path="url(#clip210)" d="M1560.06 1533.45 L1560.06 1538.98 Q1557.58 1537.71 1554.9 1537.07 Q1552.23 1536.44 1549.36 1536.44 Q1545 1536.44 1542.81 1537.77 Q1540.64 1539.11 1540.64 1541.79 Q1540.64 1543.82 1542.2 1545 Q1543.76 1546.15 1548.47 1547.2 L1550.48 1547.64 Q1556.72 1548.98 1559.33 1551.43 Q1561.97 1553.85 1561.97 1558.21 Q1561.97 1563.17 1558.02 1566.07 Q1554.11 1568.97 1547.23 1568.97 Q1544.37 1568.97 1541.25 1568.39 Q1538.16 1567.85 1534.72 1566.74 L1534.72 1560.69 Q1537.97 1562.38 1541.12 1563.24 Q1544.27 1564.07 1547.36 1564.07 Q1551.5 1564.07 1553.72 1562.66 Q1555.95 1561.23 1555.95 1558.65 Q1555.95 1556.27 1554.33 1554.99 Q1552.74 1553.72 1547.29 1552.54 L1545.26 1552.07 Q1539.82 1550.92 1537.4 1548.56 Q1534.98 1546.18 1534.98 1542.04 Q1534.98 1537.01 1538.54 1534.27 Q1542.11 1531.54 1548.66 1531.54 Q1551.91 1531.54 1554.77 1532.01 Q1557.64 1532.49 1560.06 1533.45 Z" fill="#000000" fill-rule="nonzero" fill-opacity="1"></path><polyline clip-path="url(#clip212)" style="stroke:#000000; stroke-linecap:round; stroke-linejoin:round; stroke-width:2; stroke-opacity:0.1; fill:none" points="249.542,1202.67 2352.76,1202.67 "></polyline>
<polyline clip-path="url(#clip212)" style="stroke:#000000; stroke-linecap:round; stroke-linejoin:round; stroke-width:2; stroke-opacity:0.1; fill:none" points="249.542,849.243 2352.76,849.243 "></polyline>
<polyline clip-path="url(#clip212)" style="stroke:#000000; stroke-linecap:round; stroke-linejoin:round; stroke-width:2; stroke-opacity:0.1; fill:none" points="249.542,495.815 2352.76,495.815 "></polyline>
<polyline clip-path="url(#clip212)" style="stroke:#000000; stroke-linecap:round; stroke-linejoin:round; stroke-width:2; stroke-opacity:0.1; fill:none" points="249.542,142.386 2352.76,142.386 "></polyline>
<polyline clip-path="url(#clip210)" style="stroke:#000000; stroke-linecap:round; stroke-linejoin:round; stroke-width:4; stroke-opacity:1; fill:none" points="249.542,1423.18 249.542,123.472 "></polyline>
<polyline clip-path="url(#clip210)" style="stroke:#000000; stroke-linecap:round; stroke-linejoin:round; stroke-width:4; stroke-opacity:1; fill:none" points="249.542,1202.67 268.44,1202.67 "></polyline>
<polyline clip-path="url(#clip210)" style="stroke:#000000; stroke-linecap:round; stroke-linejoin:round; stroke-width:4; stroke-opacity:1; fill:none" points="249.542,849.243 268.44,849.243 "></polyline>
<polyline clip-path="url(#clip210)" style="stroke:#000000; stroke-linecap:round; stroke-linejoin:round; stroke-width:4; stroke-opacity:1; fill:none" points="249.542,495.815 268.44,495.815 "></polyline>
<polyline clip-path="url(#clip210)" style="stroke:#000000; stroke-linecap:round; stroke-linejoin:round; stroke-width:4; stroke-opacity:1; fill:none" points="249.542,142.386 268.44,142.386 "></polyline>
<path clip-path="url(#clip210)" d="M127.2 1188.47 Q123.589 1188.47 121.76 1192.04 Q119.955 1195.58 119.955 1202.71 Q119.955 1209.81 121.76 1213.38 Q123.589 1216.92 127.2 1216.92 Q130.834 1216.92 132.64 1213.38 Q134.468 1209.81 134.468 1202.71 Q134.468 1195.58 132.64 1192.04 Q130.834 1188.47 127.2 1188.47 M127.2 1184.77 Q133.01 1184.77 136.066 1189.37 Q139.144 1193.96 139.144 1202.71 Q139.144 1211.43 136.066 1216.04 Q133.01 1220.62 127.2 1220.62 Q121.39 1220.62 118.311 1216.04 Q115.256 1211.43 115.256 1202.71 Q115.256 1193.96 118.311 1189.37 Q121.39 1184.77 127.2 1184.77 Z" fill="#000000" fill-rule="nonzero" fill-opacity="1"></path><path clip-path="url(#clip210)" d="M147.362 1214.07 L152.246 1214.07 L152.246 1219.95 L147.362 1219.95 L147.362 1214.07 Z" fill="#000000" fill-rule="nonzero" fill-opacity="1"></path><path clip-path="url(#clip210)" d="M176.598 1201.32 Q179.954 1202.04 181.829 1204.3 Q183.727 1206.57 183.727 1209.91 Q183.727 1215.02 180.209 1217.82 Q176.69 1220.62 170.209 1220.62 Q168.033 1220.62 165.718 1220.18 Q163.427 1219.77 160.973 1218.91 L160.973 1214.4 Q162.917 1215.53 165.232 1216.11 Q167.547 1216.69 170.07 1216.69 Q174.468 1216.69 176.76 1214.95 Q179.075 1213.22 179.075 1209.91 Q179.075 1206.85 176.922 1205.14 Q174.792 1203.4 170.973 1203.4 L166.945 1203.4 L166.945 1199.56 L171.158 1199.56 Q174.607 1199.56 176.436 1198.19 Q178.264 1196.8 178.264 1194.21 Q178.264 1191.55 176.366 1190.14 Q174.491 1188.7 170.973 1188.7 Q169.052 1188.7 166.852 1189.12 Q164.653 1189.54 162.015 1190.42 L162.015 1186.25 Q164.677 1185.51 166.991 1185.14 Q169.329 1184.77 171.389 1184.77 Q176.714 1184.77 179.815 1187.2 Q182.917 1189.61 182.917 1193.73 Q182.917 1196.6 181.274 1198.59 Q179.63 1200.55 176.598 1201.32 Z" fill="#000000" fill-rule="nonzero" fill-opacity="1"></path><path clip-path="url(#clip210)" d="M192.639 1185.39 L210.996 1185.39 L210.996 1189.33 L196.922 1189.33 L196.922 1197.8 Q197.94 1197.45 198.959 1197.29 Q199.977 1197.11 200.996 1197.11 Q206.783 1197.11 210.162 1200.28 Q213.542 1203.45 213.542 1208.86 Q213.542 1214.44 210.07 1217.54 Q206.598 1220.62 200.278 1220.62 Q198.102 1220.62 195.834 1220.25 Q193.588 1219.88 191.181 1219.14 L191.181 1214.44 Q193.264 1215.58 195.487 1216.13 Q197.709 1216.69 200.186 1216.69 Q204.19 1216.69 206.528 1214.58 Q208.866 1212.48 208.866 1208.86 Q208.866 1205.25 206.528 1203.15 Q204.19 1201.04 200.186 1201.04 Q198.311 1201.04 196.436 1201.46 Q194.584 1201.87 192.639 1202.75 L192.639 1185.39 Z" fill="#000000" fill-rule="nonzero" fill-opacity="1"></path><path clip-path="url(#clip210)" d="M126.205 835.042 Q122.593 835.042 120.765 838.607 Q118.959 842.149 118.959 849.278 Q118.959 856.385 120.765 859.949 Q122.593 863.491 126.205 863.491 Q129.839 863.491 131.644 859.949 Q133.473 856.385 133.473 849.278 Q133.473 842.149 131.644 838.607 Q129.839 835.042 126.205 835.042 M126.205 831.338 Q132.015 831.338 135.07 835.945 Q138.149 840.528 138.149 849.278 Q138.149 858.005 135.07 862.611 Q132.015 867.195 126.205 867.195 Q120.394 867.195 117.316 862.611 Q114.26 858.005 114.26 849.278 Q114.26 840.528 117.316 835.945 Q120.394 831.338 126.205 831.338 Z" fill="#000000" fill-rule="nonzero" fill-opacity="1"></path><path clip-path="url(#clip210)" d="M146.366 860.644 L151.251 860.644 L151.251 866.523 L146.366 866.523 L146.366 860.644 Z" fill="#000000" fill-rule="nonzero" fill-opacity="1"></path><path clip-path="url(#clip210)" d="M174.283 836.037 L162.477 854.486 L174.283 854.486 L174.283 836.037 M173.056 831.963 L178.936 831.963 L178.936 854.486 L183.866 854.486 L183.866 858.375 L178.936 858.375 L178.936 866.523 L174.283 866.523 L174.283 858.375 L158.681 858.375 L158.681 853.861 L173.056 831.963 Z" fill="#000000" fill-rule="nonzero" fill-opacity="1"></path><path clip-path="url(#clip210)" d="M201.598 835.042 Q197.987 835.042 196.158 838.607 Q194.352 842.149 194.352 849.278 Q194.352 856.385 196.158 859.949 Q197.987 863.491 201.598 863.491 Q205.232 863.491 207.037 859.949 Q208.866 856.385 208.866 849.278 Q208.866 842.149 207.037 838.607 Q205.232 835.042 201.598 835.042 M201.598 831.338 Q207.408 831.338 210.463 835.945 Q213.542 840.528 213.542 849.278 Q213.542 858.005 210.463 862.611 Q207.408 867.195 201.598 867.195 Q195.787 867.195 192.709 862.611 Q189.653 858.005 189.653 849.278 Q189.653 840.528 192.709 835.945 Q195.787 831.338 201.598 831.338 Z" fill="#000000" fill-rule="nonzero" fill-opacity="1"></path><path clip-path="url(#clip210)" d="M127.2 481.613 Q123.589 481.613 121.76 485.178 Q119.955 488.72 119.955 495.849 Q119.955 502.956 121.76 506.52 Q123.589 510.062 127.2 510.062 Q130.834 510.062 132.64 506.52 Q134.468 502.956 134.468 495.849 Q134.468 488.72 132.64 485.178 Q130.834 481.613 127.2 481.613 M127.2 477.91 Q133.01 477.91 136.066 482.516 Q139.144 487.099 139.144 495.849 Q139.144 504.576 136.066 509.183 Q133.01 513.766 127.2 513.766 Q121.39 513.766 118.311 509.183 Q115.256 504.576 115.256 495.849 Q115.256 487.099 118.311 482.516 Q121.39 477.91 127.2 477.91 Z" fill="#000000" fill-rule="nonzero" fill-opacity="1"></path><path clip-path="url(#clip210)" d="M147.362 507.215 L152.246 507.215 L152.246 513.095 L147.362 513.095 L147.362 507.215 Z" fill="#000000" fill-rule="nonzero" fill-opacity="1"></path><path clip-path="url(#clip210)" d="M175.278 482.609 L163.473 501.058 L175.278 501.058 L175.278 482.609 M174.052 478.535 L179.931 478.535 L179.931 501.058 L184.862 501.058 L184.862 504.946 L179.931 504.946 L179.931 513.095 L175.278 513.095 L175.278 504.946 L159.677 504.946 L159.677 500.433 L174.052 478.535 Z" fill="#000000" fill-rule="nonzero" fill-opacity="1"></path><path clip-path="url(#clip210)" d="M192.639 478.535 L210.996 478.535 L210.996 482.47 L196.922 482.47 L196.922 490.942 Q197.94 490.595 198.959 490.433 Q199.977 490.247 200.996 490.247 Q206.783 490.247 210.162 493.419 Q213.542 496.59 213.542 502.007 Q213.542 507.585 210.07 510.687 Q206.598 513.766 200.278 513.766 Q198.102 513.766 195.834 513.395 Q193.588 513.025 191.181 512.284 L191.181 507.585 Q193.264 508.72 195.487 509.275 Q197.709 509.831 200.186 509.831 Q204.19 509.831 206.528 507.724 Q208.866 505.618 208.866 502.007 Q208.866 498.396 206.528 496.289 Q204.19 494.183 200.186 494.183 Q198.311 494.183 196.436 494.599 Q194.584 495.016 192.639 495.896 L192.639 478.535 Z" fill="#000000" fill-rule="nonzero" fill-opacity="1"></path><path clip-path="url(#clip210)" d="M126.205 128.184 Q122.593 128.184 120.765 131.749 Q118.959 135.291 118.959 142.42 Q118.959 149.527 120.765 153.092 Q122.593 156.633 126.205 156.633 Q129.839 156.633 131.644 153.092 Q133.473 149.527 133.473 142.42 Q133.473 135.291 131.644 131.749 Q129.839 128.184 126.205 128.184 M126.205 124.481 Q132.015 124.481 135.07 129.087 Q138.149 133.67 138.149 142.42 Q138.149 151.147 135.07 155.754 Q132.015 160.337 126.205 160.337 Q120.394 160.337 117.316 155.754 Q114.26 151.147 114.26 142.42 Q114.26 133.67 117.316 129.087 Q120.394 124.481 126.205 124.481 Z" fill="#000000" fill-rule="nonzero" fill-opacity="1"></path><path clip-path="url(#clip210)" d="M146.366 153.786 L151.251 153.786 L151.251 159.666 L146.366 159.666 L146.366 153.786 Z" fill="#000000" fill-rule="nonzero" fill-opacity="1"></path><path clip-path="url(#clip210)" d="M161.482 125.106 L179.839 125.106 L179.839 129.041 L165.765 129.041 L165.765 137.513 Q166.783 137.166 167.802 137.004 Q168.82 136.819 169.839 136.819 Q175.626 136.819 179.005 139.99 Q182.385 143.161 182.385 148.578 Q182.385 154.156 178.913 157.258 Q175.44 160.337 169.121 160.337 Q166.945 160.337 164.677 159.967 Q162.431 159.596 160.024 158.855 L160.024 154.156 Q162.107 155.291 164.329 155.846 Q166.552 156.402 169.028 156.402 Q173.033 156.402 175.371 154.295 Q177.709 152.189 177.709 148.578 Q177.709 144.967 175.371 142.86 Q173.033 140.754 169.028 140.754 Q167.153 140.754 165.278 141.17 Q163.427 141.587 161.482 142.467 L161.482 125.106 Z" fill="#000000" fill-rule="nonzero" fill-opacity="1"></path><path clip-path="url(#clip210)" d="M201.598 128.184 Q197.987 128.184 196.158 131.749 Q194.352 135.291 194.352 142.42 Q194.352 149.527 196.158 153.092 Q197.987 156.633 201.598 156.633 Q205.232 156.633 207.037 153.092 Q208.866 149.527 208.866 142.42 Q208.866 135.291 207.037 131.749 Q205.232 128.184 201.598 128.184 M201.598 124.481 Q207.408 124.481 210.463 129.087 Q213.542 133.67 213.542 142.42 Q213.542 151.147 210.463 155.754 Q207.408 160.337 201.598 160.337 Q195.787 160.337 192.709 155.754 Q189.653 151.147 189.653 142.42 Q189.653 133.67 192.709 129.087 Q195.787 124.481 201.598 124.481 Z" fill="#000000" fill-rule="nonzero" fill-opacity="1"></path><path clip-path="url(#clip210)" d="M45.514 984.146 Q44.4512 984.146 43.5816 984.436 Q42.6799 984.694 42.068 985.112 Q41.4239 985.499 40.9408 986.24 Q40.4255 986.98 40.1034 987.592 Q39.7814 988.204 39.5881 989.235 Q39.3627 990.265 39.2661 990.942 Q39.1372 991.618 39.0728 992.777 Q39.0084 993.937 39.0084 994.517 Q39.0084 995.064 39.0084 996.159 Q39.0084 999.605 39.0728 1000.18 Q39.2016 1001.05 39.7169 1001.38 Q40.2 1001.7 41.5205 1002.02 L58.7184 1006.3 L58.7184 998.929 Q58.7184 994.903 57.5912 992.133 Q56.464 989.364 54.8859 987.786 Q53.1468 986.046 50.3449 985.112 Q47.543 984.146 45.514 984.146 M75.8841 976.964 Q76.2384 976.964 77.0435 977.254 Q77.8487 977.512 78.9759 978.156 Q80.0709 978.8 81.0693 979.67 Q82.0676 980.539 82.744 981.924 Q83.4525 983.309 83.4525 984.887 Q83.4525 985.273 83.4203 985.66 Q83.4203 986.046 83.2593 987.013 Q83.1304 987.947 82.8728 988.719 Q82.6474 989.492 82.0999 990.459 Q81.5846 991.425 80.876 992.101 Q80.1353 992.745 78.9759 993.196 Q77.7843 993.647 76.335 993.647 Q75.0468 993.647 70.7312 992.584 Q67.0597 991.65 66.158 991.65 Q65.1596 991.65 64.2256 991.972 Q63.2916 992.262 62.3255 993.003 Q61.3593 993.711 60.7796 995.225 Q60.1677 996.739 60.1677 998.864 L60.1677 1006.69 L77.6554 1011.07 Q77.6877 1011.07 78.1385 1011.17 Q78.5572 1011.26 78.7826 1011.26 Q79.2013 1011.26 79.459 1011.01 Q79.7166 1010.72 79.8454 1010.01 Q79.9421 1009.3 79.9743 1008.75 Q79.9743 1008.17 79.9743 1006.98 Q79.9743 1005.5 80.2319 1005.24 Q80.3929 1005.11 80.6828 1005.11 Q81.1337 1005.11 81.4557 1005.24 Q81.7456 1005.34 81.8422 1005.6 Q81.9388 1005.82 81.971 1005.98 Q82.0032 1006.14 82.0032 1006.43 L81.81 1014.81 L82.0032 1023.12 Q82.0032 1024.05 81.2625 1024.05 Q80.6184 1024.05 80.3607 1023.82 Q80.0709 1023.6 80.0387 1023.31 Q79.9743 1023.02 79.9743 1022.28 Q79.9743 1020.67 79.8776 1019.7 Q79.781 1018.74 79.6522 1018.12 Q79.4912 1017.48 79.0403 1017.16 Q78.5894 1016.8 78.2029 1016.64 Q77.7843 1016.48 76.8503 1016.26 L41.4239 1007.43 Q40.3611 1007.17 40.2 1007.17 Q39.5881 1007.17 39.4271 1007.56 Q39.2339 1007.91 39.1372 1008.94 L39.0084 1011.46 Q39.0084 1012.23 38.9762 1012.55 Q38.944 1012.84 38.783 1013.07 Q38.6219 1013.29 38.2677 1013.29 Q37.3659 1013.29 37.1727 1012.91 Q36.9472 1012.52 36.9472 1011.39 L36.9472 992.584 Q36.9472 986.175 39.7491 982.117 Q42.5511 978.027 46.8344 978.027 Q48.7668 978.027 50.5703 978.897 Q52.3738 979.766 53.7909 981.216 Q55.208 982.633 56.3996 984.533 Q57.559 986.433 58.3641 988.462 Q59.1371 990.459 59.588 992.52 Q59.91 991.618 60.3931 990.781 Q60.8762 989.911 61.778 988.816 Q62.6797 987.689 64.129 987.013 Q65.5782 986.336 67.3496 986.336 Q68.6056 986.336 70.4735 986.594 Q75.7875 987.238 77.9775 987.238 Q80.0709 987.238 81.0371 986.691 Q82.0032 986.143 82.0032 984.597 Q82.0032 983.083 80.6506 981.409 Q79.2657 979.702 76.0129 978.607 Q75.079 978.349 75.079 977.737 Q75.079 977.705 75.079 977.673 Q75.079 977.608 75.1434 977.48 Q75.1756 977.351 75.2722 977.254 Q75.3366 977.125 75.4977 977.061 Q75.6587 976.964 75.8841 976.964 Z" fill="#000000" fill-rule="nonzero" fill-opacity="1"></path><path clip-path="url(#clip210)" d="M46.5165 970.384 Q45.6824 970.384 45.4344 970.317 Q45.1864 970.227 44.8032 969.866 L34.9288 961.006 Q29.4732 956.159 24.7164 956.159 Q21.6278 956.159 19.4185 957.782 Q17.2092 959.383 17.2092 962.336 Q17.2092 964.365 18.4491 966.078 Q19.689 967.792 21.8984 968.581 Q21.8533 968.446 21.8533 967.972 Q21.8533 966.822 22.5747 966.191 Q23.2961 965.537 24.2655 965.537 Q25.5054 965.537 26.1141 966.349 Q26.7003 967.138 26.7003 967.927 Q26.7003 968.243 26.6326 968.671 Q26.565 969.077 25.9338 969.731 Q25.28 970.384 24.1302 970.384 Q20.9064 970.384 18.3364 967.95 Q15.7664 965.492 15.7664 961.75 Q15.7664 957.512 18.2913 954.739 Q20.7937 951.943 24.7164 951.943 Q26.0916 951.943 27.354 952.372 Q28.594 952.777 29.5634 953.341 Q30.5327 953.882 32.0883 955.37 Q33.6438 956.858 34.7485 958.053 Q35.8532 959.248 38.1977 961.93 L42.9545 966.822 L42.9545 958.504 Q42.9545 954.446 42.5938 954.13 Q41.9401 953.679 38.4908 953.116 L38.4908 951.943 L46.5165 953.251 L46.5165 970.384 Z" fill="#000000" fill-rule="nonzero" fill-opacity="1"></path><path clip-path="url(#clip210)" d="M32.478 895.569 L37.3478 895.569 L37.3478 901.171 Q37.3478 904.322 38.6209 905.564 Q39.8941 906.773 43.2043 906.773 L46.3553 906.773 L46.3553 897.129 L50.9068 897.129 L50.9068 906.773 L82.0032 906.773 L82.0032 912.661 L50.9068 912.661 L50.9068 918.263 L46.3553 918.263 L46.3553 912.661 L43.8727 912.661 Q37.9207 912.661 35.2153 909.892 Q32.478 907.123 32.478 901.108 L32.478 895.569 Z" fill="#000000" fill-rule="nonzero" fill-opacity="1"></path><path clip-path="url(#clip210)" d="M50.4612 876.854 Q50.4612 881.565 54.1533 884.302 Q57.8136 887.039 64.2111 887.039 Q70.6086 887.039 74.3007 884.334 Q77.961 881.597 77.961 876.854 Q77.961 872.175 74.2689 869.438 Q70.5768 866.701 64.2111 866.701 Q57.8772 866.701 54.1851 869.438 Q50.4612 872.175 50.4612 876.854 M45.4959 876.854 Q45.4959 869.215 50.4612 864.855 Q55.4264 860.494 64.2111 860.494 Q72.9639 860.494 77.961 864.855 Q82.9263 869.215 82.9263 876.854 Q82.9263 884.525 77.961 888.885 Q72.9639 893.214 64.2111 893.214 Q55.4264 893.214 50.4612 888.885 Q45.4959 884.525 45.4959 876.854 Z" fill="#000000" fill-rule="nonzero" fill-opacity="1"></path><path clip-path="url(#clip210)" d="M51.8298 830.13 Q51.2569 831.117 51.0022 832.294 Q50.7158 833.44 50.7158 834.841 Q50.7158 839.806 53.9623 842.479 Q57.177 845.121 63.2244 845.121 L82.0032 845.121 L82.0032 851.009 L46.3553 851.009 L46.3553 845.121 L51.8934 845.121 Q48.6469 843.275 47.0873 840.315 Q45.4959 837.355 45.4959 833.122 Q45.4959 832.517 45.5914 831.785 Q45.6551 831.053 45.8142 830.162 L51.8298 830.13 Z" fill="#000000" fill-rule="nonzero" fill-opacity="1"></path><path clip-path="url(#clip210)" d="M36.2338 797.474 L46.3553 797.474 L46.3553 785.411 L50.9068 785.411 L50.9068 797.474 L70.2585 797.474 Q74.619 797.474 75.8603 796.296 Q77.1016 795.087 77.1016 791.426 L77.1016 785.411 L82.0032 785.411 L82.0032 791.426 Q82.0032 798.206 79.4888 800.784 Q76.9425 803.362 70.2585 803.362 L50.9068 803.362 L50.9068 807.659 L46.3553 807.659 L46.3553 803.362 L36.2338 803.362 L36.2338 797.474 Z" fill="#000000" fill-rule="nonzero" fill-opacity="1"></path><path clip-path="url(#clip210)" d="M62.7151 747.217 L65.5797 747.217 L65.5797 774.144 Q71.6271 773.762 74.81 770.515 Q77.961 767.237 77.961 761.412 Q77.961 758.038 77.1335 754.887 Q76.3059 751.704 74.6508 748.585 L80.189 748.585 Q81.5258 751.736 82.226 755.046 Q82.9263 758.357 82.9263 761.762 Q82.9263 770.292 77.961 775.289 Q72.9958 780.255 64.5294 780.255 Q55.7765 780.255 50.6521 775.544 Q45.4959 770.802 45.4959 762.781 Q45.4959 755.588 50.1429 751.418 Q54.758 747.217 62.7151 747.217 M60.9964 753.073 Q56.1903 753.137 53.3257 755.778 Q50.4612 758.388 50.4612 762.717 Q50.4612 767.619 53.2302 770.579 Q55.9993 773.507 61.0282 773.953 L60.9964 753.073 Z" fill="#000000" fill-rule="nonzero" fill-opacity="1"></path><path clip-path="url(#clip210)" d="M47.4056 714.879 L52.9438 714.879 Q51.6706 717.361 51.0341 720.035 Q50.3975 722.709 50.3975 725.573 Q50.3975 729.934 51.7343 732.13 Q53.0711 734.294 55.7447 734.294 Q57.7817 734.294 58.9594 732.735 Q60.1052 731.175 61.1555 726.464 L61.6011 724.459 Q62.9379 718.221 65.3887 715.611 Q67.8077 712.969 72.1682 712.969 Q77.1335 712.969 80.0299 716.916 Q82.9263 720.831 82.9263 727.706 Q82.9263 730.57 82.3533 733.689 Q81.8123 736.777 80.6983 740.214 L74.6508 740.214 Q76.3378 736.968 77.1971 733.817 Q78.0247 730.666 78.0247 727.578 Q78.0247 723.441 76.6242 721.213 Q75.1919 718.985 72.6138 718.985 Q70.2267 718.985 68.9535 720.608 Q67.6804 722.199 66.5027 727.642 L66.0253 729.679 Q64.8795 735.122 62.5242 737.541 Q60.137 739.96 55.9993 739.96 Q50.9704 739.96 48.2332 736.395 Q45.4959 732.83 45.4959 726.273 Q45.4959 723.027 45.9733 720.162 Q46.4508 717.298 47.4056 714.879 Z" fill="#000000" fill-rule="nonzero" fill-opacity="1"></path><path clip-path="url(#clip210)" d="M36.2338 697.851 L46.3553 697.851 L46.3553 685.788 L50.9068 685.788 L50.9068 697.851 L70.2585 697.851 Q74.619 697.851 75.8603 696.673 Q77.1016 695.463 77.1016 691.803 L77.1016 685.788 L82.0032 685.788 L82.0032 691.803 Q82.0032 698.583 79.4888 701.161 Q76.9425 703.739 70.2585 703.739 L50.9068 703.739 L50.9068 708.036 L46.3553 708.036 L46.3553 703.739 L36.2338 703.739 L36.2338 697.851 Z" fill="#000000" fill-rule="nonzero" fill-opacity="1"></path><path clip-path="url(#clip210)" d="M51.7661 633.907 L32.478 633.907 L32.478 628.051 L82.0032 628.051 L82.0032 633.907 L76.656 633.907 Q79.8389 635.753 81.3985 638.586 Q82.9263 641.387 82.9263 645.333 Q82.9263 651.795 77.77 655.869 Q72.6138 659.911 64.2111 659.911 Q55.8084 659.911 50.6521 655.869 Q45.4959 651.795 45.4959 645.333 Q45.4959 641.387 47.0555 638.586 Q48.5833 635.753 51.7661 633.907 M64.2111 653.864 Q70.6723 653.864 74.3644 651.222 Q78.0247 648.548 78.0247 643.901 Q78.0247 639.254 74.3644 636.581 Q70.6723 633.907 64.2111 633.907 Q57.7499 633.907 54.0896 636.581 Q50.3975 639.254 50.3975 643.901 Q50.3975 648.548 54.0896 651.222 Q57.7499 653.864 64.2111 653.864 Z" fill="#000000" fill-rule="nonzero" fill-opacity="1"></path><path clip-path="url(#clip210)" d="M64.0838 599.787 Q64.0838 606.885 65.707 609.622 Q67.3303 612.359 71.2452 612.359 Q74.3644 612.359 76.2104 610.322 Q78.0247 608.253 78.0247 604.72 Q78.0247 599.851 74.5872 596.922 Q71.1179 593.962 65.3887 593.962 L64.0838 593.962 L64.0838 599.787 M61.6648 588.106 L82.0032 588.106 L82.0032 593.962 L76.5924 593.962 Q79.8389 595.967 81.3985 598.959 Q82.9263 601.951 82.9263 606.28 Q82.9263 611.754 79.8707 615.001 Q76.7834 618.216 71.6271 618.216 Q65.6115 618.216 62.556 614.205 Q59.5005 610.163 59.5005 602.174 L59.5005 593.962 L58.9275 593.962 Q54.8853 593.962 52.6892 596.636 Q50.4612 599.278 50.4612 604.084 Q50.4612 607.139 51.1932 610.036 Q51.9253 612.932 53.3894 615.606 L47.9785 615.606 Q46.7372 612.391 46.1325 609.367 Q45.4959 606.344 45.4959 603.479 Q45.4959 595.745 49.5063 591.925 Q53.5167 588.106 61.6648 588.106 Z" fill="#000000" fill-rule="nonzero" fill-opacity="1"></path><path clip-path="url(#clip210)" d="M36.2338 570.25 L46.3553 570.25 L46.3553 558.187 L50.9068 558.187 L50.9068 570.25 L70.2585 570.25 Q74.619 570.25 75.8603 569.072 Q77.1016 567.863 77.1016 564.203 L77.1016 558.187 L82.0032 558.187 L82.0032 564.203 Q82.0032 570.982 79.4888 573.56 Q76.9425 576.138 70.2585 576.138 L50.9068 576.138 L50.9068 580.435 L46.3553 580.435 L46.3553 576.138 L36.2338 576.138 L36.2338 570.25 Z" fill="#000000" fill-rule="nonzero" fill-opacity="1"></path><path clip-path="url(#clip210)" d="M64.0838 534.284 Q64.0838 541.381 65.707 544.119 Q67.3303 546.856 71.2452 546.856 Q74.3644 546.856 76.2104 544.819 Q78.0247 542.75 78.0247 539.217 Q78.0247 534.347 74.5872 531.419 Q71.1179 528.459 65.3887 528.459 L64.0838 528.459 L64.0838 534.284 M61.6648 522.603 L82.0032 522.603 L82.0032 528.459 L76.5924 528.459 Q79.8389 530.464 81.3985 533.456 Q82.9263 536.448 82.9263 540.777 Q82.9263 546.251 79.8707 549.498 Q76.7834 552.712 71.6271 552.712 Q65.6115 552.712 62.556 548.702 Q59.5005 544.66 59.5005 536.671 L59.5005 528.459 L58.9275 528.459 Q54.8853 528.459 52.6892 531.133 Q50.4612 533.774 50.4612 538.581 Q50.4612 541.636 51.1932 544.533 Q51.9253 547.429 53.3894 550.103 L47.9785 550.103 Q46.7372 546.888 46.1325 543.864 Q45.4959 540.84 45.4959 537.976 Q45.4959 530.242 49.5063 526.422 Q53.5167 522.603 61.6648 522.603 Z" fill="#000000" fill-rule="nonzero" fill-opacity="1"></path><path clip-path="url(#clip210)" d="M677.816 12.096 L690.009 12.096 L705.443 53.2532 L720.958 12.096 L733.151 12.096 L733.151 72.576 L725.171 72.576 L725.171 19.4686 L709.575 60.9499 L701.352 60.9499 L685.756 19.4686 L685.756 72.576 L677.816 72.576 L677.816 12.096 Z" fill="#000000" fill-rule="nonzero" fill-opacity="1"></path><path clip-path="url(#clip210)" d="M766.652 32.4315 Q760.657 32.4315 757.173 37.1306 Q753.69 41.7891 753.69 49.9314 Q753.69 58.0738 757.133 62.7728 Q760.617 67.4314 766.652 67.4314 Q772.607 67.4314 776.091 62.7323 Q779.575 58.0333 779.575 49.9314 Q779.575 41.8701 776.091 37.1711 Q772.607 32.4315 766.652 32.4315 M766.652 26.1121 Q776.375 26.1121 781.924 32.4315 Q787.474 38.7509 787.474 49.9314 Q787.474 61.0714 781.924 67.4314 Q776.375 73.7508 766.652 73.7508 Q756.89 73.7508 751.34 67.4314 Q745.831 61.0714 745.831 49.9314 Q745.831 38.7509 751.34 32.4315 Q756.89 26.1121 766.652 26.1121 Z" fill="#000000" fill-rule="nonzero" fill-opacity="1"></path><path clip-path="url(#clip210)" d="M829.684 34.0924 L829.684 9.54393 L837.138 9.54393 L837.138 72.576 L829.684 72.576 L829.684 65.7705 Q827.335 69.8214 823.73 71.8063 Q820.165 73.7508 815.142 73.7508 Q806.918 73.7508 801.733 67.1883 Q796.589 60.6258 796.589 49.9314 Q796.589 39.2371 801.733 32.6746 Q806.918 26.1121 815.142 26.1121 Q820.165 26.1121 823.73 28.0971 Q827.335 30.0415 829.684 34.0924 M804.285 49.9314 Q804.285 58.1548 807.648 62.8538 Q811.05 67.5124 816.965 67.5124 Q822.879 67.5124 826.282 62.8538 Q829.684 58.1548 829.684 49.9314 Q829.684 41.7081 826.282 37.0496 Q822.879 32.3505 816.965 32.3505 Q811.05 32.3505 807.648 37.0496 Q804.285 41.7081 804.285 49.9314 Z" fill="#000000" fill-rule="nonzero" fill-opacity="1"></path><path clip-path="url(#clip210)" d="M891.299 48.0275 L891.299 51.6733 L857.028 51.6733 Q857.514 59.3701 861.646 63.421 Q865.819 67.4314 873.232 67.4314 Q877.526 67.4314 881.536 66.3781 Q885.587 65.3249 889.557 63.2184 L889.557 70.267 Q885.546 71.9684 881.334 72.8596 Q877.121 73.7508 872.786 73.7508 Q861.93 73.7508 855.57 67.4314 Q849.25 61.1119 849.25 50.3365 Q849.25 39.1965 855.246 32.6746 Q861.282 26.1121 871.49 26.1121 Q880.645 26.1121 885.952 32.0264 Q891.299 37.9003 891.299 48.0275 M883.845 45.84 Q883.764 39.7232 880.402 36.0774 Q877.08 32.4315 871.571 32.4315 Q865.332 32.4315 861.565 35.9558 Q857.838 39.4801 857.271 45.8805 L883.845 45.84 Z" fill="#000000" fill-rule="nonzero" fill-opacity="1"></path><path clip-path="url(#clip210)" d="M903.532 9.54393 L910.986 9.54393 L910.986 72.576 L903.532 72.576 L903.532 9.54393 Z" fill="#000000" fill-rule="nonzero" fill-opacity="1"></path><path clip-path="url(#clip210)" d="M957.409 49.9314 Q957.409 58.1548 960.772 62.8538 Q964.175 67.5124 970.089 67.5124 Q976.003 67.5124 979.406 62.8538 Q982.809 58.1548 982.809 49.9314 Q982.809 41.7081 979.406 37.0496 Q976.003 32.3505 970.089 32.3505 Q964.175 32.3505 960.772 37.0496 Q957.409 41.7081 957.409 49.9314 M982.809 65.7705 Q980.459 69.8214 976.854 71.8063 Q973.289 73.7508 968.266 73.7508 Q960.043 73.7508 954.857 67.1883 Q949.713 60.6258 949.713 49.9314 Q949.713 39.2371 954.857 32.6746 Q960.043 26.1121 968.266 26.1121 Q973.289 26.1121 976.854 28.0971 Q980.459 30.0415 982.809 34.0924 L982.809 27.2059 L990.262 27.2059 L990.262 89.8329 L982.809 89.8329 L982.809 65.7705 Z" fill="#000000" fill-rule="nonzero" fill-opacity="1"></path><path clip-path="url(#clip210)" d="M1004.85 54.671 L1004.85 27.2059 L1012.3 27.2059 L1012.3 54.3874 Q1012.3 60.8284 1014.81 64.0691 Q1017.32 67.2693 1022.35 67.2693 Q1028.38 67.2693 1031.87 63.421 Q1035.39 59.5726 1035.39 52.9291 L1035.39 27.2059 L1042.84 27.2059 L1042.84 72.576 L1035.39 72.576 L1035.39 65.6084 Q1032.68 69.7404 1029.07 71.7658 Q1025.51 73.7508 1020.77 73.7508 Q1012.95 73.7508 1008.9 68.8897 Q1004.85 64.0286 1004.85 54.671 M1023.6 26.1121 L1023.6 26.1121 Z" fill="#000000" fill-rule="nonzero" fill-opacity="1"></path><path clip-path="url(#clip210)" d="M1078.82 49.7694 Q1069.78 49.7694 1066.3 51.8354 Q1062.81 53.9013 1062.81 58.8839 Q1062.81 62.8538 1065.41 65.2034 Q1068.04 67.5124 1072.54 67.5124 Q1078.73 67.5124 1082.46 63.1374 Q1086.23 58.7219 1086.23 51.4303 L1086.23 49.7694 L1078.82 49.7694 M1093.68 46.6907 L1093.68 72.576 L1086.23 72.576 L1086.23 65.6895 Q1083.68 69.8214 1079.87 71.8063 Q1076.06 73.7508 1070.55 73.7508 Q1063.58 73.7508 1059.45 69.8619 Q1055.36 65.9325 1055.36 59.3701 Q1055.36 51.7138 1060.46 47.825 Q1065.61 43.9361 1075.78 43.9361 L1086.23 43.9361 L1086.23 43.2069 Q1086.23 38.0623 1082.83 35.2672 Q1079.46 32.4315 1073.35 32.4315 Q1069.46 32.4315 1065.77 33.3632 Q1062.08 34.295 1058.68 36.1584 L1058.68 29.2718 Q1062.77 27.692 1066.62 26.9223 Q1070.47 26.1121 1074.12 26.1121 Q1083.96 26.1121 1088.82 31.2163 Q1093.68 36.3204 1093.68 46.6907 Z" fill="#000000" fill-rule="nonzero" fill-opacity="1"></path><path clip-path="url(#clip210)" d="M1109.03 9.54393 L1116.49 9.54393 L1116.49 72.576 L1109.03 72.576 L1109.03 9.54393 Z" fill="#000000" fill-rule="nonzero" fill-opacity="1"></path><path clip-path="url(#clip210)" d="M1132.08 27.2059 L1139.54 27.2059 L1139.54 72.576 L1132.08 72.576 L1132.08 27.2059 M1132.08 9.54393 L1139.54 9.54393 L1139.54 18.9825 L1132.08 18.9825 L1132.08 9.54393 Z" fill="#000000" fill-rule="nonzero" fill-opacity="1"></path><path clip-path="url(#clip210)" d="M1162.51 14.324 L1162.51 27.2059 L1177.86 27.2059 L1177.86 32.9987 L1162.51 32.9987 L1162.51 57.6282 Q1162.51 63.1779 1164.01 64.7578 Q1165.54 66.3376 1170.2 66.3376 L1177.86 66.3376 L1177.86 72.576 L1170.2 72.576 Q1161.58 72.576 1158.29 69.3758 Q1155.01 66.1351 1155.01 57.6282 L1155.01 32.9987 L1149.54 32.9987 L1149.54 27.2059 L1155.01 27.2059 L1155.01 14.324 L1162.51 14.324 Z" fill="#000000" fill-rule="nonzero" fill-opacity="1"></path><path clip-path="url(#clip210)" d="M1206.54 76.7889 Q1203.38 84.8907 1200.38 87.3618 Q1197.39 89.8329 1192.36 89.8329 L1186.41 89.8329 L1186.41 83.5945 L1190.78 83.5945 Q1193.86 83.5945 1195.56 82.1361 Q1197.26 80.6778 1199.33 75.2496 L1200.67 71.8468 L1182.32 27.2059 L1190.21 27.2059 L1204.39 62.6918 L1218.57 27.2059 L1226.47 27.2059 L1206.54 76.7889 Z" fill="#000000" fill-rule="nonzero" fill-opacity="1"></path><path clip-path="url(#clip210)" d="M1286.1 9.54393 L1286.1 15.7418 L1278.97 15.7418 Q1274.96 15.7418 1273.38 17.3622 Q1271.84 18.9825 1271.84 23.1955 L1271.84 27.2059 L1284.11 27.2059 L1284.11 32.9987 L1271.84 32.9987 L1271.84 72.576 L1264.35 72.576 L1264.35 32.9987 L1257.22 32.9987 L1257.22 27.2059 L1264.35 27.2059 L1264.35 24.0462 Q1264.35 16.471 1267.87 13.0277 Q1271.4 9.54393 1279.05 9.54393 L1286.1 9.54393 Z" fill="#000000" fill-rule="nonzero" fill-opacity="1"></path><path clip-path="url(#clip210)" d="M1309.92 32.4315 Q1303.92 32.4315 1300.44 37.1306 Q1296.96 41.7891 1296.96 49.9314 Q1296.96 58.0738 1300.4 62.7728 Q1303.88 67.4314 1309.92 67.4314 Q1315.87 67.4314 1319.36 62.7323 Q1322.84 58.0333 1322.84 49.9314 Q1322.84 41.8701 1319.36 37.1711 Q1315.87 32.4315 1309.92 32.4315 M1309.92 26.1121 Q1319.64 26.1121 1325.19 32.4315 Q1330.74 38.7509 1330.74 49.9314 Q1330.74 61.0714 1325.19 67.4314 Q1319.64 73.7508 1309.92 73.7508 Q1300.16 73.7508 1294.61 67.4314 Q1289.1 61.0714 1289.1 49.9314 Q1289.1 38.7509 1294.61 32.4315 Q1300.16 26.1121 1309.92 26.1121 Z" fill="#000000" fill-rule="nonzero" fill-opacity="1"></path><path clip-path="url(#clip210)" d="M1369.39 34.1734 Q1368.13 33.4443 1366.63 33.1202 Q1365.17 32.7556 1363.39 32.7556 Q1357.07 32.7556 1353.67 36.8875 Q1350.31 40.9789 1350.31 48.6757 L1350.31 72.576 L1342.81 72.576 L1342.81 27.2059 L1350.31 27.2059 L1350.31 34.2544 Q1352.66 30.1225 1356.42 28.1376 Q1360.19 26.1121 1365.58 26.1121 Q1366.35 26.1121 1367.28 26.2337 Q1368.21 26.3147 1369.35 26.5172 L1369.39 34.1734 Z" fill="#000000" fill-rule="nonzero" fill-opacity="1"></path><path clip-path="url(#clip210)" d="M1429.42 39.9662 Q1435.29 41.222 1438.58 45.1919 Q1441.9 49.1618 1441.9 54.9951 Q1441.9 63.9476 1435.74 68.8492 Q1429.58 73.7508 1418.24 73.7508 Q1414.43 73.7508 1410.38 72.9811 Q1406.37 72.2519 1402.08 70.7531 L1402.08 62.8538 Q1405.48 64.8388 1409.53 65.8515 Q1413.58 66.8642 1418 66.8642 Q1425.69 66.8642 1429.7 63.826 Q1433.76 60.7879 1433.76 54.9951 Q1433.76 49.6479 1429.99 46.6502 Q1426.26 43.612 1419.58 43.612 L1412.53 43.612 L1412.53 36.8875 L1419.9 36.8875 Q1425.94 36.8875 1429.14 34.4975 Q1432.34 32.067 1432.34 27.5299 Q1432.34 22.8714 1429.02 20.4004 Q1425.73 17.8888 1419.58 17.8888 Q1416.21 17.8888 1412.37 18.618 Q1408.52 19.3471 1403.9 20.8865 L1403.9 13.5948 Q1408.56 12.2985 1412.61 11.6504 Q1416.7 11.0023 1420.31 11.0023 Q1429.62 11.0023 1435.05 15.2557 Q1440.48 19.4686 1440.48 26.6793 Q1440.48 31.7024 1437.6 35.1862 Q1434.73 38.6294 1429.42 39.9662 Z" fill="#000000" fill-rule="nonzero" fill-opacity="1"></path><path clip-path="url(#clip210)" d="M1476.9 20.1573 L1465.8 50.2555 L1488.04 50.2555 L1476.9 20.1573 M1472.28 12.096 L1481.56 12.096 L1504.61 72.576 L1496.1 72.576 L1490.59 57.061 L1463.33 57.061 L1457.82 72.576 L1449.19 72.576 L1472.28 12.096 Z" fill="#000000" fill-rule="nonzero" fill-opacity="1"></path><path clip-path="url(#clip210)" d="M1536.65 19.2256 L1515.99 51.5113 L1536.65 51.5113 L1536.65 19.2256 M1534.5 12.096 L1544.79 12.096 L1544.79 51.5113 L1553.42 51.5113 L1553.42 58.3168 L1544.79 58.3168 L1544.79 72.576 L1536.65 72.576 L1536.65 58.3168 L1509.35 58.3168 L1509.35 50.4176 L1534.5 12.096 Z" fill="#000000" fill-rule="nonzero" fill-opacity="1"></path><path clip-path="url(#clip210)" d="M1622.12 34.0924 L1622.12 9.54393 L1629.58 9.54393 L1629.58 72.576 L1622.12 72.576 L1622.12 65.7705 Q1619.77 69.8214 1616.17 71.8063 Q1612.6 73.7508 1607.58 73.7508 Q1599.36 73.7508 1594.17 67.1883 Q1589.03 60.6258 1589.03 49.9314 Q1589.03 39.2371 1594.17 32.6746 Q1599.36 26.1121 1607.58 26.1121 Q1612.6 26.1121 1616.17 28.0971 Q1619.77 30.0415 1622.12 34.0924 M1596.72 49.9314 Q1596.72 58.1548 1600.09 62.8538 Q1603.49 67.5124 1609.4 67.5124 Q1615.32 67.5124 1618.72 62.8538 Q1622.12 58.1548 1622.12 49.9314 Q1622.12 41.7081 1618.72 37.0496 Q1615.32 32.3505 1609.4 32.3505 Q1603.49 32.3505 1600.09 37.0496 Q1596.72 41.7081 1596.72 49.9314 Z" fill="#000000" fill-rule="nonzero" fill-opacity="1"></path><path clip-path="url(#clip210)" d="M1665.55 49.7694 Q1656.51 49.7694 1653.03 51.8354 Q1649.55 53.9013 1649.55 58.8839 Q1649.55 62.8538 1652.14 65.2034 Q1654.77 67.5124 1659.27 67.5124 Q1665.47 67.5124 1669.19 63.1374 Q1672.96 58.7219 1672.96 51.4303 L1672.96 49.7694 L1665.55 49.7694 M1680.41 46.6907 L1680.41 72.576 L1672.96 72.576 L1672.96 65.6895 Q1670.41 69.8214 1666.6 71.8063 Q1662.79 73.7508 1657.28 73.7508 Q1650.32 73.7508 1646.18 69.8619 Q1642.09 65.9325 1642.09 59.3701 Q1642.09 51.7138 1647.2 47.825 Q1652.34 43.9361 1662.51 43.9361 L1672.96 43.9361 L1672.96 43.2069 Q1672.96 38.0623 1669.56 35.2672 Q1666.2 32.4315 1660.08 32.4315 Q1656.19 32.4315 1652.5 33.3632 Q1648.82 34.295 1645.42 36.1584 L1645.42 29.2718 Q1649.51 27.692 1653.35 26.9223 Q1657.2 26.1121 1660.85 26.1121 Q1670.69 26.1121 1675.55 31.2163 Q1680.41 36.3204 1680.41 46.6907 Z" fill="#000000" fill-rule="nonzero" fill-opacity="1"></path><path clip-path="url(#clip210)" d="M1703.14 14.324 L1703.14 27.2059 L1718.49 27.2059 L1718.49 32.9987 L1703.14 32.9987 L1703.14 57.6282 Q1703.14 63.1779 1704.64 64.7578 Q1706.18 66.3376 1710.84 66.3376 L1718.49 66.3376 L1718.49 72.576 L1710.84 72.576 Q1702.21 72.576 1698.93 69.3758 Q1695.65 66.1351 1695.65 57.6282 L1695.65 32.9987 L1690.18 32.9987 L1690.18 27.2059 L1695.65 27.2059 L1695.65 14.324 L1703.14 14.324 Z" fill="#000000" fill-rule="nonzero" fill-opacity="1"></path><path clip-path="url(#clip210)" d="M1748.92 49.7694 Q1739.88 49.7694 1736.4 51.8354 Q1732.91 53.9013 1732.91 58.8839 Q1732.91 62.8538 1735.51 65.2034 Q1738.14 67.5124 1742.64 67.5124 Q1748.83 67.5124 1752.56 63.1374 Q1756.33 58.7219 1756.33 51.4303 L1756.33 49.7694 L1748.92 49.7694 M1763.78 46.6907 L1763.78 72.576 L1756.33 72.576 L1756.33 65.6895 Q1753.78 69.8214 1749.97 71.8063 Q1746.16 73.7508 1740.65 73.7508 Q1733.68 73.7508 1729.55 69.8619 Q1725.46 65.9325 1725.46 59.3701 Q1725.46 51.7138 1730.57 47.825 Q1735.71 43.9361 1745.88 43.9361 L1756.33 43.9361 L1756.33 43.2069 Q1756.33 38.0623 1752.93 35.2672 Q1749.56 32.4315 1743.45 32.4315 Q1739.56 32.4315 1735.87 33.3632 Q1732.19 34.295 1728.78 36.1584 L1728.78 29.2718 Q1732.87 27.692 1736.72 26.9223 Q1740.57 26.1121 1744.22 26.1121 Q1754.06 26.1121 1758.92 31.2163 Q1763.78 36.3204 1763.78 46.6907 Z" fill="#000000" fill-rule="nonzero" fill-opacity="1"></path><path clip-path="url(#clip210)" d="M1808.06 28.5427 L1808.06 35.5912 Q1804.9 33.9709 1801.5 33.1607 Q1798.09 32.3505 1794.45 32.3505 Q1788.9 32.3505 1786.1 34.0519 Q1783.35 35.7533 1783.35 39.156 Q1783.35 41.7486 1785.33 43.2475 Q1787.32 44.7058 1793.31 46.0426 L1795.87 46.6097 Q1803.81 48.3111 1807.13 51.4303 Q1810.49 54.509 1810.49 60.0587 Q1810.49 66.3781 1805.47 70.0644 Q1800.48 73.7508 1791.73 73.7508 Q1788.09 73.7508 1784.12 73.0216 Q1780.19 72.3329 1775.81 70.9151 L1775.81 63.2184 Q1779.95 65.3654 1783.96 66.4591 Q1787.97 67.5124 1791.9 67.5124 Q1797.16 67.5124 1800 65.73 Q1802.83 63.9071 1802.83 60.6258 Q1802.83 57.5877 1800.77 55.9673 Q1798.74 54.3469 1791.81 52.8481 L1789.22 52.2405 Q1782.3 50.7821 1779.22 47.7845 Q1776.14 44.7463 1776.14 39.4801 Q1776.14 33.0797 1780.67 29.5959 Q1785.21 26.1121 1793.56 26.1121 Q1797.69 26.1121 1801.33 26.7198 Q1804.98 27.3274 1808.06 28.5427 Z" fill="#000000" fill-rule="nonzero" fill-opacity="1"></path><path clip-path="url(#clip210)" d="M1861.17 48.0275 L1861.17 51.6733 L1826.9 51.6733 Q1827.38 59.3701 1831.51 63.421 Q1835.69 67.4314 1843.1 67.4314 Q1847.39 67.4314 1851.4 66.3781 Q1855.45 65.3249 1859.42 63.2184 L1859.42 70.267 Q1855.41 71.9684 1851.2 72.8596 Q1846.99 73.7508 1842.65 73.7508 Q1831.8 73.7508 1825.44 67.4314 Q1819.12 61.1119 1819.12 50.3365 Q1819.12 39.1965 1825.11 32.6746 Q1831.15 26.1121 1841.36 26.1121 Q1850.51 26.1121 1855.82 32.0264 Q1861.17 37.9003 1861.17 48.0275 M1853.71 45.84 Q1853.63 39.7232 1850.27 36.0774 Q1846.95 32.4315 1841.44 32.4315 Q1835.2 32.4315 1831.43 35.9558 Q1827.71 39.4801 1827.14 45.8805 L1853.71 45.84 Z" fill="#000000" fill-rule="nonzero" fill-opacity="1"></path><path clip-path="url(#clip210)" d="M1880.77 14.324 L1880.77 27.2059 L1896.13 27.2059 L1896.13 32.9987 L1880.77 32.9987 L1880.77 57.6282 Q1880.77 63.1779 1882.27 64.7578 Q1883.81 66.3376 1888.47 66.3376 L1896.13 66.3376 L1896.13 72.576 L1888.47 72.576 Q1879.84 72.576 1876.56 69.3758 Q1873.28 66.1351 1873.28 57.6282 L1873.28 32.9987 L1867.81 32.9987 L1867.81 27.2059 L1873.28 27.2059 L1873.28 14.324 L1880.77 14.324 Z" fill="#000000" fill-rule="nonzero" fill-opacity="1"></path><polyline clip-path="url(#clip212)" style="stroke:#800080; stroke-linecap:round; stroke-linejoin:round; stroke-width:4; stroke-opacity:1; fill:none" points="309.067,1386.4 413.497,1081.58 622.356,864.58 935.645,685.664 1248.93,595.092 1771.08,477.456 2293.23,415.941 "></polyline>
<line clip-path="url(#clip212)" x1="309.067" y1="1386.4" x2="293.067" y2="1370.4" style="stroke:#800080; stroke-width:4; stroke-opacity:1"></line>
<line clip-path="url(#clip212)" x1="309.067" y1="1386.4" x2="293.067" y2="1402.4" style="stroke:#800080; stroke-width:4; stroke-opacity:1"></line>
<line clip-path="url(#clip212)" x1="309.067" y1="1386.4" x2="325.067" y2="1402.4" style="stroke:#800080; stroke-width:4; stroke-opacity:1"></line>
<line clip-path="url(#clip212)" x1="309.067" y1="1386.4" x2="325.067" y2="1370.4" style="stroke:#800080; stroke-width:4; stroke-opacity:1"></line>
<line clip-path="url(#clip212)" x1="413.497" y1="1081.58" x2="397.497" y2="1065.58" style="stroke:#800080; stroke-width:4; stroke-opacity:1"></line>
<line clip-path="url(#clip212)" x1="413.497" y1="1081.58" x2="397.497" y2="1097.58" style="stroke:#800080; stroke-width:4; stroke-opacity:1"></line>
<line clip-path="url(#clip212)" x1="413.497" y1="1081.58" x2="429.497" y2="1097.58" style="stroke:#800080; stroke-width:4; stroke-opacity:1"></line>
<line clip-path="url(#clip212)" x1="413.497" y1="1081.58" x2="429.497" y2="1065.58" style="stroke:#800080; stroke-width:4; stroke-opacity:1"></line>
<line clip-path="url(#clip212)" x1="622.356" y1="864.58" x2="606.356" y2="848.58" style="stroke:#800080; stroke-width:4; stroke-opacity:1"></line>
<line clip-path="url(#clip212)" x1="622.356" y1="864.58" x2="606.356" y2="880.58" style="stroke:#800080; stroke-width:4; stroke-opacity:1"></line>
<line clip-path="url(#clip212)" x1="622.356" y1="864.58" x2="638.356" y2="880.58" style="stroke:#800080; stroke-width:4; stroke-opacity:1"></line>
<line clip-path="url(#clip212)" x1="622.356" y1="864.58" x2="638.356" y2="848.58" style="stroke:#800080; stroke-width:4; stroke-opacity:1"></line>
<line clip-path="url(#clip212)" x1="935.645" y1="685.664" x2="919.645" y2="669.664" style="stroke:#800080; stroke-width:4; stroke-opacity:1"></line>
<line clip-path="url(#clip212)" x1="935.645" y1="685.664" x2="919.645" y2="701.664" style="stroke:#800080; stroke-width:4; stroke-opacity:1"></line>
<line clip-path="url(#clip212)" x1="935.645" y1="685.664" x2="951.645" y2="701.664" style="stroke:#800080; stroke-width:4; stroke-opacity:1"></line>
<line clip-path="url(#clip212)" x1="935.645" y1="685.664" x2="951.645" y2="669.664" style="stroke:#800080; stroke-width:4; stroke-opacity:1"></line>
<line clip-path="url(#clip212)" x1="1248.93" y1="595.092" x2="1232.93" y2="579.092" style="stroke:#800080; stroke-width:4; stroke-opacity:1"></line>
<line clip-path="url(#clip212)" x1="1248.93" y1="595.092" x2="1232.93" y2="611.092" style="stroke:#800080; stroke-width:4; stroke-opacity:1"></line>
<line clip-path="url(#clip212)" x1="1248.93" y1="595.092" x2="1264.93" y2="611.092" style="stroke:#800080; stroke-width:4; stroke-opacity:1"></line>
<line clip-path="url(#clip212)" x1="1248.93" y1="595.092" x2="1264.93" y2="579.092" style="stroke:#800080; stroke-width:4; stroke-opacity:1"></line>
<line clip-path="url(#clip212)" x1="1771.08" y1="477.456" x2="1755.08" y2="461.456" style="stroke:#800080; stroke-width:4; stroke-opacity:1"></line>
<line clip-path="url(#clip212)" x1="1771.08" y1="477.456" x2="1755.08" y2="493.456" style="stroke:#800080; stroke-width:4; stroke-opacity:1"></line>
<line clip-path="url(#clip212)" x1="1771.08" y1="477.456" x2="1787.08" y2="493.456" style="stroke:#800080; stroke-width:4; stroke-opacity:1"></line>
<line clip-path="url(#clip212)" x1="1771.08" y1="477.456" x2="1787.08" y2="461.456" style="stroke:#800080; stroke-width:4; stroke-opacity:1"></line>
<line clip-path="url(#clip212)" x1="2293.23" y1="415.941" x2="2277.23" y2="399.941" style="stroke:#800080; stroke-width:4; stroke-opacity:1"></line>
<line clip-path="url(#clip212)" x1="2293.23" y1="415.941" x2="2277.23" y2="431.941" style="stroke:#800080; stroke-width:4; stroke-opacity:1"></line>
<line clip-path="url(#clip212)" x1="2293.23" y1="415.941" x2="2309.23" y2="431.941" style="stroke:#800080; stroke-width:4; stroke-opacity:1"></line>
<line clip-path="url(#clip212)" x1="2293.23" y1="415.941" x2="2309.23" y2="399.941" style="stroke:#800080; stroke-width:4; stroke-opacity:1"></line>
<polyline clip-path="url(#clip212)" style="stroke:#0000ff; stroke-linecap:round; stroke-linejoin:round; stroke-width:4; stroke-opacity:1; fill:none" points="309.067,983.273 413.497,744.93 622.356,499.062 935.645,362.698 1248.93,328.155 1771.08,288.795 2293.23,287.161 "></polyline>
<line clip-path="url(#clip212)" x1="309.067" y1="983.273" x2="293.067" y2="967.273" style="stroke:#0000ff; stroke-width:4; stroke-opacity:1"></line>
<line clip-path="url(#clip212)" x1="309.067" y1="983.273" x2="293.067" y2="999.273" style="stroke:#0000ff; stroke-width:4; stroke-opacity:1"></line>
<line clip-path="url(#clip212)" x1="309.067" y1="983.273" x2="325.067" y2="999.273" style="stroke:#0000ff; stroke-width:4; stroke-opacity:1"></line>
<line clip-path="url(#clip212)" x1="309.067" y1="983.273" x2="325.067" y2="967.273" style="stroke:#0000ff; stroke-width:4; stroke-opacity:1"></line>
<line clip-path="url(#clip212)" x1="413.497" y1="744.93" x2="397.497" y2="728.93" style="stroke:#0000ff; stroke-width:4; stroke-opacity:1"></line>
<line clip-path="url(#clip212)" x1="413.497" y1="744.93" x2="397.497" y2="760.93" style="stroke:#0000ff; stroke-width:4; stroke-opacity:1"></line>
<line clip-path="url(#clip212)" x1="413.497" y1="744.93" x2="429.497" y2="760.93" style="stroke:#0000ff; stroke-width:4; stroke-opacity:1"></line>
<line clip-path="url(#clip212)" x1="413.497" y1="744.93" x2="429.497" y2="728.93" style="stroke:#0000ff; stroke-width:4; stroke-opacity:1"></line>
<line clip-path="url(#clip212)" x1="622.356" y1="499.062" x2="606.356" y2="483.062" style="stroke:#0000ff; stroke-width:4; stroke-opacity:1"></line>
<line clip-path="url(#clip212)" x1="622.356" y1="499.062" x2="606.356" y2="515.062" style="stroke:#0000ff; stroke-width:4; stroke-opacity:1"></line>
<line clip-path="url(#clip212)" x1="622.356" y1="499.062" x2="638.356" y2="515.062" style="stroke:#0000ff; stroke-width:4; stroke-opacity:1"></line>
<line clip-path="url(#clip212)" x1="622.356" y1="499.062" x2="638.356" y2="483.062" style="stroke:#0000ff; stroke-width:4; stroke-opacity:1"></line>
<line clip-path="url(#clip212)" x1="935.645" y1="362.698" x2="919.645" y2="346.698" style="stroke:#0000ff; stroke-width:4; stroke-opacity:1"></line>
<line clip-path="url(#clip212)" x1="935.645" y1="362.698" x2="919.645" y2="378.698" style="stroke:#0000ff; stroke-width:4; stroke-opacity:1"></line>
<line clip-path="url(#clip212)" x1="935.645" y1="362.698" x2="951.645" y2="378.698" style="stroke:#0000ff; stroke-width:4; stroke-opacity:1"></line>
<line clip-path="url(#clip212)" x1="935.645" y1="362.698" x2="951.645" y2="346.698" style="stroke:#0000ff; stroke-width:4; stroke-opacity:1"></line>
<line clip-path="url(#clip212)" x1="1248.93" y1="328.155" x2="1232.93" y2="312.155" style="stroke:#0000ff; stroke-width:4; stroke-opacity:1"></line>
<line clip-path="url(#clip212)" x1="1248.93" y1="328.155" x2="1232.93" y2="344.155" style="stroke:#0000ff; stroke-width:4; stroke-opacity:1"></line>
<line clip-path="url(#clip212)" x1="1248.93" y1="328.155" x2="1264.93" y2="344.155" style="stroke:#0000ff; stroke-width:4; stroke-opacity:1"></line>
<line clip-path="url(#clip212)" x1="1248.93" y1="328.155" x2="1264.93" y2="312.155" style="stroke:#0000ff; stroke-width:4; stroke-opacity:1"></line>
<line clip-path="url(#clip212)" x1="1771.08" y1="288.795" x2="1755.08" y2="272.795" style="stroke:#0000ff; stroke-width:4; stroke-opacity:1"></line>
<line clip-path="url(#clip212)" x1="1771.08" y1="288.795" x2="1755.08" y2="304.795" style="stroke:#0000ff; stroke-width:4; stroke-opacity:1"></line>
<line clip-path="url(#clip212)" x1="1771.08" y1="288.795" x2="1787.08" y2="304.795" style="stroke:#0000ff; stroke-width:4; stroke-opacity:1"></line>
<line clip-path="url(#clip212)" x1="1771.08" y1="288.795" x2="1787.08" y2="272.795" style="stroke:#0000ff; stroke-width:4; stroke-opacity:1"></line>
<line clip-path="url(#clip212)" x1="2293.23" y1="287.161" x2="2277.23" y2="271.161" style="stroke:#0000ff; stroke-width:4; stroke-opacity:1"></line>
<line clip-path="url(#clip212)" x1="2293.23" y1="287.161" x2="2277.23" y2="303.161" style="stroke:#0000ff; stroke-width:4; stroke-opacity:1"></line>
<line clip-path="url(#clip212)" x1="2293.23" y1="287.161" x2="2309.23" y2="303.161" style="stroke:#0000ff; stroke-width:4; stroke-opacity:1"></line>
<line clip-path="url(#clip212)" x1="2293.23" y1="287.161" x2="2309.23" y2="271.161" style="stroke:#0000ff; stroke-width:4; stroke-opacity:1"></line>
<polyline clip-path="url(#clip212)" style="stroke:#008000; stroke-linecap:round; stroke-linejoin:round; stroke-width:4; stroke-opacity:1; fill:none" points="309.067,626.06 413.497,403.605 622.356,259.504 935.645,192.098 1248.93,186.932 1771.08,160.256 2293.23,163.212 "></polyline>
<line clip-path="url(#clip212)" x1="309.067" y1="626.06" x2="293.067" y2="610.06" style="stroke:#008000; stroke-width:4; stroke-opacity:1"></line>
<line clip-path="url(#clip212)" x1="309.067" y1="626.06" x2="293.067" y2="642.06" style="stroke:#008000; stroke-width:4; stroke-opacity:1"></line>
<line clip-path="url(#clip212)" x1="309.067" y1="626.06" x2="325.067" y2="642.06" style="stroke:#008000; stroke-width:4; stroke-opacity:1"></line>
<line clip-path="url(#clip212)" x1="309.067" y1="626.06" x2="325.067" y2="610.06" style="stroke:#008000; stroke-width:4; stroke-opacity:1"></line>
<line clip-path="url(#clip212)" x1="413.497" y1="403.605" x2="397.497" y2="387.605" style="stroke:#008000; stroke-width:4; stroke-opacity:1"></line>
<line clip-path="url(#clip212)" x1="413.497" y1="403.605" x2="397.497" y2="419.605" style="stroke:#008000; stroke-width:4; stroke-opacity:1"></line>
<line clip-path="url(#clip212)" x1="413.497" y1="403.605" x2="429.497" y2="419.605" style="stroke:#008000; stroke-width:4; stroke-opacity:1"></line>
<line clip-path="url(#clip212)" x1="413.497" y1="403.605" x2="429.497" y2="387.605" style="stroke:#008000; stroke-width:4; stroke-opacity:1"></line>
<line clip-path="url(#clip212)" x1="622.356" y1="259.504" x2="606.356" y2="243.504" style="stroke:#008000; stroke-width:4; stroke-opacity:1"></line>
<line clip-path="url(#clip212)" x1="622.356" y1="259.504" x2="606.356" y2="275.504" style="stroke:#008000; stroke-width:4; stroke-opacity:1"></line>
<line clip-path="url(#clip212)" x1="622.356" y1="259.504" x2="638.356" y2="275.504" style="stroke:#008000; stroke-width:4; stroke-opacity:1"></line>
<line clip-path="url(#clip212)" x1="622.356" y1="259.504" x2="638.356" y2="243.504" style="stroke:#008000; stroke-width:4; stroke-opacity:1"></line>
<line clip-path="url(#clip212)" x1="935.645" y1="192.098" x2="919.645" y2="176.098" style="stroke:#008000; stroke-width:4; stroke-opacity:1"></line>
<line clip-path="url(#clip212)" x1="935.645" y1="192.098" x2="919.645" y2="208.098" style="stroke:#008000; stroke-width:4; stroke-opacity:1"></line>
<line clip-path="url(#clip212)" x1="935.645" y1="192.098" x2="951.645" y2="208.098" style="stroke:#008000; stroke-width:4; stroke-opacity:1"></line>
<line clip-path="url(#clip212)" x1="935.645" y1="192.098" x2="951.645" y2="176.098" style="stroke:#008000; stroke-width:4; stroke-opacity:1"></line>
<line clip-path="url(#clip212)" x1="1248.93" y1="186.932" x2="1232.93" y2="170.932" style="stroke:#008000; stroke-width:4; stroke-opacity:1"></line>
<line clip-path="url(#clip212)" x1="1248.93" y1="186.932" x2="1232.93" y2="202.932" style="stroke:#008000; stroke-width:4; stroke-opacity:1"></line>
<line clip-path="url(#clip212)" x1="1248.93" y1="186.932" x2="1264.93" y2="202.932" style="stroke:#008000; stroke-width:4; stroke-opacity:1"></line>
<line clip-path="url(#clip212)" x1="1248.93" y1="186.932" x2="1264.93" y2="170.932" style="stroke:#008000; stroke-width:4; stroke-opacity:1"></line>
<line clip-path="url(#clip212)" x1="1771.08" y1="160.256" x2="1755.08" y2="144.256" style="stroke:#008000; stroke-width:4; stroke-opacity:1"></line>
<line clip-path="url(#clip212)" x1="1771.08" y1="160.256" x2="1755.08" y2="176.256" style="stroke:#008000; stroke-width:4; stroke-opacity:1"></line>
<line clip-path="url(#clip212)" x1="1771.08" y1="160.256" x2="1787.08" y2="176.256" style="stroke:#008000; stroke-width:4; stroke-opacity:1"></line>
<line clip-path="url(#clip212)" x1="1771.08" y1="160.256" x2="1787.08" y2="144.256" style="stroke:#008000; stroke-width:4; stroke-opacity:1"></line>
<line clip-path="url(#clip212)" x1="2293.23" y1="163.212" x2="2277.23" y2="147.212" style="stroke:#008000; stroke-width:4; stroke-opacity:1"></line>
<line clip-path="url(#clip212)" x1="2293.23" y1="163.212" x2="2277.23" y2="179.212" style="stroke:#008000; stroke-width:4; stroke-opacity:1"></line>
<line clip-path="url(#clip212)" x1="2293.23" y1="163.212" x2="2309.23" y2="179.212" style="stroke:#008000; stroke-width:4; stroke-opacity:1"></line>
<line clip-path="url(#clip212)" x1="2293.23" y1="163.212" x2="2309.23" y2="147.212" style="stroke:#008000; stroke-width:4; stroke-opacity:1"></line>
<polyline clip-path="url(#clip212)" style="stroke:#ffa500; stroke-linecap:round; stroke-linejoin:round; stroke-width:4; stroke-opacity:1; fill:none" points="309.067,469.986 413.497,314.994 622.356,233.653 935.645,196.382 1248.93,179.623 1771.08,177.572 2293.23,174.711 "></polyline>
<line clip-path="url(#clip212)" x1="309.067" y1="469.986" x2="293.067" y2="453.986" style="stroke:#ffa500; stroke-width:4; stroke-opacity:1"></line>
<line clip-path="url(#clip212)" x1="309.067" y1="469.986" x2="293.067" y2="485.986" style="stroke:#ffa500; stroke-width:4; stroke-opacity:1"></line>
<line clip-path="url(#clip212)" x1="309.067" y1="469.986" x2="325.067" y2="485.986" style="stroke:#ffa500; stroke-width:4; stroke-opacity:1"></line>
<line clip-path="url(#clip212)" x1="309.067" y1="469.986" x2="325.067" y2="453.986" style="stroke:#ffa500; stroke-width:4; stroke-opacity:1"></line>
<line clip-path="url(#clip212)" x1="413.497" y1="314.994" x2="397.497" y2="298.994" style="stroke:#ffa500; stroke-width:4; stroke-opacity:1"></line>
<line clip-path="url(#clip212)" x1="413.497" y1="314.994" x2="397.497" y2="330.994" style="stroke:#ffa500; stroke-width:4; stroke-opacity:1"></line>
<line clip-path="url(#clip212)" x1="413.497" y1="314.994" x2="429.497" y2="330.994" style="stroke:#ffa500; stroke-width:4; stroke-opacity:1"></line>
<line clip-path="url(#clip212)" x1="413.497" y1="314.994" x2="429.497" y2="298.994" style="stroke:#ffa500; stroke-width:4; stroke-opacity:1"></line>
<line clip-path="url(#clip212)" x1="622.356" y1="233.653" x2="606.356" y2="217.653" style="stroke:#ffa500; stroke-width:4; stroke-opacity:1"></line>
<line clip-path="url(#clip212)" x1="622.356" y1="233.653" x2="606.356" y2="249.653" style="stroke:#ffa500; stroke-width:4; stroke-opacity:1"></line>
<line clip-path="url(#clip212)" x1="622.356" y1="233.653" x2="638.356" y2="249.653" style="stroke:#ffa500; stroke-width:4; stroke-opacity:1"></line>
<line clip-path="url(#clip212)" x1="622.356" y1="233.653" x2="638.356" y2="217.653" style="stroke:#ffa500; stroke-width:4; stroke-opacity:1"></line>
<line clip-path="url(#clip212)" x1="935.645" y1="196.382" x2="919.645" y2="180.382" style="stroke:#ffa500; stroke-width:4; stroke-opacity:1"></line>
<line clip-path="url(#clip212)" x1="935.645" y1="196.382" x2="919.645" y2="212.382" style="stroke:#ffa500; stroke-width:4; stroke-opacity:1"></line>
<line clip-path="url(#clip212)" x1="935.645" y1="196.382" x2="951.645" y2="212.382" style="stroke:#ffa500; stroke-width:4; stroke-opacity:1"></line>
<line clip-path="url(#clip212)" x1="935.645" y1="196.382" x2="951.645" y2="180.382" style="stroke:#ffa500; stroke-width:4; stroke-opacity:1"></line>
<line clip-path="url(#clip212)" x1="1248.93" y1="179.623" x2="1232.93" y2="163.623" style="stroke:#ffa500; stroke-width:4; stroke-opacity:1"></line>
<line clip-path="url(#clip212)" x1="1248.93" y1="179.623" x2="1232.93" y2="195.623" style="stroke:#ffa500; stroke-width:4; stroke-opacity:1"></line>
<line clip-path="url(#clip212)" x1="1248.93" y1="179.623" x2="1264.93" y2="195.623" style="stroke:#ffa500; stroke-width:4; stroke-opacity:1"></line>
<line clip-path="url(#clip212)" x1="1248.93" y1="179.623" x2="1264.93" y2="163.623" style="stroke:#ffa500; stroke-width:4; stroke-opacity:1"></line>
<line clip-path="url(#clip212)" x1="1771.08" y1="177.572" x2="1755.08" y2="161.572" style="stroke:#ffa500; stroke-width:4; stroke-opacity:1"></line>
<line clip-path="url(#clip212)" x1="1771.08" y1="177.572" x2="1755.08" y2="193.572" style="stroke:#ffa500; stroke-width:4; stroke-opacity:1"></line>
<line clip-path="url(#clip212)" x1="1771.08" y1="177.572" x2="1787.08" y2="193.572" style="stroke:#ffa500; stroke-width:4; stroke-opacity:1"></line>
<line clip-path="url(#clip212)" x1="1771.08" y1="177.572" x2="1787.08" y2="161.572" style="stroke:#ffa500; stroke-width:4; stroke-opacity:1"></line>
<line clip-path="url(#clip212)" x1="2293.23" y1="174.711" x2="2277.23" y2="158.711" style="stroke:#ffa500; stroke-width:4; stroke-opacity:1"></line>
<line clip-path="url(#clip212)" x1="2293.23" y1="174.711" x2="2277.23" y2="190.711" style="stroke:#ffa500; stroke-width:4; stroke-opacity:1"></line>
<line clip-path="url(#clip212)" x1="2293.23" y1="174.711" x2="2309.23" y2="190.711" style="stroke:#ffa500; stroke-width:4; stroke-opacity:1"></line>
<line clip-path="url(#clip212)" x1="2293.23" y1="174.711" x2="2309.23" y2="158.711" style="stroke:#ffa500; stroke-width:4; stroke-opacity:1"></line>
<path clip-path="url(#clip210)" d="M1890.68 1379.86 L2282.65 1379.86 L2282.65 1120.66 L1890.68 1120.66  Z" fill="#ffffff" fill-rule="evenodd" fill-opacity="1"></path>
<polyline clip-path="url(#clip210)" style="stroke:#000000; stroke-linecap:round; stroke-linejoin:round; stroke-width:4; stroke-opacity:1; fill:none" points="1890.68,1379.86 2282.65,1379.86 2282.65,1120.66 1890.68,1120.66 1890.68,1379.86 "></polyline>
<polyline clip-path="url(#clip210)" style="stroke:#800080; stroke-linecap:round; stroke-linejoin:round; stroke-width:4; stroke-opacity:1; fill:none" points="1914.05,1172.5 2054.27,1172.5 "></polyline>
<line clip-path="url(#clip210)" x1="1984.16" y1="1172.5" x2="1962.52" y2="1150.86" style="stroke:#800080; stroke-width:4.55111; stroke-opacity:1"></line>
<line clip-path="url(#clip210)" x1="1984.16" y1="1172.5" x2="1962.52" y2="1194.13" style="stroke:#800080; stroke-width:4.55111; stroke-opacity:1"></line>
<line clip-path="url(#clip210)" x1="1984.16" y1="1172.5" x2="2005.8" y2="1194.13" style="stroke:#800080; stroke-width:4.55111; stroke-opacity:1"></line>
<line clip-path="url(#clip210)" x1="1984.16" y1="1172.5" x2="2005.8" y2="1150.86" style="stroke:#800080; stroke-width:4.55111; stroke-opacity:1"></line>
<path clip-path="url(#clip210)" d="M2082.31 1159.06 L2082.31 1185.93 L2087.96 1185.93 Q2095.11 1185.93 2098.42 1182.69 Q2101.76 1179.45 2101.76 1172.46 Q2101.76 1165.52 2098.42 1162.3 Q2095.11 1159.06 2087.96 1159.06 L2082.31 1159.06 M2077.64 1155.22 L2087.24 1155.22 Q2097.29 1155.22 2101.99 1159.41 Q2106.69 1163.57 2106.69 1172.46 Q2106.69 1181.4 2101.97 1185.59 Q2097.24 1189.78 2087.24 1189.78 L2077.64 1189.78 L2077.64 1155.22 Z" fill="#000000" fill-rule="nonzero" fill-opacity="1"></path><path clip-path="url(#clip210)" d="M2136.13 1175.75 L2136.13 1177.83 L2116.55 1177.83 Q2116.83 1182.23 2119.19 1184.54 Q2121.57 1186.84 2125.81 1186.84 Q2128.26 1186.84 2130.55 1186.23 Q2132.87 1185.63 2135.14 1184.43 L2135.14 1188.46 Q2132.85 1189.43 2130.44 1189.94 Q2128.03 1190.45 2125.55 1190.45 Q2119.35 1190.45 2115.72 1186.84 Q2112.1 1183.23 2112.1 1177.07 Q2112.1 1170.7 2115.53 1166.98 Q2118.98 1163.23 2124.81 1163.23 Q2130.04 1163.23 2133.08 1166.61 Q2136.13 1169.96 2136.13 1175.75 M2131.87 1174.5 Q2131.83 1171 2129.91 1168.92 Q2128.01 1166.84 2124.86 1166.84 Q2121.29 1166.84 2119.14 1168.85 Q2117.01 1170.86 2116.69 1174.52 L2131.87 1174.5 Z" fill="#000000" fill-rule="nonzero" fill-opacity="1"></path><path clip-path="url(#clip210)" d="M2147.24 1185.89 L2147.24 1199.64 L2142.96 1199.64 L2142.96 1163.85 L2147.24 1163.85 L2147.24 1167.79 Q2148.59 1165.47 2150.62 1164.36 Q2152.68 1163.23 2155.53 1163.23 Q2160.25 1163.23 2163.19 1166.98 Q2166.16 1170.73 2166.16 1176.84 Q2166.16 1182.95 2163.19 1186.7 Q2160.25 1190.45 2155.53 1190.45 Q2152.68 1190.45 2150.62 1189.34 Q2148.59 1188.2 2147.24 1185.89 M2161.73 1176.84 Q2161.73 1172.14 2159.79 1169.48 Q2157.87 1166.79 2154.49 1166.79 Q2151.11 1166.79 2149.16 1169.48 Q2147.24 1172.14 2147.24 1176.84 Q2147.24 1181.54 2149.16 1184.22 Q2151.11 1186.88 2154.49 1186.88 Q2157.87 1186.88 2159.79 1184.22 Q2161.73 1181.54 2161.73 1176.84 Z" fill="#000000" fill-rule="nonzero" fill-opacity="1"></path><path clip-path="url(#clip210)" d="M2177.43 1156.49 L2177.43 1163.85 L2186.2 1163.85 L2186.2 1167.16 L2177.43 1167.16 L2177.43 1181.23 Q2177.43 1184.41 2178.28 1185.31 Q2179.16 1186.21 2181.83 1186.21 L2186.2 1186.21 L2186.2 1189.78 L2181.83 1189.78 Q2176.9 1189.78 2175.02 1187.95 Q2173.15 1186.1 2173.15 1181.23 L2173.15 1167.16 L2170.02 1167.16 L2170.02 1163.85 L2173.15 1163.85 L2173.15 1156.49 L2177.43 1156.49 Z" fill="#000000" fill-rule="nonzero" fill-opacity="1"></path><path clip-path="url(#clip210)" d="M2213.35 1174.13 L2213.35 1189.78 L2209.09 1189.78 L2209.09 1174.27 Q2209.09 1170.59 2207.66 1168.76 Q2206.22 1166.93 2203.35 1166.93 Q2199.91 1166.93 2197.91 1169.13 Q2195.92 1171.33 2195.92 1175.12 L2195.92 1189.78 L2191.64 1189.78 L2191.64 1153.76 L2195.92 1153.76 L2195.92 1167.88 Q2197.45 1165.54 2199.51 1164.38 Q2201.59 1163.23 2204.3 1163.23 Q2208.77 1163.23 2211.06 1166 Q2213.35 1168.76 2213.35 1174.13 Z" fill="#000000" fill-rule="nonzero" fill-opacity="1"></path><path clip-path="url(#clip210)" d="M2251.69 1171.14 Q2255.04 1171.86 2256.92 1174.13 Q2258.82 1176.4 2258.82 1179.73 Q2258.82 1184.85 2255.3 1187.65 Q2251.78 1190.45 2245.3 1190.45 Q2243.12 1190.45 2240.81 1190.01 Q2238.52 1189.59 2236.06 1188.73 L2236.06 1184.22 Q2238.01 1185.35 2240.32 1185.93 Q2242.64 1186.51 2245.16 1186.51 Q2249.56 1186.51 2251.85 1184.78 Q2254.16 1183.04 2254.16 1179.73 Q2254.16 1176.67 2252.01 1174.96 Q2249.88 1173.23 2246.06 1173.23 L2242.03 1173.23 L2242.03 1169.38 L2246.25 1169.38 Q2249.7 1169.38 2251.53 1168.02 Q2253.35 1166.63 2253.35 1164.04 Q2253.35 1161.37 2251.46 1159.96 Q2249.58 1158.53 2246.06 1158.53 Q2244.14 1158.53 2241.94 1158.94 Q2239.74 1159.36 2237.1 1160.24 L2237.1 1156.07 Q2239.77 1155.33 2242.08 1154.96 Q2244.42 1154.59 2246.48 1154.59 Q2251.8 1154.59 2254.9 1157.02 Q2258.01 1159.43 2258.01 1163.55 Q2258.01 1166.42 2256.36 1168.41 Q2254.72 1170.38 2251.69 1171.14 Z" fill="#000000" fill-rule="nonzero" fill-opacity="1"></path><polyline clip-path="url(#clip210)" style="stroke:#0000ff; stroke-linecap:round; stroke-linejoin:round; stroke-width:4; stroke-opacity:1; fill:none" points="1914.05,1224.34 2054.27,1224.34 "></polyline>
<line clip-path="url(#clip210)" x1="1984.16" y1="1224.34" x2="1962.52" y2="1202.7" style="stroke:#0000ff; stroke-width:4.55111; stroke-opacity:1"></line>
<line clip-path="url(#clip210)" x1="1984.16" y1="1224.34" x2="1962.52" y2="1245.97" style="stroke:#0000ff; stroke-width:4.55111; stroke-opacity:1"></line>
<line clip-path="url(#clip210)" x1="1984.16" y1="1224.34" x2="2005.8" y2="1245.97" style="stroke:#0000ff; stroke-width:4.55111; stroke-opacity:1"></line>
<line clip-path="url(#clip210)" x1="1984.16" y1="1224.34" x2="2005.8" y2="1202.7" style="stroke:#0000ff; stroke-width:4.55111; stroke-opacity:1"></line>
<path clip-path="url(#clip210)" d="M2082.31 1210.9 L2082.31 1237.77 L2087.96 1237.77 Q2095.11 1237.77 2098.42 1234.53 Q2101.76 1231.29 2101.76 1224.3 Q2101.76 1217.36 2098.42 1214.14 Q2095.11 1210.9 2087.96 1210.9 L2082.31 1210.9 M2077.64 1207.06 L2087.24 1207.06 Q2097.29 1207.06 2101.99 1211.25 Q2106.69 1215.41 2106.69 1224.3 Q2106.69 1233.24 2101.97 1237.43 Q2097.24 1241.62 2087.24 1241.62 L2077.64 1241.62 L2077.64 1207.06 Z" fill="#000000" fill-rule="nonzero" fill-opacity="1"></path><path clip-path="url(#clip210)" d="M2136.13 1227.59 L2136.13 1229.67 L2116.55 1229.67 Q2116.83 1234.07 2119.19 1236.38 Q2121.57 1238.68 2125.81 1238.68 Q2128.26 1238.68 2130.55 1238.07 Q2132.87 1237.47 2135.14 1236.27 L2135.14 1240.3 Q2132.85 1241.27 2130.44 1241.78 Q2128.03 1242.29 2125.55 1242.29 Q2119.35 1242.29 2115.72 1238.68 Q2112.1 1235.07 2112.1 1228.91 Q2112.1 1222.54 2115.53 1218.82 Q2118.98 1215.07 2124.81 1215.07 Q2130.04 1215.07 2133.08 1218.45 Q2136.13 1221.8 2136.13 1227.59 M2131.87 1226.34 Q2131.83 1222.84 2129.91 1220.76 Q2128.01 1218.68 2124.86 1218.68 Q2121.29 1218.68 2119.14 1220.69 Q2117.01 1222.7 2116.69 1226.36 L2131.87 1226.34 Z" fill="#000000" fill-rule="nonzero" fill-opacity="1"></path><path clip-path="url(#clip210)" d="M2147.24 1237.73 L2147.24 1251.48 L2142.96 1251.48 L2142.96 1215.69 L2147.24 1215.69 L2147.24 1219.63 Q2148.59 1217.31 2150.62 1216.2 Q2152.68 1215.07 2155.53 1215.07 Q2160.25 1215.07 2163.19 1218.82 Q2166.16 1222.57 2166.16 1228.68 Q2166.16 1234.79 2163.19 1238.54 Q2160.25 1242.29 2155.53 1242.29 Q2152.68 1242.29 2150.62 1241.18 Q2148.59 1240.04 2147.24 1237.73 M2161.73 1228.68 Q2161.73 1223.98 2159.79 1221.32 Q2157.87 1218.63 2154.49 1218.63 Q2151.11 1218.63 2149.16 1221.32 Q2147.24 1223.98 2147.24 1228.68 Q2147.24 1233.38 2149.16 1236.06 Q2151.11 1238.72 2154.49 1238.72 Q2157.87 1238.72 2159.79 1236.06 Q2161.73 1233.38 2161.73 1228.68 Z" fill="#000000" fill-rule="nonzero" fill-opacity="1"></path><path clip-path="url(#clip210)" d="M2177.43 1208.33 L2177.43 1215.69 L2186.2 1215.69 L2186.2 1219 L2177.43 1219 L2177.43 1233.07 Q2177.43 1236.25 2178.28 1237.15 Q2179.16 1238.05 2181.83 1238.05 L2186.2 1238.05 L2186.2 1241.62 L2181.83 1241.62 Q2176.9 1241.62 2175.02 1239.79 Q2173.15 1237.94 2173.15 1233.07 L2173.15 1219 L2170.02 1219 L2170.02 1215.69 L2173.15 1215.69 L2173.15 1208.33 L2177.43 1208.33 Z" fill="#000000" fill-rule="nonzero" fill-opacity="1"></path><path clip-path="url(#clip210)" d="M2213.35 1225.97 L2213.35 1241.62 L2209.09 1241.62 L2209.09 1226.11 Q2209.09 1222.43 2207.66 1220.6 Q2206.22 1218.77 2203.35 1218.77 Q2199.91 1218.77 2197.91 1220.97 Q2195.92 1223.17 2195.92 1226.96 L2195.92 1241.62 L2191.64 1241.62 L2191.64 1205.6 L2195.92 1205.6 L2195.92 1219.72 Q2197.45 1217.38 2199.51 1216.22 Q2201.59 1215.07 2204.3 1215.07 Q2208.77 1215.07 2211.06 1217.84 Q2213.35 1220.6 2213.35 1225.97 Z" fill="#000000" fill-rule="nonzero" fill-opacity="1"></path><path clip-path="url(#clip210)" d="M2237.57 1207.06 L2255.92 1207.06 L2255.92 1210.99 L2241.85 1210.99 L2241.85 1219.46 Q2242.87 1219.12 2243.89 1218.95 Q2244.9 1218.77 2245.92 1218.77 Q2251.71 1218.77 2255.09 1221.94 Q2258.47 1225.11 2258.47 1230.53 Q2258.47 1236.11 2255 1239.21 Q2251.53 1242.29 2245.21 1242.29 Q2243.03 1242.29 2240.76 1241.92 Q2238.52 1241.55 2236.11 1240.81 L2236.11 1236.11 Q2238.19 1237.24 2240.41 1237.8 Q2242.64 1238.35 2245.11 1238.35 Q2249.12 1238.35 2251.46 1236.25 Q2253.79 1234.14 2253.79 1230.53 Q2253.79 1226.92 2251.46 1224.81 Q2249.12 1222.7 2245.11 1222.7 Q2243.24 1222.7 2241.36 1223.12 Q2239.51 1223.54 2237.57 1224.42 L2237.57 1207.06 Z" fill="#000000" fill-rule="nonzero" fill-opacity="1"></path><polyline clip-path="url(#clip210)" style="stroke:#008000; stroke-linecap:round; stroke-linejoin:round; stroke-width:4; stroke-opacity:1; fill:none" points="1914.05,1276.18 2054.27,1276.18 "></polyline>
<line clip-path="url(#clip210)" x1="1984.16" y1="1276.18" x2="1962.52" y2="1254.54" style="stroke:#008000; stroke-width:4.55111; stroke-opacity:1"></line>
<line clip-path="url(#clip210)" x1="1984.16" y1="1276.18" x2="1962.52" y2="1297.81" style="stroke:#008000; stroke-width:4.55111; stroke-opacity:1"></line>
<line clip-path="url(#clip210)" x1="1984.16" y1="1276.18" x2="2005.8" y2="1297.81" style="stroke:#008000; stroke-width:4.55111; stroke-opacity:1"></line>
<line clip-path="url(#clip210)" x1="1984.16" y1="1276.18" x2="2005.8" y2="1254.54" style="stroke:#008000; stroke-width:4.55111; stroke-opacity:1"></line>
<path clip-path="url(#clip210)" d="M2082.31 1262.74 L2082.31 1289.61 L2087.96 1289.61 Q2095.11 1289.61 2098.42 1286.37 Q2101.76 1283.13 2101.76 1276.14 Q2101.76 1269.2 2098.42 1265.98 Q2095.11 1262.74 2087.96 1262.74 L2082.31 1262.74 M2077.64 1258.9 L2087.24 1258.9 Q2097.29 1258.9 2101.99 1263.09 Q2106.69 1267.25 2106.69 1276.14 Q2106.69 1285.08 2101.97 1289.27 Q2097.24 1293.46 2087.24 1293.46 L2077.64 1293.46 L2077.64 1258.9 Z" fill="#000000" fill-rule="nonzero" fill-opacity="1"></path><path clip-path="url(#clip210)" d="M2136.13 1279.43 L2136.13 1281.51 L2116.55 1281.51 Q2116.83 1285.91 2119.19 1288.22 Q2121.57 1290.52 2125.81 1290.52 Q2128.26 1290.52 2130.55 1289.91 Q2132.87 1289.31 2135.14 1288.11 L2135.14 1292.14 Q2132.85 1293.11 2130.44 1293.62 Q2128.03 1294.13 2125.55 1294.13 Q2119.35 1294.13 2115.72 1290.52 Q2112.1 1286.91 2112.1 1280.75 Q2112.1 1274.38 2115.53 1270.66 Q2118.98 1266.91 2124.81 1266.91 Q2130.04 1266.91 2133.08 1270.29 Q2136.13 1273.64 2136.13 1279.43 M2131.87 1278.18 Q2131.83 1274.68 2129.91 1272.6 Q2128.01 1270.52 2124.86 1270.52 Q2121.29 1270.52 2119.14 1272.53 Q2117.01 1274.54 2116.69 1278.2 L2131.87 1278.18 Z" fill="#000000" fill-rule="nonzero" fill-opacity="1"></path><path clip-path="url(#clip210)" d="M2147.24 1289.57 L2147.24 1303.32 L2142.96 1303.32 L2142.96 1267.53 L2147.24 1267.53 L2147.24 1271.47 Q2148.59 1269.15 2150.62 1268.04 Q2152.68 1266.91 2155.53 1266.91 Q2160.25 1266.91 2163.19 1270.66 Q2166.16 1274.41 2166.16 1280.52 Q2166.16 1286.63 2163.19 1290.38 Q2160.25 1294.13 2155.53 1294.13 Q2152.68 1294.13 2150.62 1293.02 Q2148.59 1291.88 2147.24 1289.57 M2161.73 1280.52 Q2161.73 1275.82 2159.79 1273.16 Q2157.87 1270.47 2154.49 1270.47 Q2151.11 1270.47 2149.16 1273.16 Q2147.24 1275.82 2147.24 1280.52 Q2147.24 1285.22 2149.16 1287.9 Q2151.11 1290.56 2154.49 1290.56 Q2157.87 1290.56 2159.79 1287.9 Q2161.73 1285.22 2161.73 1280.52 Z" fill="#000000" fill-rule="nonzero" fill-opacity="1"></path><path clip-path="url(#clip210)" d="M2177.43 1260.17 L2177.43 1267.53 L2186.2 1267.53 L2186.2 1270.84 L2177.43 1270.84 L2177.43 1284.91 Q2177.43 1288.09 2178.28 1288.99 Q2179.16 1289.89 2181.83 1289.89 L2186.2 1289.89 L2186.2 1293.46 L2181.83 1293.46 Q2176.9 1293.46 2175.02 1291.63 Q2173.15 1289.78 2173.15 1284.91 L2173.15 1270.84 L2170.02 1270.84 L2170.02 1267.53 L2173.15 1267.53 L2173.15 1260.17 L2177.43 1260.17 Z" fill="#000000" fill-rule="nonzero" fill-opacity="1"></path><path clip-path="url(#clip210)" d="M2213.35 1277.81 L2213.35 1293.46 L2209.09 1293.46 L2209.09 1277.95 Q2209.09 1274.27 2207.66 1272.44 Q2206.22 1270.61 2203.35 1270.61 Q2199.91 1270.61 2197.91 1272.81 Q2195.92 1275.01 2195.92 1278.8 L2195.92 1293.46 L2191.64 1293.46 L2191.64 1257.44 L2195.92 1257.44 L2195.92 1271.56 Q2197.45 1269.22 2199.51 1268.06 Q2201.59 1266.91 2204.3 1266.91 Q2208.77 1266.91 2211.06 1269.68 Q2213.35 1272.44 2213.35 1277.81 Z" fill="#000000" fill-rule="nonzero" fill-opacity="1"></path><path clip-path="url(#clip210)" d="M2236.34 1258.9 L2258.56 1258.9 L2258.56 1260.89 L2246.02 1293.46 L2241.13 1293.46 L2252.94 1262.83 L2236.34 1262.83 L2236.34 1258.9 Z" fill="#000000" fill-rule="nonzero" fill-opacity="1"></path><polyline clip-path="url(#clip210)" style="stroke:#ffa500; stroke-linecap:round; stroke-linejoin:round; stroke-width:4; stroke-opacity:1; fill:none" points="1914.05,1328.02 2054.27,1328.02 "></polyline>
<line clip-path="url(#clip210)" x1="1984.16" y1="1328.02" x2="1962.52" y2="1306.38" style="stroke:#ffa500; stroke-width:4.55111; stroke-opacity:1"></line>
<line clip-path="url(#clip210)" x1="1984.16" y1="1328.02" x2="1962.52" y2="1349.65" style="stroke:#ffa500; stroke-width:4.55111; stroke-opacity:1"></line>
<line clip-path="url(#clip210)" x1="1984.16" y1="1328.02" x2="2005.8" y2="1349.65" style="stroke:#ffa500; stroke-width:4.55111; stroke-opacity:1"></line>
<line clip-path="url(#clip210)" x1="1984.16" y1="1328.02" x2="2005.8" y2="1306.38" style="stroke:#ffa500; stroke-width:4.55111; stroke-opacity:1"></line>
<path clip-path="url(#clip210)" d="M2082.31 1314.58 L2082.31 1341.45 L2087.96 1341.45 Q2095.11 1341.45 2098.42 1338.21 Q2101.76 1334.97 2101.76 1327.98 Q2101.76 1321.04 2098.42 1317.82 Q2095.11 1314.58 2087.96 1314.58 L2082.31 1314.58 M2077.64 1310.74 L2087.24 1310.74 Q2097.29 1310.74 2101.99 1314.93 Q2106.69 1319.09 2106.69 1327.98 Q2106.69 1336.92 2101.97 1341.11 Q2097.24 1345.3 2087.24 1345.3 L2077.64 1345.3 L2077.64 1310.74 Z" fill="#000000" fill-rule="nonzero" fill-opacity="1"></path><path clip-path="url(#clip210)" d="M2136.13 1331.27 L2136.13 1333.35 L2116.55 1333.35 Q2116.83 1337.75 2119.19 1340.06 Q2121.57 1342.36 2125.81 1342.36 Q2128.26 1342.36 2130.55 1341.75 Q2132.87 1341.15 2135.14 1339.95 L2135.14 1343.98 Q2132.85 1344.95 2130.44 1345.46 Q2128.03 1345.97 2125.55 1345.97 Q2119.35 1345.97 2115.72 1342.36 Q2112.1 1338.75 2112.1 1332.59 Q2112.1 1326.22 2115.53 1322.5 Q2118.98 1318.75 2124.81 1318.75 Q2130.04 1318.75 2133.08 1322.13 Q2136.13 1325.48 2136.13 1331.27 M2131.87 1330.02 Q2131.83 1326.52 2129.91 1324.44 Q2128.01 1322.36 2124.86 1322.36 Q2121.29 1322.36 2119.14 1324.37 Q2117.01 1326.38 2116.69 1330.04 L2131.87 1330.02 Z" fill="#000000" fill-rule="nonzero" fill-opacity="1"></path><path clip-path="url(#clip210)" d="M2147.24 1341.41 L2147.24 1355.16 L2142.96 1355.16 L2142.96 1319.37 L2147.24 1319.37 L2147.24 1323.31 Q2148.59 1320.99 2150.62 1319.88 Q2152.68 1318.75 2155.53 1318.75 Q2160.25 1318.75 2163.19 1322.5 Q2166.16 1326.25 2166.16 1332.36 Q2166.16 1338.47 2163.19 1342.22 Q2160.25 1345.97 2155.53 1345.97 Q2152.68 1345.97 2150.62 1344.86 Q2148.59 1343.72 2147.24 1341.41 M2161.73 1332.36 Q2161.73 1327.66 2159.79 1325 Q2157.87 1322.31 2154.49 1322.31 Q2151.11 1322.31 2149.16 1325 Q2147.24 1327.66 2147.24 1332.36 Q2147.24 1337.06 2149.16 1339.74 Q2151.11 1342.4 2154.49 1342.4 Q2157.87 1342.4 2159.79 1339.74 Q2161.73 1337.06 2161.73 1332.36 Z" fill="#000000" fill-rule="nonzero" fill-opacity="1"></path><path clip-path="url(#clip210)" d="M2177.43 1312.01 L2177.43 1319.37 L2186.2 1319.37 L2186.2 1322.68 L2177.43 1322.68 L2177.43 1336.75 Q2177.43 1339.93 2178.28 1340.83 Q2179.16 1341.73 2181.83 1341.73 L2186.2 1341.73 L2186.2 1345.3 L2181.83 1345.3 Q2176.9 1345.3 2175.02 1343.47 Q2173.15 1341.62 2173.15 1336.75 L2173.15 1322.68 L2170.02 1322.68 L2170.02 1319.37 L2173.15 1319.37 L2173.15 1312.01 L2177.43 1312.01 Z" fill="#000000" fill-rule="nonzero" fill-opacity="1"></path><path clip-path="url(#clip210)" d="M2213.35 1329.65 L2213.35 1345.3 L2209.09 1345.3 L2209.09 1329.79 Q2209.09 1326.11 2207.66 1324.28 Q2206.22 1322.45 2203.35 1322.45 Q2199.91 1322.45 2197.91 1324.65 Q2195.92 1326.85 2195.92 1330.64 L2195.92 1345.3 L2191.64 1345.3 L2191.64 1309.28 L2195.92 1309.28 L2195.92 1323.4 Q2197.45 1321.06 2199.51 1319.9 Q2201.59 1318.75 2204.3 1318.75 Q2208.77 1318.75 2211.06 1321.52 Q2213.35 1324.28 2213.35 1329.65 Z" fill="#000000" fill-rule="nonzero" fill-opacity="1"></path><path clip-path="url(#clip210)" d="M2237.66 1344.58 L2237.66 1340.32 Q2239.42 1341.15 2241.22 1341.59 Q2243.03 1342.03 2244.77 1342.03 Q2249.4 1342.03 2251.83 1338.93 Q2254.28 1335.81 2254.63 1329.46 Q2253.28 1331.45 2251.22 1332.52 Q2249.16 1333.58 2246.66 1333.58 Q2241.48 1333.58 2238.45 1330.46 Q2235.44 1327.31 2235.44 1321.87 Q2235.44 1316.55 2238.59 1313.33 Q2241.73 1310.11 2246.96 1310.11 Q2252.96 1310.11 2256.11 1314.72 Q2259.28 1319.3 2259.28 1328.05 Q2259.28 1336.22 2255.39 1341.11 Q2251.53 1345.97 2244.97 1345.97 Q2243.22 1345.97 2241.41 1345.62 Q2239.6 1345.27 2237.66 1344.58 M2246.96 1329.93 Q2250.11 1329.93 2251.94 1327.77 Q2253.79 1325.62 2253.79 1321.87 Q2253.79 1318.14 2251.94 1315.99 Q2250.11 1313.81 2246.96 1313.81 Q2243.82 1313.81 2241.97 1315.99 Q2240.14 1318.14 2240.14 1321.87 Q2240.14 1325.62 2241.97 1327.77 Q2243.82 1329.93 2246.96 1329.93 Z" fill="#000000" fill-rule="nonzero" fill-opacity="1"></path></svg>