<svg xmlns="http://www.w3.org/2000/svg" xmlns:xlink="http://www.w3.org/1999/xlink" width="600" height="400" viewBox="0 0 2400 1600">
<defs>
  <clipPath id="clip190">
    <rect x="0" y="0" width="2400" height="1600"></rect>
  </clipPath>
</defs>
<path clip-path="url(#clip190)" d="M0 1600 L2400 1600 L2400 0 L0 0  Z" fill="#ffffff" fill-rule="evenodd" fill-opacity="1"></path>
<defs>
  <clipPath id="clip191">
    <rect x="480" y="0" width="1681" height="1600"></rect>
  </clipPath>
</defs>
<path clip-path="url(#clip190)" d="M249.542 1423.18 L2352.76 1423.18 L2352.76 123.472 L249.542 123.472  Z" fill="#ffffff" fill-rule="evenodd" fill-opacity="1"></path>
<defs>
  <clipPath id="clip192">
    <rect x="249" y="123" width="2104" height="1301"></rect>
  </clipPath>
</defs>
<polyline clip-path="url(#clip192)" style="stroke:#000000; stroke-linecap:round; stroke-linejoin:round; stroke-width:2; stroke-opacity:0.1; fill:none" points="622.356,1423.18 622.356,123.472 "></polyline>
<polyline clip-path="url(#clip192)" style="stroke:#000000; stroke-linecap:round; stroke-linejoin:round; stroke-width:2; stroke-opacity:0.1; fill:none" points="1040.07,1423.18 1040.07,123.472 "></polyline>
<polyline clip-path="url(#clip192)" style="stroke:#000000; stroke-linecap:round; stroke-linejoin:round; stroke-width:2; stroke-opacity:0.1; fill:none" points="1457.79,1423.18 1457.79,123.472 "></polyline>
<polyline clip-path="url(#clip192)" style="stroke:#000000; stroke-linecap:round; stroke-linejoin:round; stroke-width:2; stroke-opacity:0.1; fill:none" points="1875.51,1423.18 1875.51,123.472 "></polyline>
<polyline clip-path="url(#clip192)" style="stroke:#000000; stroke-linecap:round; stroke-linejoin:round; stroke-width:2; stroke-opacity:0.1; fill:none" points="2293.23,1423.18 2293.23,123.472 "></polyline>
<polyline clip-path="url(#clip190)" style="stroke:#000000; stroke-linecap:round; stroke-linejoin:round; stroke-width:4; stroke-opacity:1; fill:none" points="249.542,1423.18 2352.76,1423.18 "></polyline>
<polyline clip-path="url(#clip190)" style="stroke:#000000; stroke-linecap:round; stroke-linejoin:round; stroke-width:4; stroke-opacity:1; fill:none" points="622.356,1423.18 622.356,1404.28 "></polyline>
<polyline clip-path="url(#clip190)" style="stroke:#000000; stroke-linecap:round; stroke-linejoin:round; stroke-width:4; stroke-opacity:1; fill:none" points="1040.07,1423.18 1040.07,1404.28 "></polyline>
<polyline clip-path="url(#clip190)" style="stroke:#000000; stroke-linecap:round; stroke-linejoin:round; stroke-width:4; stroke-opacity:1; fill:none" points="1457.79,1423.18 1457.79,1404.28 "></polyline>
<polyline clip-path="url(#clip190)" style="stroke:#000000; stroke-linecap:round; stroke-linejoin:round; stroke-width:4; stroke-opacity:1; fill:none" points="1875.51,1423.18 1875.51,1404.28 "></polyline>
<polyline clip-path="url(#clip190)" style="stroke:#000000; stroke-linecap:round; stroke-linejoin:round; stroke-width:4; stroke-opacity:1; fill:none" points="2293.23,1423.18 2293.23,1404.28 "></polyline>
<path clip-path="url(#clip190)" d="M586.048 1481.64 L602.368 1481.64 L602.368 1485.58 L580.423 1485.58 L580.423 1481.64 Q583.085 1478.89 587.669 1474.26 Q592.275 1469.61 593.456 1468.27 Q595.701 1465.74 596.581 1464.01 Q597.483 1462.25 597.483 1460.56 Q597.483 1457.8 595.539 1456.07 Q593.618 1454.33 590.516 1454.33 Q588.317 1454.33 585.863 1455.09 Q583.433 1455.86 580.655 1457.41 L580.655 1452.69 Q583.479 1451.55 585.933 1450.97 Q588.386 1450.39 590.423 1450.39 Q595.794 1450.39 598.988 1453.08 Q602.183 1455.77 602.183 1460.26 Q602.183 1462.39 601.372 1464.31 Q600.585 1466.2 598.479 1468.8 Q597.9 1469.47 594.798 1472.69 Q591.696 1475.88 586.048 1481.64 Z" fill="#000000" fill-rule="nonzero" fill-opacity="1"></path><path clip-path="url(#clip190)" d="M622.182 1454.1 Q618.571 1454.1 616.743 1457.66 Q614.937 1461.2 614.937 1468.33 Q614.937 1475.44 616.743 1479.01 Q618.571 1482.55 622.182 1482.55 Q625.817 1482.55 627.622 1479.01 Q629.451 1475.44 629.451 1468.33 Q629.451 1461.2 627.622 1457.66 Q625.817 1454.1 622.182 1454.1 M622.182 1450.39 Q627.993 1450.39 631.048 1455 Q634.127 1459.58 634.127 1468.33 Q634.127 1477.06 631.048 1481.67 Q627.993 1486.25 622.182 1486.25 Q616.372 1486.25 613.294 1481.67 Q610.238 1477.06 610.238 1468.33 Q610.238 1459.58 613.294 1455 Q616.372 1450.39 622.182 1450.39 Z" fill="#000000" fill-rule="nonzero" fill-opacity="1"></path><path clip-path="url(#clip190)" d="M652.344 1454.1 Q648.733 1454.1 646.904 1457.66 Q645.099 1461.2 645.099 1468.33 Q645.099 1475.44 646.904 1479.01 Q648.733 1482.55 652.344 1482.55 Q655.979 1482.55 657.784 1479.01 Q659.613 1475.44 659.613 1468.33 Q659.613 1461.2 657.784 1457.66 Q655.979 1454.1 652.344 1454.1 M652.344 1450.39 Q658.154 1450.39 661.21 1455 Q664.289 1459.58 664.289 1468.33 Q664.289 1477.06 661.21 1481.67 Q658.154 1486.25 652.344 1486.25 Q646.534 1486.25 643.455 1481.67 Q640.4 1477.06 640.4 1468.33 Q640.4 1459.58 643.455 1455 Q646.534 1450.39 652.344 1450.39 Z" fill="#000000" fill-rule="nonzero" fill-opacity="1"></path><path clip-path="url(#clip190)" d="M1013.17 1455.09 L1001.36 1473.54 L1013.17 1473.54 L1013.17 1455.09 M1011.94 1451.02 L1017.82 1451.02 L1017.82 1473.54 L1022.75 1473.54 L1022.75 1477.43 L1017.82 1477.43 L1017.82 1485.58 L1013.17 1485.58 L1013.17 1477.43 L997.563 1477.43 L997.563 1472.92 L1011.94 1451.02 Z" fill="#000000" fill-rule="nonzero" fill-opacity="1"></path><path clip-path="url(#clip190)" d="M1040.48 1454.1 Q1036.87 1454.1 1035.04 1457.66 Q1033.23 1461.2 1033.23 1468.33 Q1033.23 1475.44 1035.04 1479.01 Q1036.87 1482.55 1040.48 1482.55 Q1044.11 1482.55 1045.92 1479.01 Q1047.75 1475.44 1047.75 1468.33 Q1047.75 1461.2 1045.92 1457.66 Q1044.11 1454.1 1040.48 1454.1 M1040.48 1450.39 Q1046.29 1450.39 1049.35 1455 Q1052.42 1459.58 1052.42 1468.33 Q1052.42 1477.06 1049.35 1481.67 Q1046.29 1486.25 1040.48 1486.25 Q1034.67 1486.25 1031.59 1481.67 Q1028.54 1477.06 1028.54 1468.33 Q1028.54 1459.58 1031.59 1455 Q1034.67 1450.39 1040.48 1450.39 Z" fill="#000000" fill-rule="nonzero" fill-opacity="1"></path><path clip-path="url(#clip190)" d="M1070.64 1454.1 Q1067.03 1454.1 1065.2 1457.66 Q1063.4 1461.2 1063.4 1468.33 Q1063.4 1475.44 1065.2 1479.01 Q1067.03 1482.55 1070.64 1482.55 Q1074.28 1482.55 1076.08 1479.01 Q1077.91 1475.44 1077.91 1468.33 Q1077.91 1461.2 1076.08 1457.66 Q1074.28 1454.1 1070.64 1454.1 M1070.64 1450.39 Q1076.45 1450.39 1079.51 1455 Q1082.59 1459.58 1082.59 1468.33 Q1082.59 1477.06 1079.51 1481.67 Q1076.45 1486.25 1070.64 1486.25 Q1064.83 1486.25 1061.75 1481.67 Q1058.7 1477.06 1058.7 1468.33 Q1058.7 1459.58 1061.75 1455 Q1064.83 1450.39 1070.64 1450.39 Z" fill="#000000" fill-rule="nonzero" fill-opacity="1"></path><path clip-path="url(#clip190)" d="M1428.12 1466.44 Q1424.97 1466.44 1423.12 1468.59 Q1421.29 1470.74 1421.29 1474.49 Q1421.29 1478.22 1423.12 1480.39 Q1424.97 1482.55 1428.12 1482.55 Q1431.27 1482.55 1433.09 1480.39 Q1434.95 1478.22 1434.95 1474.49 Q1434.95 1470.74 1433.09 1468.59 Q1431.27 1466.44 1428.12 1466.44 M1437.4 1451.78 L1437.4 1456.04 Q1435.64 1455.21 1433.84 1454.77 Q1432.05 1454.33 1430.29 1454.33 Q1425.66 1454.33 1423.21 1457.45 Q1420.78 1460.58 1420.43 1466.9 Q1421.8 1464.89 1423.86 1463.82 Q1425.92 1462.73 1428.4 1462.73 Q1433.6 1462.73 1436.61 1465.9 Q1439.65 1469.05 1439.65 1474.49 Q1439.65 1479.82 1436.5 1483.03 Q1433.35 1486.25 1428.12 1486.25 Q1422.12 1486.25 1418.95 1481.67 Q1415.78 1477.06 1415.78 1468.33 Q1415.78 1460.14 1419.67 1455.28 Q1423.56 1450.39 1430.11 1450.39 Q1431.87 1450.39 1433.65 1450.74 Q1435.46 1451.09 1437.4 1451.78 Z" fill="#000000" fill-rule="nonzero" fill-opacity="1"></path><path clip-path="url(#clip190)" d="M1457.7 1454.1 Q1454.09 1454.1 1452.26 1457.66 Q1450.46 1461.2 1450.46 1468.33 Q1450.46 1475.44 1452.26 1479.01 Q1454.09 1482.55 1457.7 1482.55 Q1461.34 1482.55 1463.14 1479.01 Q1464.97 1475.44 1464.97 1468.33 Q1464.97 1461.2 1463.14 1457.66 Q1461.34 1454.1 1457.7 1454.1 M1457.7 1450.39 Q1463.51 1450.39 1466.57 1455 Q1469.65 1459.58 1469.65 1468.33 Q1469.65 1477.06 1466.57 1481.67 Q1463.51 1486.25 1457.7 1486.25 Q1451.89 1486.25 1448.81 1481.67 Q1445.76 1477.06 1445.76 1468.33 Q1445.76 1459.58 1448.81 1455 Q1451.89 1450.39 1457.7 1450.39 Z" fill="#000000" fill-rule="nonzero" fill-opacity="1"></path><path clip-path="url(#clip190)" d="M1487.86 1454.1 Q1484.25 1454.1 1482.42 1457.66 Q1480.62 1461.2 1480.62 1468.33 Q1480.62 1475.44 1482.42 1479.01 Q1484.25 1482.55 1487.86 1482.55 Q1491.5 1482.55 1493.3 1479.01 Q1495.13 1475.44 1495.13 1468.33 Q1495.13 1461.2 1493.3 1457.66 Q1491.5 1454.1 1487.86 1454.1 M1487.86 1450.39 Q1493.67 1450.39 1496.73 1455 Q1499.81 1459.58 1499.81 1468.33 Q1499.81 1477.06 1496.73 1481.67 Q1493.67 1486.25 1487.86 1486.25 Q1482.05 1486.25 1478.97 1481.67 Q1475.92 1477.06 1475.92 1468.33 Q1475.92 1459.58 1478.97 1455 Q1482.05 1450.39 1487.86 1450.39 Z" fill="#000000" fill-rule="nonzero" fill-opacity="1"></path><path clip-path="url(#clip190)" d="M1845.3 1469.17 Q1841.97 1469.17 1840.05 1470.95 Q1838.15 1472.73 1838.15 1475.86 Q1838.15 1478.98 1840.05 1480.77 Q1841.97 1482.55 1845.3 1482.55 Q1848.64 1482.55 1850.56 1480.77 Q1852.48 1478.96 1852.48 1475.86 Q1852.48 1472.73 1850.56 1470.95 Q1848.66 1469.17 1845.3 1469.17 M1840.63 1467.18 Q1837.62 1466.44 1835.93 1464.38 Q1834.26 1462.32 1834.26 1459.35 Q1834.26 1455.21 1837.2 1452.8 Q1840.17 1450.39 1845.3 1450.39 Q1850.47 1450.39 1853.41 1452.8 Q1856.35 1455.21 1856.35 1459.35 Q1856.35 1462.32 1854.66 1464.38 Q1852.99 1466.44 1850 1467.18 Q1853.38 1467.96 1855.26 1470.26 Q1857.16 1472.55 1857.16 1475.86 Q1857.16 1480.88 1854.08 1483.57 Q1851.02 1486.25 1845.3 1486.25 Q1839.59 1486.25 1836.51 1483.57 Q1833.45 1480.88 1833.45 1475.86 Q1833.45 1472.55 1835.35 1470.26 Q1837.25 1467.96 1840.63 1467.18 M1838.92 1459.79 Q1838.92 1462.48 1840.58 1463.98 Q1842.27 1465.49 1845.3 1465.49 Q1848.31 1465.49 1850 1463.98 Q1851.72 1462.48 1851.72 1459.79 Q1851.72 1457.11 1850 1455.6 Q1848.31 1454.1 1845.3 1454.1 Q1842.27 1454.1 1840.58 1455.6 Q1838.92 1457.11 1838.92 1459.79 Z" fill="#000000" fill-rule="nonzero" fill-opacity="1"></path><path clip-path="url(#clip190)" d="M1875.47 1454.1 Q1871.85 1454.1 1870.03 1457.66 Q1868.22 1461.2 1868.22 1468.33 Q1868.22 1475.44 1870.03 1479.01 Q1871.85 1482.55 1875.47 1482.55 Q1879.1 1482.55 1880.91 1479.01 Q1882.73 1475.44 1882.73 1468.33 Q1882.73 1461.2 1880.91 1457.66 Q1879.1 1454.1 1875.47 1454.1 M1875.47 1450.39 Q1881.28 1450.39 1884.33 1455 Q1887.41 1459.58 1887.41 1468.33 Q1887.41 1477.06 1884.33 1481.67 Q1881.28 1486.25 1875.47 1486.25 Q1869.66 1486.25 1866.58 1481.67 Q1863.52 1477.06 1863.52 1468.33 Q1863.52 1459.58 1866.58 1455 Q1869.66 1450.39 1875.47 1450.39 Z" fill="#000000" fill-rule="nonzero" fill-opacity="1"></path><path clip-path="url(#clip190)" d="M1905.63 1454.1 Q1902.02 1454.1 1900.19 1457.66 Q1898.38 1461.2 1898.38 1468.33 Q1898.38 1475.44 1900.19 1479.01 Q1902.02 1482.55 1905.63 1482.55 Q1909.26 1482.55 1911.07 1479.01 Q1912.9 1475.44 1912.9 1468.33 Q1912.9 1461.2 1911.07 1457.66 Q1909.26 1454.1 1905.63 1454.1 M1905.63 1450.39 Q1911.44 1450.39 1914.49 1455 Q1917.57 1459.58 1917.57 1468.33 Q1917.57 1477.06 1914.49 1481.67 Q1911.44 1486.25 1905.63 1486.25 Q1899.82 1486.25 1896.74 1481.67 Q1893.68 1477.06 1893.68 1468.33 Q1893.68 1459.58 1896.74 1455 Q1899.82 1450.39 1905.63 1450.39 Z" fill="#000000" fill-rule="nonzero" fill-opacity="1"></path><path clip-path="url(#clip190)" d="M2237.76 1481.64 L2245.4 1481.64 L2245.4 1455.28 L2237.09 1456.95 L2237.09 1452.69 L2245.35 1451.02 L2250.03 1451.02 L2250.03 1481.64 L2257.66 1481.64 L2257.66 1485.58 L2237.76 1485.58 L2237.76 1481.64 Z" fill="#000000" fill-rule="nonzero" fill-opacity="1"></path><path clip-path="url(#clip190)" d="M2277.11 1454.1 Q2273.5 1454.1 2271.67 1457.66 Q2269.86 1461.2 2269.86 1468.33 Q2269.86 1475.44 2271.67 1479.01 Q2273.5 1482.55 2277.11 1482.55 Q2280.74 1482.55 2282.55 1479.01 Q2284.38 1475.44 2284.38 1468.33 Q2284.38 1461.2 2282.55 1457.66 Q2280.74 1454.1 2277.11 1454.1 M2277.11 1450.39 Q2282.92 1450.39 2285.97 1455 Q2289.05 1459.58 2289.05 1468.33 Q2289.05 1477.06 2285.97 1481.67 Q2282.92 1486.25 2277.11 1486.25 Q2271.3 1486.25 2268.22 1481.67 Q2265.16 1477.06 2265.16 1468.33 Q2265.16 1459.58 2268.22 1455 Q2271.3 1450.39 2277.11 1450.39 Z" fill="#000000" fill-rule="nonzero" fill-opacity="1"></path><path clip-path="url(#clip190)" d="M2307.27 1454.1 Q2303.66 1454.1 2301.83 1457.66 Q2300.02 1461.2 2300.02 1468.33 Q2300.02 1475.44 2301.83 1479.01 Q2303.66 1482.55 2307.27 1482.55 Q2310.9 1482.55 2312.71 1479.01 Q2314.54 1475.44 2314.54 1468.33 Q2314.54 1461.2 2312.71 1457.66 Q2310.9 1454.1 2307.27 1454.1 M2307.27 1450.39 Q2313.08 1450.39 2316.14 1455 Q2319.21 1459.58 2319.21 1468.33 Q2319.21 1477.06 2316.14 1481.67 Q2313.08 1486.25 2307.27 1486.25 Q2301.46 1486.25 2298.38 1481.67 Q2295.33 1477.06 2295.33 1468.33 Q2295.33 1459.58 2298.38 1455 Q2301.46 1450.39 2307.27 1450.39 Z" fill="#000000" fill-rule="nonzero" fill-opacity="1"></path><path clip-path="url(#clip190)" d="M2337.43 1454.1 Q2333.82 1454.1 2331.99 1457.66 Q2330.19 1461.2 2330.19 1468.33 Q2330.19 1475.44 2331.99 1479.01 Q2333.82 1482.55 2337.43 1482.55 Q2341.07 1482.55 2342.87 1479.01 Q2344.7 1475.44 2344.7 1468.33 Q2344.7 1461.2 2342.87 1457.66 Q2341.07 1454.1 2337.43 1454.1 M2337.43 1450.39 Q2343.24 1450.39 2346.3 1455 Q2349.38 1459.58 2349.38 1468.33 Q2349.38 1477.06 2346.3 1481.67 Q2343.24 1486.25 2337.43 1486.25 Q2331.62 1486.25 2328.54 1481.67 Q2325.49 1477.06 2325.49 1468.33 Q2325.49 1459.58 2328.54 1455 Q2331.62 1450.39 2337.43 1450.39 Z" fill="#000000" fill-rule="nonzero" fill-opacity="1"></path><path clip-path="url(#clip190)" d="M1040.33 1520.52 L1048.99 1520.52 L1070.06 1560.28 L1070.06 1520.52 L1076.3 1520.52 L1076.3 1568.04 L1067.64 1568.04 L1046.57 1528.29 L1046.57 1568.04 L1040.33 1568.04 L1040.33 1520.52 Z" fill="#000000" fill-rule="nonzero" fill-opacity="1"></path><path clip-path="url(#clip190)" d="M1088.23 1553.98 L1088.23 1532.4 L1094.09 1532.4 L1094.09 1553.75 Q1094.09 1558.81 1096.06 1561.36 Q1098.04 1563.87 1101.98 1563.87 Q1106.72 1563.87 1109.46 1560.85 Q1112.23 1557.83 1112.23 1552.61 L1112.23 1532.4 L1118.09 1532.4 L1118.09 1568.04 L1112.23 1568.04 L1112.23 1562.57 Q1110.1 1565.82 1107.27 1567.41 Q1104.46 1568.97 1100.74 1568.97 Q1094.6 1568.97 1091.41 1565.15 Q1088.23 1561.33 1088.23 1553.98 M1102.97 1531.54 L1102.97 1531.54 Z" fill="#000000" fill-rule="nonzero" fill-opacity="1"></path><path clip-path="url(#clip190)" d="M1157.9 1539.24 Q1160.1 1535.29 1163.16 1533.41 Q1166.21 1531.54 1170.35 1531.54 Q1175.92 1531.54 1178.94 1535.45 Q1181.97 1539.33 1181.97 1546.53 L1181.97 1568.04 L1176.08 1568.04 L1176.08 1546.72 Q1176.08 1541.59 1174.26 1539.11 Q1172.45 1536.63 1168.73 1536.63 Q1164.17 1536.63 1161.53 1539.65 Q1158.89 1542.68 1158.89 1547.9 L1158.89 1568.04 L1153 1568.04 L1153 1546.72 Q1153 1541.56 1151.19 1539.11 Q1149.37 1536.63 1145.59 1536.63 Q1141.1 1536.63 1138.46 1539.68 Q1135.82 1542.71 1135.82 1547.9 L1135.82 1568.04 L1129.93 1568.04 L1129.93 1532.4 L1135.82 1532.4 L1135.82 1537.93 Q1137.82 1534.66 1140.62 1533.1 Q1143.42 1531.54 1147.27 1531.54 Q1151.16 1531.54 1153.86 1533.51 Q1156.6 1535.48 1157.9 1539.24 Z" fill="#000000" fill-rule="nonzero" fill-opacity="1"></path><path clip-path="url(#clip190)" d="M1219.24 1550.25 Q1219.24 1543.79 1216.56 1540.13 Q1213.92 1536.44 1209.28 1536.44 Q1204.63 1536.44 1201.96 1540.13 Q1199.31 1543.79 1199.31 1550.25 Q1199.31 1556.71 1201.96 1560.4 Q1204.63 1564.07 1209.28 1564.07 Q1213.92 1564.07 1216.56 1560.4 Q1219.24 1556.71 1219.24 1550.25 M1199.31 1537.81 Q1201.16 1534.62 1203.96 1533.1 Q1206.79 1531.54 1210.71 1531.54 Q1217.2 1531.54 1221.24 1536.69 Q1225.32 1541.85 1225.32 1550.25 Q1225.32 1558.65 1221.24 1563.81 Q1217.2 1568.97 1210.71 1568.97 Q1206.79 1568.97 1203.96 1567.44 Q1201.16 1565.88 1199.31 1562.7 L1199.31 1568.04 L1193.43 1568.04 L1193.43 1518.52 L1199.31 1518.52 L1199.31 1537.81 Z" fill="#000000" fill-rule="nonzero" fill-opacity="1"></path><path clip-path="url(#clip190)" d="M1265.52 1548.76 L1265.52 1551.62 L1238.59 1551.62 Q1238.97 1557.67 1242.22 1560.85 Q1245.5 1564 1251.32 1564 Q1254.7 1564 1257.85 1563.17 Q1261.03 1562.35 1264.15 1560.69 L1264.15 1566.23 Q1261 1567.57 1257.69 1568.27 Q1254.38 1568.97 1250.97 1568.97 Q1242.44 1568.97 1237.44 1564 Q1232.48 1559.04 1232.48 1550.57 Q1232.48 1541.82 1237.19 1536.69 Q1241.93 1531.54 1249.95 1531.54 Q1257.15 1531.54 1261.32 1536.18 Q1265.52 1540.8 1265.52 1548.76 M1259.66 1547.04 Q1259.6 1542.23 1256.96 1539.37 Q1254.35 1536.5 1250.02 1536.5 Q1245.11 1536.5 1242.15 1539.27 Q1239.23 1542.04 1238.78 1547.07 L1259.66 1547.04 Z" fill="#000000" fill-rule="nonzero" fill-opacity="1"></path><path clip-path="url(#clip190)" d="M1295.79 1537.87 Q1294.8 1537.3 1293.62 1537.04 Q1292.48 1536.76 1291.08 1536.76 Q1286.11 1536.76 1283.44 1540 Q1280.79 1543.22 1280.79 1549.27 L1280.79 1568.04 L1274.91 1568.04 L1274.91 1532.4 L1280.79 1532.4 L1280.79 1537.93 Q1282.64 1534.69 1285.6 1533.13 Q1288.56 1531.54 1292.79 1531.54 Q1293.4 1531.54 1294.13 1531.63 Q1294.86 1531.7 1295.75 1531.85 L1295.79 1537.87 Z" fill="#000000" fill-rule="nonzero" fill-opacity="1"></path><path clip-path="url(#clip190)" d="M1336.46 1536.5 Q1331.75 1536.5 1329.01 1540.19 Q1326.28 1543.85 1326.28 1550.25 Q1326.28 1556.65 1328.98 1560.34 Q1331.72 1564 1336.46 1564 Q1341.14 1564 1343.88 1560.31 Q1346.62 1556.62 1346.62 1550.25 Q1346.62 1543.92 1343.88 1540.23 Q1341.14 1536.5 1336.46 1536.5 M1336.46 1531.54 Q1344.1 1531.54 1348.46 1536.5 Q1352.82 1541.47 1352.82 1550.25 Q1352.82 1559 1348.46 1564 Q1344.1 1568.97 1336.46 1568.97 Q1328.79 1568.97 1324.43 1564 Q1320.1 1559 1320.1 1550.25 Q1320.1 1541.47 1324.43 1536.5 Q1328.79 1531.54 1336.46 1531.54 Z" fill="#000000" fill-rule="nonzero" fill-opacity="1"></path><path clip-path="url(#clip190)" d="M1380.58 1518.52 L1380.58 1523.39 L1374.98 1523.39 Q1371.82 1523.39 1370.58 1524.66 Q1369.37 1525.93 1369.37 1529.24 L1369.37 1532.4 L1379.02 1532.4 L1379.02 1536.95 L1369.37 1536.95 L1369.37 1568.04 L1363.49 1568.04 L1363.49 1536.95 L1357.88 1536.95 L1357.88 1532.4 L1363.49 1532.4 L1363.49 1529.91 Q1363.49 1523.96 1366.25 1521.26 Q1369.02 1518.52 1375.04 1518.52 L1380.58 1518.52 Z" fill="#000000" fill-rule="nonzero" fill-opacity="1"></path><path clip-path="url(#clip190)" d="M1411.99 1522.27 L1411.99 1532.4 L1424.05 1532.4 L1424.05 1536.95 L1411.99 1536.95 L1411.99 1556.3 Q1411.99 1560.66 1413.17 1561.9 Q1414.38 1563.14 1418.04 1563.14 L1424.05 1563.14 L1424.05 1568.04 L1418.04 1568.04 Q1411.26 1568.04 1408.68 1565.53 Q1406.1 1562.98 1406.1 1556.3 L1406.1 1536.95 L1401.81 1536.95 L1401.81 1532.4 L1406.1 1532.4 L1406.1 1522.27 L1411.99 1522.27 Z" fill="#000000" fill-rule="nonzero" fill-opacity="1"></path><path clip-path="url(#clip190)" d="M1452.41 1537.87 Q1451.43 1537.3 1450.25 1537.04 Q1449.1 1536.76 1447.7 1536.76 Q1442.74 1536.76 1440.06 1540 Q1437.42 1543.22 1437.42 1549.27 L1437.42 1568.04 L1431.53 1568.04 L1431.53 1532.4 L1437.42 1532.4 L1437.42 1537.93 Q1439.27 1534.69 1442.23 1533.13 Q1445.19 1531.54 1449.42 1531.54 Q1450.03 1531.54 1450.76 1531.63 Q1451.49 1531.7 1452.38 1531.85 L1452.41 1537.87 Z" fill="#000000" fill-rule="nonzero" fill-opacity="1"></path><path clip-path="url(#clip190)" d="M1487.62 1548.76 L1487.62 1551.62 L1460.69 1551.62 Q1461.07 1557.67 1464.32 1560.85 Q1467.6 1564 1473.42 1564 Q1476.79 1564 1479.95 1563.17 Q1483.13 1562.35 1486.25 1560.69 L1486.25 1566.23 Q1483.1 1567.57 1479.79 1568.27 Q1476.48 1568.97 1473.07 1568.97 Q1464.54 1568.97 1459.54 1564 Q1454.58 1559.04 1454.58 1550.57 Q1454.58 1541.82 1459.29 1536.69 Q1464.03 1531.54 1472.05 1531.54 Q1479.25 1531.54 1483.42 1536.18 Q1487.62 1540.8 1487.62 1548.76 M1481.76 1547.04 Q1481.7 1542.23 1479.05 1539.37 Q1476.44 1536.5 1472.12 1536.5 Q1467.21 1536.5 1464.25 1539.27 Q1461.33 1542.04 1460.88 1547.07 L1481.76 1547.04 Z" fill="#000000" fill-rule="nonzero" fill-opacity="1"></path><path clip-path="url(#clip190)" d="M1527.72 1548.76 L1527.72 1551.62 L1500.79 1551.62 Q1501.18 1557.67 1504.42 1560.85 Q1507.7 1564 1513.52 1564 Q1516.9 1564 1520.05 1563.17 Q1523.23 1562.35 1526.35 1560.69 L1526.35 1566.23 Q1523.2 1567.57 1519.89 1568.27 Q1516.58 1568.97 1513.17 1568.97 Q1504.64 1568.97 1499.65 1564 Q1494.68 1559.04 1494.68 1550.57 Q1494.68 1541.82 1499.39 1536.69 Q1504.14 1531.54 1512.16 1531.54 Q1519.35 1531.54 1523.52 1536.18 Q1527.72 1540.8 1527.72 1548.76 M1521.86 1547.04 Q1521.8 1542.23 1519.16 1539.37 Q1516.55 1536.5 1512.22 1536.5 Q1507.32 1536.5 1504.36 1539.27 Q1501.43 1542.04 1500.98 1547.07 L1521.86 1547.04 Z" fill="#000000" fill-rule="nonzero" fill-opacity="1"></path><path clip-path="url(#clip190)" d="M1560.06 1533.45 L1560.06 1538.98 Q1557.58 1537.71 1554.9 1537.07 Q1552.23 1536.44 1549.36 1536.44 Q1545 1536.44 1542.81 1537.77 Q1540.64 1539.11 1540.64 1541.79 Q1540.64 1543.82 1542.2 1545 Q1543.76 1546.15 1548.47 1547.2 L1550.48 1547.64 Q1556.72 1548.98 1559.33 1551.43 Q1561.97 1553.85 1561.97 1558.21 Q1561.97 1563.17 1558.02 1566.07 Q1554.11 1568.97 1547.23 1568.97 Q1544.37 1568.97 1541.25 1568.39 Q1538.16 1567.85 1534.72 1566.74 L1534.72 1560.69 Q1537.97 1562.38 1541.12 1563.24 Q1544.27 1564.07 1547.36 1564.07 Q1551.5 1564.07 1553.72 1562.66 Q1555.95 1561.23 1555.95 1558.65 Q1555.95 1556.27 1554.33 1554.99 Q1552.74 1553.72 1547.29 1552.54 L1545.26 1552.07 Q1539.82 1550.92 1537.4 1548.56 Q1534.98 1546.18 1534.98 1542.04 Q1534.98 1537.01 1538.54 1534.27 Q1542.11 1531.54 1548.66 1531.54 Q1551.91 1531.54 1554.77 1532.01 Q1557.64 1532.49 1560.06 1533.45 Z" fill="#000000" fill-rule="nonzero" fill-opacity="1"></path><polyline clip-path="url(#clip192)" style="stroke:#000000; stroke-linecap:round; stroke-linejoin:round; stroke-width:2; stroke-opacity:0.1; fill:none" points="249.542,1404.82 2352.76,1404.82 "></polyline>
<polyline clip-path="url(#clip192)" style="stroke:#000000; stroke-linecap:round; stroke-linejoin:round; stroke-width:2; stroke-opacity:0.1; fill:none" points="249.542,1114.56 2352.76,1114.56 "></polyline>
<polyline clip-path="url(#clip192)" style="stroke:#000000; stroke-linecap:round; stroke-linejoin:round; stroke-width:2; stroke-opacity:0.1; fill:none" points="249.542,824.302 2352.76,824.302 "></polyline>
<polyline clip-path="url(#clip192)" style="stroke:#000000; stroke-linecap:round; stroke-linejoin:round; stroke-width:2; stroke-opacity:0.1; fill:none" points="249.542,534.041 2352.76,534.041 "></polyline>
<polyline clip-path="url(#clip192)" style="stroke:#000000; stroke-linecap:round; stroke-linejoin:round; stroke-width:2; stroke-opacity:0.1; fill:none" points="249.542,243.78 2352.76,243.78 "></polyline>
<polyline clip-path="url(#clip190)" style="stroke:#000000; stroke-linecap:round; stroke-linejoin:round; stroke-width:4; stroke-opacity:1; fill:none" points="249.542,1423.18 249.542,123.472 "></polyline>
<polyline clip-path="url(#clip190)" style="stroke:#000000; stroke-linecap:round; stroke-linejoin:round; stroke-width:4; stroke-opacity:1; fill:none" points="249.542,1404.82 268.44,1404.82 "></polyline>
<polyline clip-path="url(#clip190)" style="stroke:#000000; stroke-linecap:round; stroke-linejoin:round; stroke-width:4; stroke-opacity:1; fill:none" points="249.542,1114.56 268.44,1114.56 "></polyline>
<polyline clip-path="url(#clip190)" style="stroke:#000000; stroke-linecap:round; stroke-linejoin:round; stroke-width:4; stroke-opacity:1; fill:none" points="249.542,824.302 268.44,824.302 "></polyline>
<polyline clip-path="url(#clip190)" style="stroke:#000000; stroke-linecap:round; stroke-linejoin:round; stroke-width:4; stroke-opacity:1; fill:none" points="249.542,534.041 268.44,534.041 "></polyline>
<polyline clip-path="url(#clip190)" style="stroke:#000000; stroke-linecap:round; stroke-linejoin:round; stroke-width:4; stroke-opacity:1; fill:none" points="249.542,243.78 268.44,243.78 "></polyline>
<path clip-path="url(#clip190)" d="M126.205 1390.62 Q122.593 1390.62 120.765 1394.19 Q118.959 1397.73 118.959 1404.86 Q118.959 1411.96 120.765 1415.53 Q122.593 1419.07 126.205 1419.07 Q129.839 1419.07 131.644 1415.53 Q133.473 1411.96 133.473 1404.86 Q133.473 1397.73 131.644 1394.19 Q129.839 1390.62 126.205 1390.62 M126.205 1386.92 Q132.015 1386.92 135.07 1391.53 Q138.149 1396.11 138.149 1404.86 Q138.149 1413.59 135.07 1418.19 Q132.015 1422.78 126.205 1422.78 Q120.394 1422.78 117.316 1418.19 Q114.26 1413.59 114.26 1404.86 Q114.26 1396.11 117.316 1391.53 Q120.394 1386.92 126.205 1386.92 Z" fill="#000000" fill-rule="nonzero" fill-opacity="1"></path><path clip-path="url(#clip190)" d="M146.366 1416.22 L151.251 1416.22 L151.251 1422.1 L146.366 1422.1 L146.366 1416.22 Z" fill="#000000" fill-rule="nonzero" fill-opacity="1"></path><path clip-path="url(#clip190)" d="M171.436 1390.62 Q167.825 1390.62 165.996 1394.19 Q164.19 1397.73 164.19 1404.86 Q164.19 1411.96 165.996 1415.53 Q167.825 1419.07 171.436 1419.07 Q175.07 1419.07 176.876 1415.53 Q178.704 1411.96 178.704 1404.86 Q178.704 1397.73 176.876 1394.19 Q175.07 1390.62 171.436 1390.62 M171.436 1386.92 Q177.246 1386.92 180.301 1391.53 Q183.38 1396.11 183.38 1404.86 Q183.38 1413.59 180.301 1418.19 Q177.246 1422.78 171.436 1422.78 Q165.626 1422.78 162.547 1418.19 Q159.491 1413.59 159.491 1404.86 Q159.491 1396.11 162.547 1391.53 Q165.626 1386.92 171.436 1386.92 Z" fill="#000000" fill-rule="nonzero" fill-opacity="1"></path><path clip-path="url(#clip190)" d="M201.598 1390.62 Q197.987 1390.62 196.158 1394.19 Q194.352 1397.73 194.352 1404.86 Q194.352 1411.96 196.158 1415.53 Q197.987 1419.07 201.598 1419.07 Q205.232 1419.07 207.037 1415.53 Q208.866 1411.96 208.866 1404.86 Q208.866 1397.73 207.037 1394.19 Q205.232 1390.62 201.598 1390.62 M201.598 1386.92 Q207.408 1386.92 210.463 1391.53 Q213.542 1396.11 213.542 1404.86 Q213.542 1413.59 210.463 1418.19 Q207.408 1422.78 201.598 1422.78 Q195.787 1422.78 192.709 1418.19 Q189.653 1413.59 189.653 1404.86 Q189.653 1396.11 192.709 1391.53 Q195.787 1386.92 201.598 1386.92 Z" fill="#000000" fill-rule="nonzero" fill-opacity="1"></path><path clip-path="url(#clip190)" d="M127.2 1100.36 Q123.589 1100.36 121.76 1103.93 Q119.955 1107.47 119.955 1114.6 Q119.955 1121.7 121.76 1125.27 Q123.589 1128.81 127.2 1128.81 Q130.834 1128.81 132.64 1125.27 Q134.468 1121.7 134.468 1114.6 Q134.468 1107.47 132.64 1103.93 Q130.834 1100.36 127.2 1100.36 M127.2 1096.66 Q133.01 1096.66 136.066 1101.26 Q139.144 1105.85 139.144 1114.6 Q139.144 1123.32 136.066 1127.93 Q133.01 1132.51 127.2 1132.51 Q121.39 1132.51 118.311 1127.93 Q115.256 1123.32 115.256 1114.6 Q115.256 1105.85 118.311 1101.26 Q121.39 1096.66 127.2 1096.66 Z" fill="#000000" fill-rule="nonzero" fill-opacity="1"></path><path clip-path="url(#clip190)" d="M147.362 1125.96 L152.246 1125.96 L152.246 1131.84 L147.362 1131.84 L147.362 1125.96 Z" fill="#000000" fill-rule="nonzero" fill-opacity="1"></path><path clip-path="url(#clip190)" d="M172.431 1100.36 Q168.82 1100.36 166.991 1103.93 Q165.186 1107.47 165.186 1114.6 Q165.186 1121.7 166.991 1125.27 Q168.82 1128.81 172.431 1128.81 Q176.065 1128.81 177.871 1125.27 Q179.7 1121.7 179.7 1114.6 Q179.7 1107.47 177.871 1103.93 Q176.065 1100.36 172.431 1100.36 M172.431 1096.66 Q178.241 1096.66 181.297 1101.26 Q184.376 1105.85 184.376 1114.6 Q184.376 1123.32 181.297 1127.93 Q178.241 1132.51 172.431 1132.51 Q166.621 1132.51 163.542 1127.93 Q160.487 1123.32 160.487 1114.6 Q160.487 1105.85 163.542 1101.26 Q166.621 1096.66 172.431 1096.66 Z" fill="#000000" fill-rule="nonzero" fill-opacity="1"></path><path clip-path="url(#clip190)" d="M192.639 1097.28 L210.996 1097.28 L210.996 1101.22 L196.922 1101.22 L196.922 1109.69 Q197.94 1109.34 198.959 1109.18 Q199.977 1109 200.996 1109 Q206.783 1109 210.162 1112.17 Q213.542 1115.34 213.542 1120.75 Q213.542 1126.33 210.07 1129.44 Q206.598 1132.51 200.278 1132.51 Q198.102 1132.51 195.834 1132.14 Q193.588 1131.77 191.181 1131.03 L191.181 1126.33 Q193.264 1127.47 195.487 1128.02 Q197.709 1128.58 200.186 1128.58 Q204.19 1128.58 206.528 1126.47 Q208.866 1124.37 208.866 1120.75 Q208.866 1117.14 206.528 1115.04 Q204.19 1112.93 200.186 1112.93 Q198.311 1112.93 196.436 1113.35 Q194.584 1113.76 192.639 1114.64 L192.639 1097.28 Z" fill="#000000" fill-rule="nonzero" fill-opacity="1"></path><path clip-path="url(#clip190)" d="M126.205 810.1 Q122.593 810.1 120.765 813.665 Q118.959 817.207 118.959 824.336 Q118.959 831.443 120.765 835.008 Q122.593 838.549 126.205 838.549 Q129.839 838.549 131.644 835.008 Q133.473 831.443 133.473 824.336 Q133.473 817.207 131.644 813.665 Q129.839 810.1 126.205 810.1 M126.205 806.397 Q132.015 806.397 135.07 811.003 Q138.149 815.586 138.149 824.336 Q138.149 833.063 135.07 837.67 Q132.015 842.253 126.205 842.253 Q120.394 842.253 117.316 837.67 Q114.26 833.063 114.26 824.336 Q114.26 815.586 117.316 811.003 Q120.394 806.397 126.205 806.397 Z" fill="#000000" fill-rule="nonzero" fill-opacity="1"></path><path clip-path="url(#clip190)" d="M146.366 835.702 L151.251 835.702 L151.251 841.582 L146.366 841.582 L146.366 835.702 Z" fill="#000000" fill-rule="nonzero" fill-opacity="1"></path><path clip-path="url(#clip190)" d="M162.246 837.646 L169.885 837.646 L169.885 811.281 L161.575 812.948 L161.575 808.688 L169.839 807.022 L174.514 807.022 L174.514 837.646 L182.153 837.646 L182.153 841.582 L162.246 841.582 L162.246 837.646 Z" fill="#000000" fill-rule="nonzero" fill-opacity="1"></path><path clip-path="url(#clip190)" d="M201.598 810.1 Q197.987 810.1 196.158 813.665 Q194.352 817.207 194.352 824.336 Q194.352 831.443 196.158 835.008 Q197.987 838.549 201.598 838.549 Q205.232 838.549 207.037 835.008 Q208.866 831.443 208.866 824.336 Q208.866 817.207 207.037 813.665 Q205.232 810.1 201.598 810.1 M201.598 806.397 Q207.408 806.397 210.463 811.003 Q213.542 815.586 213.542 824.336 Q213.542 833.063 210.463 837.67 Q207.408 842.253 201.598 842.253 Q195.787 842.253 192.709 837.67 Q189.653 833.063 189.653 824.336 Q189.653 815.586 192.709 811.003 Q195.787 806.397 201.598 806.397 Z" fill="#000000" fill-rule="nonzero" fill-opacity="1"></path><path clip-path="url(#clip190)" d="M127.2 519.839 Q123.589 519.839 121.76 523.404 Q119.955 526.946 119.955 534.075 Q119.955 541.182 121.76 544.747 Q123.589 548.288 127.2 548.288 Q130.834 548.288 132.64 544.747 Q134.468 541.182 134.468 534.075 Q134.468 526.946 132.64 523.404 Q130.834 519.839 127.2 519.839 M127.2 516.136 Q133.01 516.136 136.066 520.742 Q139.144 525.325 139.144 534.075 Q139.144 542.802 136.066 547.409 Q133.01 551.992 127.2 551.992 Q121.39 551.992 118.311 547.409 Q115.256 542.802 115.256 534.075 Q115.256 525.325 118.311 520.742 Q121.39 516.136 127.2 516.136 Z" fill="#000000" fill-rule="nonzero" fill-opacity="1"></path><path clip-path="url(#clip190)" d="M147.362 545.441 L152.246 545.441 L152.246 551.321 L147.362 551.321 L147.362 545.441 Z" fill="#000000" fill-rule="nonzero" fill-opacity="1"></path><path clip-path="url(#clip190)" d="M163.241 547.385 L170.88 547.385 L170.88 521.02 L162.57 522.686 L162.57 518.427 L170.834 516.761 L175.51 516.761 L175.51 547.385 L183.149 547.385 L183.149 551.321 L163.241 551.321 L163.241 547.385 Z" fill="#000000" fill-rule="nonzero" fill-opacity="1"></path><path clip-path="url(#clip190)" d="M192.639 516.761 L210.996 516.761 L210.996 520.696 L196.922 520.696 L196.922 529.168 Q197.94 528.821 198.959 528.659 Q199.977 528.473 200.996 528.473 Q206.783 528.473 210.162 531.645 Q213.542 534.816 213.542 540.233 Q213.542 545.811 210.07 548.913 Q206.598 551.992 200.278 551.992 Q198.102 551.992 195.834 551.621 Q193.588 551.251 191.181 550.51 L191.181 545.811 Q193.264 546.946 195.487 547.501 Q197.709 548.057 200.186 548.057 Q204.19 548.057 206.528 545.95 Q208.866 543.844 208.866 540.233 Q208.866 536.622 206.528 534.515 Q204.19 532.409 200.186 532.409 Q198.311 532.409 196.436 532.825 Q194.584 533.242 192.639 534.122 L192.639 516.761 Z" fill="#000000" fill-rule="nonzero" fill-opacity="1"></path><path clip-path="url(#clip190)" d="M126.205 229.578 Q122.593 229.578 120.765 233.143 Q118.959 236.685 118.959 243.814 Q118.959 250.921 120.765 254.485 Q122.593 258.027 126.205 258.027 Q129.839 258.027 131.644 254.485 Q133.473 250.921 133.473 243.814 Q133.473 236.685 131.644 233.143 Q129.839 229.578 126.205 229.578 M126.205 225.875 Q132.015 225.875 135.07 230.481 Q138.149 235.064 138.149 243.814 Q138.149 252.541 135.07 257.147 Q132.015 261.731 126.205 261.731 Q120.394 261.731 117.316 257.147 Q114.26 252.541 114.26 243.814 Q114.26 235.064 117.316 230.481 Q120.394 225.875 126.205 225.875 Z" fill="#000000" fill-rule="nonzero" fill-opacity="1"></path><path clip-path="url(#clip190)" d="M146.366 255.18 L151.251 255.18 L151.251 261.06 L146.366 261.06 L146.366 255.18 Z" fill="#000000" fill-rule="nonzero" fill-opacity="1"></path><path clip-path="url(#clip190)" d="M165.464 257.124 L181.783 257.124 L181.783 261.06 L159.839 261.06 L159.839 257.124 Q162.501 254.37 167.084 249.74 Q171.69 245.087 172.871 243.745 Q175.116 241.222 175.996 239.486 Q176.899 237.726 176.899 236.036 Q176.899 233.282 174.954 231.546 Q173.033 229.81 169.931 229.81 Q167.732 229.81 165.278 230.574 Q162.848 231.337 160.07 232.888 L160.07 228.166 Q162.894 227.032 165.348 226.453 Q167.802 225.875 169.839 225.875 Q175.209 225.875 178.403 228.56 Q181.598 231.245 181.598 235.736 Q181.598 237.865 180.788 239.786 Q180.001 241.685 177.894 244.277 Q177.315 244.948 174.214 248.166 Q171.112 251.36 165.464 257.124 Z" fill="#000000" fill-rule="nonzero" fill-opacity="1"></path><path clip-path="url(#clip190)" d="M201.598 229.578 Q197.987 229.578 196.158 233.143 Q194.352 236.685 194.352 243.814 Q194.352 250.921 196.158 254.485 Q197.987 258.027 201.598 258.027 Q205.232 258.027 207.037 254.485 Q208.866 250.921 208.866 243.814 Q208.866 236.685 207.037 233.143 Q205.232 229.578 201.598 229.578 M201.598 225.875 Q207.408 225.875 210.463 230.481 Q213.542 235.064 213.542 243.814 Q213.542 252.541 210.463 257.147 Q207.408 261.731 201.598 261.731 Q195.787 261.731 192.709 257.147 Q189.653 252.541 189.653 243.814 Q189.653 235.064 192.709 230.481 Q195.787 225.875 201.598 225.875 Z" fill="#000000" fill-rule="nonzero" fill-opacity="1"></path><path clip-path="url(#clip190)" d="M18.0438 1123.57 L24.314 1123.57 Q22.5634 1127.23 21.704 1130.47 Q20.8447 1133.72 20.8447 1136.74 Q20.8447 1142 22.8817 1144.86 Q24.9187 1147.69 28.6745 1147.69 Q31.8255 1147.69 33.4488 1145.82 Q35.0402 1143.91 36.0269 1138.62 L36.8226 1134.74 Q38.1912 1127.55 41.6605 1124.14 Q45.098 1120.7 50.8908 1120.7 Q57.7976 1120.7 61.3624 1125.35 Q64.9272 1129.96 64.9272 1138.91 Q64.9272 1142.28 64.1633 1146.1 Q63.3994 1149.89 61.9035 1153.96 L55.2831 1153.96 Q57.4793 1150.05 58.5933 1146.29 Q59.7073 1142.54 59.7073 1138.91 Q59.7073 1133.4 57.543 1130.41 Q55.3786 1127.42 51.3682 1127.42 Q47.8671 1127.42 45.8937 1129.58 Q43.9204 1131.72 42.9337 1136.62 L42.1698 1140.53 Q40.7375 1147.73 37.682 1150.94 Q34.6264 1154.15 29.1837 1154.15 Q22.8817 1154.15 19.2532 1149.73 Q15.6248 1145.27 15.6248 1137.48 Q15.6248 1134.13 16.2295 1130.66 Q16.8343 1127.2 18.0438 1123.57 Z" fill="#000000" fill-rule="nonzero" fill-opacity="1"></path><path clip-path="url(#clip190)" d="M32.4621 1097.12 Q32.4621 1101.83 36.1542 1104.57 Q39.8145 1107.3 46.212 1107.3 Q52.6095 1107.3 56.3017 1104.6 Q59.9619 1101.86 59.9619 1097.12 Q59.9619 1092.44 56.2698 1089.7 Q52.5777 1086.96 46.212 1086.96 Q39.8781 1086.96 36.186 1089.7 Q32.4621 1092.44 32.4621 1097.12 M27.4968 1097.12 Q27.4968 1089.48 32.4621 1085.12 Q37.4273 1080.76 46.212 1080.76 Q54.9649 1080.76 59.9619 1085.12 Q64.9272 1089.48 64.9272 1097.12 Q64.9272 1104.79 59.9619 1109.15 Q54.9649 1113.48 46.212 1113.48 Q37.4273 1113.48 32.4621 1109.15 Q27.4968 1104.79 27.4968 1097.12 Z" fill="#000000" fill-rule="nonzero" fill-opacity="1"></path><path clip-path="url(#clip190)" d="M14.479 1071.05 L14.479 1065.19 L64.0042 1065.19 L64.0042 1071.05 L14.479 1071.05 Z" fill="#000000" fill-rule="nonzero" fill-opacity="1"></path><path clip-path="url(#clip190)" d="M49.9359 1053.54 L28.3562 1053.54 L28.3562 1047.69 L49.7131 1047.69 Q54.7739 1047.69 57.3202 1045.71 Q59.8346 1043.74 59.8346 1039.79 Q59.8346 1035.05 56.8109 1032.31 Q53.7872 1029.55 48.5673 1029.55 L28.3562 1029.55 L28.3562 1023.69 L64.0042 1023.69 L64.0042 1029.55 L58.5296 1029.55 Q61.7762 1031.68 63.3676 1034.51 Q64.9272 1037.31 64.9272 1041.04 Q64.9272 1047.18 61.1078 1050.36 Q57.2883 1053.54 49.9359 1053.54 M27.4968 1038.81 L27.4968 1038.81 Z" fill="#000000" fill-rule="nonzero" fill-opacity="1"></path><path clip-path="url(#clip190)" d="M18.2347 1005.83 L28.3562 1005.83 L28.3562 993.77 L32.9077 993.77 L32.9077 1005.83 L52.2594 1005.83 Q56.6199 1005.83 57.8613 1004.66 Q59.1026 1003.45 59.1026 999.786 L59.1026 993.77 L64.0042 993.77 L64.0042 999.786 Q64.0042 1006.57 61.4897 1009.14 Q58.9434 1011.72 52.2594 1011.72 L32.9077 1011.72 L32.9077 1016.02 L28.3562 1016.02 L28.3562 1011.72 L18.2347 1011.72 L18.2347 1005.83 Z" fill="#000000" fill-rule="nonzero" fill-opacity="1"></path><path clip-path="url(#clip190)" d="M28.3562 986.068 L28.3562 980.211 L64.0042 980.211 L64.0042 986.068 L28.3562 986.068 M14.479 986.068 L14.479 980.211 L21.895 980.211 L21.895 986.068 L14.479 986.068 Z" fill="#000000" fill-rule="nonzero" fill-opacity="1"></path><path clip-path="url(#clip190)" d="M32.4621 954.144 Q32.4621 958.855 36.1542 961.592 Q39.8145 964.329 46.212 964.329 Q52.6095 964.329 56.3017 961.624 Q59.9619 958.886 59.9619 954.144 Q59.9619 949.465 56.2698 946.728 Q52.5777 943.991 46.212 943.991 Q39.8781 943.991 36.186 946.728 Q32.4621 949.465 32.4621 954.144 M27.4968 954.144 Q27.4968 946.505 32.4621 942.145 Q37.4273 937.784 46.212 937.784 Q54.9649 937.784 59.9619 942.145 Q64.9272 946.505 64.9272 954.144 Q64.9272 961.815 59.9619 966.175 Q54.9649 970.504 46.212 970.504 Q37.4273 970.504 32.4621 966.175 Q27.4968 961.815 27.4968 954.144 Z" fill="#000000" fill-rule="nonzero" fill-opacity="1"></path><path clip-path="url(#clip190)" d="M42.4881 898.444 L64.0042 898.444 L64.0042 904.3 L42.679 904.3 Q37.6183 904.3 35.1038 906.274 Q32.5894 908.247 32.5894 912.194 Q32.5894 916.936 35.6131 919.674 Q38.6368 922.411 43.8567 922.411 L64.0042 922.411 L64.0042 928.299 L28.3562 928.299 L28.3562 922.411 L33.8944 922.411 Q30.6797 920.31 29.0883 917.477 Q27.4968 914.613 27.4968 910.889 Q27.4968 904.746 31.3163 901.595 Q35.1038 898.444 42.4881 898.444 Z" fill="#000000" fill-rule="nonzero" fill-opacity="1"></path><path clip-path="url(#clip190)" d="M18.2347 860.25 L28.3562 860.25 L28.3562 848.187 L32.9077 848.187 L32.9077 860.25 L52.2594 860.25 Q56.6199 860.25 57.8613 859.072 Q59.1026 857.863 59.1026 854.202 L59.1026 848.187 L64.0042 848.187 L64.0042 854.202 Q64.0042 860.982 61.4897 863.56 Q58.9434 866.138 52.2594 866.138 L32.9077 866.138 L32.9077 870.435 L28.3562 870.435 L28.3562 866.138 L18.2347 866.138 L18.2347 860.25 Z" fill="#000000" fill-rule="nonzero" fill-opacity="1"></path><path clip-path="url(#clip190)" d="M28.3562 840.484 L28.3562 834.628 L64.0042 834.628 L64.0042 840.484 L28.3562 840.484 M14.479 840.484 L14.479 834.628 L21.895 834.628 L21.895 840.484 L14.479 840.484 Z" fill="#000000" fill-rule="nonzero" fill-opacity="1"></path><path clip-path="url(#clip190)" d="M35.1993 794.619 Q31.2526 792.423 29.3747 789.368 Q27.4968 786.312 27.4968 782.174 Q27.4968 776.604 31.4117 773.581 Q35.2948 770.557 42.4881 770.557 L64.0042 770.557 L64.0042 776.445 L42.679 776.445 Q37.5546 776.445 35.072 778.259 Q32.5894 780.074 32.5894 783.798 Q32.5894 788.349 35.6131 790.991 Q38.6368 793.633 43.8567 793.633 L64.0042 793.633 L64.0042 799.521 L42.679 799.521 Q37.5228 799.521 35.072 801.335 Q32.5894 803.149 32.5894 806.937 Q32.5894 811.425 35.6449 814.067 Q38.6686 816.708 43.8567 816.708 L64.0042 816.708 L64.0042 822.597 L28.3562 822.597 L28.3562 816.708 L33.8944 816.708 Q30.616 814.703 29.0564 811.902 Q27.4968 809.101 27.4968 805.25 Q27.4968 801.367 29.4702 798.661 Q31.4436 795.924 35.1993 794.619 Z" fill="#000000" fill-rule="nonzero" fill-opacity="1"></path><path clip-path="url(#clip190)" d="M44.7161 728.384 L47.5806 728.384 L47.5806 755.311 Q53.6281 754.929 56.8109 751.683 Q59.9619 748.404 59.9619 742.58 Q59.9619 739.206 59.1344 736.055 Q58.3069 732.872 56.6518 729.753 L62.1899 729.753 Q63.5267 732.904 64.227 736.214 Q64.9272 739.524 64.9272 742.93 Q64.9272 751.46 59.9619 756.457 Q54.9967 761.422 46.5303 761.422 Q37.7774 761.422 32.6531 756.711 Q27.4968 751.969 27.4968 743.948 Q27.4968 736.755 32.1438 732.585 Q36.7589 728.384 44.7161 728.384 M42.9973 734.241 Q38.1912 734.304 35.3266 736.946 Q32.4621 739.556 32.4621 743.885 Q32.4621 748.786 35.2312 751.746 Q38.0002 754.674 43.0292 755.12 L42.9973 734.241 Z" fill="#000000" fill-rule="nonzero" fill-opacity="1"></path><path clip-path="url(#clip190)" d="M14.5426 683.983 Q21.8632 688.248 29.0246 690.317 Q36.186 692.386 43.5384 692.386 Q50.8908 692.386 58.1159 690.317 Q65.3091 688.216 72.5979 683.983 L72.5979 689.076 Q65.1182 693.85 57.8931 696.237 Q50.668 698.593 43.5384 698.593 Q36.4406 698.593 29.2474 696.237 Q22.0542 693.882 14.5426 689.076 L14.5426 683.983 Z" fill="#000000" fill-rule="nonzero" fill-opacity="1"></path><path clip-path="url(#clip190)" d="M29.4065 649.895 L34.9447 649.895 Q33.6716 652.378 33.035 655.051 Q32.3984 657.725 32.3984 660.589 Q32.3984 664.95 33.7352 667.146 Q35.072 669.31 37.7456 669.31 Q39.7826 669.31 40.9603 667.751 Q42.1061 666.191 43.1565 661.481 L43.6021 659.475 Q44.9389 653.237 47.3897 650.627 Q49.8086 647.985 54.1691 647.985 Q59.1344 647.985 62.0308 651.932 Q64.9272 655.847 64.9272 662.722 Q64.9272 665.586 64.3543 668.706 Q63.8132 671.793 62.6992 675.23 L56.6518 675.23 Q58.3387 671.984 59.198 668.833 Q60.0256 665.682 60.0256 662.595 Q60.0256 658.457 58.6251 656.229 Q57.1929 654.001 54.6147 654.001 Q52.2276 654.001 50.9545 655.624 Q49.6813 657.215 48.5037 662.658 L48.0262 664.695 Q46.8804 670.138 44.5251 672.557 Q42.138 674.976 38.0002 674.976 Q32.9713 674.976 30.2341 671.411 Q27.4968 667.846 27.4968 661.29 Q27.4968 658.043 27.9743 655.178 Q28.4517 652.314 29.4065 649.895 Z" fill="#000000" fill-rule="nonzero" fill-opacity="1"></path><path clip-path="url(#clip190)" d="M44.7161 608.168 L47.5806 608.168 L47.5806 635.095 Q53.6281 634.713 56.8109 631.466 Q59.9619 628.188 59.9619 622.363 Q59.9619 618.989 59.1344 615.838 Q58.3069 612.656 56.6518 609.536 L62.1899 609.536 Q63.5267 612.687 64.227 615.998 Q64.9272 619.308 64.9272 622.713 Q64.9272 631.243 59.9619 636.24 Q54.9967 641.206 46.5303 641.206 Q37.7774 641.206 32.6531 636.495 Q27.4968 631.753 27.4968 623.732 Q27.4968 616.539 32.1438 612.369 Q36.7589 608.168 44.7161 608.168 M42.9973 614.024 Q38.1912 614.088 35.3266 616.73 Q32.4621 619.34 32.4621 623.668 Q32.4621 628.57 35.2312 631.53 Q38.0002 634.458 43.0292 634.904 L42.9973 614.024 Z" fill="#000000" fill-rule="nonzero" fill-opacity="1"></path><path clip-path="url(#clip190)" d="M29.7248 572.902 L35.1993 572.902 Q33.8307 575.384 33.1623 577.899 Q32.4621 580.381 32.4621 582.928 Q32.4621 588.625 36.0905 591.776 Q39.6872 594.927 46.212 594.927 Q52.7369 594.927 56.3653 591.776 Q59.9619 588.625 59.9619 582.928 Q59.9619 580.381 59.2935 577.899 Q58.5933 575.384 57.2247 572.902 L62.6355 572.902 Q63.7814 575.353 64.3543 577.994 Q64.9272 580.604 64.9272 583.564 Q64.9272 591.617 59.8664 596.359 Q54.8057 601.102 46.212 601.102 Q37.491 601.102 32.4939 596.328 Q27.4968 591.521 27.4968 583.182 Q27.4968 580.477 28.0697 577.899 Q28.6108 575.321 29.7248 572.902 Z" fill="#000000" fill-rule="nonzero" fill-opacity="1"></path><path clip-path="url(#clip190)" d="M32.4621 548.903 Q32.4621 553.614 36.1542 556.351 Q39.8145 559.088 46.212 559.088 Q52.6095 559.088 56.3017 556.383 Q59.9619 553.645 59.9619 548.903 Q59.9619 544.224 56.2698 541.487 Q52.5777 538.75 46.212 538.75 Q39.8781 538.75 36.186 541.487 Q32.4621 544.224 32.4621 548.903 M27.4968 548.903 Q27.4968 541.264 32.4621 536.904 Q37.4273 532.543 46.212 532.543 Q54.9649 532.543 59.9619 536.904 Q64.9272 541.264 64.9272 548.903 Q64.9272 556.574 59.9619 560.934 Q54.9649 565.263 46.212 565.263 Q37.4273 565.263 32.4621 560.934 Q27.4968 556.574 27.4968 548.903 Z" fill="#000000" fill-rule="nonzero" fill-opacity="1"></path><path clip-path="url(#clip190)" d="M42.4881 493.203 L64.0042 493.203 L64.0042 499.06 L42.679 499.06 Q37.6183 499.06 35.1038 501.033 Q32.5894 503.006 32.5894 506.953 Q32.5894 511.695 35.6131 514.433 Q38.6368 517.17 43.8567 517.17 L64.0042 517.17 L64.0042 523.058 L28.3562 523.058 L28.3562 517.17 L33.8944 517.17 Q30.6797 515.069 29.0883 512.237 Q27.4968 509.372 27.4968 505.648 Q27.4968 499.505 31.3163 496.354 Q35.1038 493.203 42.4881 493.203 Z" fill="#000000" fill-rule="nonzero" fill-opacity="1"></path><path clip-path="url(#clip190)" d="M33.7671 458.064 L14.479 458.064 L14.479 452.208 L64.0042 452.208 L64.0042 458.064 L58.657 458.064 Q61.8398 459.91 63.3994 462.743 Q64.9272 465.544 64.9272 469.491 Q64.9272 475.952 59.771 480.026 Q54.6147 484.068 46.212 484.068 Q37.8093 484.068 32.6531 480.026 Q27.4968 475.952 27.4968 469.491 Q27.4968 465.544 29.0564 462.743 Q30.5842 459.91 33.7671 458.064 M46.212 478.021 Q52.6732 478.021 56.3653 475.379 Q60.0256 472.705 60.0256 468.059 Q60.0256 463.412 56.3653 460.738 Q52.6732 458.064 46.212 458.064 Q39.7508 458.064 36.0905 460.738 Q32.3984 463.412 32.3984 468.059 Q32.3984 472.705 36.0905 475.379 Q39.7508 478.021 46.212 478.021 Z" fill="#000000" fill-rule="nonzero" fill-opacity="1"></path><path clip-path="url(#clip190)" d="M29.4065 417.419 L34.9447 417.419 Q33.6716 419.902 33.035 422.576 Q32.3984 425.249 32.3984 428.114 Q32.3984 432.474 33.7352 434.67 Q35.072 436.835 37.7456 436.835 Q39.7826 436.835 40.9603 435.275 Q42.1061 433.716 43.1565 429.005 L43.6021 427 Q44.9389 420.761 47.3897 418.151 Q49.8086 415.51 54.1691 415.51 Q59.1344 415.51 62.0308 419.456 Q64.9272 423.371 64.9272 430.246 Q64.9272 433.111 64.3543 436.23 Q63.8132 439.317 62.6992 442.755 L56.6518 442.755 Q58.3387 439.508 59.198 436.357 Q60.0256 433.206 60.0256 430.119 Q60.0256 425.981 58.6251 423.753 Q57.1929 421.525 54.6147 421.525 Q52.2276 421.525 50.9545 423.148 Q49.6813 424.74 48.5037 430.183 L48.0262 432.22 Q46.8804 437.662 44.5251 440.081 Q42.138 442.5 38.0002 442.5 Q32.9713 442.5 30.2341 438.935 Q27.4968 435.371 27.4968 428.814 Q27.4968 425.567 27.9743 422.703 Q28.4517 419.838 29.4065 417.419 Z" fill="#000000" fill-rule="nonzero" fill-opacity="1"></path><path clip-path="url(#clip190)" d="M14.5426 407.107 L14.5426 402.014 Q22.0542 397.24 29.2474 394.885 Q36.4406 392.498 43.5384 392.498 Q50.668 392.498 57.8931 394.885 Q65.1182 397.24 72.5979 402.014 L72.5979 407.107 Q65.3091 402.874 58.1159 400.805 Q50.8908 398.704 43.5384 398.704 Q36.186 398.704 29.0246 400.805 Q21.8632 402.874 14.5426 407.107 Z" fill="#000000" fill-rule="nonzero" fill-opacity="1"></path><path clip-path="url(#clip190)" d="M354.149 17.6457 Q345.237 17.6457 339.971 24.2892 Q334.745 30.9327 334.745 42.3968 Q334.745 53.8203 339.971 60.4638 Q345.237 67.1073 354.149 67.1073 Q363.061 67.1073 368.246 60.4638 Q373.472 53.8203 373.472 42.3968 Q373.472 30.9327 368.246 24.2892 Q363.061 17.6457 354.149 17.6457 M354.149 11.0023 Q366.869 11.0023 374.484 19.5497 Q382.1 28.0566 382.1 42.3968 Q382.1 56.6965 374.484 65.2439 Q366.869 73.7508 354.149 73.7508 Q341.388 73.7508 333.732 65.2439 Q326.117 56.737 326.117 42.3968 Q326.117 28.0566 333.732 19.5497 Q341.388 11.0023 354.149 11.0023 Z" fill="#000000" fill-rule="nonzero" fill-opacity="1"></path><path clip-path="url(#clip190)" d="M401.787 65.7705 L401.787 89.8329 L394.293 89.8329 L394.293 27.2059 L401.787 27.2059 L401.787 34.0924 Q404.137 30.0415 407.702 28.0971 Q411.307 26.1121 416.29 26.1121 Q424.554 26.1121 429.698 32.6746 Q434.883 39.2371 434.883 49.9314 Q434.883 60.6258 429.698 67.1883 Q424.554 73.7508 416.29 73.7508 Q411.307 73.7508 407.702 71.8063 Q404.137 69.8214 401.787 65.7705 M427.146 49.9314 Q427.146 41.7081 423.743 37.0496 Q420.381 32.3505 414.467 32.3505 Q408.552 32.3505 405.15 37.0496 Q401.787 41.7081 401.787 49.9314 Q401.787 58.1548 405.15 62.8538 Q408.552 67.5124 414.467 67.5124 Q420.381 67.5124 423.743 62.8538 Q427.146 58.1548 427.146 49.9314 Z" fill="#000000" fill-rule="nonzero" fill-opacity="1"></path><path clip-path="url(#clip190)" d="M454.611 14.324 L454.611 27.2059 L469.964 27.2059 L469.964 32.9987 L454.611 32.9987 L454.611 57.6282 Q454.611 63.1779 456.11 64.7578 Q457.649 66.3376 462.308 66.3376 L469.964 66.3376 L469.964 72.576 L462.308 72.576 Q453.68 72.576 450.398 69.3758 Q447.117 66.1351 447.117 57.6282 L447.117 32.9987 L441.648 32.9987 L441.648 27.2059 L447.117 27.2059 L447.117 14.324 L454.611 14.324 Z" fill="#000000" fill-rule="nonzero" fill-opacity="1"></path><path clip-path="url(#clip190)" d="M479.767 27.2059 L487.221 27.2059 L487.221 72.576 L479.767 72.576 L479.767 27.2059 M479.767 9.54393 L487.221 9.54393 L487.221 18.9825 L479.767 18.9825 L479.767 9.54393 Z" fill="#000000" fill-rule="nonzero" fill-opacity="1"></path><path clip-path="url(#clip190)" d="M538.141 35.9153 Q540.936 30.8922 544.825 28.5022 Q548.714 26.1121 553.98 26.1121 Q561.069 26.1121 564.917 31.0947 Q568.766 36.0368 568.766 45.1919 L568.766 72.576 L561.272 72.576 L561.272 45.4349 Q561.272 38.913 558.963 35.7533 Q556.654 32.5936 551.914 32.5936 Q546.121 32.5936 542.759 36.4419 Q539.397 40.2903 539.397 46.9338 L539.397 72.576 L531.903 72.576 L531.903 45.4349 Q531.903 38.8725 529.593 35.7533 Q527.284 32.5936 522.464 32.5936 Q516.752 32.5936 513.39 36.4824 Q510.028 40.3308 510.028 46.9338 L510.028 72.576 L502.533 72.576 L502.533 27.2059 L510.028 27.2059 L510.028 34.2544 Q512.58 30.082 516.144 28.0971 Q519.709 26.1121 524.611 26.1121 Q529.553 26.1121 532.996 28.6237 Q536.48 31.1352 538.141 35.9153 Z" fill="#000000" fill-rule="nonzero" fill-opacity="1"></path><path clip-path="url(#clip190)" d="M583.633 27.2059 L591.086 27.2059 L591.086 72.576 L583.633 72.576 L583.633 27.2059 M583.633 9.54393 L591.086 9.54393 L591.086 18.9825 L583.633 18.9825 L583.633 9.54393 Z" fill="#000000" fill-rule="nonzero" fill-opacity="1"></path><path clip-path="url(#clip190)" d="M603.441 27.2059 L638.846 27.2059 L638.846 34.0114 L610.814 66.6212 L638.846 66.6212 L638.846 72.576 L602.429 72.576 L602.429 65.7705 L630.461 33.1607 L603.441 33.1607 L603.441 27.2059 Z" fill="#000000" fill-rule="nonzero" fill-opacity="1"></path><path clip-path="url(#clip190)" d="M670.849 49.7694 Q661.815 49.7694 658.331 51.8354 Q654.847 53.9013 654.847 58.8839 Q654.847 62.8538 657.44 65.2034 Q660.073 67.5124 664.57 67.5124 Q670.768 67.5124 674.494 63.1374 Q678.262 58.7219 678.262 51.4303 L678.262 49.7694 L670.849 49.7694 M685.715 46.6907 L685.715 72.576 L678.262 72.576 L678.262 65.6895 Q675.71 69.8214 671.902 71.8063 Q668.094 73.7508 662.585 73.7508 Q655.617 73.7508 651.485 69.8619 Q647.394 65.9325 647.394 59.3701 Q647.394 51.7138 652.498 47.825 Q657.643 43.9361 667.81 43.9361 L678.262 43.9361 L678.262 43.2069 Q678.262 38.0623 674.859 35.2672 Q671.497 32.4315 665.38 32.4315 Q661.491 32.4315 657.805 33.3632 Q654.118 34.295 650.716 36.1584 L650.716 29.2718 Q654.807 27.692 658.655 26.9223 Q662.504 26.1121 666.149 26.1121 Q675.993 26.1121 680.854 31.2163 Q685.715 36.3204 685.715 46.6907 Z" fill="#000000" fill-rule="nonzero" fill-opacity="1"></path><path clip-path="url(#clip190)" d="M708.441 14.324 L708.441 27.2059 L723.794 27.2059 L723.794 32.9987 L708.441 32.9987 L708.441 57.6282 Q708.441 63.1779 709.94 64.7578 Q711.479 66.3376 716.138 66.3376 L723.794 66.3376 L723.794 72.576 L716.138 72.576 Q707.509 72.576 704.228 69.3758 Q700.947 66.1351 700.947 57.6282 L700.947 32.9987 L695.478 32.9987 L695.478 27.2059 L700.947 27.2059 L700.947 14.324 L708.441 14.324 Z" fill="#000000" fill-rule="nonzero" fill-opacity="1"></path><path clip-path="url(#clip190)" d="M733.597 27.2059 L741.051 27.2059 L741.051 72.576 L733.597 72.576 L733.597 27.2059 M733.597 9.54393 L741.051 9.54393 L741.051 18.9825 L733.597 18.9825 L733.597 9.54393 Z" fill="#000000" fill-rule="nonzero" fill-opacity="1"></path><path clip-path="url(#clip190)" d="M774.228 32.4315 Q768.232 32.4315 764.748 37.1306 Q761.265 41.7891 761.265 49.9314 Q761.265 58.0738 764.708 62.7728 Q768.192 67.4314 774.228 67.4314 Q780.182 67.4314 783.666 62.7323 Q787.15 58.0333 787.15 49.9314 Q787.15 41.8701 783.666 37.1711 Q780.182 32.4315 774.228 32.4315 M774.228 26.1121 Q783.95 26.1121 789.5 32.4315 Q795.049 38.7509 795.049 49.9314 Q795.049 61.0714 789.5 67.4314 Q783.95 73.7508 774.228 73.7508 Q764.465 73.7508 758.915 67.4314 Q753.406 61.0714 753.406 49.9314 Q753.406 38.7509 758.915 32.4315 Q764.465 26.1121 774.228 26.1121 Z" fill="#000000" fill-rule="nonzero" fill-opacity="1"></path><path clip-path="url(#clip190)" d="M845.118 45.1919 L845.118 72.576 L837.665 72.576 L837.665 45.4349 Q837.665 38.994 835.153 35.7938 Q832.642 32.5936 827.619 32.5936 Q821.583 32.5936 818.099 36.4419 Q814.615 40.2903 814.615 46.9338 L814.615 72.576 L807.121 72.576 L807.121 27.2059 L814.615 27.2059 L814.615 34.2544 Q817.289 30.163 820.894 28.1376 Q824.54 26.1121 829.279 26.1121 Q837.098 26.1121 841.108 30.9732 Q845.118 35.7938 845.118 45.1919 Z" fill="#000000" fill-rule="nonzero" fill-opacity="1"></path><path clip-path="url(#clip190)" d="M893.567 65.7705 L893.567 89.8329 L886.073 89.8329 L886.073 27.2059 L893.567 27.2059 L893.567 34.0924 Q895.917 30.0415 899.482 28.0971 Q903.087 26.1121 908.069 26.1121 Q916.333 26.1121 921.478 32.6746 Q926.663 39.2371 926.663 49.9314 Q926.663 60.6258 921.478 67.1883 Q916.333 73.7508 908.069 73.7508 Q903.087 73.7508 899.482 71.8063 Q895.917 69.8214 893.567 65.7705 M918.926 49.9314 Q918.926 41.7081 915.523 37.0496 Q912.161 32.3505 906.247 32.3505 Q900.332 32.3505 896.929 37.0496 Q893.567 41.7081 893.567 49.9314 Q893.567 58.1548 896.929 62.8538 Q900.332 67.5124 906.247 67.5124 Q912.161 67.5124 915.523 62.8538 Q918.926 58.1548 918.926 49.9314 Z" fill="#000000" fill-rule="nonzero" fill-opacity="1"></path><path clip-path="url(#clip190)" d="M977.826 48.0275 L977.826 51.6733 L943.555 51.6733 Q944.042 59.3701 948.173 63.421 Q952.346 67.4314 959.759 67.4314 Q964.053 67.4314 968.063 66.3781 Q972.114 65.3249 976.084 63.2184 L976.084 70.267 Q972.074 71.9684 967.861 72.8596 Q963.648 73.7508 959.313 73.7508 Q948.457 73.7508 942.097 67.4314 Q935.778 61.1119 935.778 50.3365 Q935.778 39.1965 941.773 32.6746 Q947.809 26.1121 958.017 26.1121 Q967.172 26.1121 972.479 32.0264 Q977.826 37.9003 977.826 48.0275 M970.372 45.84 Q970.291 39.7232 966.929 36.0774 Q963.607 32.4315 958.098 32.4315 Q951.86 32.4315 948.092 35.9558 Q944.366 39.4801 943.798 45.8805 L970.372 45.84 Z" fill="#000000" fill-rule="nonzero" fill-opacity="1"></path><path clip-path="url(#clip190)" d="M1016.35 34.1734 Q1015.09 33.4443 1013.6 33.1202 Q1012.14 32.7556 1010.35 32.7556 Q1004.04 32.7556 1000.63 36.8875 Q997.27 40.9789 997.27 48.6757 L997.27 72.576 L989.776 72.576 L989.776 27.2059 L997.27 27.2059 L997.27 34.2544 Q999.62 30.1225 1003.39 28.1376 Q1007.15 26.1121 1012.54 26.1121 Q1013.31 26.1121 1014.24 26.2337 Q1015.18 26.3147 1016.31 26.5172 L1016.35 34.1734 Z" fill="#000000" fill-rule="nonzero" fill-opacity="1"></path><path clip-path="url(#clip190)" d="M1047.14 9.54393 L1047.14 15.7418 L1040.01 15.7418 Q1036 15.7418 1034.42 17.3622 Q1032.88 18.9825 1032.88 23.1955 L1032.88 27.2059 L1045.15 27.2059 L1045.15 32.9987 L1032.88 32.9987 L1032.88 72.576 L1025.38 72.576 L1025.38 32.9987 L1018.25 32.9987 L1018.25 27.2059 L1025.38 27.2059 L1025.38 24.0462 Q1025.38 16.471 1028.91 13.0277 Q1032.43 9.54393 1040.09 9.54393 L1047.14 9.54393 Z" fill="#000000" fill-rule="nonzero" fill-opacity="1"></path><path clip-path="url(#clip190)" d="M1070.96 32.4315 Q1064.96 32.4315 1061.48 37.1306 Q1057.99 41.7891 1057.99 49.9314 Q1057.99 58.0738 1061.44 62.7728 Q1064.92 67.4314 1070.96 67.4314 Q1076.91 67.4314 1080.39 62.7323 Q1083.88 58.0333 1083.88 49.9314 Q1083.88 41.8701 1080.39 37.1711 Q1076.91 32.4315 1070.96 32.4315 M1070.96 26.1121 Q1080.68 26.1121 1086.23 32.4315 Q1091.78 38.7509 1091.78 49.9314 Q1091.78 61.0714 1086.23 67.4314 Q1080.68 73.7508 1070.96 73.7508 Q1061.19 73.7508 1055.64 67.4314 Q1050.13 61.0714 1050.13 49.9314 Q1050.13 38.7509 1055.64 32.4315 Q1061.19 26.1121 1070.96 26.1121 Z" fill="#000000" fill-rule="nonzero" fill-opacity="1"></path><path clip-path="url(#clip190)" d="M1130.42 34.1734 Q1129.17 33.4443 1127.67 33.1202 Q1126.21 32.7556 1124.43 32.7556 Q1118.11 32.7556 1114.71 36.8875 Q1111.34 40.9789 1111.34 48.6757 L1111.34 72.576 L1103.85 72.576 L1103.85 27.2059 L1111.34 27.2059 L1111.34 34.2544 Q1113.69 30.1225 1117.46 28.1376 Q1121.23 26.1121 1126.62 26.1121 Q1127.39 26.1121 1128.32 26.2337 Q1129.25 26.3147 1130.38 26.5172 L1130.42 34.1734 Z" fill="#000000" fill-rule="nonzero" fill-opacity="1"></path><path clip-path="url(#clip190)" d="M1172.11 35.9153 Q1174.9 30.8922 1178.79 28.5022 Q1182.68 26.1121 1187.95 26.1121 Q1195.04 26.1121 1198.88 31.0947 Q1202.73 36.0368 1202.73 45.1919 L1202.73 72.576 L1195.24 72.576 L1195.24 45.4349 Q1195.24 38.913 1192.93 35.7533 Q1190.62 32.5936 1185.88 32.5936 Q1180.09 32.5936 1176.73 36.4419 Q1173.36 40.2903 1173.36 46.9338 L1173.36 72.576 L1165.87 72.576 L1165.87 45.4349 Q1165.87 38.8725 1163.56 35.7533 Q1161.25 32.5936 1156.43 32.5936 Q1150.72 32.5936 1147.36 36.4824 Q1143.99 40.3308 1143.99 46.9338 L1143.99 72.576 L1136.5 72.576 L1136.5 27.2059 L1143.99 27.2059 L1143.99 34.2544 Q1146.55 30.082 1150.11 28.0971 Q1153.68 26.1121 1158.58 26.1121 Q1163.52 26.1121 1166.96 28.6237 Q1170.45 31.1352 1172.11 35.9153 Z" fill="#000000" fill-rule="nonzero" fill-opacity="1"></path><path clip-path="url(#clip190)" d="M1238.22 49.7694 Q1229.18 49.7694 1225.7 51.8354 Q1222.22 53.9013 1222.22 58.8839 Q1222.22 62.8538 1224.81 65.2034 Q1227.44 67.5124 1231.94 67.5124 Q1238.14 67.5124 1241.86 63.1374 Q1245.63 58.7219 1245.63 51.4303 L1245.63 49.7694 L1238.22 49.7694 M1253.08 46.6907 L1253.08 72.576 L1245.63 72.576 L1245.63 65.6895 Q1243.08 69.8214 1239.27 71.8063 Q1235.46 73.7508 1229.95 73.7508 Q1222.99 73.7508 1218.85 69.8619 Q1214.76 65.9325 1214.76 59.3701 Q1214.76 51.7138 1219.87 47.825 Q1225.01 43.9361 1235.18 43.9361 L1245.63 43.9361 L1245.63 43.2069 Q1245.63 38.0623 1242.23 35.2672 Q1238.87 32.4315 1232.75 32.4315 Q1228.86 32.4315 1225.17 33.3632 Q1221.49 34.295 1218.09 36.1584 L1218.09 29.2718 Q1222.18 27.692 1226.02 26.9223 Q1229.87 26.1121 1233.52 26.1121 Q1243.36 26.1121 1248.22 31.2163 Q1253.08 36.3204 1253.08 46.6907 Z" fill="#000000" fill-rule="nonzero" fill-opacity="1"></path><path clip-path="url(#clip190)" d="M1306.15 45.1919 L1306.15 72.576 L1298.7 72.576 L1298.7 45.4349 Q1298.7 38.994 1296.19 35.7938 Q1293.68 32.5936 1288.65 32.5936 Q1282.62 32.5936 1279.13 36.4419 Q1275.65 40.2903 1275.65 46.9338 L1275.65 72.576 L1268.15 72.576 L1268.15 27.2059 L1275.65 27.2059 L1275.65 34.2544 Q1278.32 30.163 1281.93 28.1376 Q1285.57 26.1121 1290.31 26.1121 Q1298.13 26.1121 1302.14 30.9732 Q1306.15 35.7938 1306.15 45.1919 Z" fill="#000000" fill-rule="nonzero" fill-opacity="1"></path><path clip-path="url(#clip190)" d="M1353.67 28.9478 L1353.67 35.9153 Q1350.51 34.1734 1347.31 33.3227 Q1344.15 32.4315 1340.91 32.4315 Q1333.66 32.4315 1329.65 37.0496 Q1325.64 41.6271 1325.64 49.9314 Q1325.64 58.2358 1329.65 62.8538 Q1333.66 67.4314 1340.91 67.4314 Q1344.15 67.4314 1347.31 66.5807 Q1350.51 65.6895 1353.67 63.9476 L1353.67 70.8341 Q1350.55 72.2924 1347.19 73.0216 Q1343.87 73.7508 1340.1 73.7508 Q1329.85 73.7508 1323.81 67.3098 Q1317.78 60.8689 1317.78 49.9314 Q1317.78 38.832 1323.85 32.472 Q1329.97 26.1121 1340.58 26.1121 Q1344.03 26.1121 1347.31 26.8413 Q1350.59 27.5299 1353.67 28.9478 Z" fill="#000000" fill-rule="nonzero" fill-opacity="1"></path><path clip-path="url(#clip190)" d="M1405.44 48.0275 L1405.44 51.6733 L1371.17 51.6733 Q1371.65 59.3701 1375.79 63.421 Q1379.96 67.4314 1387.37 67.4314 Q1391.67 67.4314 1395.68 66.3781 Q1399.73 65.3249 1403.7 63.2184 L1403.7 70.267 Q1399.69 71.9684 1395.47 72.8596 Q1391.26 73.7508 1386.93 73.7508 Q1376.07 73.7508 1369.71 67.4314 Q1363.39 61.1119 1363.39 50.3365 Q1363.39 39.1965 1369.39 32.6746 Q1375.42 26.1121 1385.63 26.1121 Q1394.79 26.1121 1400.09 32.0264 Q1405.44 37.9003 1405.44 48.0275 M1397.99 45.84 Q1397.9 39.7232 1394.54 36.0774 Q1391.22 32.4315 1385.71 32.4315 Q1379.47 32.4315 1375.71 35.9558 Q1371.98 39.4801 1371.41 45.8805 L1397.99 45.84 Z" fill="#000000" fill-rule="nonzero" fill-opacity="1"></path><path clip-path="url(#clip190)" d="M1467.01 9.54393 L1467.01 15.7418 L1459.88 15.7418 Q1455.87 15.7418 1454.29 17.3622 Q1452.75 18.9825 1452.75 23.1955 L1452.75 27.2059 L1465.03 27.2059 L1465.03 32.9987 L1452.75 32.9987 L1452.75 72.576 L1445.26 72.576 L1445.26 32.9987 L1438.13 32.9987 L1438.13 27.2059 L1445.26 27.2059 L1445.26 24.0462 Q1445.26 16.471 1448.78 13.0277 Q1452.31 9.54393 1459.96 9.54393 L1467.01 9.54393 Z" fill="#000000" fill-rule="nonzero" fill-opacity="1"></path><path clip-path="url(#clip190)" d="M1490.83 32.4315 Q1484.84 32.4315 1481.35 37.1306 Q1477.87 41.7891 1477.87 49.9314 Q1477.87 58.0738 1481.31 62.7728 Q1484.8 67.4314 1490.83 67.4314 Q1496.79 67.4314 1500.27 62.7323 Q1503.75 58.0333 1503.75 49.9314 Q1503.75 41.8701 1500.27 37.1711 Q1496.79 32.4315 1490.83 32.4315 M1490.83 26.1121 Q1500.55 26.1121 1506.1 32.4315 Q1511.65 38.7509 1511.65 49.9314 Q1511.65 61.0714 1506.1 67.4314 Q1500.55 73.7508 1490.83 73.7508 Q1481.07 73.7508 1475.52 67.4314 Q1470.01 61.0714 1470.01 49.9314 Q1470.01 38.7509 1475.52 32.4315 Q1481.07 26.1121 1490.83 26.1121 Z" fill="#000000" fill-rule="nonzero" fill-opacity="1"></path><path clip-path="url(#clip190)" d="M1550.3 34.1734 Q1549.04 33.4443 1547.55 33.1202 Q1546.09 32.7556 1544.3 32.7556 Q1537.99 32.7556 1534.58 36.8875 Q1531.22 40.9789 1531.22 48.6757 L1531.22 72.576 L1523.73 72.576 L1523.73 27.2059 L1531.22 27.2059 L1531.22 34.2544 Q1533.57 30.1225 1537.34 28.1376 Q1541.1 26.1121 1546.49 26.1121 Q1547.26 26.1121 1548.19 26.2337 Q1549.13 26.3147 1550.26 26.5172 L1550.3 34.1734 Z" fill="#000000" fill-rule="nonzero" fill-opacity="1"></path><path clip-path="url(#clip190)" d="M1617.14 28.9478 L1617.14 35.9153 Q1613.98 34.1734 1610.78 33.3227 Q1607.62 32.4315 1604.38 32.4315 Q1597.13 32.4315 1593.12 37.0496 Q1589.11 41.6271 1589.11 49.9314 Q1589.11 58.2358 1593.12 62.8538 Q1597.13 67.4314 1604.38 67.4314 Q1607.62 67.4314 1610.78 66.5807 Q1613.98 65.6895 1617.14 63.9476 L1617.14 70.8341 Q1614.02 72.2924 1610.66 73.0216 Q1607.34 73.7508 1603.57 73.7508 Q1593.32 73.7508 1587.28 67.3098 Q1581.25 60.8689 1581.25 49.9314 Q1581.25 38.832 1587.33 32.472 Q1593.44 26.1121 1604.06 26.1121 Q1607.5 26.1121 1610.78 26.8413 Q1614.06 27.5299 1617.14 28.9478 Z" fill="#000000" fill-rule="nonzero" fill-opacity="1"></path><path clip-path="url(#clip190)" d="M1647.68 32.4315 Q1641.69 32.4315 1638.2 37.1306 Q1634.72 41.7891 1634.72 49.9314 Q1634.72 58.0738 1638.16 62.7728 Q1641.65 67.4314 1647.68 67.4314 Q1653.64 67.4314 1657.12 62.7323 Q1660.61 58.0333 1660.61 49.9314 Q1660.61 41.8701 1657.12 37.1711 Q1653.64 32.4315 1647.68 32.4315 M1647.68 26.1121 Q1657.41 26.1121 1662.96 32.4315 Q1668.51 38.7509 1668.51 49.9314 Q1668.51 61.0714 1662.96 67.4314 Q1657.41 73.7508 1647.68 73.7508 Q1637.92 73.7508 1632.37 67.4314 Q1626.86 61.0714 1626.86 49.9314 Q1626.86 38.7509 1632.37 32.4315 Q1637.92 26.1121 1647.68 26.1121 Z" fill="#000000" fill-rule="nonzero" fill-opacity="1"></path><path clip-path="url(#clip190)" d="M1718.57 45.1919 L1718.57 72.576 L1711.12 72.576 L1711.12 45.4349 Q1711.12 38.994 1708.61 35.7938 Q1706.1 32.5936 1701.07 32.5936 Q1695.04 32.5936 1691.55 36.4419 Q1688.07 40.2903 1688.07 46.9338 L1688.07 72.576 L1680.58 72.576 L1680.58 27.2059 L1688.07 27.2059 L1688.07 34.2544 Q1690.74 30.163 1694.35 28.1376 Q1698 26.1121 1702.74 26.1121 Q1710.55 26.1121 1714.56 30.9732 Q1718.57 35.7938 1718.57 45.1919 Z" fill="#000000" fill-rule="nonzero" fill-opacity="1"></path><path clip-path="url(#clip190)" d="M1766.09 28.9478 L1766.09 35.9153 Q1762.93 34.1734 1759.73 33.3227 Q1756.57 32.4315 1753.33 32.4315 Q1746.08 32.4315 1742.07 37.0496 Q1738.06 41.6271 1738.06 49.9314 Q1738.06 58.2358 1742.07 62.8538 Q1746.08 67.4314 1753.33 67.4314 Q1756.57 67.4314 1759.73 66.5807 Q1762.93 65.6895 1766.09 63.9476 L1766.09 70.8341 Q1762.97 72.2924 1759.61 73.0216 Q1756.29 73.7508 1752.52 73.7508 Q1742.27 73.7508 1736.24 67.3098 Q1730.2 60.8689 1730.2 49.9314 Q1730.2 38.832 1736.28 32.472 Q1742.39 26.1121 1753.01 26.1121 Q1756.45 26.1121 1759.73 26.8413 Q1763.01 27.5299 1766.09 28.9478 Z" fill="#000000" fill-rule="nonzero" fill-opacity="1"></path><path clip-path="url(#clip190)" d="M1805.34 34.1734 Q1804.09 33.4443 1802.59 33.1202 Q1801.13 32.7556 1799.35 32.7556 Q1793.03 32.7556 1789.63 36.8875 Q1786.27 40.9789 1786.27 48.6757 L1786.27 72.576 L1778.77 72.576 L1778.77 27.2059 L1786.27 27.2059 L1786.27 34.2544 Q1788.61 30.1225 1792.38 28.1376 Q1796.15 26.1121 1801.54 26.1121 Q1802.31 26.1121 1803.24 26.2337 Q1804.17 26.3147 1805.3 26.5172 L1805.34 34.1734 Z" fill="#000000" fill-rule="nonzero" fill-opacity="1"></path><path clip-path="url(#clip190)" d="M1850.15 48.0275 L1850.15 51.6733 L1815.88 51.6733 Q1816.36 59.3701 1820.5 63.421 Q1824.67 67.4314 1832.08 67.4314 Q1836.37 67.4314 1840.39 66.3781 Q1844.44 65.3249 1848.41 63.2184 L1848.41 70.267 Q1844.4 71.9684 1840.18 72.8596 Q1835.97 73.7508 1831.64 73.7508 Q1820.78 73.7508 1814.42 67.4314 Q1808.1 61.1119 1808.1 50.3365 Q1808.1 39.1965 1814.09 32.6746 Q1820.13 26.1121 1830.34 26.1121 Q1839.49 26.1121 1844.8 32.0264 Q1850.15 37.9003 1850.15 48.0275 M1842.69 45.84 Q1842.61 39.7232 1839.25 36.0774 Q1835.93 32.4315 1830.42 32.4315 Q1824.18 32.4315 1820.41 35.9558 Q1816.69 39.4801 1816.12 45.8805 L1842.69 45.84 Z" fill="#000000" fill-rule="nonzero" fill-opacity="1"></path><path clip-path="url(#clip190)" d="M1869.75 14.324 L1869.75 27.2059 L1885.11 27.2059 L1885.11 32.9987 L1869.75 32.9987 L1869.75 57.6282 Q1869.75 63.1779 1871.25 64.7578 Q1872.79 66.3376 1877.45 66.3376 L1885.11 66.3376 L1885.11 72.576 L1877.45 72.576 Q1868.82 72.576 1865.54 69.3758 Q1862.26 66.1351 1862.26 57.6282 L1862.26 32.9987 L1856.79 32.9987 L1856.79 27.2059 L1862.26 27.2059 L1862.26 14.324 L1869.75 14.324 Z" fill="#000000" fill-rule="nonzero" fill-opacity="1"></path><path clip-path="url(#clip190)" d="M1933.72 48.0275 L1933.72 51.6733 L1899.45 51.6733 Q1899.93 59.3701 1904.07 63.421 Q1908.24 67.4314 1915.65 67.4314 Q1919.94 67.4314 1923.96 66.3781 Q1928.01 65.3249 1931.98 63.2184 L1931.98 70.267 Q1927.97 71.9684 1923.75 72.8596 Q1919.54 73.7508 1915.21 73.7508 Q1904.35 73.7508 1897.99 67.4314 Q1891.67 61.1119 1891.67 50.3365 Q1891.67 39.1965 1897.66 32.6746 Q1903.7 26.1121 1913.91 26.1121 Q1923.06 26.1121 1928.37 32.0264 Q1933.72 37.9003 1933.72 48.0275 M1926.26 45.84 Q1926.18 39.7232 1922.82 36.0774 Q1919.5 32.4315 1913.99 32.4315 Q1907.75 32.4315 1903.98 35.9558 Q1900.26 39.4801 1899.69 45.8805 L1926.26 45.84 Z" fill="#000000" fill-rule="nonzero" fill-opacity="1"></path><path clip-path="url(#clip190)" d="M2002.18 34.0924 L2002.18 9.54393 L2009.63 9.54393 L2009.63 72.576 L2002.18 72.576 L2002.18 65.7705 Q1999.83 69.8214 1996.22 71.8063 Q1992.66 73.7508 1987.64 73.7508 Q1979.41 73.7508 1974.23 67.1883 Q1969.08 60.6258 1969.08 49.9314 Q1969.08 39.2371 1974.23 32.6746 Q1979.41 26.1121 1987.64 26.1121 Q1992.66 26.1121 1996.22 28.0971 Q1999.83 30.0415 2002.18 34.0924 M1976.78 49.9314 Q1976.78 58.1548 1980.14 62.8538 Q1983.54 67.5124 1989.46 67.5124 Q1995.37 67.5124 1998.78 62.8538 Q2002.18 58.1548 2002.18 49.9314 Q2002.18 41.7081 1998.78 37.0496 Q1995.37 32.3505 1989.46 32.3505 Q1983.54 32.3505 1980.14 37.0496 Q1976.78 41.7081 1976.78 49.9314 Z" fill="#000000" fill-rule="nonzero" fill-opacity="1"></path><path clip-path="url(#clip190)" d="M2045.6 49.7694 Q2036.57 49.7694 2033.09 51.8354 Q2029.6 53.9013 2029.6 58.8839 Q2029.6 62.8538 2032.2 65.2034 Q2034.83 67.5124 2039.32 67.5124 Q2045.52 67.5124 2049.25 63.1374 Q2053.02 58.7219 2053.02 51.4303 L2053.02 49.7694 L2045.6 49.7694 M2060.47 46.6907 L2060.47 72.576 L2053.02 72.576 L2053.02 65.6895 Q2050.46 69.8214 2046.66 71.8063 Q2042.85 73.7508 2037.34 73.7508 Q2030.37 73.7508 2026.24 69.8619 Q2022.15 65.9325 2022.15 59.3701 Q2022.15 51.7138 2027.25 47.825 Q2032.4 43.9361 2042.57 43.9361 L2053.02 43.9361 L2053.02 43.2069 Q2053.02 38.0623 2049.61 35.2672 Q2046.25 32.4315 2040.14 32.4315 Q2036.25 32.4315 2032.56 33.3632 Q2028.87 34.295 2025.47 36.1584 L2025.47 29.2718 Q2029.56 27.692 2033.41 26.9223 Q2037.26 26.1121 2040.9 26.1121 Q2050.75 26.1121 2055.61 31.2163 Q2060.47 36.3204 2060.47 46.6907 Z" fill="#000000" fill-rule="nonzero" fill-opacity="1"></path><path clip-path="url(#clip190)" d="M2083.2 14.324 L2083.2 27.2059 L2098.55 27.2059 L2098.55 32.9987 L2083.2 32.9987 L2083.2 57.6282 Q2083.2 63.1779 2084.7 64.7578 Q2086.23 66.3376 2090.89 66.3376 L2098.55 66.3376 L2098.55 72.576 L2090.89 72.576 Q2082.26 72.576 2078.98 69.3758 Q2075.7 66.1351 2075.7 57.6282 L2075.7 32.9987 L2070.23 32.9987 L2070.23 27.2059 L2075.7 27.2059 L2075.7 14.324 L2083.2 14.324 Z" fill="#000000" fill-rule="nonzero" fill-opacity="1"></path><path clip-path="url(#clip190)" d="M2128.97 49.7694 Q2119.94 49.7694 2116.45 51.8354 Q2112.97 53.9013 2112.97 58.8839 Q2112.97 62.8538 2115.56 65.2034 Q2118.2 67.5124 2122.69 67.5124 Q2128.89 67.5124 2132.62 63.1374 Q2136.38 58.7219 2136.38 51.4303 L2136.38 49.7694 L2128.97 49.7694 M2143.84 46.6907 L2143.84 72.576 L2136.38 72.576 L2136.38 65.6895 Q2133.83 69.8214 2130.02 71.8063 Q2126.22 73.7508 2120.71 73.7508 Q2113.74 73.7508 2109.61 69.8619 Q2105.52 65.9325 2105.52 59.3701 Q2105.52 51.7138 2110.62 47.825 Q2115.77 43.9361 2125.93 43.9361 L2136.38 43.9361 L2136.38 43.2069 Q2136.38 38.0623 2132.98 35.2672 Q2129.62 32.4315 2123.5 32.4315 Q2119.61 32.4315 2115.93 33.3632 Q2112.24 34.295 2108.84 36.1584 L2108.84 29.2718 Q2112.93 27.692 2116.78 26.9223 Q2120.63 26.1121 2124.27 26.1121 Q2134.12 26.1121 2138.98 31.2163 Q2143.84 36.3204 2143.84 46.6907 Z" fill="#000000" fill-rule="nonzero" fill-opacity="1"></path><path clip-path="url(#clip190)" d="M2188.11 28.5427 L2188.11 35.5912 Q2184.95 33.9709 2181.55 33.1607 Q2178.15 32.3505 2174.5 32.3505 Q2168.95 32.3505 2166.16 34.0519 Q2163.4 35.7533 2163.4 39.156 Q2163.4 41.7486 2165.39 43.2475 Q2167.37 44.7058 2173.37 46.0426 L2175.92 46.6097 Q2183.86 48.3111 2187.18 51.4303 Q2190.55 54.509 2190.55 60.0587 Q2190.55 66.3781 2185.52 70.0644 Q2180.54 73.7508 2171.79 73.7508 Q2168.14 73.7508 2164.17 73.0216 Q2160.24 72.3329 2155.87 70.9151 L2155.87 63.2184 Q2160 65.3654 2164.01 66.4591 Q2168.02 67.5124 2171.95 67.5124 Q2177.22 67.5124 2180.05 65.73 Q2182.89 63.9071 2182.89 60.6258 Q2182.89 57.5877 2180.82 55.9673 Q2178.8 54.3469 2171.87 52.8481 L2169.28 52.2405 Q2162.35 50.7821 2159.27 47.7845 Q2156.19 44.7463 2156.19 39.4801 Q2156.19 33.0797 2160.73 29.5959 Q2165.27 26.1121 2173.61 26.1121 Q2177.74 26.1121 2181.39 26.7198 Q2185.04 27.3274 2188.11 28.5427 Z" fill="#000000" fill-rule="nonzero" fill-opacity="1"></path><path clip-path="url(#clip190)" d="M2241.22 48.0275 L2241.22 51.6733 L2206.95 51.6733 Q2207.44 59.3701 2211.57 63.421 Q2215.74 67.4314 2223.16 67.4314 Q2227.45 67.4314 2231.46 66.3781 Q2235.51 65.3249 2239.48 63.2184 L2239.48 70.267 Q2235.47 71.9684 2231.26 72.8596 Q2227.04 73.7508 2222.71 73.7508 Q2211.85 73.7508 2205.49 67.4314 Q2199.17 61.1119 2199.17 50.3365 Q2199.17 39.1965 2205.17 32.6746 Q2211.2 26.1121 2221.41 26.1121 Q2230.57 26.1121 2235.87 32.0264 Q2241.22 37.9003 2241.22 48.0275 M2233.77 45.84 Q2233.69 39.7232 2230.33 36.0774 Q2227 32.4315 2221.49 32.4315 Q2215.26 32.4315 2211.49 35.9558 Q2207.76 39.4801 2207.19 45.8805 L2233.77 45.84 Z" fill="#000000" fill-rule="nonzero" fill-opacity="1"></path><path clip-path="url(#clip190)" d="M2260.83 14.324 L2260.83 27.2059 L2276.18 27.2059 L2276.18 32.9987 L2260.83 32.9987 L2260.83 57.6282 Q2260.83 63.1779 2262.33 64.7578 Q2263.87 66.3376 2268.53 66.3376 L2276.18 66.3376 L2276.18 72.576 L2268.53 72.576 Q2259.9 72.576 2256.62 69.3758 Q2253.33 66.1351 2253.33 57.6282 L2253.33 32.9987 L2247.87 32.9987 L2247.87 27.2059 L2253.33 27.2059 L2253.33 14.324 L2260.83 14.324 Z" fill="#000000" fill-rule="nonzero" fill-opacity="1"></path><polyline clip-path="url(#clip192)" style="stroke:#800080; stroke-linecap:round; stroke-linejoin:round; stroke-width:4; stroke-opacity:1; fill:none" points="309.067,1345.7 413.497,1329.15 622.356,1258.76 935.645,1156.72 1248.93,1004.3 1771.08,759.846 2293.23,467.452 "></polyline>
<line clip-path="url(#clip192)" x1="309.067" y1="1345.7" x2="293.067" y2="1329.7" style="stroke:#800080; stroke-width:4; stroke-opacity:1"></line>
<line clip-path="url(#clip192)" x1="309.067" y1="1345.7" x2="293.067" y2="1361.7" style="stroke:#800080; stroke-width:4; stroke-opacity:1"></line>
<line clip-path="url(#clip192)" x1="309.067" y1="1345.7" x2="325.067" y2="1361.7" style="stroke:#800080; stroke-width:4; stroke-opacity:1"></line>
<line clip-path="url(#clip192)" x1="309.067" y1="1345.7" x2="325.067" y2="1329.7" style="stroke:#800080; stroke-width:4; stroke-opacity:1"></line>
<line clip-path="url(#clip192)" x1="413.497" y1="1329.15" x2="397.497" y2="1313.15" style="stroke:#800080; stroke-width:4; stroke-opacity:1"></line>
<line clip-path="url(#clip192)" x1="413.497" y1="1329.15" x2="397.497" y2="1345.15" style="stroke:#800080; stroke-width:4; stroke-opacity:1"></line>
<line clip-path="url(#clip192)" x1="413.497" y1="1329.15" x2="429.497" y2="1345.15" style="stroke:#800080; stroke-width:4; stroke-opacity:1"></line>
<line clip-path="url(#clip192)" x1="413.497" y1="1329.15" x2="429.497" y2="1313.15" style="stroke:#800080; stroke-width:4; stroke-opacity:1"></line>
<line clip-path="url(#clip192)" x1="622.356" y1="1258.76" x2="606.356" y2="1242.76" style="stroke:#800080; stroke-width:4; stroke-opacity:1"></line>
<line clip-path="url(#clip192)" x1="622.356" y1="1258.76" x2="606.356" y2="1274.76" style="stroke:#800080; stroke-width:4; stroke-opacity:1"></line>
<line clip-path="url(#clip192)" x1="622.356" y1="1258.76" x2="638.356" y2="1274.76" style="stroke:#800080; stroke-width:4; stroke-opacity:1"></line>
<line clip-path="url(#clip192)" x1="622.356" y1="1258.76" x2="638.356" y2="1242.76" style="stroke:#800080; stroke-width:4; stroke-opacity:1"></line>
<line clip-path="url(#clip192)" x1="935.645" y1="1156.72" x2="919.645" y2="1140.72" style="stroke:#800080; stroke-width:4; stroke-opacity:1"></line>
<line clip-path="url(#clip192)" x1="935.645" y1="1156.72" x2="919.645" y2="1172.72" style="stroke:#800080; stroke-width:4; stroke-opacity:1"></line>
<line clip-path="url(#clip192)" x1="935.645" y1="1156.72" x2="951.645" y2="1172.72" style="stroke:#800080; stroke-width:4; stroke-opacity:1"></line>
<line clip-path="url(#clip192)" x1="935.645" y1="1156.72" x2="951.645" y2="1140.72" style="stroke:#800080; stroke-width:4; stroke-opacity:1"></line>
<line clip-path="url(#clip192)" x1="1248.93" y1="1004.3" x2="1232.93" y2="988.303" style="stroke:#800080; stroke-width:4; stroke-opacity:1"></line>
<line clip-path="url(#clip192)" x1="1248.93" y1="1004.3" x2="1232.93" y2="1020.3" style="stroke:#800080; stroke-width:4; stroke-opacity:1"></line>
<line clip-path="url(#clip192)" x1="1248.93" y1="1004.3" x2="1264.93" y2="1020.3" style="stroke:#800080; stroke-width:4; stroke-opacity:1"></line>
<line clip-path="url(#clip192)" x1="1248.93" y1="1004.3" x2="1264.93" y2="988.303" style="stroke:#800080; stroke-width:4; stroke-opacity:1"></line>
<line clip-path="url(#clip192)" x1="1771.08" y1="759.846" x2="1755.08" y2="743.846" style="stroke:#800080; stroke-width:4; stroke-opacity:1"></line>
<line clip-path="url(#clip192)" x1="1771.08" y1="759.846" x2="1755.08" y2="775.846" style="stroke:#800080; stroke-width:4; stroke-opacity:1"></line>
<line clip-path="url(#clip192)" x1="1771.08" y1="759.846" x2="1787.08" y2="775.846" style="stroke:#800080; stroke-width:4; stroke-opacity:1"></line>
<line clip-path="url(#clip192)" x1="1771.08" y1="759.846" x2="1787.08" y2="743.846" style="stroke:#800080; stroke-width:4; stroke-opacity:1"></line>
<line clip-path="url(#clip192)" x1="2293.23" y1="467.452" x2="2277.23" y2="451.452" style="stroke:#800080; stroke-width:4; stroke-opacity:1"></line>
<line clip-path="url(#clip192)" x1="2293.23" y1="467.452" x2="2277.23" y2="483.452" style="stroke:#800080; stroke-width:4; stroke-opacity:1"></line>
<line clip-path="url(#clip192)" x1="2293.23" y1="467.452" x2="2309.23" y2="483.452" style="stroke:#800080; stroke-width:4; stroke-opacity:1"></line>
<line clip-path="url(#clip192)" x1="2293.23" y1="467.452" x2="2309.23" y2="451.452" style="stroke:#800080; stroke-width:4; stroke-opacity:1"></line>
<polyline clip-path="url(#clip192)" style="stroke:#0000ff; stroke-linecap:round; stroke-linejoin:round; stroke-width:4; stroke-opacity:1; fill:none" points="309.067,1386.4 413.497,1361.98 622.356,1311.06 935.645,1237.4 1248.93,943.232 1771.08,693.206 2293.23,160.256 "></polyline>
<line clip-path="url(#clip192)" x1="309.067" y1="1386.4" x2="293.067" y2="1370.4" style="stroke:#0000ff; stroke-width:4; stroke-opacity:1"></line>
<line clip-path="url(#clip192)" x1="309.067" y1="1386.4" x2="293.067" y2="1402.4" style="stroke:#0000ff; stroke-width:4; stroke-opacity:1"></line>
<line clip-path="url(#clip192)" x1="309.067" y1="1386.4" x2="325.067" y2="1402.4" style="stroke:#0000ff; stroke-width:4; stroke-opacity:1"></line>
<line clip-path="url(#clip192)" x1="309.067" y1="1386.4" x2="325.067" y2="1370.4" style="stroke:#0000ff; stroke-width:4; stroke-opacity:1"></line>
<line clip-path="url(#clip192)" x1="413.497" y1="1361.98" x2="397.497" y2="1345.98" style="stroke:#0000ff; stroke-width:4; stroke-opacity:1"></line>
<line clip-path="url(#clip192)" x1="413.497" y1="1361.98" x2="397.497" y2="1377.98" style="stroke:#0000ff; stroke-width:4; stroke-opacity:1"></line>
<line clip-path="url(#clip192)" x1="413.497" y1="1361.98" x2="429.497" y2="1377.98" style="stroke:#0000ff; stroke-width:4; stroke-opacity:1"></line>
<line clip-path="url(#clip192)" x1="413.497" y1="1361.98" x2="429.497" y2="1345.98" style="stroke:#0000ff; stroke-width:4; stroke-opacity:1"></line>
<line clip-path="url(#clip192)" x1="622.356" y1="1311.06" x2="606.356" y2="1295.06" style="stroke:#0000ff; stroke-width:4; stroke-opacity:1"></line>
<line clip-path="url(#clip192)" x1="622.356" y1="1311.06" x2="606.356" y2="1327.06" style="stroke:#0000ff; stroke-width:4; stroke-opacity:1"></line>
<line clip-path="url(#clip192)" x1="622.356" y1="1311.06" x2="638.356" y2="1327.06" style="stroke:#0000ff; stroke-width:4; stroke-opacity:1"></line>
<line clip-path="url(#clip192)" x1="622.356" y1="1311.06" x2="638.356" y2="1295.06" style="stroke:#0000ff; stroke-width:4; stroke-opacity:1"></line>
<line clip-path="url(#clip192)" x1="935.645" y1="1237.4" x2="919.645" y2="1221.4" style="stroke:#0000ff; stroke-width:4; stroke-opacity:1"></line>
<line clip-path="url(#clip192)" x1="935.645" y1="1237.4" x2="919.645" y2="1253.4" style="stroke:#0000ff; stroke-width:4; stroke-opacity:1"></line>
<line clip-path="url(#clip192)" x1="935.645" y1="1237.4" x2="951.645" y2="1253.4" style="stroke:#0000ff; stroke-width:4; stroke-opacity:1"></line>
<line clip-path="url(#clip192)" x1="935.645" y1="1237.4" x2="951.645" y2="1221.4" style="stroke:#0000ff; stroke-width:4; stroke-opacity:1"></line>
<line clip-path="url(#clip192)" x1="1248.93" y1="943.232" x2="1232.93" y2="927.232" style="stroke:#0000ff; stroke-width:4; stroke-opacity:1"></line>
<line clip-path="url(#clip192)" x1="1248.93" y1="943.232" x2="1232.93" y2="959.232" style="stroke:#0000ff; stroke-width:4; stroke-opacity:1"></line>
<line clip-path="url(#clip192)" x1="1248.93" y1="943.232" x2="1264.93" y2="959.232" style="stroke:#0000ff; stroke-width:4; stroke-opacity:1"></line>
<line clip-path="url(#clip192)" x1="1248.93" y1="943.232" x2="1264.93" y2="927.232" style="stroke:#0000ff; stroke-width:4; stroke-opacity:1"></line>
<line clip-path="url(#clip192)" x1="1771.08" y1="693.206" x2="1755.08" y2="677.206" style="stroke:#0000ff; stroke-width:4; stroke-opacity:1"></line>
<line clip-path="url(#clip192)" x1="1771.08" y1="693.206" x2="1755.08" y2="709.206" style="stroke:#0000ff; stroke-width:4; stroke-opacity:1"></line>
<line clip-path="url(#clip192)" x1="1771.08" y1="693.206" x2="1787.08" y2="709.206" style="stroke:#0000ff; stroke-width:4; stroke-opacity:1"></line>
<line clip-path="url(#clip192)" x1="1771.08" y1="693.206" x2="1787.08" y2="677.206" style="stroke:#0000ff; stroke-width:4; stroke-opacity:1"></line>
<line clip-path="url(#clip192)" x1="2293.23" y1="160.256" x2="2277.23" y2="144.256" style="stroke:#0000ff; stroke-width:4; stroke-opacity:1"></line>
<line clip-path="url(#clip192)" x1="2293.23" y1="160.256" x2="2277.23" y2="176.256" style="stroke:#0000ff; stroke-width:4; stroke-opacity:1"></line>
<line clip-path="url(#clip192)" x1="2293.23" y1="160.256" x2="2309.23" y2="176.256" style="stroke:#0000ff; stroke-width:4; stroke-opacity:1"></line>
<line clip-path="url(#clip192)" x1="2293.23" y1="160.256" x2="2309.23" y2="144.256" style="stroke:#0000ff; stroke-width:4; stroke-opacity:1"></line>
<path clip-path="url(#clip190)" d="M319.649 322.316 L956.265 322.316 L956.265 166.796 L319.649 166.796  Z" fill="#ffffff" fill-rule="evenodd" fill-opacity="1"></path>
<polyline clip-path="url(#clip190)" style="stroke:#000000; stroke-linecap:round; stroke-linejoin:round; stroke-width:4; stroke-opacity:1; fill:none" points="319.649,322.316 956.265,322.316 956.265,166.796 319.649,166.796 319.649,322.316 "></polyline>
<polyline clip-path="url(#clip190)" style="stroke:#800080; stroke-linecap:round; stroke-linejoin:round; stroke-width:4; stroke-opacity:1; fill:none" points="343.018,218.636 483.232,218.636 "></polyline>
<line clip-path="url(#clip190)" x1="413.125" y1="218.636" x2="391.487" y2="196.998" style="stroke:#800080; stroke-width:4.55111; stroke-opacity:1"></line>
<line clip-path="url(#clip190)" x1="413.125" y1="218.636" x2="391.487" y2="240.274" style="stroke:#800080; stroke-width:4.55111; stroke-opacity:1"></line>
<line clip-path="url(#clip190)" x1="413.125" y1="218.636" x2="434.763" y2="240.274" style="stroke:#800080; stroke-width:4.55111; stroke-opacity:1"></line>
<line clip-path="url(#clip190)" x1="413.125" y1="218.636" x2="434.763" y2="196.998" style="stroke:#800080; stroke-width:4.55111; stroke-opacity:1"></line>
<path clip-path="url(#clip190)" d="M506.602 201.356 L512.898 201.356 L528.222 230.268 L528.222 201.356 L532.759 201.356 L532.759 235.916 L526.463 235.916 L511.139 207.004 L511.139 235.916 L506.602 235.916 L506.602 201.356 Z" fill="#000000" fill-rule="nonzero" fill-opacity="1"></path><path clip-path="url(#clip190)" d="M551.925 212.976 Q548.499 212.976 546.509 215.661 Q544.518 218.323 544.518 222.976 Q544.518 227.629 546.486 230.314 Q548.476 232.976 551.925 232.976 Q555.328 232.976 557.319 230.291 Q559.31 227.606 559.31 222.976 Q559.31 218.37 557.319 215.684 Q555.328 212.976 551.925 212.976 M551.925 209.365 Q557.481 209.365 560.652 212.976 Q563.823 216.587 563.823 222.976 Q563.823 229.342 560.652 232.976 Q557.481 236.587 551.925 236.587 Q546.347 236.587 543.175 232.976 Q540.027 229.342 540.027 222.976 Q540.027 216.587 543.175 212.976 Q546.347 209.365 551.925 209.365 Z" fill="#000000" fill-rule="nonzero" fill-opacity="1"></path><path clip-path="url(#clip190)" d="M585.907 213.971 Q585.189 213.555 584.333 213.37 Q583.499 213.161 582.481 213.161 Q578.87 213.161 576.925 215.522 Q575.004 217.86 575.004 222.258 L575.004 235.916 L570.722 235.916 L570.722 209.99 L575.004 209.99 L575.004 214.018 Q576.347 211.657 578.499 210.522 Q580.652 209.365 583.731 209.365 Q584.171 209.365 584.703 209.434 Q585.235 209.481 585.883 209.596 L585.907 213.971 Z" fill="#000000" fill-rule="nonzero" fill-opacity="1"></path><path clip-path="url(#clip190)" d="M609.726 214.967 Q611.323 212.096 613.545 210.731 Q615.768 209.365 618.777 209.365 Q622.828 209.365 625.027 212.212 Q627.226 215.036 627.226 220.268 L627.226 235.916 L622.943 235.916 L622.943 220.407 Q622.943 216.68 621.624 214.874 Q620.305 213.069 617.596 213.069 Q614.286 213.069 612.365 215.268 Q610.444 217.467 610.444 221.263 L610.444 235.916 L606.161 235.916 L606.161 220.407 Q606.161 216.657 604.842 214.874 Q603.522 213.069 600.768 213.069 Q597.504 213.069 595.583 215.291 Q593.661 217.49 593.661 221.263 L593.661 235.916 L589.379 235.916 L589.379 209.99 L593.661 209.99 L593.661 214.018 Q595.12 211.633 597.157 210.499 Q599.194 209.365 601.995 209.365 Q604.819 209.365 606.786 210.8 Q608.777 212.235 609.726 214.967 Z" fill="#000000" fill-rule="nonzero" fill-opacity="1"></path><path clip-path="url(#clip190)" d="M647.504 222.883 Q642.342 222.883 640.351 224.064 Q638.36 225.244 638.36 228.092 Q638.36 230.36 639.842 231.703 Q641.346 233.022 643.916 233.022 Q647.457 233.022 649.587 230.522 Q651.74 227.999 651.74 223.832 L651.74 222.883 L647.504 222.883 M655.999 221.124 L655.999 235.916 L651.74 235.916 L651.74 231.981 Q650.281 234.342 648.105 235.476 Q645.929 236.587 642.781 236.587 Q638.8 236.587 636.439 234.365 Q634.101 232.119 634.101 228.369 Q634.101 223.994 637.017 221.772 Q639.957 219.55 645.767 219.55 L651.74 219.55 L651.74 219.133 Q651.74 216.194 649.795 214.596 Q647.874 212.976 644.379 212.976 Q642.156 212.976 640.05 213.508 Q637.943 214.041 635.999 215.106 L635.999 211.17 Q638.337 210.268 640.536 209.828 Q642.735 209.365 644.818 209.365 Q650.443 209.365 653.221 212.282 Q655.999 215.198 655.999 221.124 Z" fill="#000000" fill-rule="nonzero" fill-opacity="1"></path><path clip-path="url(#clip190)" d="M664.772 199.897 L669.031 199.897 L669.031 235.916 L664.772 235.916 L664.772 199.897 Z" fill="#000000" fill-rule="nonzero" fill-opacity="1"></path><path clip-path="url(#clip190)" d="M710.073 213.925 L710.073 199.897 L714.332 199.897 L714.332 235.916 L710.073 235.916 L710.073 232.027 Q708.73 234.342 706.67 235.476 Q704.633 236.587 701.762 236.587 Q697.063 236.587 694.101 232.837 Q691.161 229.087 691.161 222.976 Q691.161 216.865 694.101 213.115 Q697.063 209.365 701.762 209.365 Q704.633 209.365 706.67 210.499 Q708.73 211.61 710.073 213.925 M695.559 222.976 Q695.559 227.675 697.48 230.36 Q699.425 233.022 702.804 233.022 Q706.184 233.022 708.128 230.36 Q710.073 227.675 710.073 222.976 Q710.073 218.277 708.128 215.615 Q706.184 212.93 702.804 212.93 Q699.425 212.93 697.48 215.615 Q695.559 218.277 695.559 222.976 Z" fill="#000000" fill-rule="nonzero" fill-opacity="1"></path><path clip-path="url(#clip190)" d="M745.281 221.888 L745.281 223.971 L725.698 223.971 Q725.975 228.369 728.336 230.684 Q730.721 232.976 734.957 232.976 Q737.41 232.976 739.702 232.374 Q742.017 231.772 744.285 230.569 L744.285 234.596 Q741.994 235.568 739.586 236.078 Q737.179 236.587 734.702 236.587 Q728.498 236.587 724.864 232.976 Q721.253 229.365 721.253 223.207 Q721.253 216.842 724.679 213.115 Q728.128 209.365 733.961 209.365 Q739.193 209.365 742.225 212.745 Q745.281 216.101 745.281 221.888 M741.022 220.638 Q740.975 217.143 739.054 215.059 Q737.156 212.976 734.008 212.976 Q730.443 212.976 728.29 214.99 Q726.161 217.004 725.836 220.661 L741.022 220.638 Z" fill="#000000" fill-rule="nonzero" fill-opacity="1"></path><path clip-path="url(#clip190)" d="M756.392 232.027 L756.392 245.777 L752.109 245.777 L752.109 209.99 L756.392 209.99 L756.392 213.925 Q757.734 211.61 759.771 210.499 Q761.832 209.365 764.679 209.365 Q769.401 209.365 772.341 213.115 Q775.304 216.865 775.304 222.976 Q775.304 229.087 772.341 232.837 Q769.401 236.587 764.679 236.587 Q761.832 236.587 759.771 235.476 Q757.734 234.342 756.392 232.027 M770.882 222.976 Q770.882 218.277 768.938 215.615 Q767.017 212.93 763.637 212.93 Q760.258 212.93 758.313 215.615 Q756.392 218.277 756.392 222.976 Q756.392 227.675 758.313 230.36 Q760.258 233.022 763.637 233.022 Q767.017 233.022 768.938 230.36 Q770.882 227.675 770.882 222.976 Z" fill="#000000" fill-rule="nonzero" fill-opacity="1"></path><path clip-path="url(#clip190)" d="M786.577 202.629 L786.577 209.99 L795.35 209.99 L795.35 213.3 L786.577 213.3 L786.577 227.374 Q786.577 230.545 787.433 231.448 Q788.313 232.351 790.975 232.351 L795.35 232.351 L795.35 235.916 L790.975 235.916 Q786.044 235.916 784.169 234.087 Q782.294 232.235 782.294 227.374 L782.294 213.3 L779.169 213.3 L779.169 209.99 L782.294 209.99 L782.294 202.629 L786.577 202.629 Z" fill="#000000" fill-rule="nonzero" fill-opacity="1"></path><path clip-path="url(#clip190)" d="M822.503 220.268 L822.503 235.916 L818.243 235.916 L818.243 220.407 Q818.243 216.726 816.808 214.897 Q815.373 213.069 812.503 213.069 Q809.054 213.069 807.063 215.268 Q805.072 217.467 805.072 221.263 L805.072 235.916 L800.79 235.916 L800.79 199.897 L805.072 199.897 L805.072 214.018 Q806.6 211.68 808.66 210.522 Q810.743 209.365 813.452 209.365 Q817.919 209.365 820.211 212.143 Q822.503 214.897 822.503 220.268 Z" fill="#000000" fill-rule="nonzero" fill-opacity="1"></path><path clip-path="url(#clip190)" d="M860.836 217.282 Q864.192 217.999 866.067 220.268 Q867.965 222.536 867.965 225.869 Q867.965 230.985 864.447 233.786 Q860.928 236.587 854.447 236.587 Q852.271 236.587 849.956 236.147 Q847.664 235.731 845.211 234.874 L845.211 230.36 Q847.155 231.494 849.47 232.073 Q851.785 232.652 854.308 232.652 Q858.706 232.652 860.998 230.916 Q863.313 229.18 863.313 225.869 Q863.313 222.814 861.16 221.101 Q859.03 219.365 855.211 219.365 L851.183 219.365 L851.183 215.522 L855.396 215.522 Q858.845 215.522 860.674 214.157 Q862.502 212.768 862.502 210.175 Q862.502 207.513 860.604 206.101 Q858.729 204.666 855.211 204.666 Q853.289 204.666 851.09 205.083 Q848.891 205.499 846.252 206.379 L846.252 202.212 Q848.914 201.471 851.229 201.101 Q853.567 200.731 855.627 200.731 Q860.951 200.731 864.053 203.161 Q867.155 205.569 867.155 209.689 Q867.155 212.559 865.512 214.55 Q863.868 216.518 860.836 217.282 Z" fill="#000000" fill-rule="nonzero" fill-opacity="1"></path><polyline clip-path="url(#clip190)" style="stroke:#0000ff; stroke-linecap:round; stroke-linejoin:round; stroke-width:4; stroke-opacity:1; fill:none" points="343.018,270.476 483.232,270.476 "></polyline>
<line clip-path="url(#clip190)" x1="413.125" y1="270.476" x2="391.487" y2="248.838" style="stroke:#0000ff; stroke-width:4.55111; stroke-opacity:1"></line>
<line clip-path="url(#clip190)" x1="413.125" y1="270.476" x2="391.487" y2="292.114" style="stroke:#0000ff; stroke-width:4.55111; stroke-opacity:1"></line>
<line clip-path="url(#clip190)" x1="413.125" y1="270.476" x2="434.763" y2="292.114" style="stroke:#0000ff; stroke-width:4.55111; stroke-opacity:1"></line>
<line clip-path="url(#clip190)" x1="413.125" y1="270.476" x2="434.763" y2="248.838" style="stroke:#0000ff; stroke-width:4.55111; stroke-opacity:1"></line>
<path clip-path="url(#clip190)" d="M522.435 257.802 L516.092 275.001 L528.8 275.001 L522.435 257.802 M519.796 253.196 L525.097 253.196 L538.268 287.756 L533.407 287.756 L530.259 278.89 L514.68 278.89 L511.532 287.756 L506.602 287.756 L519.796 253.196 Z" fill="#000000" fill-rule="nonzero" fill-opacity="1"></path><path clip-path="url(#clip190)" d="M543.129 251.737 L547.388 251.737 L547.388 287.756 L543.129 287.756 L543.129 251.737 Z" fill="#000000" fill-rule="nonzero" fill-opacity="1"></path><path clip-path="url(#clip190)" d="M573.36 274.492 Q573.36 269.862 571.439 267.316 Q569.541 264.77 566.092 264.77 Q562.666 264.77 560.745 267.316 Q558.847 269.862 558.847 274.492 Q558.847 279.098 560.745 281.645 Q562.666 284.191 566.092 284.191 Q569.541 284.191 571.439 281.645 Q573.36 279.098 573.36 274.492 M577.62 284.538 Q577.62 291.158 574.68 294.376 Q571.74 297.617 565.675 297.617 Q563.43 297.617 561.439 297.27 Q559.448 296.945 557.573 296.251 L557.573 292.108 Q559.448 293.126 561.277 293.612 Q563.106 294.098 565.004 294.098 Q569.194 294.098 571.277 291.899 Q573.36 289.723 573.36 285.302 L573.36 283.196 Q572.041 285.487 569.981 286.621 Q567.921 287.756 565.05 287.756 Q560.282 287.756 557.365 284.121 Q554.448 280.487 554.448 274.492 Q554.448 268.473 557.365 264.839 Q560.282 261.205 565.05 261.205 Q567.921 261.205 569.981 262.339 Q572.041 263.473 573.36 265.765 L573.36 261.83 L577.62 261.83 L577.62 284.538 Z" fill="#000000" fill-rule="nonzero" fill-opacity="1"></path><path clip-path="url(#clip190)" d="M596.439 264.816 Q593.013 264.816 591.022 267.501 Q589.032 270.163 589.032 274.816 Q589.032 279.469 590.999 282.154 Q592.99 284.816 596.439 284.816 Q599.842 284.816 601.832 282.131 Q603.823 279.446 603.823 274.816 Q603.823 270.21 601.832 267.524 Q599.842 264.816 596.439 264.816 M596.439 261.205 Q601.995 261.205 605.166 264.816 Q608.337 268.427 608.337 274.816 Q608.337 281.182 605.166 284.816 Q601.995 288.427 596.439 288.427 Q590.86 288.427 587.689 284.816 Q584.541 281.182 584.541 274.816 Q584.541 268.427 587.689 264.816 Q590.86 261.205 596.439 261.205 Z" fill="#000000" fill-rule="nonzero" fill-opacity="1"></path><path clip-path="url(#clip190)" d="M630.42 265.811 Q629.703 265.395 628.846 265.21 Q628.013 265.001 626.994 265.001 Q623.383 265.001 621.439 267.362 Q619.518 269.7 619.518 274.098 L619.518 287.756 L615.235 287.756 L615.235 261.83 L619.518 261.83 L619.518 265.858 Q620.86 263.497 623.013 262.362 Q625.166 261.205 628.244 261.205 Q628.684 261.205 629.217 261.274 Q629.749 261.321 630.397 261.436 L630.42 265.811 Z" fill="#000000" fill-rule="nonzero" fill-opacity="1"></path><path clip-path="url(#clip190)" d="M634.888 261.83 L639.147 261.83 L639.147 287.756 L634.888 287.756 L634.888 261.83 M634.888 251.737 L639.147 251.737 L639.147 257.131 L634.888 257.131 L634.888 251.737 Z" fill="#000000" fill-rule="nonzero" fill-opacity="1"></path><path clip-path="url(#clip190)" d="M652.272 254.469 L652.272 261.83 L661.045 261.83 L661.045 265.14 L652.272 265.14 L652.272 279.214 Q652.272 282.385 653.128 283.288 Q654.008 284.191 656.67 284.191 L661.045 284.191 L661.045 287.756 L656.67 287.756 Q651.74 287.756 649.865 285.927 Q647.99 284.075 647.99 279.214 L647.99 265.14 L644.865 265.14 L644.865 261.83 L647.99 261.83 L647.99 254.469 L652.272 254.469 Z" fill="#000000" fill-rule="nonzero" fill-opacity="1"></path><path clip-path="url(#clip190)" d="M688.198 272.108 L688.198 287.756 L683.939 287.756 L683.939 272.247 Q683.939 268.566 682.503 266.737 Q681.068 264.909 678.198 264.909 Q674.749 264.909 672.758 267.108 Q670.767 269.307 670.767 273.103 L670.767 287.756 L666.485 287.756 L666.485 251.737 L670.767 251.737 L670.767 265.858 Q672.295 263.52 674.355 262.362 Q676.439 261.205 679.147 261.205 Q683.614 261.205 685.906 263.983 Q688.198 266.737 688.198 272.108 Z" fill="#000000" fill-rule="nonzero" fill-opacity="1"></path><path clip-path="url(#clip190)" d="M716.878 266.807 Q718.475 263.936 720.698 262.571 Q722.92 261.205 725.929 261.205 Q729.98 261.205 732.179 264.052 Q734.378 266.876 734.378 272.108 L734.378 287.756 L730.096 287.756 L730.096 272.247 Q730.096 268.52 728.776 266.714 Q727.457 264.909 724.748 264.909 Q721.438 264.909 719.517 267.108 Q717.596 269.307 717.596 273.103 L717.596 287.756 L713.313 287.756 L713.313 272.247 Q713.313 268.497 711.994 266.714 Q710.674 264.909 707.92 264.909 Q704.656 264.909 702.735 267.131 Q700.813 269.33 700.813 273.103 L700.813 287.756 L696.531 287.756 L696.531 261.83 L700.813 261.83 L700.813 265.858 Q702.272 263.473 704.309 262.339 Q706.346 261.205 709.147 261.205 Q711.971 261.205 713.938 262.64 Q715.929 264.075 716.878 266.807 Z" fill="#000000" fill-rule="nonzero" fill-opacity="1"></path><path clip-path="url(#clip190)" d="M775.003 265.765 L775.003 251.737 L779.262 251.737 L779.262 287.756 L775.003 287.756 L775.003 283.867 Q773.66 286.182 771.6 287.316 Q769.563 288.427 766.693 288.427 Q761.994 288.427 759.031 284.677 Q756.091 280.927 756.091 274.816 Q756.091 268.705 759.031 264.955 Q761.994 261.205 766.693 261.205 Q769.563 261.205 771.6 262.339 Q773.66 263.45 775.003 265.765 M760.489 274.816 Q760.489 279.515 762.41 282.2 Q764.355 284.862 767.734 284.862 Q771.114 284.862 773.058 282.2 Q775.003 279.515 775.003 274.816 Q775.003 270.117 773.058 267.455 Q771.114 264.77 767.734 264.77 Q764.355 264.77 762.41 267.455 Q760.489 270.117 760.489 274.816 Z" fill="#000000" fill-rule="nonzero" fill-opacity="1"></path><path clip-path="url(#clip190)" d="M810.211 273.728 L810.211 275.811 L790.628 275.811 Q790.906 280.209 793.267 282.524 Q795.651 284.816 799.887 284.816 Q802.341 284.816 804.632 284.214 Q806.947 283.612 809.216 282.409 L809.216 286.436 Q806.924 287.408 804.517 287.918 Q802.109 288.427 799.632 288.427 Q793.429 288.427 789.794 284.816 Q786.183 281.205 786.183 275.047 Q786.183 268.682 789.609 264.955 Q793.058 261.205 798.892 261.205 Q804.123 261.205 807.155 264.585 Q810.211 267.941 810.211 273.728 M805.952 272.478 Q805.905 268.983 803.984 266.899 Q802.086 264.816 798.938 264.816 Q795.373 264.816 793.22 266.83 Q791.091 268.844 790.767 272.501 L805.952 272.478 Z" fill="#000000" fill-rule="nonzero" fill-opacity="1"></path><path clip-path="url(#clip190)" d="M821.322 283.867 L821.322 297.617 L817.04 297.617 L817.04 261.83 L821.322 261.83 L821.322 265.765 Q822.665 263.45 824.702 262.339 Q826.762 261.205 829.609 261.205 Q834.331 261.205 837.271 264.955 Q840.234 268.705 840.234 274.816 Q840.234 280.927 837.271 284.677 Q834.331 288.427 829.609 288.427 Q826.762 288.427 824.702 287.316 Q822.665 286.182 821.322 283.867 M835.813 274.816 Q835.813 270.117 833.868 267.455 Q831.947 264.77 828.567 264.77 Q825.188 264.77 823.243 267.455 Q821.322 270.117 821.322 274.816 Q821.322 279.515 823.243 282.2 Q825.188 284.862 828.567 284.862 Q831.947 284.862 833.868 282.2 Q835.813 279.515 835.813 274.816 Z" fill="#000000" fill-rule="nonzero" fill-opacity="1"></path><path clip-path="url(#clip190)" d="M851.507 254.469 L851.507 261.83 L860.28 261.83 L860.28 265.14 L851.507 265.14 L851.507 279.214 Q851.507 282.385 852.364 283.288 Q853.243 284.191 855.905 284.191 L860.28 284.191 L860.28 287.756 L855.905 287.756 Q850.975 287.756 849.1 285.927 Q847.225 284.075 847.225 279.214 L847.225 265.14 L844.1 265.14 L844.1 261.83 L847.225 261.83 L847.225 254.469 L851.507 254.469 Z" fill="#000000" fill-rule="nonzero" fill-opacity="1"></path><path clip-path="url(#clip190)" d="M887.433 272.108 L887.433 287.756 L883.174 287.756 L883.174 272.247 Q883.174 268.566 881.738 266.737 Q880.303 264.909 877.433 264.909 Q873.984 264.909 871.993 267.108 Q870.002 269.307 870.002 273.103 L870.002 287.756 L865.72 287.756 L865.72 251.737 L870.002 251.737 L870.002 265.858 Q871.53 263.52 873.59 262.362 Q875.674 261.205 878.382 261.205 Q882.849 261.205 885.141 263.983 Q887.433 266.737 887.433 272.108 Z" fill="#000000" fill-rule="nonzero" fill-opacity="1"></path><path clip-path="url(#clip190)" d="M925.766 269.122 Q929.122 269.839 930.997 272.108 Q932.896 274.376 932.896 277.709 Q932.896 282.825 929.377 285.626 Q925.859 288.427 919.377 288.427 Q917.201 288.427 914.886 287.987 Q912.595 287.571 910.141 286.714 L910.141 282.2 Q912.085 283.334 914.4 283.913 Q916.715 284.492 919.238 284.492 Q923.636 284.492 925.928 282.756 Q928.243 281.02 928.243 277.709 Q928.243 274.654 926.09 272.941 Q923.96 271.205 920.141 271.205 L916.113 271.205 L916.113 267.362 L920.326 267.362 Q923.775 267.362 925.604 265.997 Q927.433 264.608 927.433 262.015 Q927.433 259.353 925.534 257.941 Q923.659 256.506 920.141 256.506 Q918.22 256.506 916.021 256.923 Q913.822 257.339 911.183 258.219 L911.183 254.052 Q913.845 253.311 916.159 252.941 Q918.497 252.571 920.558 252.571 Q925.882 252.571 928.984 255.001 Q932.085 257.409 932.085 261.529 Q932.085 264.399 930.442 266.39 Q928.798 268.358 925.766 269.122 Z" fill="#000000" fill-rule="nonzero" fill-opacity="1"></path></svg>