<svg xmlns="http://www.w3.org/2000/svg" xmlns:xlink="http://www.w3.org/1999/xlink" width="600" height="400" viewBox="0 0 2400 1600">
<defs>
  <clipPath id="clip350">
    <rect x="0" y="0" width="2400" height="1600"></rect>
  </clipPath>
</defs>
<path clip-path="url(#clip350)" d="M0 1600 L2400 1600 L2400 0 L0 0  Z" fill="#ffffff" fill-rule="evenodd" fill-opacity="1"></path>
<defs>
  <clipPath id="clip351">
    <rect x="480" y="0" width="1681" height="1600"></rect>
  </clipPath>
</defs>
<path clip-path="url(#clip350)" d="M262.551 1423.18 L2352.76 1423.18 L2352.76 123.472 L262.551 123.472  Z" fill="#ffffff" fill-rule="evenodd" fill-opacity="1"></path>
<defs>
  <clipPath id="clip352">
    <rect x="262" y="123" width="2091" height="1301"></rect>
  </clipPath>
</defs>
<polyline clip-path="url(#clip352)" style="stroke:#000000; stroke-linecap:round; stroke-linejoin:round; stroke-width:2; stroke-opacity:0.1; fill:none" points="633.059,1423.18 633.059,123.472 "></polyline>
<polyline clip-path="url(#clip352)" style="stroke:#000000; stroke-linecap:round; stroke-linejoin:round; stroke-width:2; stroke-opacity:0.1; fill:none" points="1048.19,1423.18 1048.19,123.472 "></polyline>
<polyline clip-path="url(#clip352)" style="stroke:#000000; stroke-linecap:round; stroke-linejoin:round; stroke-width:2; stroke-opacity:0.1; fill:none" points="1463.33,1423.18 1463.33,123.472 "></polyline>
<polyline clip-path="url(#clip352)" style="stroke:#000000; stroke-linecap:round; stroke-linejoin:round; stroke-width:2; stroke-opacity:0.1; fill:none" points="1878.46,1423.18 1878.46,123.472 "></polyline>
<polyline clip-path="url(#clip352)" style="stroke:#000000; stroke-linecap:round; stroke-linejoin:round; stroke-width:2; stroke-opacity:0.1; fill:none" points="2293.6,1423.18 2293.6,123.472 "></polyline>
<polyline clip-path="url(#clip350)" style="stroke:#000000; stroke-linecap:round; stroke-linejoin:round; stroke-width:4; stroke-opacity:1; fill:none" points="262.551,1423.18 2352.76,1423.18 "></polyline>
<polyline clip-path="url(#clip350)" style="stroke:#000000; stroke-linecap:round; stroke-linejoin:round; stroke-width:4; stroke-opacity:1; fill:none" points="633.059,1423.18 633.059,1404.28 "></polyline>
<polyline clip-path="url(#clip350)" style="stroke:#000000; stroke-linecap:round; stroke-linejoin:round; stroke-width:4; stroke-opacity:1; fill:none" points="1048.19,1423.18 1048.19,1404.28 "></polyline>
<polyline clip-path="url(#clip350)" style="stroke:#000000; stroke-linecap:round; stroke-linejoin:round; stroke-width:4; stroke-opacity:1; fill:none" points="1463.33,1423.18 1463.33,1404.28 "></polyline>
<polyline clip-path="url(#clip350)" style="stroke:#000000; stroke-linecap:round; stroke-linejoin:round; stroke-width:4; stroke-opacity:1; fill:none" points="1878.46,1423.18 1878.46,1404.28 "></polyline>
<polyline clip-path="url(#clip350)" style="stroke:#000000; stroke-linecap:round; stroke-linejoin:round; stroke-width:4; stroke-opacity:1; fill:none" points="2293.6,1423.18 2293.6,1404.28 "></polyline>
<path clip-path="url(#clip350)" d="M596.752 1481.64 L613.071 1481.64 L613.071 1485.58 L591.127 1485.58 L591.127 1481.64 Q593.789 1478.89 598.372 1474.26 Q602.978 1469.61 604.159 1468.27 Q606.404 1465.74 607.284 1464.01 Q608.187 1462.25 608.187 1460.56 Q608.187 1457.8 606.242 1456.07 Q604.321 1454.33 601.219 1454.33 Q599.02 1454.33 596.566 1455.09 Q594.136 1455.86 591.358 1457.41 L591.358 1452.69 Q594.182 1451.55 596.636 1450.97 Q599.089 1450.39 601.127 1450.39 Q606.497 1450.39 609.691 1453.08 Q612.886 1455.77 612.886 1460.26 Q612.886 1462.39 612.076 1464.31 Q611.288 1466.2 609.182 1468.8 Q608.603 1469.47 605.501 1472.69 Q602.4 1475.88 596.752 1481.64 Z" fill="#000000" fill-rule="nonzero" fill-opacity="1"></path><path clip-path="url(#clip350)" d="M632.886 1454.1 Q629.275 1454.1 627.446 1457.66 Q625.64 1461.2 625.64 1468.33 Q625.64 1475.44 627.446 1479.01 Q629.275 1482.55 632.886 1482.55 Q636.52 1482.55 638.325 1479.01 Q640.154 1475.44 640.154 1468.33 Q640.154 1461.2 638.325 1457.66 Q636.52 1454.1 632.886 1454.1 M632.886 1450.39 Q638.696 1450.39 641.751 1455 Q644.83 1459.58 644.83 1468.33 Q644.83 1477.06 641.751 1481.67 Q638.696 1486.25 632.886 1486.25 Q627.075 1486.25 623.997 1481.67 Q620.941 1477.06 620.941 1468.33 Q620.941 1459.58 623.997 1455 Q627.075 1450.39 632.886 1450.39 Z" fill="#000000" fill-rule="nonzero" fill-opacity="1"></path><path clip-path="url(#clip350)" d="M663.047 1454.1 Q659.436 1454.1 657.608 1457.66 Q655.802 1461.2 655.802 1468.33 Q655.802 1475.44 657.608 1479.01 Q659.436 1482.55 663.047 1482.55 Q666.682 1482.55 668.487 1479.01 Q670.316 1475.44 670.316 1468.33 Q670.316 1461.2 668.487 1457.66 Q666.682 1454.1 663.047 1454.1 M663.047 1450.39 Q668.858 1450.39 671.913 1455 Q674.992 1459.58 674.992 1468.33 Q674.992 1477.06 671.913 1481.67 Q668.858 1486.25 663.047 1486.25 Q657.237 1486.25 654.159 1481.67 Q651.103 1477.06 651.103 1468.33 Q651.103 1459.58 654.159 1455 Q657.237 1450.39 663.047 1450.39 Z" fill="#000000" fill-rule="nonzero" fill-opacity="1"></path><path clip-path="url(#clip350)" d="M1021.28 1455.09 L1009.48 1473.54 L1021.28 1473.54 L1021.28 1455.09 M1020.06 1451.02 L1025.94 1451.02 L1025.94 1473.54 L1030.87 1473.54 L1030.87 1477.43 L1025.94 1477.43 L1025.94 1485.58 L1021.28 1485.58 L1021.28 1477.43 L1005.68 1477.43 L1005.68 1472.92 L1020.06 1451.02 Z" fill="#000000" fill-rule="nonzero" fill-opacity="1"></path><path clip-path="url(#clip350)" d="M1048.6 1454.1 Q1044.99 1454.1 1043.16 1457.66 Q1041.35 1461.2 1041.35 1468.33 Q1041.35 1475.44 1043.16 1479.01 Q1044.99 1482.55 1048.6 1482.55 Q1052.23 1482.55 1054.04 1479.01 Q1055.87 1475.44 1055.87 1468.33 Q1055.87 1461.2 1054.04 1457.66 Q1052.23 1454.1 1048.6 1454.1 M1048.6 1450.39 Q1054.41 1450.39 1057.46 1455 Q1060.54 1459.58 1060.54 1468.33 Q1060.54 1477.06 1057.46 1481.67 Q1054.41 1486.25 1048.6 1486.25 Q1042.79 1486.25 1039.71 1481.67 Q1036.65 1477.06 1036.65 1468.33 Q1036.65 1459.58 1039.71 1455 Q1042.79 1450.39 1048.6 1450.39 Z" fill="#000000" fill-rule="nonzero" fill-opacity="1"></path><path clip-path="url(#clip350)" d="M1078.76 1454.1 Q1075.15 1454.1 1073.32 1457.66 Q1071.52 1461.2 1071.52 1468.33 Q1071.52 1475.44 1073.32 1479.01 Q1075.15 1482.55 1078.76 1482.55 Q1082.4 1482.55 1084.2 1479.01 Q1086.03 1475.44 1086.03 1468.33 Q1086.03 1461.2 1084.2 1457.66 Q1082.4 1454.1 1078.76 1454.1 M1078.76 1450.39 Q1084.57 1450.39 1087.63 1455 Q1090.71 1459.58 1090.71 1468.33 Q1090.71 1477.06 1087.63 1481.67 Q1084.57 1486.25 1078.76 1486.25 Q1072.95 1486.25 1069.87 1481.67 Q1066.82 1477.06 1066.82 1468.33 Q1066.82 1459.58 1069.87 1455 Q1072.95 1450.39 1078.76 1450.39 Z" fill="#000000" fill-rule="nonzero" fill-opacity="1"></path><path clip-path="url(#clip350)" d="M1433.65 1466.44 Q1430.51 1466.44 1428.65 1468.59 Q1426.82 1470.74 1426.82 1474.49 Q1426.82 1478.22 1428.65 1480.39 Q1430.51 1482.55 1433.65 1482.55 Q1436.8 1482.55 1438.63 1480.39 Q1440.48 1478.22 1440.48 1474.49 Q1440.48 1470.74 1438.63 1468.59 Q1436.8 1466.44 1433.65 1466.44 M1442.94 1451.78 L1442.94 1456.04 Q1441.18 1455.21 1439.37 1454.77 Q1437.59 1454.33 1435.83 1454.33 Q1431.2 1454.33 1428.75 1457.45 Q1426.32 1460.58 1425.97 1466.9 Q1427.33 1464.89 1429.39 1463.82 Q1431.45 1462.73 1433.93 1462.73 Q1439.14 1462.73 1442.15 1465.9 Q1445.18 1469.05 1445.18 1474.49 Q1445.18 1479.82 1442.03 1483.03 Q1438.88 1486.25 1433.65 1486.25 Q1427.66 1486.25 1424.49 1481.67 Q1421.32 1477.06 1421.32 1468.33 Q1421.32 1460.14 1425.2 1455.28 Q1429.09 1450.39 1435.64 1450.39 Q1437.4 1450.39 1439.19 1450.74 Q1440.99 1451.09 1442.94 1451.78 Z" fill="#000000" fill-rule="nonzero" fill-opacity="1"></path><path clip-path="url(#clip350)" d="M1463.24 1454.1 Q1459.63 1454.1 1457.8 1457.66 Q1455.99 1461.2 1455.99 1468.33 Q1455.99 1475.44 1457.8 1479.01 Q1459.63 1482.55 1463.24 1482.55 Q1466.87 1482.55 1468.68 1479.01 Q1470.51 1475.44 1470.51 1468.33 Q1470.51 1461.2 1468.68 1457.66 Q1466.87 1454.1 1463.24 1454.1 M1463.24 1450.39 Q1469.05 1450.39 1472.1 1455 Q1475.18 1459.58 1475.18 1468.33 Q1475.18 1477.06 1472.1 1481.67 Q1469.05 1486.25 1463.24 1486.25 Q1457.43 1486.25 1454.35 1481.67 Q1451.29 1477.06 1451.29 1468.33 Q1451.29 1459.58 1454.35 1455 Q1457.43 1450.39 1463.24 1450.39 Z" fill="#000000" fill-rule="nonzero" fill-opacity="1"></path><path clip-path="url(#clip350)" d="M1493.4 1454.1 Q1489.79 1454.1 1487.96 1457.66 Q1486.15 1461.2 1486.15 1468.33 Q1486.15 1475.44 1487.96 1479.01 Q1489.79 1482.55 1493.4 1482.55 Q1497.03 1482.55 1498.84 1479.01 Q1500.67 1475.44 1500.67 1468.33 Q1500.67 1461.2 1498.84 1457.66 Q1497.03 1454.1 1493.4 1454.1 M1493.4 1450.39 Q1499.21 1450.39 1502.26 1455 Q1505.34 1459.58 1505.34 1468.33 Q1505.34 1477.06 1502.26 1481.67 Q1499.21 1486.25 1493.4 1486.25 Q1487.59 1486.25 1484.51 1481.67 Q1481.45 1477.06 1481.45 1468.33 Q1481.45 1459.58 1484.51 1455 Q1487.59 1450.39 1493.4 1450.39 Z" fill="#000000" fill-rule="nonzero" fill-opacity="1"></path><path clip-path="url(#clip350)" d="M1848.26 1469.17 Q1844.92 1469.17 1843 1470.95 Q1841.1 1472.73 1841.1 1475.86 Q1841.1 1478.98 1843 1480.77 Q1844.92 1482.55 1848.26 1482.55 Q1851.59 1482.55 1853.51 1480.77 Q1855.43 1478.96 1855.43 1475.86 Q1855.43 1472.73 1853.51 1470.95 Q1851.61 1469.17 1848.26 1469.17 M1843.58 1467.18 Q1840.57 1466.44 1838.88 1464.38 Q1837.21 1462.32 1837.21 1459.35 Q1837.21 1455.21 1840.15 1452.8 Q1843.12 1450.39 1848.26 1450.39 Q1853.42 1450.39 1856.36 1452.8 Q1859.3 1455.21 1859.3 1459.35 Q1859.3 1462.32 1857.61 1464.38 Q1855.94 1466.44 1852.96 1467.18 Q1856.33 1467.96 1858.21 1470.26 Q1860.11 1472.55 1860.11 1475.86 Q1860.11 1480.88 1857.03 1483.57 Q1853.97 1486.25 1848.26 1486.25 Q1842.54 1486.25 1839.46 1483.57 Q1836.4 1480.88 1836.4 1475.86 Q1836.4 1472.55 1838.3 1470.26 Q1840.2 1467.96 1843.58 1467.18 M1841.87 1459.79 Q1841.87 1462.48 1843.53 1463.98 Q1845.22 1465.49 1848.26 1465.49 Q1851.27 1465.49 1852.96 1463.98 Q1854.67 1462.48 1854.67 1459.79 Q1854.67 1457.11 1852.96 1455.6 Q1851.27 1454.1 1848.26 1454.1 Q1845.22 1454.1 1843.53 1455.6 Q1841.87 1457.11 1841.87 1459.79 Z" fill="#000000" fill-rule="nonzero" fill-opacity="1"></path><path clip-path="url(#clip350)" d="M1878.42 1454.1 Q1874.81 1454.1 1872.98 1457.66 Q1871.17 1461.2 1871.17 1468.33 Q1871.17 1475.44 1872.98 1479.01 Q1874.81 1482.55 1878.42 1482.55 Q1882.05 1482.55 1883.86 1479.01 Q1885.69 1475.44 1885.69 1468.33 Q1885.69 1461.2 1883.86 1457.66 Q1882.05 1454.1 1878.42 1454.1 M1878.42 1450.39 Q1884.23 1450.39 1887.28 1455 Q1890.36 1459.58 1890.36 1468.33 Q1890.36 1477.06 1887.28 1481.67 Q1884.23 1486.25 1878.42 1486.25 Q1872.61 1486.25 1869.53 1481.67 Q1866.47 1477.06 1866.47 1468.33 Q1866.47 1459.58 1869.53 1455 Q1872.61 1450.39 1878.42 1450.39 Z" fill="#000000" fill-rule="nonzero" fill-opacity="1"></path><path clip-path="url(#clip350)" d="M1908.58 1454.1 Q1904.97 1454.1 1903.14 1457.66 Q1901.33 1461.2 1901.33 1468.33 Q1901.33 1475.44 1903.14 1479.01 Q1904.97 1482.55 1908.58 1482.55 Q1912.21 1482.55 1914.02 1479.01 Q1915.85 1475.44 1915.85 1468.33 Q1915.85 1461.2 1914.02 1457.66 Q1912.21 1454.1 1908.58 1454.1 M1908.58 1450.39 Q1914.39 1450.39 1917.45 1455 Q1920.52 1459.58 1920.52 1468.33 Q1920.52 1477.06 1917.45 1481.67 Q1914.39 1486.25 1908.58 1486.25 Q1902.77 1486.25 1899.69 1481.67 Q1896.64 1477.06 1896.64 1468.33 Q1896.64 1459.58 1899.69 1455 Q1902.77 1450.39 1908.58 1450.39 Z" fill="#000000" fill-rule="nonzero" fill-opacity="1"></path><path clip-path="url(#clip350)" d="M2238.12 1481.64 L2245.76 1481.64 L2245.76 1455.28 L2237.45 1456.95 L2237.45 1452.69 L2245.72 1451.02 L2250.39 1451.02 L2250.39 1481.64 L2258.03 1481.64 L2258.03 1485.58 L2238.12 1485.58 L2238.12 1481.64 Z" fill="#000000" fill-rule="nonzero" fill-opacity="1"></path><path clip-path="url(#clip350)" d="M2277.48 1454.1 Q2273.87 1454.1 2272.04 1457.66 Q2270.23 1461.2 2270.23 1468.33 Q2270.23 1475.44 2272.04 1479.01 Q2273.87 1482.55 2277.48 1482.55 Q2281.11 1482.55 2282.92 1479.01 Q2284.75 1475.44 2284.75 1468.33 Q2284.75 1461.2 2282.92 1457.66 Q2281.11 1454.1 2277.48 1454.1 M2277.48 1450.39 Q2283.29 1450.39 2286.34 1455 Q2289.42 1459.58 2289.42 1468.33 Q2289.42 1477.06 2286.34 1481.67 Q2283.29 1486.25 2277.48 1486.25 Q2271.67 1486.25 2268.59 1481.67 Q2265.53 1477.06 2265.53 1468.33 Q2265.53 1459.58 2268.59 1455 Q2271.67 1450.39 2277.48 1450.39 Z" fill="#000000" fill-rule="nonzero" fill-opacity="1"></path><path clip-path="url(#clip350)" d="M2307.64 1454.1 Q2304.03 1454.1 2302.2 1457.66 Q2300.39 1461.2 2300.39 1468.33 Q2300.39 1475.44 2302.2 1479.01 Q2304.03 1482.55 2307.64 1482.55 Q2311.27 1482.55 2313.08 1479.01 Q2314.91 1475.44 2314.91 1468.33 Q2314.91 1461.2 2313.08 1457.66 Q2311.27 1454.1 2307.64 1454.1 M2307.64 1450.39 Q2313.45 1450.39 2316.5 1455 Q2319.58 1459.58 2319.58 1468.33 Q2319.58 1477.06 2316.5 1481.67 Q2313.45 1486.25 2307.64 1486.25 Q2301.83 1486.25 2298.75 1481.67 Q2295.69 1477.06 2295.69 1468.33 Q2295.69 1459.58 2298.75 1455 Q2301.83 1450.39 2307.64 1450.39 Z" fill="#000000" fill-rule="nonzero" fill-opacity="1"></path><path clip-path="url(#clip350)" d="M2337.8 1454.1 Q2334.19 1454.1 2332.36 1457.66 Q2330.55 1461.2 2330.55 1468.33 Q2330.55 1475.44 2332.36 1479.01 Q2334.19 1482.55 2337.8 1482.55 Q2341.43 1482.55 2343.24 1479.01 Q2345.07 1475.44 2345.07 1468.33 Q2345.07 1461.2 2343.24 1457.66 Q2341.43 1454.1 2337.8 1454.1 M2337.8 1450.39 Q2343.61 1450.39 2346.67 1455 Q2349.74 1459.58 2349.74 1468.33 Q2349.74 1477.06 2346.67 1481.67 Q2343.61 1486.25 2337.8 1486.25 Q2331.99 1486.25 2328.91 1481.67 Q2325.86 1477.06 2325.86 1468.33 Q2325.86 1459.58 2328.91 1455 Q2331.99 1450.39 2337.8 1450.39 Z" fill="#000000" fill-rule="nonzero" fill-opacity="1"></path><path clip-path="url(#clip350)" d="M1046.83 1520.52 L1055.49 1520.52 L1076.56 1560.28 L1076.56 1520.52 L1082.8 1520.52 L1082.8 1568.04 L1074.14 1568.04 L1053.07 1528.29 L1053.07 1568.04 L1046.83 1568.04 L1046.83 1520.52 Z" fill="#000000" fill-rule="nonzero" fill-opacity="1"></path><path clip-path="url(#clip350)" d="M1094.74 1553.98 L1094.74 1532.4 L1100.59 1532.4 L1100.59 1553.75 Q1100.59 1558.81 1102.57 1561.36 Q1104.54 1563.87 1108.49 1563.87 Q1113.23 1563.87 1115.97 1560.85 Q1118.74 1557.83 1118.74 1552.61 L1118.74 1532.4 L1124.59 1532.4 L1124.59 1568.04 L1118.74 1568.04 L1118.74 1562.57 Q1116.6 1565.82 1113.77 1567.41 Q1110.97 1568.97 1107.25 1568.97 Q1101.1 1568.97 1097.92 1565.15 Q1094.74 1561.33 1094.74 1553.98 M1109.47 1531.54 L1109.47 1531.54 Z" fill="#000000" fill-rule="nonzero" fill-opacity="1"></path><path clip-path="url(#clip350)" d="M1164.41 1539.24 Q1166.61 1535.29 1169.66 1533.41 Q1172.72 1531.54 1176.85 1531.54 Q1182.42 1531.54 1185.45 1535.45 Q1188.47 1539.33 1188.47 1546.53 L1188.47 1568.04 L1182.58 1568.04 L1182.58 1546.72 Q1182.58 1541.59 1180.77 1539.11 Q1178.95 1536.63 1175.23 1536.63 Q1170.68 1536.63 1168.04 1539.65 Q1165.4 1542.68 1165.4 1547.9 L1165.4 1568.04 L1159.51 1568.04 L1159.51 1546.72 Q1159.51 1541.56 1157.69 1539.11 Q1155.88 1536.63 1152.09 1536.63 Q1147.6 1536.63 1144.96 1539.68 Q1142.32 1542.71 1142.32 1547.9 L1142.32 1568.04 L1136.43 1568.04 L1136.43 1532.4 L1142.32 1532.4 L1142.32 1537.93 Q1144.33 1534.66 1147.13 1533.1 Q1149.93 1531.54 1153.78 1531.54 Q1157.66 1531.54 1160.37 1533.51 Q1163.1 1535.48 1164.41 1539.24 Z" fill="#000000" fill-rule="nonzero" fill-opacity="1"></path><path clip-path="url(#clip350)" d="M1225.74 1550.25 Q1225.74 1543.79 1223.07 1540.13 Q1220.43 1536.44 1215.78 1536.44 Q1211.13 1536.44 1208.46 1540.13 Q1205.82 1543.79 1205.82 1550.25 Q1205.82 1556.71 1208.46 1560.4 Q1211.13 1564.07 1215.78 1564.07 Q1220.43 1564.07 1223.07 1560.4 Q1225.74 1556.71 1225.74 1550.25 M1205.82 1537.81 Q1207.66 1534.62 1210.47 1533.1 Q1213.3 1531.54 1217.21 1531.54 Q1223.71 1531.54 1227.75 1536.69 Q1231.82 1541.85 1231.82 1550.25 Q1231.82 1558.65 1227.75 1563.81 Q1223.71 1568.97 1217.21 1568.97 Q1213.3 1568.97 1210.47 1567.44 Q1207.66 1565.88 1205.82 1562.7 L1205.82 1568.04 L1199.93 1568.04 L1199.93 1518.52 L1205.82 1518.52 L1205.82 1537.81 Z" fill="#000000" fill-rule="nonzero" fill-opacity="1"></path><path clip-path="url(#clip350)" d="M1272.02 1548.76 L1272.02 1551.62 L1245.09 1551.62 Q1245.48 1557.67 1248.72 1560.85 Q1252 1564 1257.83 1564 Q1261.2 1564 1264.35 1563.17 Q1267.53 1562.35 1270.65 1560.69 L1270.65 1566.23 Q1267.5 1567.57 1264.19 1568.27 Q1260.88 1568.97 1257.48 1568.97 Q1248.95 1568.97 1243.95 1564 Q1238.98 1559.04 1238.98 1550.57 Q1238.98 1541.82 1243.69 1536.69 Q1248.44 1531.54 1256.46 1531.54 Q1263.65 1531.54 1267.82 1536.18 Q1272.02 1540.8 1272.02 1548.76 M1266.17 1547.04 Q1266.1 1542.23 1263.46 1539.37 Q1260.85 1536.5 1256.52 1536.5 Q1251.62 1536.5 1248.66 1539.27 Q1245.73 1542.04 1245.29 1547.07 L1266.17 1547.04 Z" fill="#000000" fill-rule="nonzero" fill-opacity="1"></path><path clip-path="url(#clip350)" d="M1302.29 1537.87 Q1301.3 1537.3 1300.13 1537.04 Q1298.98 1536.76 1297.58 1536.76 Q1292.61 1536.76 1289.94 1540 Q1287.3 1543.22 1287.3 1549.27 L1287.3 1568.04 L1281.41 1568.04 L1281.41 1532.4 L1287.3 1532.4 L1287.3 1537.93 Q1289.15 1534.69 1292.11 1533.13 Q1295.07 1531.54 1299.3 1531.54 Q1299.9 1531.54 1300.64 1531.63 Q1301.37 1531.7 1302.26 1531.85 L1302.29 1537.87 Z" fill="#000000" fill-rule="nonzero" fill-opacity="1"></path><path clip-path="url(#clip350)" d="M1342.97 1536.5 Q1338.26 1536.5 1335.52 1540.19 Q1332.78 1543.85 1332.78 1550.25 Q1332.78 1556.65 1335.49 1560.34 Q1338.22 1564 1342.97 1564 Q1347.65 1564 1350.38 1560.31 Q1353.12 1556.62 1353.12 1550.25 Q1353.12 1543.92 1350.38 1540.23 Q1347.65 1536.5 1342.97 1536.5 M1342.97 1531.54 Q1350.61 1531.54 1354.97 1536.5 Q1359.33 1541.47 1359.33 1550.25 Q1359.33 1559 1354.97 1564 Q1350.61 1568.97 1342.97 1568.97 Q1335.3 1568.97 1330.94 1564 Q1326.61 1559 1326.61 1550.25 Q1326.61 1541.47 1330.94 1536.5 Q1335.3 1531.54 1342.97 1531.54 Z" fill="#000000" fill-rule="nonzero" fill-opacity="1"></path><path clip-path="url(#clip350)" d="M1387.08 1518.52 L1387.08 1523.39 L1381.48 1523.39 Q1378.33 1523.39 1377.09 1524.66 Q1375.88 1525.93 1375.88 1529.24 L1375.88 1532.4 L1385.52 1532.4 L1385.52 1536.95 L1375.88 1536.95 L1375.88 1568.04 L1369.99 1568.04 L1369.99 1536.95 L1364.39 1536.95 L1364.39 1532.4 L1369.99 1532.4 L1369.99 1529.91 Q1369.99 1523.96 1372.76 1521.26 Q1375.53 1518.52 1381.54 1518.52 L1387.08 1518.52 Z" fill="#000000" fill-rule="nonzero" fill-opacity="1"></path><path clip-path="url(#clip350)" d="M1418.5 1522.27 L1418.5 1532.4 L1430.56 1532.4 L1430.56 1536.95 L1418.5 1536.95 L1418.5 1556.3 Q1418.5 1560.66 1419.67 1561.9 Q1420.88 1563.14 1424.54 1563.14 L1430.56 1563.14 L1430.56 1568.04 L1424.54 1568.04 Q1417.76 1568.04 1415.19 1565.53 Q1412.61 1562.98 1412.61 1556.3 L1412.61 1536.95 L1408.31 1536.95 L1408.31 1532.4 L1412.61 1532.4 L1412.61 1522.27 L1418.5 1522.27 Z" fill="#000000" fill-rule="nonzero" fill-opacity="1"></path><path clip-path="url(#clip350)" d="M1458.92 1537.87 Q1457.93 1537.3 1456.75 1537.04 Q1455.61 1536.76 1454.21 1536.76 Q1449.24 1536.76 1446.57 1540 Q1443.93 1543.22 1443.93 1549.27 L1443.93 1568.04 L1438.04 1568.04 L1438.04 1532.4 L1443.93 1532.4 L1443.93 1537.93 Q1445.77 1534.69 1448.73 1533.13 Q1451.69 1531.54 1455.93 1531.54 Q1456.53 1531.54 1457.26 1531.63 Q1458 1531.7 1458.89 1531.85 L1458.92 1537.87 Z" fill="#000000" fill-rule="nonzero" fill-opacity="1"></path><path clip-path="url(#clip350)" d="M1494.12 1548.76 L1494.12 1551.62 L1467.19 1551.62 Q1467.58 1557.67 1470.82 1560.85 Q1474.1 1564 1479.93 1564 Q1483.3 1564 1486.45 1563.17 Q1489.63 1562.35 1492.75 1560.69 L1492.75 1566.23 Q1489.6 1567.57 1486.29 1568.27 Q1482.98 1568.97 1479.58 1568.97 Q1471.05 1568.97 1466.05 1564 Q1461.08 1559.04 1461.08 1550.57 Q1461.08 1541.82 1465.79 1536.69 Q1470.54 1531.54 1478.56 1531.54 Q1485.75 1531.54 1489.92 1536.18 Q1494.12 1540.8 1494.12 1548.76 M1488.26 1547.04 Q1488.2 1542.23 1485.56 1539.37 Q1482.95 1536.5 1478.62 1536.5 Q1473.72 1536.5 1470.76 1539.27 Q1467.83 1542.04 1467.39 1547.07 L1488.26 1547.04 Z" fill="#000000" fill-rule="nonzero" fill-opacity="1"></path><path clip-path="url(#clip350)" d="M1534.22 1548.76 L1534.22 1551.62 L1507.3 1551.62 Q1507.68 1557.67 1510.93 1560.85 Q1514.2 1564 1520.03 1564 Q1523.4 1564 1526.55 1563.17 Q1529.74 1562.35 1532.86 1560.69 L1532.86 1566.23 Q1529.71 1567.57 1526.4 1568.27 Q1523.08 1568.97 1519.68 1568.97 Q1511.15 1568.97 1506.15 1564 Q1501.19 1559.04 1501.19 1550.57 Q1501.19 1541.82 1505.9 1536.69 Q1510.64 1531.54 1518.66 1531.54 Q1525.85 1531.54 1530.02 1536.18 Q1534.22 1540.8 1534.22 1548.76 M1528.37 1547.04 Q1528.3 1542.23 1525.66 1539.37 Q1523.05 1536.5 1518.72 1536.5 Q1513.82 1536.5 1510.86 1539.27 Q1507.93 1542.04 1507.49 1547.07 L1528.37 1547.04 Z" fill="#000000" fill-rule="nonzero" fill-opacity="1"></path><path clip-path="url(#clip350)" d="M1566.56 1533.45 L1566.56 1538.98 Q1564.08 1537.71 1561.41 1537.07 Q1558.73 1536.44 1555.87 1536.44 Q1551.51 1536.44 1549.31 1537.77 Q1547.15 1539.11 1547.15 1541.79 Q1547.15 1543.82 1548.71 1545 Q1550.27 1546.15 1554.98 1547.2 L1556.98 1547.64 Q1563.22 1548.98 1565.83 1551.43 Q1568.47 1553.85 1568.47 1558.21 Q1568.47 1563.17 1564.53 1566.07 Q1560.61 1568.97 1553.74 1568.97 Q1550.87 1568.97 1547.75 1568.39 Q1544.66 1567.85 1541.23 1566.74 L1541.23 1560.69 Q1544.47 1562.38 1547.62 1563.24 Q1550.78 1564.07 1553.86 1564.07 Q1558 1564.07 1560.23 1562.66 Q1562.46 1561.23 1562.46 1558.65 Q1562.46 1556.27 1560.83 1554.99 Q1559.24 1553.72 1553.8 1552.54 L1551.76 1552.07 Q1546.32 1550.92 1543.9 1548.56 Q1541.48 1546.18 1541.48 1542.04 Q1541.48 1537.01 1545.05 1534.27 Q1548.61 1531.54 1555.17 1531.54 Q1558.41 1531.54 1561.28 1532.01 Q1564.14 1532.49 1566.56 1533.45 Z" fill="#000000" fill-rule="nonzero" fill-opacity="1"></path><polyline clip-path="url(#clip352)" style="stroke:#000000; stroke-linecap:round; stroke-linejoin:round; stroke-width:2; stroke-opacity:0.1; fill:none" points="262.551,1387 2352.76,1387 "></polyline>
<polyline clip-path="url(#clip352)" style="stroke:#000000; stroke-linecap:round; stroke-linejoin:round; stroke-width:2; stroke-opacity:0.1; fill:none" points="262.551,1123.07 2352.76,1123.07 "></polyline>
<polyline clip-path="url(#clip352)" style="stroke:#000000; stroke-linecap:round; stroke-linejoin:round; stroke-width:2; stroke-opacity:0.1; fill:none" points="262.551,859.143 2352.76,859.143 "></polyline>
<polyline clip-path="url(#clip352)" style="stroke:#000000; stroke-linecap:round; stroke-linejoin:round; stroke-width:2; stroke-opacity:0.1; fill:none" points="262.551,595.212 2352.76,595.212 "></polyline>
<polyline clip-path="url(#clip352)" style="stroke:#000000; stroke-linecap:round; stroke-linejoin:round; stroke-width:2; stroke-opacity:0.1; fill:none" points="262.551,331.282 2352.76,331.282 "></polyline>
<polyline clip-path="url(#clip350)" style="stroke:#000000; stroke-linecap:round; stroke-linejoin:round; stroke-width:4; stroke-opacity:1; fill:none" points="262.551,1423.18 262.551,123.472 "></polyline>
<polyline clip-path="url(#clip350)" style="stroke:#000000; stroke-linecap:round; stroke-linejoin:round; stroke-width:4; stroke-opacity:1; fill:none" points="262.551,1387 281.449,1387 "></polyline>
<polyline clip-path="url(#clip350)" style="stroke:#000000; stroke-linecap:round; stroke-linejoin:round; stroke-width:4; stroke-opacity:1; fill:none" points="262.551,1123.07 281.449,1123.07 "></polyline>
<polyline clip-path="url(#clip350)" style="stroke:#000000; stroke-linecap:round; stroke-linejoin:round; stroke-width:4; stroke-opacity:1; fill:none" points="262.551,859.143 281.449,859.143 "></polyline>
<polyline clip-path="url(#clip350)" style="stroke:#000000; stroke-linecap:round; stroke-linejoin:round; stroke-width:4; stroke-opacity:1; fill:none" points="262.551,595.212 281.449,595.212 "></polyline>
<polyline clip-path="url(#clip350)" style="stroke:#000000; stroke-linecap:round; stroke-linejoin:round; stroke-width:4; stroke-opacity:1; fill:none" points="262.551,331.282 281.449,331.282 "></polyline>
<path clip-path="url(#clip350)" d="M214.607 1372.8 Q210.996 1372.8 209.167 1376.37 Q207.362 1379.91 207.362 1387.04 Q207.362 1394.15 209.167 1397.71 Q210.996 1401.25 214.607 1401.25 Q218.241 1401.25 220.047 1397.71 Q221.875 1394.15 221.875 1387.04 Q221.875 1379.91 220.047 1376.37 Q218.241 1372.8 214.607 1372.8 M214.607 1369.1 Q220.417 1369.1 223.473 1373.71 Q226.551 1378.29 226.551 1387.04 Q226.551 1395.77 223.473 1400.37 Q220.417 1404.96 214.607 1404.96 Q208.797 1404.96 205.718 1400.37 Q202.662 1395.77 202.662 1387.04 Q202.662 1378.29 205.718 1373.71 Q208.797 1369.1 214.607 1369.1 Z" fill="#000000" fill-rule="nonzero" fill-opacity="1"></path><path clip-path="url(#clip350)" d="M148.311 1136.42 L164.63 1136.42 L164.63 1140.35 L142.686 1140.35 L142.686 1136.42 Q145.348 1133.66 149.931 1129.03 Q154.538 1124.38 155.718 1123.04 Q157.964 1120.52 158.843 1118.78 Q159.746 1117.02 159.746 1115.33 Q159.746 1112.58 157.802 1110.84 Q155.88 1109.1 152.778 1109.1 Q150.579 1109.1 148.126 1109.87 Q145.695 1110.63 142.917 1112.18 L142.917 1107.46 Q145.741 1106.33 148.195 1105.75 Q150.649 1105.17 152.686 1105.17 Q158.056 1105.17 161.251 1107.85 Q164.445 1110.54 164.445 1115.03 Q164.445 1117.16 163.635 1119.08 Q162.848 1120.98 160.741 1123.57 Q160.163 1124.24 157.061 1127.46 Q153.959 1130.65 148.311 1136.42 Z" fill="#000000" fill-rule="nonzero" fill-opacity="1"></path><path clip-path="url(#clip350)" d="M174.491 1105.79 L192.848 1105.79 L192.848 1109.73 L178.774 1109.73 L178.774 1118.2 Q179.792 1117.85 180.811 1117.69 Q181.829 1117.51 182.848 1117.51 Q188.635 1117.51 192.014 1120.68 Q195.394 1123.85 195.394 1129.27 Q195.394 1134.84 191.922 1137.95 Q188.45 1141.02 182.13 1141.02 Q179.954 1141.02 177.686 1140.65 Q175.44 1140.28 173.033 1139.54 L173.033 1134.84 Q175.116 1135.98 177.339 1136.53 Q179.561 1137.09 182.038 1137.09 Q186.042 1137.09 188.38 1134.98 Q190.718 1132.88 190.718 1129.27 Q190.718 1125.65 188.38 1123.55 Q186.042 1121.44 182.038 1121.44 Q180.163 1121.44 178.288 1121.86 Q176.436 1122.27 174.491 1123.15 L174.491 1105.79 Z" fill="#000000" fill-rule="nonzero" fill-opacity="1"></path><path clip-path="url(#clip350)" d="M214.607 1108.87 Q210.996 1108.87 209.167 1112.44 Q207.362 1115.98 207.362 1123.11 Q207.362 1130.21 209.167 1133.78 Q210.996 1137.32 214.607 1137.32 Q218.241 1137.32 220.047 1133.78 Q221.875 1130.21 221.875 1123.11 Q221.875 1115.98 220.047 1112.44 Q218.241 1108.87 214.607 1108.87 M214.607 1105.17 Q220.417 1105.17 223.473 1109.77 Q226.551 1114.36 226.551 1123.11 Q226.551 1131.83 223.473 1136.44 Q220.417 1141.02 214.607 1141.02 Q208.797 1141.02 205.718 1136.44 Q202.662 1131.83 202.662 1123.11 Q202.662 1114.36 205.718 1109.77 Q208.797 1105.17 214.607 1105.17 Z" fill="#000000" fill-rule="nonzero" fill-opacity="1"></path><path clip-path="url(#clip350)" d="M144.329 841.863 L162.686 841.863 L162.686 845.798 L148.612 845.798 L148.612 854.27 Q149.63 853.923 150.649 853.761 Q151.667 853.576 152.686 853.576 Q158.473 853.576 161.852 856.747 Q165.232 859.918 165.232 865.335 Q165.232 870.914 161.76 874.015 Q158.288 877.094 151.968 877.094 Q149.792 877.094 147.524 876.724 Q145.279 876.353 142.871 875.613 L142.871 870.914 Q144.954 872.048 147.177 872.603 Q149.399 873.159 151.876 873.159 Q155.88 873.159 158.218 871.052 Q160.556 868.946 160.556 865.335 Q160.556 861.724 158.218 859.617 Q155.88 857.511 151.876 857.511 Q150.001 857.511 148.126 857.928 Q146.274 858.344 144.329 859.224 L144.329 841.863 Z" fill="#000000" fill-rule="nonzero" fill-opacity="1"></path><path clip-path="url(#clip350)" d="M184.445 844.942 Q180.834 844.942 179.005 848.506 Q177.2 852.048 177.2 859.178 Q177.2 866.284 179.005 869.849 Q180.834 873.39 184.445 873.39 Q188.079 873.39 189.885 869.849 Q191.713 866.284 191.713 859.178 Q191.713 852.048 189.885 848.506 Q188.079 844.942 184.445 844.942 M184.445 841.238 Q190.255 841.238 193.311 845.844 Q196.389 850.428 196.389 859.178 Q196.389 867.904 193.311 872.511 Q190.255 877.094 184.445 877.094 Q178.635 877.094 175.556 872.511 Q172.501 867.904 172.501 859.178 Q172.501 850.428 175.556 845.844 Q178.635 841.238 184.445 841.238 Z" fill="#000000" fill-rule="nonzero" fill-opacity="1"></path><path clip-path="url(#clip350)" d="M214.607 844.942 Q210.996 844.942 209.167 848.506 Q207.362 852.048 207.362 859.178 Q207.362 866.284 209.167 869.849 Q210.996 873.39 214.607 873.39 Q218.241 873.39 220.047 869.849 Q221.875 866.284 221.875 859.178 Q221.875 852.048 220.047 848.506 Q218.241 844.942 214.607 844.942 M214.607 841.238 Q220.417 841.238 223.473 845.844 Q226.551 850.428 226.551 859.178 Q226.551 867.904 223.473 872.511 Q220.417 877.094 214.607 877.094 Q208.797 877.094 205.718 872.511 Q202.662 867.904 202.662 859.178 Q202.662 850.428 205.718 845.844 Q208.797 841.238 214.607 841.238 Z" fill="#000000" fill-rule="nonzero" fill-opacity="1"></path><path clip-path="url(#clip350)" d="M143.103 577.932 L165.325 577.932 L165.325 579.923 L152.778 612.492 L147.894 612.492 L159.7 581.867 L143.103 581.867 L143.103 577.932 Z" fill="#000000" fill-rule="nonzero" fill-opacity="1"></path><path clip-path="url(#clip350)" d="M174.491 577.932 L192.848 577.932 L192.848 581.867 L178.774 581.867 L178.774 590.34 Q179.792 589.992 180.811 589.83 Q181.829 589.645 182.848 589.645 Q188.635 589.645 192.014 592.816 Q195.394 595.988 195.394 601.404 Q195.394 606.983 191.922 610.085 Q188.45 613.164 182.13 613.164 Q179.954 613.164 177.686 612.793 Q175.44 612.423 173.033 611.682 L173.033 606.983 Q175.116 608.117 177.339 608.673 Q179.561 609.228 182.038 609.228 Q186.042 609.228 188.38 607.122 Q190.718 605.015 190.718 601.404 Q190.718 597.793 188.38 595.687 Q186.042 593.58 182.038 593.58 Q180.163 593.58 178.288 593.997 Q176.436 594.414 174.491 595.293 L174.491 577.932 Z" fill="#000000" fill-rule="nonzero" fill-opacity="1"></path><path clip-path="url(#clip350)" d="M214.607 581.011 Q210.996 581.011 209.167 584.576 Q207.362 588.117 207.362 595.247 Q207.362 602.353 209.167 605.918 Q210.996 609.46 214.607 609.46 Q218.241 609.46 220.047 605.918 Q221.875 602.353 221.875 595.247 Q221.875 588.117 220.047 584.576 Q218.241 581.011 214.607 581.011 M214.607 577.307 Q220.417 577.307 223.473 581.914 Q226.551 586.497 226.551 595.247 Q226.551 603.974 223.473 608.58 Q220.417 613.164 214.607 613.164 Q208.797 613.164 205.718 608.58 Q202.662 603.974 202.662 595.247 Q202.662 586.497 205.718 581.914 Q208.797 577.307 214.607 577.307 Z" fill="#000000" fill-rule="nonzero" fill-opacity="1"></path><path clip-path="url(#clip350)" d="M114.931 344.626 L122.57 344.626 L122.57 318.261 L114.26 319.928 L114.26 315.668 L122.524 314.002 L127.2 314.002 L127.2 344.626 L134.839 344.626 L134.839 348.562 L114.931 348.562 L114.931 344.626 Z" fill="#000000" fill-rule="nonzero" fill-opacity="1"></path><path clip-path="url(#clip350)" d="M154.283 317.08 Q150.672 317.08 148.843 320.645 Q147.038 324.187 147.038 331.316 Q147.038 338.423 148.843 341.988 Q150.672 345.529 154.283 345.529 Q157.917 345.529 159.723 341.988 Q161.552 338.423 161.552 331.316 Q161.552 324.187 159.723 320.645 Q157.917 317.08 154.283 317.08 M154.283 313.377 Q160.093 313.377 163.149 317.983 Q166.227 322.566 166.227 331.316 Q166.227 340.043 163.149 344.65 Q160.093 349.233 154.283 349.233 Q148.473 349.233 145.394 344.65 Q142.339 340.043 142.339 331.316 Q142.339 322.566 145.394 317.983 Q148.473 313.377 154.283 313.377 Z" fill="#000000" fill-rule="nonzero" fill-opacity="1"></path><path clip-path="url(#clip350)" d="M184.445 317.08 Q180.834 317.08 179.005 320.645 Q177.2 324.187 177.2 331.316 Q177.2 338.423 179.005 341.988 Q180.834 345.529 184.445 345.529 Q188.079 345.529 189.885 341.988 Q191.713 338.423 191.713 331.316 Q191.713 324.187 189.885 320.645 Q188.079 317.08 184.445 317.08 M184.445 313.377 Q190.255 313.377 193.311 317.983 Q196.389 322.566 196.389 331.316 Q196.389 340.043 193.311 344.65 Q190.255 349.233 184.445 349.233 Q178.635 349.233 175.556 344.65 Q172.501 340.043 172.501 331.316 Q172.501 322.566 175.556 317.983 Q178.635 313.377 184.445 313.377 Z" fill="#000000" fill-rule="nonzero" fill-opacity="1"></path><path clip-path="url(#clip350)" d="M214.607 317.08 Q210.996 317.08 209.167 320.645 Q207.362 324.187 207.362 331.316 Q207.362 338.423 209.167 341.988 Q210.996 345.529 214.607 345.529 Q218.241 345.529 220.047 341.988 Q221.875 338.423 221.875 331.316 Q221.875 324.187 220.047 320.645 Q218.241 317.08 214.607 317.08 M214.607 313.377 Q220.417 313.377 223.473 317.983 Q226.551 322.566 226.551 331.316 Q226.551 340.043 223.473 344.65 Q220.417 349.233 214.607 349.233 Q208.797 349.233 205.718 344.65 Q202.662 340.043 202.662 331.316 Q202.662 322.566 205.718 317.983 Q208.797 313.377 214.607 313.377 Z" fill="#000000" fill-rule="nonzero" fill-opacity="1"></path><path clip-path="url(#clip350)" d="M18.0438 1123.57 L24.314 1123.57 Q22.5634 1127.23 21.704 1130.47 Q20.8447 1133.72 20.8447 1136.74 Q20.8447 1142 22.8817 1144.86 Q24.9187 1147.69 28.6745 1147.69 Q31.8255 1147.69 33.4488 1145.82 Q35.0402 1143.91 36.0269 1138.62 L36.8226 1134.74 Q38.1912 1127.55 41.6605 1124.14 Q45.098 1120.7 50.8908 1120.7 Q57.7976 1120.7 61.3624 1125.35 Q64.9272 1129.96 64.9272 1138.91 Q64.9272 1142.28 64.1633 1146.1 Q63.3994 1149.89 61.9035 1153.96 L55.2831 1153.96 Q57.4793 1150.05 58.5933 1146.29 Q59.7073 1142.54 59.7073 1138.91 Q59.7073 1133.4 57.543 1130.41 Q55.3786 1127.42 51.3682 1127.42 Q47.8671 1127.42 45.8937 1129.58 Q43.9204 1131.72 42.9337 1136.62 L42.1698 1140.53 Q40.7375 1147.73 37.682 1150.94 Q34.6264 1154.15 29.1837 1154.15 Q22.8817 1154.15 19.2532 1149.73 Q15.6248 1145.27 15.6248 1137.48 Q15.6248 1134.13 16.2295 1130.66 Q16.8343 1127.2 18.0438 1123.57 Z" fill="#000000" fill-rule="nonzero" fill-opacity="1"></path><path clip-path="url(#clip350)" d="M32.4621 1097.12 Q32.4621 1101.83 36.1542 1104.57 Q39.8145 1107.3 46.212 1107.3 Q52.6095 1107.3 56.3017 1104.6 Q59.9619 1101.86 59.9619 1097.12 Q59.9619 1092.44 56.2698 1089.7 Q52.5777 1086.96 46.212 1086.96 Q39.8781 1086.96 36.186 1089.7 Q32.4621 1092.44 32.4621 1097.12 M27.4968 1097.12 Q27.4968 1089.48 32.4621 1085.12 Q37.4273 1080.76 46.212 1080.76 Q54.9649 1080.76 59.9619 1085.12 Q64.9272 1089.48 64.9272 1097.12 Q64.9272 1104.79 59.9619 1109.15 Q54.9649 1113.48 46.212 1113.48 Q37.4273 1113.48 32.4621 1109.15 Q27.4968 1104.79 27.4968 1097.12 Z" fill="#000000" fill-rule="nonzero" fill-opacity="1"></path><path clip-path="url(#clip350)" d="M14.479 1071.05 L14.479 1065.19 L64.0042 1065.19 L64.0042 1071.05 L14.479 1071.05 Z" fill="#000000" fill-rule="nonzero" fill-opacity="1"></path><path clip-path="url(#clip350)" d="M49.9359 1053.54 L28.3562 1053.54 L28.3562 1047.69 L49.7131 1047.69 Q54.7739 1047.69 57.3202 1045.71 Q59.8346 1043.74 59.8346 1039.79 Q59.8346 1035.05 56.8109 1032.31 Q53.7872 1029.55 48.5673 1029.55 L28.3562 1029.55 L28.3562 1023.69 L64.0042 1023.69 L64.0042 1029.55 L58.5296 1029.55 Q61.7762 1031.68 63.3676 1034.51 Q64.9272 1037.31 64.9272 1041.04 Q64.9272 1047.18 61.1078 1050.36 Q57.2883 1053.54 49.9359 1053.54 M27.4968 1038.81 L27.4968 1038.81 Z" fill="#000000" fill-rule="nonzero" fill-opacity="1"></path><path clip-path="url(#clip350)" d="M18.2347 1005.83 L28.3562 1005.83 L28.3562 993.77 L32.9077 993.77 L32.9077 1005.83 L52.2594 1005.83 Q56.6199 1005.83 57.8613 1004.66 Q59.1026 1003.45 59.1026 999.786 L59.1026 993.77 L64.0042 993.77 L64.0042 999.786 Q64.0042 1006.57 61.4897 1009.14 Q58.9434 1011.72 52.2594 1011.72 L32.9077 1011.72 L32.9077 1016.02 L28.3562 1016.02 L28.3562 1011.72 L18.2347 1011.72 L18.2347 1005.83 Z" fill="#000000" fill-rule="nonzero" fill-opacity="1"></path><path clip-path="url(#clip350)" d="M28.3562 986.068 L28.3562 980.211 L64.0042 980.211 L64.0042 986.068 L28.3562 986.068 M14.479 986.068 L14.479 980.211 L21.895 980.211 L21.895 986.068 L14.479 986.068 Z" fill="#000000" fill-rule="nonzero" fill-opacity="1"></path><path clip-path="url(#clip350)" d="M32.4621 954.144 Q32.4621 958.855 36.1542 961.592 Q39.8145 964.329 46.212 964.329 Q52.6095 964.329 56.3017 961.624 Q59.9619 958.886 59.9619 954.144 Q59.9619 949.465 56.2698 946.728 Q52.5777 943.991 46.212 943.991 Q39.8781 943.991 36.186 946.728 Q32.4621 949.465 32.4621 954.144 M27.4968 954.144 Q27.4968 946.505 32.4621 942.145 Q37.4273 937.784 46.212 937.784 Q54.9649 937.784 59.9619 942.145 Q64.9272 946.505 64.9272 954.144 Q64.9272 961.815 59.9619 966.175 Q54.9649 970.504 46.212 970.504 Q37.4273 970.504 32.4621 966.175 Q27.4968 961.815 27.4968 954.144 Z" fill="#000000" fill-rule="nonzero" fill-opacity="1"></path><path clip-path="url(#clip350)" d="M42.4881 898.444 L64.0042 898.444 L64.0042 904.3 L42.679 904.3 Q37.6183 904.3 35.1038 906.274 Q32.5894 908.247 32.5894 912.194 Q32.5894 916.936 35.6131 919.674 Q38.6368 922.411 43.8567 922.411 L64.0042 922.411 L64.0042 928.299 L28.3562 928.299 L28.3562 922.411 L33.8944 922.411 Q30.6797 920.31 29.0883 917.477 Q27.4968 914.613 27.4968 910.889 Q27.4968 904.746 31.3163 901.595 Q35.1038 898.444 42.4881 898.444 Z" fill="#000000" fill-rule="nonzero" fill-opacity="1"></path><path clip-path="url(#clip350)" d="M18.2347 860.25 L28.3562 860.25 L28.3562 848.187 L32.9077 848.187 L32.9077 860.25 L52.2594 860.25 Q56.6199 860.25 57.8613 859.072 Q59.1026 857.863 59.1026 854.202 L59.1026 848.187 L64.0042 848.187 L64.0042 854.202 Q64.0042 860.982 61.4897 863.56 Q58.9434 866.138 52.2594 866.138 L32.9077 866.138 L32.9077 870.435 L28.3562 870.435 L28.3562 866.138 L18.2347 866.138 L18.2347 860.25 Z" fill="#000000" fill-rule="nonzero" fill-opacity="1"></path><path clip-path="url(#clip350)" d="M28.3562 840.484 L28.3562 834.628 L64.0042 834.628 L64.0042 840.484 L28.3562 840.484 M14.479 840.484 L14.479 834.628 L21.895 834.628 L21.895 840.484 L14.479 840.484 Z" fill="#000000" fill-rule="nonzero" fill-opacity="1"></path><path clip-path="url(#clip350)" d="M35.1993 794.619 Q31.2526 792.423 29.3747 789.368 Q27.4968 786.312 27.4968 782.174 Q27.4968 776.604 31.4117 773.581 Q35.2948 770.557 42.4881 770.557 L64.0042 770.557 L64.0042 776.445 L42.679 776.445 Q37.5546 776.445 35.072 778.259 Q32.5894 780.074 32.5894 783.798 Q32.5894 788.349 35.6131 790.991 Q38.6368 793.633 43.8567 793.633 L64.0042 793.633 L64.0042 799.521 L42.679 799.521 Q37.5228 799.521 35.072 801.335 Q32.5894 803.149 32.5894 806.937 Q32.5894 811.425 35.6449 814.067 Q38.6686 816.708 43.8567 816.708 L64.0042 816.708 L64.0042 822.597 L28.3562 822.597 L28.3562 816.708 L33.8944 816.708 Q30.616 814.703 29.0564 811.902 Q27.4968 809.101 27.4968 805.25 Q27.4968 801.367 29.4702 798.661 Q31.4436 795.924 35.1993 794.619 Z" fill="#000000" fill-rule="nonzero" fill-opacity="1"></path><path clip-path="url(#clip350)" d="M44.7161 728.384 L47.5806 728.384 L47.5806 755.311 Q53.6281 754.929 56.8109 751.683 Q59.9619 748.404 59.9619 742.58 Q59.9619 739.206 59.1344 736.055 Q58.3069 732.872 56.6518 729.753 L62.1899 729.753 Q63.5267 732.904 64.227 736.214 Q64.9272 739.524 64.9272 742.93 Q64.9272 751.46 59.9619 756.457 Q54.9967 761.422 46.5303 761.422 Q37.7774 761.422 32.6531 756.711 Q27.4968 751.969 27.4968 743.948 Q27.4968 736.755 32.1438 732.585 Q36.7589 728.384 44.7161 728.384 M42.9973 734.241 Q38.1912 734.304 35.3266 736.946 Q32.4621 739.556 32.4621 743.885 Q32.4621 748.786 35.2312 751.746 Q38.0002 754.674 43.0292 755.12 L42.9973 734.241 Z" fill="#000000" fill-rule="nonzero" fill-opacity="1"></path><path clip-path="url(#clip350)" d="M14.5426 683.983 Q21.8632 688.248 29.0246 690.317 Q36.186 692.386 43.5384 692.386 Q50.8908 692.386 58.1159 690.317 Q65.3091 688.216 72.5979 683.983 L72.5979 689.076 Q65.1182 693.85 57.8931 696.237 Q50.668 698.593 43.5384 698.593 Q36.4406 698.593 29.2474 696.237 Q22.0542 693.882 14.5426 689.076 L14.5426 683.983 Z" fill="#000000" fill-rule="nonzero" fill-opacity="1"></path><path clip-path="url(#clip350)" d="M29.4065 649.895 L34.9447 649.895 Q33.6716 652.378 33.035 655.051 Q32.3984 657.725 32.3984 660.589 Q32.3984 664.95 33.7352 667.146 Q35.072 669.31 37.7456 669.31 Q39.7826 669.31 40.9603 667.751 Q42.1061 666.191 43.1565 661.481 L43.6021 659.475 Q44.9389 653.237 47.3897 650.627 Q49.8086 647.985 54.1691 647.985 Q59.1344 647.985 62.0308 651.932 Q64.9272 655.847 64.9272 662.722 Q64.9272 665.586 64.3543 668.706 Q63.8132 671.793 62.6992 675.23 L56.6518 675.23 Q58.3387 671.984 59.198 668.833 Q60.0256 665.682 60.0256 662.595 Q60.0256 658.457 58.6251 656.229 Q57.1929 654.001 54.6147 654.001 Q52.2276 654.001 50.9545 655.624 Q49.6813 657.215 48.5037 662.658 L48.0262 664.695 Q46.8804 670.138 44.5251 672.557 Q42.138 674.976 38.0002 674.976 Q32.9713 674.976 30.2341 671.411 Q27.4968 667.846 27.4968 661.29 Q27.4968 658.043 27.9743 655.178 Q28.4517 652.314 29.4065 649.895 Z" fill="#000000" fill-rule="nonzero" fill-opacity="1"></path><path clip-path="url(#clip350)" d="M44.7161 608.168 L47.5806 608.168 L47.5806 635.095 Q53.6281 634.713 56.8109 631.466 Q59.9619 628.188 59.9619 622.363 Q59.9619 618.989 59.1344 615.838 Q58.3069 612.656 56.6518 609.536 L62.1899 609.536 Q63.5267 612.687 64.227 615.998 Q64.9272 619.308 64.9272 622.713 Q64.9272 631.243 59.9619 636.24 Q54.9967 641.206 46.5303 641.206 Q37.7774 641.206 32.6531 636.495 Q27.4968 631.753 27.4968 623.732 Q27.4968 616.539 32.1438 612.369 Q36.7589 608.168 44.7161 608.168 M42.9973 614.024 Q38.1912 614.088 35.3266 616.73 Q32.4621 619.34 32.4621 623.668 Q32.4621 628.57 35.2312 631.53 Q38.0002 634.458 43.0292 634.904 L42.9973 614.024 Z" fill="#000000" fill-rule="nonzero" fill-opacity="1"></path><path clip-path="url(#clip350)" d="M29.7248 572.902 L35.1993 572.902 Q33.8307 575.384 33.1623 577.899 Q32.4621 580.381 32.4621 582.928 Q32.4621 588.625 36.0905 591.776 Q39.6872 594.927 46.212 594.927 Q52.7369 594.927 56.3653 591.776 Q59.9619 588.625 59.9619 582.928 Q59.9619 580.381 59.2935 577.899 Q58.5933 575.384 57.2247 572.902 L62.6355 572.902 Q63.7814 575.353 64.3543 577.994 Q64.9272 580.604 64.9272 583.564 Q64.9272 591.617 59.8664 596.359 Q54.8057 601.102 46.212 601.102 Q37.491 601.102 32.4939 596.328 Q27.4968 591.521 27.4968 583.182 Q27.4968 580.477 28.0697 577.899 Q28.6108 575.321 29.7248 572.902 Z" fill="#000000" fill-rule="nonzero" fill-opacity="1"></path><path clip-path="url(#clip350)" d="M32.4621 548.903 Q32.4621 553.614 36.1542 556.351 Q39.8145 559.088 46.212 559.088 Q52.6095 559.088 56.3017 556.383 Q59.9619 553.645 59.9619 548.903 Q59.9619 544.224 56.2698 541.487 Q52.5777 538.75 46.212 538.75 Q39.8781 538.75 36.186 541.487 Q32.4621 544.224 32.4621 548.903 M27.4968 548.903 Q27.4968 541.264 32.4621 536.904 Q37.4273 532.543 46.212 532.543 Q54.9649 532.543 59.9619 536.904 Q64.9272 541.264 64.9272 548.903 Q64.9272 556.574 59.9619 560.934 Q54.9649 565.263 46.212 565.263 Q37.4273 565.263 32.4621 560.934 Q27.4968 556.574 27.4968 548.903 Z" fill="#000000" fill-rule="nonzero" fill-opacity="1"></path><path clip-path="url(#clip350)" d="M42.4881 493.203 L64.0042 493.203 L64.0042 499.06 L42.679 499.06 Q37.6183 499.06 35.1038 501.033 Q32.5894 503.006 32.5894 506.953 Q32.5894 511.695 35.6131 514.433 Q38.6368 517.17 43.8567 517.17 L64.0042 517.17 L64.0042 523.058 L28.3562 523.058 L28.3562 517.17 L33.8944 517.17 Q30.6797 515.069 29.0883 512.237 Q27.4968 509.372 27.4968 505.648 Q27.4968 499.505 31.3163 496.354 Q35.1038 493.203 42.4881 493.203 Z" fill="#000000" fill-rule="nonzero" fill-opacity="1"></path><path clip-path="url(#clip350)" d="M33.7671 458.064 L14.479 458.064 L14.479 452.208 L64.0042 452.208 L64.0042 458.064 L58.657 458.064 Q61.8398 459.91 63.3994 462.743 Q64.9272 465.544 64.9272 469.491 Q64.9272 475.952 59.771 480.026 Q54.6147 484.068 46.212 484.068 Q37.8093 484.068 32.6531 480.026 Q27.4968 475.952 27.4968 469.491 Q27.4968 465.544 29.0564 462.743 Q30.5842 459.91 33.7671 458.064 M46.212 478.021 Q52.6732 478.021 56.3653 475.379 Q60.0256 472.705 60.0256 468.059 Q60.0256 463.412 56.3653 460.738 Q52.6732 458.064 46.212 458.064 Q39.7508 458.064 36.0905 460.738 Q32.3984 463.412 32.3984 468.059 Q32.3984 472.705 36.0905 475.379 Q39.7508 478.021 46.212 478.021 Z" fill="#000000" fill-rule="nonzero" fill-opacity="1"></path><path clip-path="url(#clip350)" d="M29.4065 417.419 L34.9447 417.419 Q33.6716 419.902 33.035 422.576 Q32.3984 425.249 32.3984 428.114 Q32.3984 432.474 33.7352 434.67 Q35.072 436.835 37.7456 436.835 Q39.7826 436.835 40.9603 435.275 Q42.1061 433.716 43.1565 429.005 L43.6021 427 Q44.9389 420.761 47.3897 418.151 Q49.8086 415.51 54.1691 415.51 Q59.1344 415.51 62.0308 419.456 Q64.9272 423.371 64.9272 430.246 Q64.9272 433.111 64.3543 436.23 Q63.8132 439.317 62.6992 442.755 L56.6518 442.755 Q58.3387 439.508 59.198 436.357 Q60.0256 433.206 60.0256 430.119 Q60.0256 425.981 58.6251 423.753 Q57.1929 421.525 54.6147 421.525 Q52.2276 421.525 50.9545 423.148 Q49.6813 424.74 48.5037 430.183 L48.0262 432.22 Q46.8804 437.662 44.5251 440.081 Q42.138 442.5 38.0002 442.5 Q32.9713 442.5 30.2341 438.935 Q27.4968 435.371 27.4968 428.814 Q27.4968 425.567 27.9743 422.703 Q28.4517 419.838 29.4065 417.419 Z" fill="#000000" fill-rule="nonzero" fill-opacity="1"></path><path clip-path="url(#clip350)" d="M14.5426 407.107 L14.5426 402.014 Q22.0542 397.24 29.2474 394.885 Q36.4406 392.498 43.5384 392.498 Q50.668 392.498 57.8931 394.885 Q65.1182 397.24 72.5979 402.014 L72.5979 407.107 Q65.3091 402.874 58.1159 400.805 Q50.8908 398.704 43.5384 398.704 Q36.186 398.704 29.0246 400.805 Q21.8632 402.874 14.5426 407.107 Z" fill="#000000" fill-rule="nonzero" fill-opacity="1"></path><path clip-path="url(#clip350)" d="M360.653 17.6457 Q351.741 17.6457 346.475 24.2892 Q341.25 30.9327 341.25 42.3968 Q341.25 53.8203 346.475 60.4638 Q351.741 67.1073 360.653 67.1073 Q369.565 67.1073 374.751 60.4638 Q379.976 53.8203 379.976 42.3968 Q379.976 30.9327 374.751 24.2892 Q369.565 17.6457 360.653 17.6457 M360.653 11.0023 Q373.373 11.0023 380.989 19.5497 Q388.605 28.0566 388.605 42.3968 Q388.605 56.6965 380.989 65.2439 Q373.373 73.7508 360.653 73.7508 Q347.893 73.7508 340.237 65.2439 Q332.621 56.737 332.621 42.3968 Q332.621 28.0566 340.237 19.5497 Q347.893 11.0023 360.653 11.0023 Z" fill="#000000" fill-rule="nonzero" fill-opacity="1"></path><path clip-path="url(#clip350)" d="M408.292 65.7705 L408.292 89.8329 L400.798 89.8329 L400.798 27.2059 L408.292 27.2059 L408.292 34.0924 Q410.642 30.0415 414.206 28.0971 Q417.812 26.1121 422.794 26.1121 Q431.058 26.1121 436.203 32.6746 Q441.388 39.2371 441.388 49.9314 Q441.388 60.6258 436.203 67.1883 Q431.058 73.7508 422.794 73.7508 Q417.812 73.7508 414.206 71.8063 Q410.642 69.8214 408.292 65.7705 M433.651 49.9314 Q433.651 41.7081 430.248 37.0496 Q426.886 32.3505 420.971 32.3505 Q415.057 32.3505 411.654 37.0496 Q408.292 41.7081 408.292 49.9314 Q408.292 58.1548 411.654 62.8538 Q415.057 67.5124 420.971 67.5124 Q426.886 67.5124 430.248 62.8538 Q433.651 58.1548 433.651 49.9314 Z" fill="#000000" fill-rule="nonzero" fill-opacity="1"></path><path clip-path="url(#clip350)" d="M461.116 14.324 L461.116 27.2059 L476.469 27.2059 L476.469 32.9987 L461.116 32.9987 L461.116 57.6282 Q461.116 63.1779 462.615 64.7578 Q464.154 66.3376 468.813 66.3376 L476.469 66.3376 L476.469 72.576 L468.813 72.576 Q460.184 72.576 456.903 69.3758 Q453.622 66.1351 453.622 57.6282 L453.622 32.9987 L448.153 32.9987 L448.153 27.2059 L453.622 27.2059 L453.622 14.324 L461.116 14.324 Z" fill="#000000" fill-rule="nonzero" fill-opacity="1"></path><path clip-path="url(#clip350)" d="M486.272 27.2059 L493.726 27.2059 L493.726 72.576 L486.272 72.576 L486.272 27.2059 M486.272 9.54393 L493.726 9.54393 L493.726 18.9825 L486.272 18.9825 L486.272 9.54393 Z" fill="#000000" fill-rule="nonzero" fill-opacity="1"></path><path clip-path="url(#clip350)" d="M544.645 35.9153 Q547.441 30.8922 551.329 28.5022 Q555.218 26.1121 560.485 26.1121 Q567.574 26.1121 571.422 31.0947 Q575.27 36.0368 575.27 45.1919 L575.27 72.576 L567.776 72.576 L567.776 45.4349 Q567.776 38.913 565.467 35.7533 Q563.158 32.5936 558.419 32.5936 Q552.626 32.5936 549.264 36.4419 Q545.901 40.2903 545.901 46.9338 L545.901 72.576 L538.407 72.576 L538.407 45.4349 Q538.407 38.8725 536.098 35.7533 Q533.789 32.5936 528.969 32.5936 Q523.257 32.5936 519.894 36.4824 Q516.532 40.3308 516.532 46.9338 L516.532 72.576 L509.038 72.576 L509.038 27.2059 L516.532 27.2059 L516.532 34.2544 Q519.084 30.082 522.649 28.0971 Q526.214 26.1121 531.115 26.1121 Q536.058 26.1121 539.501 28.6237 Q542.985 31.1352 544.645 35.9153 Z" fill="#000000" fill-rule="nonzero" fill-opacity="1"></path><path clip-path="url(#clip350)" d="M590.137 27.2059 L597.591 27.2059 L597.591 72.576 L590.137 72.576 L590.137 27.2059 M590.137 9.54393 L597.591 9.54393 L597.591 18.9825 L590.137 18.9825 L590.137 9.54393 Z" fill="#000000" fill-rule="nonzero" fill-opacity="1"></path><path clip-path="url(#clip350)" d="M609.946 27.2059 L645.351 27.2059 L645.351 34.0114 L617.319 66.6212 L645.351 66.6212 L645.351 72.576 L608.933 72.576 L608.933 65.7705 L636.966 33.1607 L609.946 33.1607 L609.946 27.2059 Z" fill="#000000" fill-rule="nonzero" fill-opacity="1"></path><path clip-path="url(#clip350)" d="M677.353 49.7694 Q668.32 49.7694 664.836 51.8354 Q661.352 53.9013 661.352 58.8839 Q661.352 62.8538 663.945 65.2034 Q666.578 67.5124 671.074 67.5124 Q677.272 67.5124 680.999 63.1374 Q684.766 58.7219 684.766 51.4303 L684.766 49.7694 L677.353 49.7694 M692.22 46.6907 L692.22 72.576 L684.766 72.576 L684.766 65.6895 Q682.214 69.8214 678.406 71.8063 Q674.599 73.7508 669.089 73.7508 Q662.122 73.7508 657.99 69.8619 Q653.898 65.9325 653.898 59.3701 Q653.898 51.7138 659.003 47.825 Q664.147 43.9361 674.315 43.9361 L684.766 43.9361 L684.766 43.2069 Q684.766 38.0623 681.364 35.2672 Q678.001 32.4315 671.884 32.4315 Q667.996 32.4315 664.309 33.3632 Q660.623 34.295 657.22 36.1584 L657.22 29.2718 Q661.312 27.692 665.16 26.9223 Q669.008 26.1121 672.654 26.1121 Q682.498 26.1121 687.359 31.2163 Q692.22 36.3204 692.22 46.6907 Z" fill="#000000" fill-rule="nonzero" fill-opacity="1"></path><path clip-path="url(#clip350)" d="M714.946 14.324 L714.946 27.2059 L730.298 27.2059 L730.298 32.9987 L714.946 32.9987 L714.946 57.6282 Q714.946 63.1779 716.444 64.7578 Q717.984 66.3376 722.642 66.3376 L730.298 66.3376 L730.298 72.576 L722.642 72.576 Q714.014 72.576 710.733 69.3758 Q707.451 66.1351 707.451 57.6282 L707.451 32.9987 L701.983 32.9987 L701.983 27.2059 L707.451 27.2059 L707.451 14.324 L714.946 14.324 Z" fill="#000000" fill-rule="nonzero" fill-opacity="1"></path><path clip-path="url(#clip350)" d="M740.102 27.2059 L747.555 27.2059 L747.555 72.576 L740.102 72.576 L740.102 27.2059 M740.102 9.54393 L747.555 9.54393 L747.555 18.9825 L740.102 18.9825 L740.102 9.54393 Z" fill="#000000" fill-rule="nonzero" fill-opacity="1"></path><path clip-path="url(#clip350)" d="M780.732 32.4315 Q774.737 32.4315 771.253 37.1306 Q767.769 41.7891 767.769 49.9314 Q767.769 58.0738 771.213 62.7728 Q774.696 67.4314 780.732 67.4314 Q786.687 67.4314 790.171 62.7323 Q793.655 58.0333 793.655 49.9314 Q793.655 41.8701 790.171 37.1711 Q786.687 32.4315 780.732 32.4315 M780.732 26.1121 Q790.454 26.1121 796.004 32.4315 Q801.554 38.7509 801.554 49.9314 Q801.554 61.0714 796.004 67.4314 Q790.454 73.7508 780.732 73.7508 Q770.97 73.7508 765.42 67.4314 Q759.911 61.0714 759.911 49.9314 Q759.911 38.7509 765.42 32.4315 Q770.97 26.1121 780.732 26.1121 Z" fill="#000000" fill-rule="nonzero" fill-opacity="1"></path><path clip-path="url(#clip350)" d="M851.623 45.1919 L851.623 72.576 L844.169 72.576 L844.169 45.4349 Q844.169 38.994 841.658 35.7938 Q839.146 32.5936 834.123 32.5936 Q828.087 32.5936 824.603 36.4419 Q821.12 40.2903 821.12 46.9338 L821.12 72.576 L813.626 72.576 L813.626 27.2059 L821.12 27.2059 L821.12 34.2544 Q823.793 30.163 827.399 28.1376 Q831.044 26.1121 835.784 26.1121 Q843.602 26.1121 847.613 30.9732 Q851.623 35.7938 851.623 45.1919 Z" fill="#000000" fill-rule="nonzero" fill-opacity="1"></path><path clip-path="url(#clip350)" d="M900.072 65.7705 L900.072 89.8329 L892.578 89.8329 L892.578 27.2059 L900.072 27.2059 L900.072 34.0924 Q902.421 30.0415 905.986 28.0971 Q909.591 26.1121 914.574 26.1121 Q922.838 26.1121 927.983 32.6746 Q933.168 39.2371 933.168 49.9314 Q933.168 60.6258 927.983 67.1883 Q922.838 73.7508 914.574 73.7508 Q909.591 73.7508 905.986 71.8063 Q902.421 69.8214 900.072 65.7705 M925.43 49.9314 Q925.43 41.7081 922.028 37.0496 Q918.665 32.3505 912.751 32.3505 Q906.837 32.3505 903.434 37.0496 Q900.072 41.7081 900.072 49.9314 Q900.072 58.1548 903.434 62.8538 Q906.837 67.5124 912.751 67.5124 Q918.665 67.5124 922.028 62.8538 Q925.43 58.1548 925.43 49.9314 Z" fill="#000000" fill-rule="nonzero" fill-opacity="1"></path><path clip-path="url(#clip350)" d="M984.331 48.0275 L984.331 51.6733 L950.06 51.6733 Q950.546 59.3701 954.678 63.421 Q958.85 67.4314 966.264 67.4314 Q970.558 67.4314 974.568 66.3781 Q978.619 65.3249 982.589 63.2184 L982.589 70.267 Q978.578 71.9684 974.365 72.8596 Q970.152 73.7508 965.818 73.7508 Q954.962 73.7508 948.602 67.4314 Q942.282 61.1119 942.282 50.3365 Q942.282 39.1965 948.278 32.6746 Q954.313 26.1121 964.522 26.1121 Q973.677 26.1121 978.983 32.0264 Q984.331 37.9003 984.331 48.0275 M976.877 45.84 Q976.796 39.7232 973.434 36.0774 Q970.112 32.4315 964.603 32.4315 Q958.364 32.4315 954.597 35.9558 Q950.87 39.4801 950.303 45.8805 L976.877 45.84 Z" fill="#000000" fill-rule="nonzero" fill-opacity="1"></path><path clip-path="url(#clip350)" d="M1022.85 34.1734 Q1021.6 33.4443 1020.1 33.1202 Q1018.64 32.7556 1016.86 32.7556 Q1010.54 32.7556 1007.14 36.8875 Q1003.77 40.9789 1003.77 48.6757 L1003.77 72.576 L996.281 72.576 L996.281 27.2059 L1003.77 27.2059 L1003.77 34.2544 Q1006.12 30.1225 1009.89 28.1376 Q1013.66 26.1121 1019.05 26.1121 Q1019.82 26.1121 1020.75 26.2337 Q1021.68 26.3147 1022.81 26.5172 L1022.85 34.1734 Z" fill="#000000" fill-rule="nonzero" fill-opacity="1"></path><path clip-path="url(#clip350)" d="M1053.64 9.54393 L1053.64 15.7418 L1046.51 15.7418 Q1042.5 15.7418 1040.92 17.3622 Q1039.38 18.9825 1039.38 23.1955 L1039.38 27.2059 L1051.66 27.2059 L1051.66 32.9987 L1039.38 32.9987 L1039.38 72.576 L1031.89 72.576 L1031.89 32.9987 L1024.76 32.9987 L1024.76 27.2059 L1031.89 27.2059 L1031.89 24.0462 Q1031.89 16.471 1035.41 13.0277 Q1038.94 9.54393 1046.59 9.54393 L1053.64 9.54393 Z" fill="#000000" fill-rule="nonzero" fill-opacity="1"></path><path clip-path="url(#clip350)" d="M1077.46 32.4315 Q1071.47 32.4315 1067.98 37.1306 Q1064.5 41.7891 1064.5 49.9314 Q1064.5 58.0738 1067.94 62.7728 Q1071.43 67.4314 1077.46 67.4314 Q1083.42 67.4314 1086.9 62.7323 Q1090.38 58.0333 1090.38 49.9314 Q1090.38 41.8701 1086.9 37.1711 Q1083.42 32.4315 1077.46 32.4315 M1077.46 26.1121 Q1087.18 26.1121 1092.73 32.4315 Q1098.28 38.7509 1098.28 49.9314 Q1098.28 61.0714 1092.73 67.4314 Q1087.18 73.7508 1077.46 73.7508 Q1067.7 73.7508 1062.15 67.4314 Q1056.64 61.0714 1056.64 49.9314 Q1056.64 38.7509 1062.15 32.4315 Q1067.7 26.1121 1077.46 26.1121 Z" fill="#000000" fill-rule="nonzero" fill-opacity="1"></path><path clip-path="url(#clip350)" d="M1136.93 34.1734 Q1135.67 33.4443 1134.17 33.1202 Q1132.72 32.7556 1130.93 32.7556 Q1124.61 32.7556 1121.21 36.8875 Q1117.85 40.9789 1117.85 48.6757 L1117.85 72.576 L1110.35 72.576 L1110.35 27.2059 L1117.85 27.2059 L1117.85 34.2544 Q1120.2 30.1225 1123.97 28.1376 Q1127.73 26.1121 1133.12 26.1121 Q1133.89 26.1121 1134.82 26.2337 Q1135.75 26.3147 1136.89 26.5172 L1136.93 34.1734 Z" fill="#000000" fill-rule="nonzero" fill-opacity="1"></path><path clip-path="url(#clip350)" d="M1178.61 35.9153 Q1181.41 30.8922 1185.3 28.5022 Q1189.18 26.1121 1194.45 26.1121 Q1201.54 26.1121 1205.39 31.0947 Q1209.24 36.0368 1209.24 45.1919 L1209.24 72.576 L1201.74 72.576 L1201.74 45.4349 Q1201.74 38.913 1199.43 35.7533 Q1197.12 32.5936 1192.39 32.5936 Q1186.59 32.5936 1183.23 36.4419 Q1179.87 40.2903 1179.87 46.9338 L1179.87 72.576 L1172.37 72.576 L1172.37 45.4349 Q1172.37 38.8725 1170.06 35.7533 Q1167.76 32.5936 1162.94 32.5936 Q1157.22 32.5936 1153.86 36.4824 Q1150.5 40.3308 1150.5 46.9338 L1150.5 72.576 L1143 72.576 L1143 27.2059 L1150.5 27.2059 L1150.5 34.2544 Q1153.05 30.082 1156.62 28.0971 Q1160.18 26.1121 1165.08 26.1121 Q1170.02 26.1121 1173.47 28.6237 Q1176.95 31.1352 1178.61 35.9153 Z" fill="#000000" fill-rule="nonzero" fill-opacity="1"></path><path clip-path="url(#clip350)" d="M1244.72 49.7694 Q1235.69 49.7694 1232.21 51.8354 Q1228.72 53.9013 1228.72 58.8839 Q1228.72 62.8538 1231.31 65.2034 Q1233.95 67.5124 1238.44 67.5124 Q1244.64 67.5124 1248.37 63.1374 Q1252.14 58.7219 1252.14 51.4303 L1252.14 49.7694 L1244.72 49.7694 M1259.59 46.6907 L1259.59 72.576 L1252.14 72.576 L1252.14 65.6895 Q1249.58 69.8214 1245.78 71.8063 Q1241.97 73.7508 1236.46 73.7508 Q1229.49 73.7508 1225.36 69.8619 Q1221.27 65.9325 1221.27 59.3701 Q1221.27 51.7138 1226.37 47.825 Q1231.52 43.9361 1241.68 43.9361 L1252.14 43.9361 L1252.14 43.2069 Q1252.14 38.0623 1248.73 35.2672 Q1245.37 32.4315 1239.25 32.4315 Q1235.37 32.4315 1231.68 33.3632 Q1227.99 34.295 1224.59 36.1584 L1224.59 29.2718 Q1228.68 27.692 1232.53 26.9223 Q1236.38 26.1121 1240.02 26.1121 Q1249.87 26.1121 1254.73 31.2163 Q1259.59 36.3204 1259.59 46.6907 Z" fill="#000000" fill-rule="nonzero" fill-opacity="1"></path><path clip-path="url(#clip350)" d="M1312.66 45.1919 L1312.66 72.576 L1305.2 72.576 L1305.2 45.4349 Q1305.2 38.994 1302.69 35.7938 Q1300.18 32.5936 1295.16 32.5936 Q1289.12 32.5936 1285.64 36.4419 Q1282.15 40.2903 1282.15 46.9338 L1282.15 72.576 L1274.66 72.576 L1274.66 27.2059 L1282.15 27.2059 L1282.15 34.2544 Q1284.83 30.163 1288.43 28.1376 Q1292.08 26.1121 1296.82 26.1121 Q1304.64 26.1121 1308.65 30.9732 Q1312.66 35.7938 1312.66 45.1919 Z" fill="#000000" fill-rule="nonzero" fill-opacity="1"></path><path clip-path="url(#clip350)" d="M1360.17 28.9478 L1360.17 35.9153 Q1357.01 34.1734 1353.81 33.3227 Q1350.65 32.4315 1347.41 32.4315 Q1340.16 32.4315 1336.15 37.0496 Q1332.14 41.6271 1332.14 49.9314 Q1332.14 58.2358 1336.15 62.8538 Q1340.16 67.4314 1347.41 67.4314 Q1350.65 67.4314 1353.81 66.5807 Q1357.01 65.6895 1360.17 63.9476 L1360.17 70.8341 Q1357.05 72.2924 1353.69 73.0216 Q1350.37 73.7508 1346.6 73.7508 Q1336.35 73.7508 1330.32 67.3098 Q1324.28 60.8689 1324.28 49.9314 Q1324.28 38.832 1330.36 32.472 Q1336.48 26.1121 1347.09 26.1121 Q1350.53 26.1121 1353.81 26.8413 Q1357.09 27.5299 1360.17 28.9478 Z" fill="#000000" fill-rule="nonzero" fill-opacity="1"></path><path clip-path="url(#clip350)" d="M1411.94 48.0275 L1411.94 51.6733 L1377.67 51.6733 Q1378.16 59.3701 1382.29 63.421 Q1386.46 67.4314 1393.88 67.4314 Q1398.17 67.4314 1402.18 66.3781 Q1406.23 65.3249 1410.2 63.2184 L1410.2 70.267 Q1406.19 71.9684 1401.98 72.8596 Q1397.77 73.7508 1393.43 73.7508 Q1382.58 73.7508 1376.22 67.4314 Q1369.9 61.1119 1369.9 50.3365 Q1369.9 39.1965 1375.89 32.6746 Q1381.93 26.1121 1392.14 26.1121 Q1401.29 26.1121 1406.6 32.0264 Q1411.94 37.9003 1411.94 48.0275 M1404.49 45.84 Q1404.41 39.7232 1401.05 36.0774 Q1397.73 32.4315 1392.22 32.4315 Q1385.98 32.4315 1382.21 35.9558 Q1378.48 39.4801 1377.92 45.8805 L1404.49 45.84 Z" fill="#000000" fill-rule="nonzero" fill-opacity="1"></path><path clip-path="url(#clip350)" d="M1473.52 9.54393 L1473.52 15.7418 L1466.39 15.7418 Q1462.38 15.7418 1460.8 17.3622 Q1459.26 18.9825 1459.26 23.1955 L1459.26 27.2059 L1471.53 27.2059 L1471.53 32.9987 L1459.26 32.9987 L1459.26 72.576 L1451.76 72.576 L1451.76 32.9987 L1444.63 32.9987 L1444.63 27.2059 L1451.76 27.2059 L1451.76 24.0462 Q1451.76 16.471 1455.29 13.0277 Q1458.81 9.54393 1466.47 9.54393 L1473.52 9.54393 Z" fill="#000000" fill-rule="nonzero" fill-opacity="1"></path><path clip-path="url(#clip350)" d="M1497.34 32.4315 Q1491.34 32.4315 1487.86 37.1306 Q1484.37 41.7891 1484.37 49.9314 Q1484.37 58.0738 1487.82 62.7728 Q1491.3 67.4314 1497.34 67.4314 Q1503.29 67.4314 1506.78 62.7323 Q1510.26 58.0333 1510.26 49.9314 Q1510.26 41.8701 1506.78 37.1711 Q1503.29 32.4315 1497.34 32.4315 M1497.34 26.1121 Q1507.06 26.1121 1512.61 32.4315 Q1518.16 38.7509 1518.16 49.9314 Q1518.16 61.0714 1512.61 67.4314 Q1507.06 73.7508 1497.34 73.7508 Q1487.57 73.7508 1482.02 67.4314 Q1476.52 61.0714 1476.52 49.9314 Q1476.52 38.7509 1482.02 32.4315 Q1487.57 26.1121 1497.34 26.1121 Z" fill="#000000" fill-rule="nonzero" fill-opacity="1"></path><path clip-path="url(#clip350)" d="M1556.8 34.1734 Q1555.55 33.4443 1554.05 33.1202 Q1552.59 32.7556 1550.81 32.7556 Q1544.49 32.7556 1541.09 36.8875 Q1537.72 40.9789 1537.72 48.6757 L1537.72 72.576 L1530.23 72.576 L1530.23 27.2059 L1537.72 27.2059 L1537.72 34.2544 Q1540.07 30.1225 1543.84 28.1376 Q1547.61 26.1121 1553 26.1121 Q1553.77 26.1121 1554.7 26.2337 Q1555.63 26.3147 1556.76 26.5172 L1556.8 34.1734 Z" fill="#000000" fill-rule="nonzero" fill-opacity="1"></path><path clip-path="url(#clip350)" d="M1623.64 28.9478 L1623.64 35.9153 Q1620.48 34.1734 1617.28 33.3227 Q1614.12 32.4315 1610.88 32.4315 Q1603.63 32.4315 1599.62 37.0496 Q1595.61 41.6271 1595.61 49.9314 Q1595.61 58.2358 1599.62 62.8538 Q1603.63 67.4314 1610.88 67.4314 Q1614.12 67.4314 1617.28 66.5807 Q1620.48 65.6895 1623.64 63.9476 L1623.64 70.8341 Q1620.53 72.2924 1617.16 73.0216 Q1613.84 73.7508 1610.07 73.7508 Q1599.83 73.7508 1593.79 67.3098 Q1587.75 60.8689 1587.75 49.9314 Q1587.75 38.832 1593.83 32.472 Q1599.95 26.1121 1610.56 26.1121 Q1614 26.1121 1617.28 26.8413 Q1620.57 27.5299 1623.64 28.9478 Z" fill="#000000" fill-rule="nonzero" fill-opacity="1"></path><path clip-path="url(#clip350)" d="M1654.19 32.4315 Q1648.19 32.4315 1644.71 37.1306 Q1641.23 41.7891 1641.23 49.9314 Q1641.23 58.0738 1644.67 62.7728 Q1648.15 67.4314 1654.19 67.4314 Q1660.14 67.4314 1663.63 62.7323 Q1667.11 58.0333 1667.11 49.9314 Q1667.11 41.8701 1663.63 37.1711 Q1660.14 32.4315 1654.19 32.4315 M1654.19 26.1121 Q1663.91 26.1121 1669.46 32.4315 Q1675.01 38.7509 1675.01 49.9314 Q1675.01 61.0714 1669.46 67.4314 Q1663.91 73.7508 1654.19 73.7508 Q1644.43 73.7508 1638.88 67.4314 Q1633.37 61.0714 1633.37 49.9314 Q1633.37 38.7509 1638.88 32.4315 Q1644.43 26.1121 1654.19 26.1121 Z" fill="#000000" fill-rule="nonzero" fill-opacity="1"></path><path clip-path="url(#clip350)" d="M1725.08 45.1919 L1725.08 72.576 L1717.63 72.576 L1717.63 45.4349 Q1717.63 38.994 1715.11 35.7938 Q1712.6 32.5936 1707.58 32.5936 Q1701.54 32.5936 1698.06 36.4419 Q1694.58 40.2903 1694.58 46.9338 L1694.58 72.576 L1687.08 72.576 L1687.08 27.2059 L1694.58 27.2059 L1694.58 34.2544 Q1697.25 30.163 1700.85 28.1376 Q1704.5 26.1121 1709.24 26.1121 Q1717.06 26.1121 1721.07 30.9732 Q1725.08 35.7938 1725.08 45.1919 Z" fill="#000000" fill-rule="nonzero" fill-opacity="1"></path><path clip-path="url(#clip350)" d="M1772.6 28.9478 L1772.6 35.9153 Q1769.44 34.1734 1766.24 33.3227 Q1763.08 32.4315 1759.84 32.4315 Q1752.58 32.4315 1748.57 37.0496 Q1744.56 41.6271 1744.56 49.9314 Q1744.56 58.2358 1748.57 62.8538 Q1752.58 67.4314 1759.84 67.4314 Q1763.08 67.4314 1766.24 66.5807 Q1769.44 65.6895 1772.6 63.9476 L1772.6 70.8341 Q1769.48 72.2924 1766.11 73.0216 Q1762.79 73.7508 1759.03 73.7508 Q1748.78 73.7508 1742.74 67.3098 Q1736.71 60.8689 1736.71 49.9314 Q1736.71 38.832 1742.78 32.472 Q1748.9 26.1121 1759.51 26.1121 Q1762.95 26.1121 1766.24 26.8413 Q1769.52 27.5299 1772.6 28.9478 Z" fill="#000000" fill-rule="nonzero" fill-opacity="1"></path><path clip-path="url(#clip350)" d="M1811.85 34.1734 Q1810.59 33.4443 1809.09 33.1202 Q1807.64 32.7556 1805.85 32.7556 Q1799.53 32.7556 1796.13 36.8875 Q1792.77 40.9789 1792.77 48.6757 L1792.77 72.576 L1785.28 72.576 L1785.28 27.2059 L1792.77 27.2059 L1792.77 34.2544 Q1795.12 30.1225 1798.89 28.1376 Q1802.65 26.1121 1808.04 26.1121 Q1808.81 26.1121 1809.74 26.2337 Q1810.67 26.3147 1811.81 26.5172 L1811.85 34.1734 Z" fill="#000000" fill-rule="nonzero" fill-opacity="1"></path><path clip-path="url(#clip350)" d="M1856.65 48.0275 L1856.65 51.6733 L1822.38 51.6733 Q1822.87 59.3701 1827 63.421 Q1831.17 67.4314 1838.59 67.4314 Q1842.88 67.4314 1846.89 66.3781 Q1850.94 65.3249 1854.91 63.2184 L1854.91 70.267 Q1850.9 71.9684 1846.69 72.8596 Q1842.47 73.7508 1838.14 73.7508 Q1827.28 73.7508 1820.92 67.4314 Q1814.6 61.1119 1814.6 50.3365 Q1814.6 39.1965 1820.6 32.6746 Q1826.64 26.1121 1836.84 26.1121 Q1846 26.1121 1851.31 32.0264 Q1856.65 37.9003 1856.65 48.0275 M1849.2 45.84 Q1849.12 39.7232 1845.76 36.0774 Q1842.43 32.4315 1836.92 32.4315 Q1830.69 32.4315 1826.92 35.9558 Q1823.19 39.4801 1822.62 45.8805 L1849.2 45.84 Z" fill="#000000" fill-rule="nonzero" fill-opacity="1"></path><path clip-path="url(#clip350)" d="M1876.26 14.324 L1876.26 27.2059 L1891.61 27.2059 L1891.61 32.9987 L1876.26 32.9987 L1876.26 57.6282 Q1876.26 63.1779 1877.76 64.7578 Q1879.3 66.3376 1883.96 66.3376 L1891.61 66.3376 L1891.61 72.576 L1883.96 72.576 Q1875.33 72.576 1872.05 69.3758 Q1868.76 66.1351 1868.76 57.6282 L1868.76 32.9987 L1863.3 32.9987 L1863.3 27.2059 L1868.76 27.2059 L1868.76 14.324 L1876.26 14.324 Z" fill="#000000" fill-rule="nonzero" fill-opacity="1"></path><path clip-path="url(#clip350)" d="M1940.22 48.0275 L1940.22 51.6733 L1905.95 51.6733 Q1906.44 59.3701 1910.57 63.421 Q1914.74 67.4314 1922.16 67.4314 Q1926.45 67.4314 1930.46 66.3781 Q1934.51 65.3249 1938.48 63.2184 L1938.48 70.267 Q1934.47 71.9684 1930.26 72.8596 Q1926.04 73.7508 1921.71 73.7508 Q1910.85 73.7508 1904.49 67.4314 Q1898.17 61.1119 1898.17 50.3365 Q1898.17 39.1965 1904.17 32.6746 Q1910.21 26.1121 1920.41 26.1121 Q1929.57 26.1121 1934.88 32.0264 Q1940.22 37.9003 1940.22 48.0275 M1932.77 45.84 Q1932.69 39.7232 1929.33 36.0774 Q1926 32.4315 1920.49 32.4315 Q1914.26 32.4315 1910.49 35.9558 Q1906.76 39.4801 1906.19 45.8805 L1932.77 45.84 Z" fill="#000000" fill-rule="nonzero" fill-opacity="1"></path><path clip-path="url(#clip350)" d="M2008.68 34.0924 L2008.68 9.54393 L2016.14 9.54393 L2016.14 72.576 L2008.68 72.576 L2008.68 65.7705 Q2006.33 69.8214 2002.73 71.8063 Q1999.16 73.7508 1994.14 73.7508 Q1985.92 73.7508 1980.73 67.1883 Q1975.59 60.6258 1975.59 49.9314 Q1975.59 39.2371 1980.73 32.6746 Q1985.92 26.1121 1994.14 26.1121 Q1999.16 26.1121 2002.73 28.0971 Q2006.33 30.0415 2008.68 34.0924 M1983.28 49.9314 Q1983.28 58.1548 1986.65 62.8538 Q1990.05 67.5124 1995.96 67.5124 Q2001.88 67.5124 2005.28 62.8538 Q2008.68 58.1548 2008.68 49.9314 Q2008.68 41.7081 2005.28 37.0496 Q2001.88 32.3505 1995.96 32.3505 Q1990.05 32.3505 1986.65 37.0496 Q1983.28 41.7081 1983.28 49.9314 Z" fill="#000000" fill-rule="nonzero" fill-opacity="1"></path><path clip-path="url(#clip350)" d="M2052.11 49.7694 Q2043.07 49.7694 2039.59 51.8354 Q2036.11 53.9013 2036.11 58.8839 Q2036.11 62.8538 2038.7 65.2034 Q2041.33 67.5124 2045.83 67.5124 Q2052.03 67.5124 2055.75 63.1374 Q2059.52 58.7219 2059.52 51.4303 L2059.52 49.7694 L2052.11 49.7694 M2066.98 46.6907 L2066.98 72.576 L2059.52 72.576 L2059.52 65.6895 Q2056.97 69.8214 2053.16 71.8063 Q2049.35 73.7508 2043.84 73.7508 Q2036.88 73.7508 2032.75 69.8619 Q2028.65 65.9325 2028.65 59.3701 Q2028.65 51.7138 2033.76 47.825 Q2038.9 43.9361 2049.07 43.9361 L2059.52 43.9361 L2059.52 43.2069 Q2059.52 38.0623 2056.12 35.2672 Q2052.76 32.4315 2046.64 32.4315 Q2042.75 32.4315 2039.06 33.3632 Q2035.38 34.295 2031.98 36.1584 L2031.98 29.2718 Q2036.07 27.692 2039.92 26.9223 Q2043.76 26.1121 2047.41 26.1121 Q2057.25 26.1121 2062.11 31.2163 Q2066.98 36.3204 2066.98 46.6907 Z" fill="#000000" fill-rule="nonzero" fill-opacity="1"></path><path clip-path="url(#clip350)" d="M2089.7 14.324 L2089.7 27.2059 L2105.05 27.2059 L2105.05 32.9987 L2089.7 32.9987 L2089.7 57.6282 Q2089.7 63.1779 2091.2 64.7578 Q2092.74 66.3376 2097.4 66.3376 L2105.05 66.3376 L2105.05 72.576 L2097.4 72.576 Q2088.77 72.576 2085.49 69.3758 Q2082.21 66.1351 2082.21 57.6282 L2082.21 32.9987 L2076.74 32.9987 L2076.74 27.2059 L2082.21 27.2059 L2082.21 14.324 L2089.7 14.324 Z" fill="#000000" fill-rule="nonzero" fill-opacity="1"></path><path clip-path="url(#clip350)" d="M2135.48 49.7694 Q2126.44 49.7694 2122.96 51.8354 Q2119.48 53.9013 2119.48 58.8839 Q2119.48 62.8538 2122.07 65.2034 Q2124.7 67.5124 2129.2 67.5124 Q2135.4 67.5124 2139.12 63.1374 Q2142.89 58.7219 2142.89 51.4303 L2142.89 49.7694 L2135.48 49.7694 M2150.34 46.6907 L2150.34 72.576 L2142.89 72.576 L2142.89 65.6895 Q2140.34 69.8214 2136.53 71.8063 Q2132.72 73.7508 2127.21 73.7508 Q2120.24 73.7508 2116.11 69.8619 Q2112.02 65.9325 2112.02 59.3701 Q2112.02 51.7138 2117.13 47.825 Q2122.27 43.9361 2132.44 43.9361 L2142.89 43.9361 L2142.89 43.2069 Q2142.89 38.0623 2139.49 35.2672 Q2136.12 32.4315 2130.01 32.4315 Q2126.12 32.4315 2122.43 33.3632 Q2118.75 34.295 2115.34 36.1584 L2115.34 29.2718 Q2119.43 27.692 2123.28 26.9223 Q2127.13 26.1121 2130.78 26.1121 Q2140.62 26.1121 2145.48 31.2163 Q2150.34 36.3204 2150.34 46.6907 Z" fill="#000000" fill-rule="nonzero" fill-opacity="1"></path><path clip-path="url(#clip350)" d="M2194.62 28.5427 L2194.62 35.5912 Q2191.46 33.9709 2188.06 33.1607 Q2184.65 32.3505 2181.01 32.3505 Q2175.46 32.3505 2172.66 34.0519 Q2169.91 35.7533 2169.91 39.156 Q2169.91 41.7486 2171.89 43.2475 Q2173.88 44.7058 2179.87 46.0426 L2182.43 46.6097 Q2190.37 48.3111 2193.69 51.4303 Q2197.05 54.509 2197.05 60.0587 Q2197.05 66.3781 2192.03 70.0644 Q2187.04 73.7508 2178.29 73.7508 Q2174.65 73.7508 2170.68 73.0216 Q2166.75 72.3329 2162.37 70.9151 L2162.37 63.2184 Q2166.51 65.3654 2170.52 66.4591 Q2174.53 67.5124 2178.46 67.5124 Q2183.72 67.5124 2186.56 65.73 Q2189.39 63.9071 2189.39 60.6258 Q2189.39 57.5877 2187.33 55.9673 Q2185.3 54.3469 2178.38 52.8481 L2175.78 52.2405 Q2168.86 50.7821 2165.78 47.7845 Q2162.7 44.7463 2162.7 39.4801 Q2162.7 33.0797 2167.24 29.5959 Q2171.77 26.1121 2180.12 26.1121 Q2184.25 26.1121 2187.89 26.7198 Q2191.54 27.3274 2194.62 28.5427 Z" fill="#000000" fill-rule="nonzero" fill-opacity="1"></path><path clip-path="url(#clip350)" d="M2247.73 48.0275 L2247.73 51.6733 L2213.46 51.6733 Q2213.94 59.3701 2218.07 63.421 Q2222.25 67.4314 2229.66 67.4314 Q2233.95 67.4314 2237.96 66.3781 Q2242.01 65.3249 2245.98 63.2184 L2245.98 70.267 Q2241.97 71.9684 2237.76 72.8596 Q2233.55 73.7508 2229.21 73.7508 Q2218.36 73.7508 2212 67.4314 Q2205.68 61.1119 2205.68 50.3365 Q2205.68 39.1965 2211.67 32.6746 Q2217.71 26.1121 2227.92 26.1121 Q2237.07 26.1121 2242.38 32.0264 Q2247.73 37.9003 2247.73 48.0275 M2240.27 45.84 Q2240.19 39.7232 2236.83 36.0774 Q2233.51 32.4315 2228 32.4315 Q2221.76 32.4315 2217.99 35.9558 Q2214.27 39.4801 2213.7 45.8805 L2240.27 45.84 Z" fill="#000000" fill-rule="nonzero" fill-opacity="1"></path><path clip-path="url(#clip350)" d="M2267.33 14.324 L2267.33 27.2059 L2282.69 27.2059 L2282.69 32.9987 L2267.33 32.9987 L2267.33 57.6282 Q2267.33 63.1779 2268.83 64.7578 Q2270.37 66.3376 2275.03 66.3376 L2282.69 66.3376 L2282.69 72.576 L2275.03 72.576 Q2266.4 72.576 2263.12 69.3758 Q2259.84 66.1351 2259.84 57.6282 L2259.84 32.9987 L2254.37 32.9987 L2254.37 27.2059 L2259.84 27.2059 L2259.84 14.324 L2267.33 14.324 Z" fill="#000000" fill-rule="nonzero" fill-opacity="1"></path><polyline clip-path="url(#clip352)" style="stroke:#800080; stroke-linecap:round; stroke-linejoin:round; stroke-width:4; stroke-opacity:1; fill:none" points="321.708,1383.36 425.492,1352.55 633.059,1154.6 944.41,1057.47 1255.76,825.344 1774.68,160.256 2293.6,250.825 "></polyline>
<line clip-path="url(#clip352)" x1="321.708" y1="1383.36" x2="305.708" y2="1367.36" style="stroke:#800080; stroke-width:4; stroke-opacity:1"></line>
<line clip-path="url(#clip352)" x1="321.708" y1="1383.36" x2="305.708" y2="1399.36" style="stroke:#800080; stroke-width:4; stroke-opacity:1"></line>
<line clip-path="url(#clip352)" x1="321.708" y1="1383.36" x2="337.708" y2="1399.36" style="stroke:#800080; stroke-width:4; stroke-opacity:1"></line>
<line clip-path="url(#clip352)" x1="321.708" y1="1383.36" x2="337.708" y2="1367.36" style="stroke:#800080; stroke-width:4; stroke-opacity:1"></line>
<line clip-path="url(#clip352)" x1="425.492" y1="1352.55" x2="409.492" y2="1336.55" style="stroke:#800080; stroke-width:4; stroke-opacity:1"></line>
<line clip-path="url(#clip352)" x1="425.492" y1="1352.55" x2="409.492" y2="1368.55" style="stroke:#800080; stroke-width:4; stroke-opacity:1"></line>
<line clip-path="url(#clip352)" x1="425.492" y1="1352.55" x2="441.492" y2="1368.55" style="stroke:#800080; stroke-width:4; stroke-opacity:1"></line>
<line clip-path="url(#clip352)" x1="425.492" y1="1352.55" x2="441.492" y2="1336.55" style="stroke:#800080; stroke-width:4; stroke-opacity:1"></line>
<line clip-path="url(#clip352)" x1="633.059" y1="1154.6" x2="617.059" y2="1138.6" style="stroke:#800080; stroke-width:4; stroke-opacity:1"></line>
<line clip-path="url(#clip352)" x1="633.059" y1="1154.6" x2="617.059" y2="1170.6" style="stroke:#800080; stroke-width:4; stroke-opacity:1"></line>
<line clip-path="url(#clip352)" x1="633.059" y1="1154.6" x2="649.059" y2="1170.6" style="stroke:#800080; stroke-width:4; stroke-opacity:1"></line>
<line clip-path="url(#clip352)" x1="633.059" y1="1154.6" x2="649.059" y2="1138.6" style="stroke:#800080; stroke-width:4; stroke-opacity:1"></line>
<line clip-path="url(#clip352)" x1="944.41" y1="1057.47" x2="928.41" y2="1041.47" style="stroke:#800080; stroke-width:4; stroke-opacity:1"></line>
<line clip-path="url(#clip352)" x1="944.41" y1="1057.47" x2="928.41" y2="1073.47" style="stroke:#800080; stroke-width:4; stroke-opacity:1"></line>
<line clip-path="url(#clip352)" x1="944.41" y1="1057.47" x2="960.41" y2="1073.47" style="stroke:#800080; stroke-width:4; stroke-opacity:1"></line>
<line clip-path="url(#clip352)" x1="944.41" y1="1057.47" x2="960.41" y2="1041.47" style="stroke:#800080; stroke-width:4; stroke-opacity:1"></line>
<line clip-path="url(#clip352)" x1="1255.76" y1="825.344" x2="1239.76" y2="809.344" style="stroke:#800080; stroke-width:4; stroke-opacity:1"></line>
<line clip-path="url(#clip352)" x1="1255.76" y1="825.344" x2="1239.76" y2="841.344" style="stroke:#800080; stroke-width:4; stroke-opacity:1"></line>
<line clip-path="url(#clip352)" x1="1255.76" y1="825.344" x2="1271.76" y2="841.344" style="stroke:#800080; stroke-width:4; stroke-opacity:1"></line>
<line clip-path="url(#clip352)" x1="1255.76" y1="825.344" x2="1271.76" y2="809.344" style="stroke:#800080; stroke-width:4; stroke-opacity:1"></line>
<line clip-path="url(#clip352)" x1="1774.68" y1="160.256" x2="1758.68" y2="144.256" style="stroke:#800080; stroke-width:4; stroke-opacity:1"></line>
<line clip-path="url(#clip352)" x1="1774.68" y1="160.256" x2="1758.68" y2="176.256" style="stroke:#800080; stroke-width:4; stroke-opacity:1"></line>
<line clip-path="url(#clip352)" x1="1774.68" y1="160.256" x2="1790.68" y2="176.256" style="stroke:#800080; stroke-width:4; stroke-opacity:1"></line>
<line clip-path="url(#clip352)" x1="1774.68" y1="160.256" x2="1790.68" y2="144.256" style="stroke:#800080; stroke-width:4; stroke-opacity:1"></line>
<line clip-path="url(#clip352)" x1="2293.6" y1="250.825" x2="2277.6" y2="234.825" style="stroke:#800080; stroke-width:4; stroke-opacity:1"></line>
<line clip-path="url(#clip352)" x1="2293.6" y1="250.825" x2="2277.6" y2="266.825" style="stroke:#800080; stroke-width:4; stroke-opacity:1"></line>
<line clip-path="url(#clip352)" x1="2293.6" y1="250.825" x2="2309.6" y2="266.825" style="stroke:#800080; stroke-width:4; stroke-opacity:1"></line>
<line clip-path="url(#clip352)" x1="2293.6" y1="250.825" x2="2309.6" y2="234.825" style="stroke:#800080; stroke-width:4; stroke-opacity:1"></line>
<polyline clip-path="url(#clip352)" style="stroke:#0000ff; stroke-linecap:round; stroke-linejoin:round; stroke-width:4; stroke-opacity:1; fill:none" points="321.708,1386.4 425.492,1384.17 633.059,1371.15 944.41,1346.6 1255.76,1313.84 1774.68,1252.07 2293.6,1198.87 "></polyline>
<line clip-path="url(#clip352)" x1="321.708" y1="1386.4" x2="305.708" y2="1370.4" style="stroke:#0000ff; stroke-width:4; stroke-opacity:1"></line>
<line clip-path="url(#clip352)" x1="321.708" y1="1386.4" x2="305.708" y2="1402.4" style="stroke:#0000ff; stroke-width:4; stroke-opacity:1"></line>
<line clip-path="url(#clip352)" x1="321.708" y1="1386.4" x2="337.708" y2="1402.4" style="stroke:#0000ff; stroke-width:4; stroke-opacity:1"></line>
<line clip-path="url(#clip352)" x1="321.708" y1="1386.4" x2="337.708" y2="1370.4" style="stroke:#0000ff; stroke-width:4; stroke-opacity:1"></line>
<line clip-path="url(#clip352)" x1="425.492" y1="1384.17" x2="409.492" y2="1368.17" style="stroke:#0000ff; stroke-width:4; stroke-opacity:1"></line>
<line clip-path="url(#clip352)" x1="425.492" y1="1384.17" x2="409.492" y2="1400.17" style="stroke:#0000ff; stroke-width:4; stroke-opacity:1"></line>
<line clip-path="url(#clip352)" x1="425.492" y1="1384.17" x2="441.492" y2="1400.17" style="stroke:#0000ff; stroke-width:4; stroke-opacity:1"></line>
<line clip-path="url(#clip352)" x1="425.492" y1="1384.17" x2="441.492" y2="1368.17" style="stroke:#0000ff; stroke-width:4; stroke-opacity:1"></line>
<line clip-path="url(#clip352)" x1="633.059" y1="1371.15" x2="617.059" y2="1355.15" style="stroke:#0000ff; stroke-width:4; stroke-opacity:1"></line>
<line clip-path="url(#clip352)" x1="633.059" y1="1371.15" x2="617.059" y2="1387.15" style="stroke:#0000ff; stroke-width:4; stroke-opacity:1"></line>
<line clip-path="url(#clip352)" x1="633.059" y1="1371.15" x2="649.059" y2="1387.15" style="stroke:#0000ff; stroke-width:4; stroke-opacity:1"></line>
<line clip-path="url(#clip352)" x1="633.059" y1="1371.15" x2="649.059" y2="1355.15" style="stroke:#0000ff; stroke-width:4; stroke-opacity:1"></line>
<line clip-path="url(#clip352)" x1="944.41" y1="1346.6" x2="928.41" y2="1330.6" style="stroke:#0000ff; stroke-width:4; stroke-opacity:1"></line>
<line clip-path="url(#clip352)" x1="944.41" y1="1346.6" x2="928.41" y2="1362.6" style="stroke:#0000ff; stroke-width:4; stroke-opacity:1"></line>
<line clip-path="url(#clip352)" x1="944.41" y1="1346.6" x2="960.41" y2="1362.6" style="stroke:#0000ff; stroke-width:4; stroke-opacity:1"></line>
<line clip-path="url(#clip352)" x1="944.41" y1="1346.6" x2="960.41" y2="1330.6" style="stroke:#0000ff; stroke-width:4; stroke-opacity:1"></line>
<line clip-path="url(#clip352)" x1="1255.76" y1="1313.84" x2="1239.76" y2="1297.84" style="stroke:#0000ff; stroke-width:4; stroke-opacity:1"></line>
<line clip-path="url(#clip352)" x1="1255.76" y1="1313.84" x2="1239.76" y2="1329.84" style="stroke:#0000ff; stroke-width:4; stroke-opacity:1"></line>
<line clip-path="url(#clip352)" x1="1255.76" y1="1313.84" x2="1271.76" y2="1329.84" style="stroke:#0000ff; stroke-width:4; stroke-opacity:1"></line>
<line clip-path="url(#clip352)" x1="1255.76" y1="1313.84" x2="1271.76" y2="1297.84" style="stroke:#0000ff; stroke-width:4; stroke-opacity:1"></line>
<line clip-path="url(#clip352)" x1="1774.68" y1="1252.07" x2="1758.68" y2="1236.07" style="stroke:#0000ff; stroke-width:4; stroke-opacity:1"></line>
<line clip-path="url(#clip352)" x1="1774.68" y1="1252.07" x2="1758.68" y2="1268.07" style="stroke:#0000ff; stroke-width:4; stroke-opacity:1"></line>
<line clip-path="url(#clip352)" x1="1774.68" y1="1252.07" x2="1790.68" y2="1268.07" style="stroke:#0000ff; stroke-width:4; stroke-opacity:1"></line>
<line clip-path="url(#clip352)" x1="1774.68" y1="1252.07" x2="1790.68" y2="1236.07" style="stroke:#0000ff; stroke-width:4; stroke-opacity:1"></line>
<line clip-path="url(#clip352)" x1="2293.6" y1="1198.87" x2="2277.6" y2="1182.87" style="stroke:#0000ff; stroke-width:4; stroke-opacity:1"></line>
<line clip-path="url(#clip352)" x1="2293.6" y1="1198.87" x2="2277.6" y2="1214.87" style="stroke:#0000ff; stroke-width:4; stroke-opacity:1"></line>
<line clip-path="url(#clip352)" x1="2293.6" y1="1198.87" x2="2309.6" y2="1214.87" style="stroke:#0000ff; stroke-width:4; stroke-opacity:1"></line>
<line clip-path="url(#clip352)" x1="2293.6" y1="1198.87" x2="2309.6" y2="1182.87" style="stroke:#0000ff; stroke-width:4; stroke-opacity:1"></line>
<path clip-path="url(#clip350)" d="M332.225 322.316 L996.752 322.316 L996.752 166.796 L332.225 166.796  Z" fill="#ffffff" fill-rule="evenodd" fill-opacity="1"></path>
<polyline clip-path="url(#clip350)" style="stroke:#000000; stroke-linecap:round; stroke-linejoin:round; stroke-width:4; stroke-opacity:1; fill:none" points="332.225,322.316 996.752,322.316 996.752,166.796 332.225,166.796 332.225,322.316 "></polyline>
<polyline clip-path="url(#clip350)" style="stroke:#800080; stroke-linecap:round; stroke-linejoin:round; stroke-width:4; stroke-opacity:1; fill:none" points="355.449,218.636 494.796,218.636 "></polyline>
<line clip-path="url(#clip350)" x1="425.123" y1="218.636" x2="403.619" y2="197.132" style="stroke:#800080; stroke-width:4.55111; stroke-opacity:1"></line>
<line clip-path="url(#clip350)" x1="425.123" y1="218.636" x2="403.619" y2="240.14" style="stroke:#800080; stroke-width:4.55111; stroke-opacity:1"></line>
<line clip-path="url(#clip350)" x1="425.123" y1="218.636" x2="446.627" y2="240.14" style="stroke:#800080; stroke-width:4.55111; stroke-opacity:1"></line>
<line clip-path="url(#clip350)" x1="425.123" y1="218.636" x2="446.627" y2="197.132" style="stroke:#800080; stroke-width:4.55111; stroke-opacity:1"></line>
<path clip-path="url(#clip350)" d="M518.021 201.356 L524.317 201.356 L539.641 230.268 L539.641 201.356 L544.178 201.356 L544.178 235.916 L537.882 235.916 L522.558 207.004 L522.558 235.916 L518.021 235.916 L518.021 201.356 Z" fill="#000000" fill-rule="nonzero" fill-opacity="1"></path><path clip-path="url(#clip350)" d="M563.345 212.976 Q559.919 212.976 557.928 215.661 Q555.937 218.323 555.937 222.976 Q555.937 227.629 557.905 230.314 Q559.895 232.976 563.345 232.976 Q566.747 232.976 568.738 230.291 Q570.729 227.606 570.729 222.976 Q570.729 218.37 568.738 215.684 Q566.747 212.976 563.345 212.976 M563.345 209.365 Q568.9 209.365 572.071 212.976 Q575.243 216.587 575.243 222.976 Q575.243 229.342 572.071 232.976 Q568.9 236.587 563.345 236.587 Q557.766 236.587 554.595 232.976 Q551.446 229.342 551.446 222.976 Q551.446 216.587 554.595 212.976 Q557.766 209.365 563.345 209.365 Z" fill="#000000" fill-rule="nonzero" fill-opacity="1"></path><path clip-path="url(#clip350)" d="M597.326 213.971 Q596.608 213.555 595.752 213.37 Q594.918 213.161 593.9 213.161 Q590.289 213.161 588.344 215.522 Q586.423 217.86 586.423 222.258 L586.423 235.916 L582.141 235.916 L582.141 209.99 L586.423 209.99 L586.423 214.018 Q587.766 211.657 589.918 210.522 Q592.071 209.365 595.15 209.365 Q595.59 209.365 596.122 209.434 Q596.655 209.481 597.303 209.596 L597.326 213.971 Z" fill="#000000" fill-rule="nonzero" fill-opacity="1"></path><path clip-path="url(#clip350)" d="M621.145 214.967 Q622.742 212.096 624.965 210.731 Q627.187 209.365 630.196 209.365 Q634.247 209.365 636.446 212.212 Q638.645 215.036 638.645 220.268 L638.645 235.916 L634.363 235.916 L634.363 220.407 Q634.363 216.68 633.043 214.874 Q631.724 213.069 629.015 213.069 Q625.705 213.069 623.784 215.268 Q621.863 217.467 621.863 221.263 L621.863 235.916 L617.58 235.916 L617.58 220.407 Q617.58 216.657 616.261 214.874 Q614.941 213.069 612.187 213.069 Q608.923 213.069 607.002 215.291 Q605.08 217.49 605.08 221.263 L605.08 235.916 L600.798 235.916 L600.798 209.99 L605.08 209.99 L605.08 214.018 Q606.539 211.633 608.576 210.499 Q610.613 209.365 613.414 209.365 Q616.238 209.365 618.205 210.8 Q620.196 212.235 621.145 214.967 Z" fill="#000000" fill-rule="nonzero" fill-opacity="1"></path><path clip-path="url(#clip350)" d="M658.923 222.883 Q653.761 222.883 651.77 224.064 Q649.779 225.244 649.779 228.092 Q649.779 230.36 651.261 231.703 Q652.765 233.022 655.335 233.022 Q658.876 233.022 661.006 230.522 Q663.159 227.999 663.159 223.832 L663.159 222.883 L658.923 222.883 M667.418 221.124 L667.418 235.916 L663.159 235.916 L663.159 231.981 Q661.7 234.342 659.525 235.476 Q657.349 236.587 654.201 236.587 Q650.219 236.587 647.858 234.365 Q645.52 232.119 645.52 228.369 Q645.52 223.994 648.437 221.772 Q651.376 219.55 657.187 219.55 L663.159 219.55 L663.159 219.133 Q663.159 216.194 661.214 214.596 Q659.293 212.976 655.798 212.976 Q653.576 212.976 651.469 213.508 Q649.363 214.041 647.418 215.106 L647.418 211.17 Q649.756 210.268 651.955 209.828 Q654.154 209.365 656.238 209.365 Q661.863 209.365 664.64 212.282 Q667.418 215.198 667.418 221.124 Z" fill="#000000" fill-rule="nonzero" fill-opacity="1"></path><path clip-path="url(#clip350)" d="M676.191 199.897 L680.45 199.897 L680.45 235.916 L676.191 235.916 L676.191 199.897 Z" fill="#000000" fill-rule="nonzero" fill-opacity="1"></path><path clip-path="url(#clip350)" d="M721.492 213.925 L721.492 199.897 L725.751 199.897 L725.751 235.916 L721.492 235.916 L721.492 232.027 Q720.149 234.342 718.089 235.476 Q716.052 236.587 713.182 236.587 Q708.483 236.587 705.52 232.837 Q702.58 229.087 702.58 222.976 Q702.58 216.865 705.52 213.115 Q708.483 209.365 713.182 209.365 Q716.052 209.365 718.089 210.499 Q720.149 211.61 721.492 213.925 M706.978 222.976 Q706.978 227.675 708.899 230.36 Q710.844 233.022 714.223 233.022 Q717.603 233.022 719.547 230.36 Q721.492 227.675 721.492 222.976 Q721.492 218.277 719.547 215.615 Q717.603 212.93 714.223 212.93 Q710.844 212.93 708.899 215.615 Q706.978 218.277 706.978 222.976 Z" fill="#000000" fill-rule="nonzero" fill-opacity="1"></path><path clip-path="url(#clip350)" d="M756.7 221.888 L756.7 223.971 L737.117 223.971 Q737.395 228.369 739.756 230.684 Q742.14 232.976 746.376 232.976 Q748.83 232.976 751.121 232.374 Q753.436 231.772 755.705 230.569 L755.705 234.596 Q753.413 235.568 751.006 236.078 Q748.598 236.587 746.121 236.587 Q739.918 236.587 736.283 232.976 Q732.672 229.365 732.672 223.207 Q732.672 216.842 736.098 213.115 Q739.547 209.365 745.381 209.365 Q750.612 209.365 753.644 212.745 Q756.7 216.101 756.7 221.888 M752.441 220.638 Q752.394 217.143 750.473 215.059 Q748.575 212.976 745.427 212.976 Q741.862 212.976 739.709 214.99 Q737.58 217.004 737.256 220.661 L752.441 220.638 Z" fill="#000000" fill-rule="nonzero" fill-opacity="1"></path><path clip-path="url(#clip350)" d="M767.811 232.027 L767.811 245.777 L763.529 245.777 L763.529 209.99 L767.811 209.99 L767.811 213.925 Q769.154 211.61 771.191 210.499 Q773.251 209.365 776.098 209.365 Q780.82 209.365 783.76 213.115 Q786.723 216.865 786.723 222.976 Q786.723 229.087 783.76 232.837 Q780.82 236.587 776.098 236.587 Q773.251 236.587 771.191 235.476 Q769.154 234.342 767.811 232.027 M782.302 222.976 Q782.302 218.277 780.357 215.615 Q778.436 212.93 775.056 212.93 Q771.677 212.93 769.732 215.615 Q767.811 218.277 767.811 222.976 Q767.811 227.675 769.732 230.36 Q771.677 233.022 775.056 233.022 Q778.436 233.022 780.357 230.36 Q782.302 227.675 782.302 222.976 Z" fill="#000000" fill-rule="nonzero" fill-opacity="1"></path><path clip-path="url(#clip350)" d="M797.996 202.629 L797.996 209.99 L806.769 209.99 L806.769 213.3 L797.996 213.3 L797.996 227.374 Q797.996 230.545 798.853 231.448 Q799.732 232.351 802.394 232.351 L806.769 232.351 L806.769 235.916 L802.394 235.916 Q797.464 235.916 795.589 234.087 Q793.714 232.235 793.714 227.374 L793.714 213.3 L790.589 213.3 L790.589 209.99 L793.714 209.99 L793.714 202.629 L797.996 202.629 Z" fill="#000000" fill-rule="nonzero" fill-opacity="1"></path><path clip-path="url(#clip350)" d="M833.922 220.268 L833.922 235.916 L829.663 235.916 L829.663 220.407 Q829.663 216.726 828.227 214.897 Q826.792 213.069 823.922 213.069 Q820.473 213.069 818.482 215.268 Q816.491 217.467 816.491 221.263 L816.491 235.916 L812.209 235.916 L812.209 199.897 L816.491 199.897 L816.491 214.018 Q818.019 211.68 820.079 210.522 Q822.163 209.365 824.871 209.365 Q829.338 209.365 831.63 212.143 Q833.922 214.897 833.922 220.268 Z" fill="#000000" fill-rule="nonzero" fill-opacity="1"></path><path clip-path="url(#clip350)" d="M858.898 231.981 L866.537 231.981 L866.537 205.615 L858.227 207.282 L858.227 203.022 L866.491 201.356 L871.167 201.356 L871.167 231.981 L878.806 231.981 L878.806 235.916 L858.898 235.916 L858.898 231.981 Z" fill="#000000" fill-rule="nonzero" fill-opacity="1"></path><path clip-path="url(#clip350)" d="M892.278 231.981 L908.597 231.981 L908.597 235.916 L886.653 235.916 L886.653 231.981 Q889.315 229.226 893.898 224.596 Q898.505 219.944 899.685 218.601 Q901.931 216.078 902.81 214.342 Q903.713 212.583 903.713 210.893 Q903.713 208.138 901.769 206.402 Q899.847 204.666 896.746 204.666 Q894.546 204.666 892.093 205.43 Q889.662 206.194 886.884 207.745 L886.884 203.022 Q889.709 201.888 892.162 201.309 Q894.616 200.731 896.653 200.731 Q902.023 200.731 905.218 203.416 Q908.412 206.101 908.412 210.592 Q908.412 212.721 907.602 214.643 Q906.815 216.541 904.708 219.133 Q904.13 219.805 901.028 223.022 Q897.926 226.217 892.278 231.981 Z" fill="#000000" fill-rule="nonzero" fill-opacity="1"></path><polyline clip-path="url(#clip350)" style="stroke:#0000ff; stroke-linecap:round; stroke-linejoin:round; stroke-width:4; stroke-opacity:1; fill:none" points="355.449,270.476 494.796,270.476 "></polyline>
<line clip-path="url(#clip350)" x1="425.123" y1="270.476" x2="403.619" y2="248.972" style="stroke:#0000ff; stroke-width:4.55111; stroke-opacity:1"></line>
<line clip-path="url(#clip350)" x1="425.123" y1="270.476" x2="403.619" y2="291.98" style="stroke:#0000ff; stroke-width:4.55111; stroke-opacity:1"></line>
<line clip-path="url(#clip350)" x1="425.123" y1="270.476" x2="446.627" y2="291.98" style="stroke:#0000ff; stroke-width:4.55111; stroke-opacity:1"></line>
<line clip-path="url(#clip350)" x1="425.123" y1="270.476" x2="446.627" y2="248.972" style="stroke:#0000ff; stroke-width:4.55111; stroke-opacity:1"></line>
<path clip-path="url(#clip350)" d="M533.854 257.802 L527.511 275.001 L540.22 275.001 L533.854 257.802 M531.215 253.196 L536.516 253.196 L549.687 287.756 L544.826 287.756 L541.678 278.89 L526.099 278.89 L522.951 287.756 L518.021 287.756 L531.215 253.196 Z" fill="#000000" fill-rule="nonzero" fill-opacity="1"></path><path clip-path="url(#clip350)" d="M554.548 251.737 L558.808 251.737 L558.808 287.756 L554.548 287.756 L554.548 251.737 Z" fill="#000000" fill-rule="nonzero" fill-opacity="1"></path><path clip-path="url(#clip350)" d="M584.78 274.492 Q584.78 269.862 582.858 267.316 Q580.96 264.77 577.511 264.77 Q574.085 264.77 572.164 267.316 Q570.266 269.862 570.266 274.492 Q570.266 279.098 572.164 281.645 Q574.085 284.191 577.511 284.191 Q580.96 284.191 582.858 281.645 Q584.78 279.098 584.78 274.492 M589.039 284.538 Q589.039 291.158 586.099 294.376 Q583.159 297.617 577.094 297.617 Q574.849 297.617 572.858 297.27 Q570.868 296.945 568.993 296.251 L568.993 292.108 Q570.868 293.126 572.696 293.612 Q574.525 294.098 576.423 294.098 Q580.613 294.098 582.696 291.899 Q584.78 289.723 584.78 285.302 L584.78 283.196 Q583.46 285.487 581.4 286.621 Q579.34 287.756 576.469 287.756 Q571.701 287.756 568.784 284.121 Q565.868 280.487 565.868 274.492 Q565.868 268.473 568.784 264.839 Q571.701 261.205 576.469 261.205 Q579.34 261.205 581.4 262.339 Q583.46 263.473 584.78 265.765 L584.78 261.83 L589.039 261.83 L589.039 284.538 Z" fill="#000000" fill-rule="nonzero" fill-opacity="1"></path><path clip-path="url(#clip350)" d="M607.858 264.816 Q604.432 264.816 602.442 267.501 Q600.451 270.163 600.451 274.816 Q600.451 279.469 602.418 282.154 Q604.409 284.816 607.858 284.816 Q611.261 284.816 613.252 282.131 Q615.242 279.446 615.242 274.816 Q615.242 270.21 613.252 267.524 Q611.261 264.816 607.858 264.816 M607.858 261.205 Q613.414 261.205 616.585 264.816 Q619.756 268.427 619.756 274.816 Q619.756 281.182 616.585 284.816 Q613.414 288.427 607.858 288.427 Q602.279 288.427 599.108 284.816 Q595.96 281.182 595.96 274.816 Q595.96 268.427 599.108 264.816 Q602.279 261.205 607.858 261.205 Z" fill="#000000" fill-rule="nonzero" fill-opacity="1"></path><path clip-path="url(#clip350)" d="M641.839 265.811 Q641.122 265.395 640.265 265.21 Q639.432 265.001 638.414 265.001 Q634.802 265.001 632.858 267.362 Q630.937 269.7 630.937 274.098 L630.937 287.756 L626.654 287.756 L626.654 261.83 L630.937 261.83 L630.937 265.858 Q632.279 263.497 634.432 262.362 Q636.585 261.205 639.664 261.205 Q640.103 261.205 640.636 261.274 Q641.168 261.321 641.816 261.436 L641.839 265.811 Z" fill="#000000" fill-rule="nonzero" fill-opacity="1"></path><path clip-path="url(#clip350)" d="M646.307 261.83 L650.566 261.83 L650.566 287.756 L646.307 287.756 L646.307 261.83 M646.307 251.737 L650.566 251.737 L650.566 257.131 L646.307 257.131 L646.307 251.737 Z" fill="#000000" fill-rule="nonzero" fill-opacity="1"></path><path clip-path="url(#clip350)" d="M663.691 254.469 L663.691 261.83 L672.464 261.83 L672.464 265.14 L663.691 265.14 L663.691 279.214 Q663.691 282.385 664.548 283.288 Q665.427 284.191 668.089 284.191 L672.464 284.191 L672.464 287.756 L668.089 287.756 Q663.159 287.756 661.284 285.927 Q659.409 284.075 659.409 279.214 L659.409 265.14 L656.284 265.14 L656.284 261.83 L659.409 261.83 L659.409 254.469 L663.691 254.469 Z" fill="#000000" fill-rule="nonzero" fill-opacity="1"></path><path clip-path="url(#clip350)" d="M699.617 272.108 L699.617 287.756 L695.358 287.756 L695.358 272.247 Q695.358 268.566 693.923 266.737 Q692.487 264.909 689.617 264.909 Q686.168 264.909 684.177 267.108 Q682.186 269.307 682.186 273.103 L682.186 287.756 L677.904 287.756 L677.904 251.737 L682.186 251.737 L682.186 265.858 Q683.714 263.52 685.774 262.362 Q687.858 261.205 690.566 261.205 Q695.034 261.205 697.325 263.983 Q699.617 266.737 699.617 272.108 Z" fill="#000000" fill-rule="nonzero" fill-opacity="1"></path><path clip-path="url(#clip350)" d="M728.297 266.807 Q729.895 263.936 732.117 262.571 Q734.339 261.205 737.348 261.205 Q741.399 261.205 743.598 264.052 Q745.797 266.876 745.797 272.108 L745.797 287.756 L741.515 287.756 L741.515 272.247 Q741.515 268.52 740.195 266.714 Q738.876 264.909 736.168 264.909 Q732.857 264.909 730.936 267.108 Q729.015 269.307 729.015 273.103 L729.015 287.756 L724.733 287.756 L724.733 272.247 Q724.733 268.497 723.413 266.714 Q722.094 264.909 719.339 264.909 Q716.075 264.909 714.154 267.131 Q712.233 269.33 712.233 273.103 L712.233 287.756 L707.95 287.756 L707.95 261.83 L712.233 261.83 L712.233 265.858 Q713.691 263.473 715.728 262.339 Q717.765 261.205 720.566 261.205 Q723.39 261.205 725.358 262.64 Q727.348 264.075 728.297 266.807 Z" fill="#000000" fill-rule="nonzero" fill-opacity="1"></path><path clip-path="url(#clip350)" d="M786.422 265.765 L786.422 251.737 L790.681 251.737 L790.681 287.756 L786.422 287.756 L786.422 283.867 Q785.079 286.182 783.019 287.316 Q780.982 288.427 778.112 288.427 Q773.413 288.427 770.45 284.677 Q767.51 280.927 767.51 274.816 Q767.51 268.705 770.45 264.955 Q773.413 261.205 778.112 261.205 Q780.982 261.205 783.019 262.339 Q785.079 263.45 786.422 265.765 M771.908 274.816 Q771.908 279.515 773.829 282.2 Q775.774 284.862 779.154 284.862 Q782.533 284.862 784.478 282.2 Q786.422 279.515 786.422 274.816 Q786.422 270.117 784.478 267.455 Q782.533 264.77 779.154 264.77 Q775.774 264.77 773.829 267.455 Q771.908 270.117 771.908 274.816 Z" fill="#000000" fill-rule="nonzero" fill-opacity="1"></path><path clip-path="url(#clip350)" d="M821.63 273.728 L821.63 275.811 L802.047 275.811 Q802.325 280.209 804.686 282.524 Q807.07 284.816 811.306 284.816 Q813.76 284.816 816.051 284.214 Q818.366 283.612 820.635 282.409 L820.635 286.436 Q818.343 287.408 815.936 287.918 Q813.528 288.427 811.052 288.427 Q804.848 288.427 801.214 284.816 Q797.603 281.205 797.603 275.047 Q797.603 268.682 801.028 264.955 Q804.477 261.205 810.311 261.205 Q815.542 261.205 818.575 264.585 Q821.63 267.941 821.63 273.728 M817.371 272.478 Q817.325 268.983 815.403 266.899 Q813.505 264.816 810.357 264.816 Q806.792 264.816 804.64 266.83 Q802.51 268.844 802.186 272.501 L817.371 272.478 Z" fill="#000000" fill-rule="nonzero" fill-opacity="1"></path><path clip-path="url(#clip350)" d="M832.741 283.867 L832.741 297.617 L828.459 297.617 L828.459 261.83 L832.741 261.83 L832.741 265.765 Q834.084 263.45 836.121 262.339 Q838.181 261.205 841.028 261.205 Q845.75 261.205 848.69 264.955 Q851.653 268.705 851.653 274.816 Q851.653 280.927 848.69 284.677 Q845.75 288.427 841.028 288.427 Q838.181 288.427 836.121 287.316 Q834.084 286.182 832.741 283.867 M847.232 274.816 Q847.232 270.117 845.287 267.455 Q843.366 264.77 839.987 264.77 Q836.607 264.77 834.663 267.455 Q832.741 270.117 832.741 274.816 Q832.741 279.515 834.663 282.2 Q836.607 284.862 839.987 284.862 Q843.366 284.862 845.287 282.2 Q847.232 279.515 847.232 274.816 Z" fill="#000000" fill-rule="nonzero" fill-opacity="1"></path><path clip-path="url(#clip350)" d="M862.926 254.469 L862.926 261.83 L871.699 261.83 L871.699 265.14 L862.926 265.14 L862.926 279.214 Q862.926 282.385 863.783 283.288 Q864.662 284.191 867.324 284.191 L871.699 284.191 L871.699 287.756 L867.324 287.756 Q862.394 287.756 860.519 285.927 Q858.644 284.075 858.644 279.214 L858.644 265.14 L855.519 265.14 L855.519 261.83 L858.644 261.83 L858.644 254.469 L862.926 254.469 Z" fill="#000000" fill-rule="nonzero" fill-opacity="1"></path><path clip-path="url(#clip350)" d="M898.852 272.108 L898.852 287.756 L894.593 287.756 L894.593 272.247 Q894.593 268.566 893.158 266.737 Q891.722 264.909 888.852 264.909 Q885.403 264.909 883.412 267.108 Q881.422 269.307 881.422 273.103 L881.422 287.756 L877.139 287.756 L877.139 251.737 L881.422 251.737 L881.422 265.858 Q882.949 263.52 885.009 262.362 Q887.093 261.205 889.801 261.205 Q894.269 261.205 896.56 263.983 Q898.852 266.737 898.852 272.108 Z" fill="#000000" fill-rule="nonzero" fill-opacity="1"></path><path clip-path="url(#clip350)" d="M923.829 283.821 L931.468 283.821 L931.468 257.455 L923.157 259.122 L923.157 254.862 L931.421 253.196 L936.097 253.196 L936.097 283.821 L943.736 283.821 L943.736 287.756 L923.829 287.756 L923.829 283.821 Z" fill="#000000" fill-rule="nonzero" fill-opacity="1"></path><path clip-path="url(#clip350)" d="M957.208 283.821 L973.528 283.821 L973.528 287.756 L951.583 287.756 L951.583 283.821 Q954.245 281.066 958.829 276.436 Q963.435 271.784 964.616 270.441 Q966.861 267.918 967.74 266.182 Q968.643 264.423 968.643 262.733 Q968.643 259.978 966.699 258.242 Q964.778 256.506 961.676 256.506 Q959.477 256.506 957.023 257.27 Q954.592 258.034 951.815 259.585 L951.815 254.862 Q954.639 253.728 957.092 253.149 Q959.546 252.571 961.583 252.571 Q966.953 252.571 970.148 255.256 Q973.342 257.941 973.342 262.432 Q973.342 264.561 972.532 266.483 Q971.745 268.381 969.639 270.973 Q969.06 271.645 965.958 274.862 Q962.856 278.057 957.208 283.821 Z" fill="#000000" fill-rule="nonzero" fill-opacity="1"></path></svg>