<svg xmlns="http://www.w3.org/2000/svg" xmlns:xlink="http://www.w3.org/1999/xlink" width="600" height="400" viewBox="0 0 2400 1600">
<defs>
  <clipPath id="clip230">
    <rect x="0" y="0" width="2400" height="1600"></rect>
  </clipPath>
</defs>
<path clip-path="url(#clip230)" d="M0 1600 L2400 1600 L2400 0 L0 0  Z" fill="#ffffff" fill-rule="evenodd" fill-opacity="1"></path>
<defs>
  <clipPath id="clip231">
    <rect x="480" y="0" width="1681" height="1600"></rect>
  </clipPath>
</defs>
<path clip-path="url(#clip230)" d="M232.389 1423.18 L2352.76 1423.18 L2352.76 123.472 L232.389 123.472  Z" fill="#ffffff" fill-rule="evenodd" fill-opacity="1"></path>
<defs>
  <clipPath id="clip232">
    <rect x="232" y="123" width="2121" height="1301"></rect>
  </clipPath>
</defs>
<polyline clip-path="url(#clip232)" style="stroke:#000000; stroke-linecap:round; stroke-linejoin:round; stroke-width:2; stroke-opacity:0.1; fill:none" points="608.244,1423.18 608.244,123.472 "></polyline>
<polyline clip-path="url(#clip232)" style="stroke:#000000; stroke-linecap:round; stroke-linejoin:round; stroke-width:2; stroke-opacity:0.1; fill:none" points="1029.37,1423.18 1029.37,123.472 "></polyline>
<polyline clip-path="url(#clip232)" style="stroke:#000000; stroke-linecap:round; stroke-linejoin:round; stroke-width:2; stroke-opacity:0.1; fill:none" points="1450.49,1423.18 1450.49,123.472 "></polyline>
<polyline clip-path="url(#clip232)" style="stroke:#000000; stroke-linecap:round; stroke-linejoin:round; stroke-width:2; stroke-opacity:0.1; fill:none" points="1871.62,1423.18 1871.62,123.472 "></polyline>
<polyline clip-path="url(#clip232)" style="stroke:#000000; stroke-linecap:round; stroke-linejoin:round; stroke-width:2; stroke-opacity:0.1; fill:none" points="2292.75,1423.18 2292.75,123.472 "></polyline>
<polyline clip-path="url(#clip230)" style="stroke:#000000; stroke-linecap:round; stroke-linejoin:round; stroke-width:4; stroke-opacity:1; fill:none" points="232.389,1423.18 2352.76,1423.18 "></polyline>
<polyline clip-path="url(#clip230)" style="stroke:#000000; stroke-linecap:round; stroke-linejoin:round; stroke-width:4; stroke-opacity:1; fill:none" points="608.244,1423.18 608.244,1404.28 "></polyline>
<polyline clip-path="url(#clip230)" style="stroke:#000000; stroke-linecap:round; stroke-linejoin:round; stroke-width:4; stroke-opacity:1; fill:none" points="1029.37,1423.18 1029.37,1404.28 "></polyline>
<polyline clip-path="url(#clip230)" style="stroke:#000000; stroke-linecap:round; stroke-linejoin:round; stroke-width:4; stroke-opacity:1; fill:none" points="1450.49,1423.18 1450.49,1404.28 "></polyline>
<polyline clip-path="url(#clip230)" style="stroke:#000000; stroke-linecap:round; stroke-linejoin:round; stroke-width:4; stroke-opacity:1; fill:none" points="1871.62,1423.18 1871.62,1404.28 "></polyline>
<polyline clip-path="url(#clip230)" style="stroke:#000000; stroke-linecap:round; stroke-linejoin:round; stroke-width:4; stroke-opacity:1; fill:none" points="2292.75,1423.18 2292.75,1404.28 "></polyline>
<path clip-path="url(#clip230)" d="M571.936 1481.64 L588.255 1481.64 L588.255 1485.58 L566.311 1485.58 L566.311 1481.64 Q568.973 1478.89 573.556 1474.26 Q578.163 1469.61 579.343 1468.27 Q581.589 1465.74 582.468 1464.01 Q583.371 1462.25 583.371 1460.56 Q583.371 1457.8 581.427 1456.07 Q579.506 1454.33 576.404 1454.33 Q574.205 1454.33 571.751 1455.09 Q569.32 1455.86 566.543 1457.41 L566.543 1452.69 Q569.367 1451.55 571.82 1450.97 Q574.274 1450.39 576.311 1450.39 Q581.681 1450.39 584.876 1453.08 Q588.07 1455.77 588.07 1460.26 Q588.07 1462.39 587.26 1464.31 Q586.473 1466.2 584.367 1468.8 Q583.788 1469.47 580.686 1472.69 Q577.584 1475.88 571.936 1481.64 Z" fill="#000000" fill-rule="nonzero" fill-opacity="1"></path><path clip-path="url(#clip230)" d="M608.07 1454.1 Q604.459 1454.1 602.63 1457.66 Q600.825 1461.2 600.825 1468.33 Q600.825 1475.44 602.63 1479.01 Q604.459 1482.55 608.07 1482.55 Q611.704 1482.55 613.51 1479.01 Q615.339 1475.44 615.339 1468.33 Q615.339 1461.2 613.51 1457.66 Q611.704 1454.1 608.07 1454.1 M608.07 1450.39 Q613.88 1450.39 616.936 1455 Q620.015 1459.58 620.015 1468.33 Q620.015 1477.06 616.936 1481.67 Q613.88 1486.25 608.07 1486.25 Q602.26 1486.25 599.181 1481.67 Q596.126 1477.06 596.126 1468.33 Q596.126 1459.58 599.181 1455 Q602.26 1450.39 608.07 1450.39 Z" fill="#000000" fill-rule="nonzero" fill-opacity="1"></path><path clip-path="url(#clip230)" d="M638.232 1454.1 Q634.621 1454.1 632.792 1457.66 Q630.987 1461.2 630.987 1468.33 Q630.987 1475.44 632.792 1479.01 Q634.621 1482.55 638.232 1482.55 Q641.866 1482.55 643.672 1479.01 Q645.501 1475.44 645.501 1468.33 Q645.501 1461.2 643.672 1457.66 Q641.866 1454.1 638.232 1454.1 M638.232 1450.39 Q644.042 1450.39 647.098 1455 Q650.176 1459.58 650.176 1468.33 Q650.176 1477.06 647.098 1481.67 Q644.042 1486.25 638.232 1486.25 Q632.422 1486.25 629.343 1481.67 Q626.288 1477.06 626.288 1468.33 Q626.288 1459.58 629.343 1455 Q632.422 1450.39 638.232 1450.39 Z" fill="#000000" fill-rule="nonzero" fill-opacity="1"></path><path clip-path="url(#clip230)" d="M1002.46 1455.09 L990.654 1473.54 L1002.46 1473.54 L1002.46 1455.09 M1001.23 1451.02 L1007.11 1451.02 L1007.11 1473.54 L1012.04 1473.54 L1012.04 1477.43 L1007.11 1477.43 L1007.11 1485.58 L1002.46 1485.58 L1002.46 1477.43 L986.858 1477.43 L986.858 1472.92 L1001.23 1451.02 Z" fill="#000000" fill-rule="nonzero" fill-opacity="1"></path><path clip-path="url(#clip230)" d="M1029.77 1454.1 Q1026.16 1454.1 1024.33 1457.66 Q1022.53 1461.2 1022.53 1468.33 Q1022.53 1475.44 1024.33 1479.01 Q1026.16 1482.55 1029.77 1482.55 Q1033.41 1482.55 1035.21 1479.01 Q1037.04 1475.44 1037.04 1468.33 Q1037.04 1461.2 1035.21 1457.66 Q1033.41 1454.1 1029.77 1454.1 M1029.77 1450.39 Q1035.58 1450.39 1038.64 1455 Q1041.72 1459.58 1041.72 1468.33 Q1041.72 1477.06 1038.64 1481.67 Q1035.58 1486.25 1029.77 1486.25 Q1023.96 1486.25 1020.89 1481.67 Q1017.83 1477.06 1017.83 1468.33 Q1017.83 1459.58 1020.89 1455 Q1023.96 1450.39 1029.77 1450.39 Z" fill="#000000" fill-rule="nonzero" fill-opacity="1"></path><path clip-path="url(#clip230)" d="M1059.94 1454.1 Q1056.33 1454.1 1054.5 1457.66 Q1052.69 1461.2 1052.69 1468.33 Q1052.69 1475.44 1054.5 1479.01 Q1056.33 1482.55 1059.94 1482.55 Q1063.57 1482.55 1065.38 1479.01 Q1067.2 1475.44 1067.2 1468.33 Q1067.2 1461.2 1065.38 1457.66 Q1063.57 1454.1 1059.94 1454.1 M1059.94 1450.39 Q1065.75 1450.39 1068.8 1455 Q1071.88 1459.58 1071.88 1468.33 Q1071.88 1477.06 1068.8 1481.67 Q1065.75 1486.25 1059.94 1486.25 Q1054.13 1486.25 1051.05 1481.67 Q1047.99 1477.06 1047.99 1468.33 Q1047.99 1459.58 1051.05 1455 Q1054.13 1450.39 1059.94 1450.39 Z" fill="#000000" fill-rule="nonzero" fill-opacity="1"></path><path clip-path="url(#clip230)" d="M1420.82 1466.44 Q1417.67 1466.44 1415.82 1468.59 Q1413.99 1470.74 1413.99 1474.49 Q1413.99 1478.22 1415.82 1480.39 Q1417.67 1482.55 1420.82 1482.55 Q1423.97 1482.55 1425.8 1480.39 Q1427.65 1478.22 1427.65 1474.49 Q1427.65 1470.74 1425.8 1468.59 Q1423.97 1466.44 1420.82 1466.44 M1430.1 1451.78 L1430.1 1456.04 Q1428.34 1455.21 1426.54 1454.77 Q1424.75 1454.33 1422.99 1454.33 Q1418.37 1454.33 1415.91 1457.45 Q1413.48 1460.58 1413.13 1466.9 Q1414.5 1464.89 1416.56 1463.82 Q1418.62 1462.73 1421.1 1462.73 Q1426.3 1462.73 1429.31 1465.9 Q1432.35 1469.05 1432.35 1474.49 Q1432.35 1479.82 1429.2 1483.03 Q1426.05 1486.25 1420.82 1486.25 Q1414.82 1486.25 1411.65 1481.67 Q1408.48 1477.06 1408.48 1468.33 Q1408.48 1460.14 1412.37 1455.28 Q1416.26 1450.39 1422.81 1450.39 Q1424.57 1450.39 1426.35 1450.74 Q1428.16 1451.09 1430.1 1451.78 Z" fill="#000000" fill-rule="nonzero" fill-opacity="1"></path><path clip-path="url(#clip230)" d="M1450.4 1454.1 Q1446.79 1454.1 1444.96 1457.66 Q1443.16 1461.2 1443.16 1468.33 Q1443.16 1475.44 1444.96 1479.01 Q1446.79 1482.55 1450.4 1482.55 Q1454.04 1482.55 1455.84 1479.01 Q1457.67 1475.44 1457.67 1468.33 Q1457.67 1461.2 1455.84 1457.66 Q1454.04 1454.1 1450.4 1454.1 M1450.4 1450.39 Q1456.21 1450.39 1459.27 1455 Q1462.35 1459.58 1462.35 1468.33 Q1462.35 1477.06 1459.27 1481.67 Q1456.21 1486.25 1450.4 1486.25 Q1444.59 1486.25 1441.51 1481.67 Q1438.46 1477.06 1438.46 1468.33 Q1438.46 1459.58 1441.51 1455 Q1444.59 1450.39 1450.4 1450.39 Z" fill="#000000" fill-rule="nonzero" fill-opacity="1"></path><path clip-path="url(#clip230)" d="M1480.56 1454.1 Q1476.95 1454.1 1475.12 1457.66 Q1473.32 1461.2 1473.32 1468.33 Q1473.32 1475.44 1475.12 1479.01 Q1476.95 1482.55 1480.56 1482.55 Q1484.2 1482.55 1486 1479.01 Q1487.83 1475.44 1487.83 1468.33 Q1487.83 1461.2 1486 1457.66 Q1484.2 1454.1 1480.56 1454.1 M1480.56 1450.39 Q1486.37 1450.39 1489.43 1455 Q1492.51 1459.58 1492.51 1468.33 Q1492.51 1477.06 1489.43 1481.67 Q1486.37 1486.25 1480.56 1486.25 Q1474.75 1486.25 1471.68 1481.67 Q1468.62 1477.06 1468.62 1468.33 Q1468.62 1459.58 1471.68 1455 Q1474.75 1450.39 1480.56 1450.39 Z" fill="#000000" fill-rule="nonzero" fill-opacity="1"></path><path clip-path="url(#clip230)" d="M1841.41 1469.17 Q1838.08 1469.17 1836.16 1470.95 Q1834.26 1472.73 1834.26 1475.86 Q1834.26 1478.98 1836.16 1480.77 Q1838.08 1482.55 1841.41 1482.55 Q1844.75 1482.55 1846.67 1480.77 Q1848.59 1478.96 1848.59 1475.86 Q1848.59 1472.73 1846.67 1470.95 Q1844.77 1469.17 1841.41 1469.17 M1836.74 1467.18 Q1833.73 1466.44 1832.04 1464.38 Q1830.37 1462.32 1830.37 1459.35 Q1830.37 1455.21 1833.31 1452.8 Q1836.27 1450.39 1841.41 1450.39 Q1846.57 1450.39 1849.51 1452.8 Q1852.45 1455.21 1852.45 1459.35 Q1852.45 1462.32 1850.76 1464.38 Q1849.1 1466.44 1846.11 1467.18 Q1849.49 1467.96 1851.37 1470.26 Q1853.26 1472.55 1853.26 1475.86 Q1853.26 1480.88 1850.19 1483.57 Q1847.13 1486.25 1841.41 1486.25 Q1835.69 1486.25 1832.62 1483.57 Q1829.56 1480.88 1829.56 1475.86 Q1829.56 1472.55 1831.46 1470.26 Q1833.36 1467.96 1836.74 1467.18 M1835.02 1459.79 Q1835.02 1462.48 1836.69 1463.98 Q1838.38 1465.49 1841.41 1465.49 Q1844.42 1465.49 1846.11 1463.98 Q1847.82 1462.48 1847.82 1459.79 Q1847.82 1457.11 1846.11 1455.6 Q1844.42 1454.1 1841.41 1454.1 Q1838.38 1454.1 1836.69 1455.6 Q1835.02 1457.11 1835.02 1459.79 Z" fill="#000000" fill-rule="nonzero" fill-opacity="1"></path><path clip-path="url(#clip230)" d="M1871.57 1454.1 Q1867.96 1454.1 1866.13 1457.66 Q1864.33 1461.2 1864.33 1468.33 Q1864.33 1475.44 1866.13 1479.01 Q1867.96 1482.55 1871.57 1482.55 Q1875.21 1482.55 1877.01 1479.01 Q1878.84 1475.44 1878.84 1468.33 Q1878.84 1461.2 1877.01 1457.66 Q1875.21 1454.1 1871.57 1454.1 M1871.57 1450.39 Q1877.38 1450.39 1880.44 1455 Q1883.52 1459.58 1883.52 1468.33 Q1883.52 1477.06 1880.44 1481.67 Q1877.38 1486.25 1871.57 1486.25 Q1865.76 1486.25 1862.68 1481.67 Q1859.63 1477.06 1859.63 1468.33 Q1859.63 1459.58 1862.68 1455 Q1865.76 1450.39 1871.57 1450.39 Z" fill="#000000" fill-rule="nonzero" fill-opacity="1"></path><path clip-path="url(#clip230)" d="M1901.74 1454.1 Q1898.12 1454.1 1896.3 1457.66 Q1894.49 1461.2 1894.49 1468.33 Q1894.49 1475.44 1896.3 1479.01 Q1898.12 1482.55 1901.74 1482.55 Q1905.37 1482.55 1907.18 1479.01 Q1909 1475.44 1909 1468.33 Q1909 1461.2 1907.18 1457.66 Q1905.37 1454.1 1901.74 1454.1 M1901.74 1450.39 Q1907.55 1450.39 1910.6 1455 Q1913.68 1459.58 1913.68 1468.33 Q1913.68 1477.06 1910.6 1481.67 Q1907.55 1486.25 1901.74 1486.25 Q1895.93 1486.25 1892.85 1481.67 Q1889.79 1477.06 1889.79 1468.33 Q1889.79 1459.58 1892.85 1455 Q1895.93 1450.39 1901.74 1450.39 Z" fill="#000000" fill-rule="nonzero" fill-opacity="1"></path><path clip-path="url(#clip230)" d="M2237.27 1481.64 L2244.91 1481.64 L2244.91 1455.28 L2236.6 1456.95 L2236.6 1452.69 L2244.86 1451.02 L2249.54 1451.02 L2249.54 1481.64 L2257.18 1481.64 L2257.18 1485.58 L2237.27 1485.58 L2237.27 1481.64 Z" fill="#000000" fill-rule="nonzero" fill-opacity="1"></path><path clip-path="url(#clip230)" d="M2276.62 1454.1 Q2273.01 1454.1 2271.18 1457.66 Q2269.38 1461.2 2269.38 1468.33 Q2269.38 1475.44 2271.18 1479.01 Q2273.01 1482.55 2276.62 1482.55 Q2280.26 1482.55 2282.06 1479.01 Q2283.89 1475.44 2283.89 1468.33 Q2283.89 1461.2 2282.06 1457.66 Q2280.26 1454.1 2276.62 1454.1 M2276.62 1450.39 Q2282.43 1450.39 2285.49 1455 Q2288.57 1459.58 2288.57 1468.33 Q2288.57 1477.06 2285.49 1481.67 Q2282.43 1486.25 2276.62 1486.25 Q2270.81 1486.25 2267.73 1481.67 Q2264.68 1477.06 2264.68 1468.33 Q2264.68 1459.58 2267.73 1455 Q2270.81 1450.39 2276.62 1450.39 Z" fill="#000000" fill-rule="nonzero" fill-opacity="1"></path><path clip-path="url(#clip230)" d="M2306.78 1454.1 Q2303.17 1454.1 2301.35 1457.66 Q2299.54 1461.2 2299.54 1468.33 Q2299.54 1475.44 2301.35 1479.01 Q2303.17 1482.55 2306.78 1482.55 Q2310.42 1482.55 2312.22 1479.01 Q2314.05 1475.44 2314.05 1468.33 Q2314.05 1461.2 2312.22 1457.66 Q2310.42 1454.1 2306.78 1454.1 M2306.78 1450.39 Q2312.59 1450.39 2315.65 1455 Q2318.73 1459.58 2318.73 1468.33 Q2318.73 1477.06 2315.65 1481.67 Q2312.59 1486.25 2306.78 1486.25 Q2300.97 1486.25 2297.9 1481.67 Q2294.84 1477.06 2294.84 1468.33 Q2294.84 1459.58 2297.9 1455 Q2300.97 1450.39 2306.78 1450.39 Z" fill="#000000" fill-rule="nonzero" fill-opacity="1"></path><path clip-path="url(#clip230)" d="M2336.95 1454.1 Q2333.34 1454.1 2331.51 1457.66 Q2329.7 1461.2 2329.7 1468.33 Q2329.7 1475.44 2331.51 1479.01 Q2333.34 1482.55 2336.95 1482.55 Q2340.58 1482.55 2342.39 1479.01 Q2344.22 1475.44 2344.22 1468.33 Q2344.22 1461.2 2342.39 1457.66 Q2340.58 1454.1 2336.95 1454.1 M2336.95 1450.39 Q2342.76 1450.39 2345.81 1455 Q2348.89 1459.58 2348.89 1468.33 Q2348.89 1477.06 2345.81 1481.67 Q2342.76 1486.25 2336.95 1486.25 Q2331.14 1486.25 2328.06 1481.67 Q2325 1477.06 2325 1468.33 Q2325 1459.58 2328.06 1455 Q2331.14 1450.39 2336.95 1450.39 Z" fill="#000000" fill-rule="nonzero" fill-opacity="1"></path><path clip-path="url(#clip230)" d="M1031.75 1520.52 L1040.41 1520.52 L1061.48 1560.28 L1061.48 1520.52 L1067.72 1520.52 L1067.72 1568.04 L1059.06 1568.04 L1037.99 1528.29 L1037.99 1568.04 L1031.75 1568.04 L1031.75 1520.52 Z" fill="#000000" fill-rule="nonzero" fill-opacity="1"></path><path clip-path="url(#clip230)" d="M1079.66 1553.98 L1079.66 1532.4 L1085.51 1532.4 L1085.51 1553.75 Q1085.51 1558.81 1087.49 1561.36 Q1089.46 1563.87 1093.41 1563.87 Q1098.15 1563.87 1100.89 1560.85 Q1103.65 1557.83 1103.65 1552.61 L1103.65 1532.4 L1109.51 1532.4 L1109.51 1568.04 L1103.65 1568.04 L1103.65 1562.57 Q1101.52 1565.82 1098.69 1567.41 Q1095.89 1568.97 1092.16 1568.97 Q1086.02 1568.97 1082.84 1565.15 Q1079.66 1561.33 1079.66 1553.98 M1094.39 1531.54 L1094.39 1531.54 Z" fill="#000000" fill-rule="nonzero" fill-opacity="1"></path><path clip-path="url(#clip230)" d="M1149.33 1539.24 Q1151.52 1535.29 1154.58 1533.41 Q1157.64 1531.54 1161.77 1531.54 Q1167.34 1531.54 1170.37 1535.45 Q1173.39 1539.33 1173.39 1546.53 L1173.39 1568.04 L1167.5 1568.04 L1167.5 1546.72 Q1167.5 1541.59 1165.69 1539.11 Q1163.87 1536.63 1160.15 1536.63 Q1155.6 1536.63 1152.96 1539.65 Q1150.31 1542.68 1150.31 1547.9 L1150.31 1568.04 L1144.43 1568.04 L1144.43 1546.72 Q1144.43 1541.56 1142.61 1539.11 Q1140.8 1536.63 1137.01 1536.63 Q1132.52 1536.63 1129.88 1539.68 Q1127.24 1542.71 1127.24 1547.9 L1127.24 1568.04 L1121.35 1568.04 L1121.35 1532.4 L1127.24 1532.4 L1127.24 1537.93 Q1129.24 1534.66 1132.05 1533.1 Q1134.85 1531.54 1138.7 1531.54 Q1142.58 1531.54 1145.29 1533.51 Q1148.02 1535.48 1149.33 1539.24 Z" fill="#000000" fill-rule="nonzero" fill-opacity="1"></path><path clip-path="url(#clip230)" d="M1210.66 1550.25 Q1210.66 1543.79 1207.99 1540.13 Q1205.35 1536.44 1200.7 1536.44 Q1196.05 1536.44 1193.38 1540.13 Q1190.74 1543.79 1190.74 1550.25 Q1190.74 1556.71 1193.38 1560.4 Q1196.05 1564.07 1200.7 1564.07 Q1205.35 1564.07 1207.99 1560.4 Q1210.66 1556.71 1210.66 1550.25 M1190.74 1537.81 Q1192.58 1534.62 1195.38 1533.1 Q1198.22 1531.54 1202.13 1531.54 Q1208.62 1531.54 1212.67 1536.69 Q1216.74 1541.85 1216.74 1550.25 Q1216.74 1558.65 1212.67 1563.81 Q1208.62 1568.97 1202.13 1568.97 Q1198.22 1568.97 1195.38 1567.44 Q1192.58 1565.88 1190.74 1562.7 L1190.74 1568.04 L1184.85 1568.04 L1184.85 1518.52 L1190.74 1518.52 L1190.74 1537.81 Z" fill="#000000" fill-rule="nonzero" fill-opacity="1"></path><path clip-path="url(#clip230)" d="M1256.94 1548.76 L1256.94 1551.62 L1230.01 1551.62 Q1230.4 1557.67 1233.64 1560.85 Q1236.92 1564 1242.75 1564 Q1246.12 1564 1249.27 1563.17 Q1252.45 1562.35 1255.57 1560.69 L1255.57 1566.23 Q1252.42 1567.57 1249.11 1568.27 Q1245.8 1568.97 1242.39 1568.97 Q1233.86 1568.97 1228.87 1564 Q1223.9 1559.04 1223.9 1550.57 Q1223.9 1541.82 1228.61 1536.69 Q1233.36 1531.54 1241.38 1531.54 Q1248.57 1531.54 1252.74 1536.18 Q1256.94 1540.8 1256.94 1548.76 M1251.08 1547.04 Q1251.02 1542.23 1248.38 1539.37 Q1245.77 1536.5 1241.44 1536.5 Q1236.54 1536.5 1233.58 1539.27 Q1230.65 1542.04 1230.2 1547.07 L1251.08 1547.04 Z" fill="#000000" fill-rule="nonzero" fill-opacity="1"></path><path clip-path="url(#clip230)" d="M1287.21 1537.87 Q1286.22 1537.3 1285.05 1537.04 Q1283.9 1536.76 1282.5 1536.76 Q1277.53 1536.76 1274.86 1540 Q1272.22 1543.22 1272.22 1549.27 L1272.22 1568.04 L1266.33 1568.04 L1266.33 1532.4 L1272.22 1532.4 L1272.22 1537.93 Q1274.06 1534.69 1277.02 1533.13 Q1279.98 1531.54 1284.22 1531.54 Q1284.82 1531.54 1285.55 1531.63 Q1286.29 1531.7 1287.18 1531.85 L1287.21 1537.87 Z" fill="#000000" fill-rule="nonzero" fill-opacity="1"></path><path clip-path="url(#clip230)" d="M1327.89 1536.5 Q1323.18 1536.5 1320.44 1540.19 Q1317.7 1543.85 1317.7 1550.25 Q1317.7 1556.65 1320.41 1560.34 Q1323.14 1564 1327.89 1564 Q1332.57 1564 1335.3 1560.31 Q1338.04 1556.62 1338.04 1550.25 Q1338.04 1543.92 1335.3 1540.23 Q1332.57 1536.5 1327.89 1536.5 M1327.89 1531.54 Q1335.53 1531.54 1339.89 1536.5 Q1344.25 1541.47 1344.25 1550.25 Q1344.25 1559 1339.89 1564 Q1335.53 1568.97 1327.89 1568.97 Q1320.22 1568.97 1315.86 1564 Q1311.53 1559 1311.53 1550.25 Q1311.53 1541.47 1315.86 1536.5 Q1320.22 1531.54 1327.89 1531.54 Z" fill="#000000" fill-rule="nonzero" fill-opacity="1"></path><path clip-path="url(#clip230)" d="M1372 1518.52 L1372 1523.39 L1366.4 1523.39 Q1363.25 1523.39 1362.01 1524.66 Q1360.8 1525.93 1360.8 1529.24 L1360.8 1532.4 L1370.44 1532.4 L1370.44 1536.95 L1360.8 1536.95 L1360.8 1568.04 L1354.91 1568.04 L1354.91 1536.95 L1349.31 1536.95 L1349.31 1532.4 L1354.91 1532.4 L1354.91 1529.91 Q1354.91 1523.96 1357.68 1521.26 Q1360.45 1518.52 1366.46 1518.52 L1372 1518.52 Z" fill="#000000" fill-rule="nonzero" fill-opacity="1"></path><path clip-path="url(#clip230)" d="M1403.42 1522.27 L1403.42 1532.4 L1415.48 1532.4 L1415.48 1536.95 L1403.42 1536.95 L1403.42 1556.3 Q1403.42 1560.66 1404.59 1561.9 Q1405.8 1563.14 1409.46 1563.14 L1415.48 1563.14 L1415.48 1568.04 L1409.46 1568.04 Q1402.68 1568.04 1400.11 1565.53 Q1397.53 1562.98 1397.53 1556.3 L1397.53 1536.95 L1393.23 1536.95 L1393.23 1532.4 L1397.53 1532.4 L1397.53 1522.27 L1403.42 1522.27 Z" fill="#000000" fill-rule="nonzero" fill-opacity="1"></path><path clip-path="url(#clip230)" d="M1443.84 1537.87 Q1442.85 1537.3 1441.67 1537.04 Q1440.53 1536.76 1439.13 1536.76 Q1434.16 1536.76 1431.49 1540 Q1428.85 1543.22 1428.85 1549.27 L1428.85 1568.04 L1422.96 1568.04 L1422.96 1532.4 L1428.85 1532.4 L1428.85 1537.93 Q1430.69 1534.69 1433.65 1533.13 Q1436.61 1531.54 1440.85 1531.54 Q1441.45 1531.54 1442.18 1531.63 Q1442.91 1531.7 1443.81 1531.85 L1443.84 1537.87 Z" fill="#000000" fill-rule="nonzero" fill-opacity="1"></path><path clip-path="url(#clip230)" d="M1479.04 1548.76 L1479.04 1551.62 L1452.11 1551.62 Q1452.5 1557.67 1455.74 1560.85 Q1459.02 1564 1464.84 1564 Q1468.22 1564 1471.37 1563.17 Q1474.55 1562.35 1477.67 1560.69 L1477.67 1566.23 Q1474.52 1567.57 1471.21 1568.27 Q1467.9 1568.97 1464.49 1568.97 Q1455.96 1568.97 1450.97 1564 Q1446 1559.04 1446 1550.57 Q1446 1541.82 1450.71 1536.69 Q1455.46 1531.54 1463.48 1531.54 Q1470.67 1531.54 1474.84 1536.18 Q1479.04 1540.8 1479.04 1548.76 M1473.18 1547.04 Q1473.12 1542.23 1470.48 1539.37 Q1467.87 1536.5 1463.54 1536.5 Q1458.64 1536.5 1455.68 1539.27 Q1452.75 1542.04 1452.3 1547.07 L1473.18 1547.04 Z" fill="#000000" fill-rule="nonzero" fill-opacity="1"></path><path clip-path="url(#clip230)" d="M1519.14 1548.76 L1519.14 1551.62 L1492.22 1551.62 Q1492.6 1557.67 1495.85 1560.85 Q1499.12 1564 1504.95 1564 Q1508.32 1564 1511.47 1563.17 Q1514.66 1562.35 1517.78 1560.69 L1517.78 1566.23 Q1514.62 1567.57 1511.31 1568.27 Q1508 1568.97 1504.6 1568.97 Q1496.07 1568.97 1491.07 1564 Q1486.11 1559.04 1486.11 1550.57 Q1486.11 1541.82 1490.82 1536.69 Q1495.56 1531.54 1503.58 1531.54 Q1510.77 1531.54 1514.94 1536.18 Q1519.14 1540.8 1519.14 1548.76 M1513.29 1547.04 Q1513.22 1542.23 1510.58 1539.37 Q1507.97 1536.5 1503.64 1536.5 Q1498.74 1536.5 1495.78 1539.27 Q1492.85 1542.04 1492.41 1547.07 L1513.29 1547.04 Z" fill="#000000" fill-rule="nonzero" fill-opacity="1"></path><path clip-path="url(#clip230)" d="M1551.48 1533.45 L1551.48 1538.98 Q1549 1537.71 1546.33 1537.07 Q1543.65 1536.44 1540.79 1536.44 Q1536.43 1536.44 1534.23 1537.77 Q1532.07 1539.11 1532.07 1541.79 Q1532.07 1543.82 1533.63 1545 Q1535.19 1546.15 1539.9 1547.2 L1541.9 1547.64 Q1548.14 1548.98 1550.75 1551.43 Q1553.39 1553.85 1553.39 1558.21 Q1553.39 1563.17 1549.44 1566.07 Q1545.53 1568.97 1538.65 1568.97 Q1535.79 1568.97 1532.67 1568.39 Q1529.58 1567.85 1526.15 1566.74 L1526.15 1560.69 Q1529.39 1562.38 1532.54 1563.24 Q1535.69 1564.07 1538.78 1564.07 Q1542.92 1564.07 1545.15 1562.66 Q1547.38 1561.23 1547.38 1558.65 Q1547.38 1556.27 1545.75 1554.99 Q1544.16 1553.72 1538.72 1552.54 L1536.68 1552.07 Q1531.24 1550.92 1528.82 1548.56 Q1526.4 1546.18 1526.4 1542.04 Q1526.4 1537.01 1529.97 1534.27 Q1533.53 1531.54 1540.09 1531.54 Q1543.33 1531.54 1546.2 1532.01 Q1549.06 1532.49 1551.48 1533.45 Z" fill="#000000" fill-rule="nonzero" fill-opacity="1"></path><polyline clip-path="url(#clip232)" style="stroke:#000000; stroke-linecap:round; stroke-linejoin:round; stroke-width:2; stroke-opacity:0.1; fill:none" points="232.389,1386.74 2352.76,1386.74 "></polyline>
<polyline clip-path="url(#clip232)" style="stroke:#000000; stroke-linecap:round; stroke-linejoin:round; stroke-width:2; stroke-opacity:0.1; fill:none" points="232.389,980.27 2352.76,980.27 "></polyline>
<polyline clip-path="url(#clip232)" style="stroke:#000000; stroke-linecap:round; stroke-linejoin:round; stroke-width:2; stroke-opacity:0.1; fill:none" points="232.389,573.799 2352.76,573.799 "></polyline>
<polyline clip-path="url(#clip232)" style="stroke:#000000; stroke-linecap:round; stroke-linejoin:round; stroke-width:2; stroke-opacity:0.1; fill:none" points="232.389,167.328 2352.76,167.328 "></polyline>
<polyline clip-path="url(#clip230)" style="stroke:#000000; stroke-linecap:round; stroke-linejoin:round; stroke-width:4; stroke-opacity:1; fill:none" points="232.389,1423.18 232.389,123.472 "></polyline>
<polyline clip-path="url(#clip230)" style="stroke:#000000; stroke-linecap:round; stroke-linejoin:round; stroke-width:4; stroke-opacity:1; fill:none" points="232.389,1386.74 251.287,1386.74 "></polyline>
<polyline clip-path="url(#clip230)" style="stroke:#000000; stroke-linecap:round; stroke-linejoin:round; stroke-width:4; stroke-opacity:1; fill:none" points="232.389,980.27 251.287,980.27 "></polyline>
<polyline clip-path="url(#clip230)" style="stroke:#000000; stroke-linecap:round; stroke-linejoin:round; stroke-width:4; stroke-opacity:1; fill:none" points="232.389,573.799 251.287,573.799 "></polyline>
<polyline clip-path="url(#clip230)" style="stroke:#000000; stroke-linecap:round; stroke-linejoin:round; stroke-width:4; stroke-opacity:1; fill:none" points="232.389,167.328 251.287,167.328 "></polyline>
<path clip-path="url(#clip230)" d="M184.445 1372.54 Q180.834 1372.54 179.005 1376.1 Q177.2 1379.65 177.2 1386.78 Q177.2 1393.88 179.005 1397.45 Q180.834 1400.99 184.445 1400.99 Q188.079 1400.99 189.885 1397.45 Q191.713 1393.88 191.713 1386.78 Q191.713 1379.65 189.885 1376.1 Q188.079 1372.54 184.445 1372.54 M184.445 1368.84 Q190.255 1368.84 193.311 1373.44 Q196.389 1378.03 196.389 1386.78 Q196.389 1395.5 193.311 1400.11 Q190.255 1404.69 184.445 1404.69 Q178.635 1404.69 175.556 1400.11 Q172.501 1395.5 172.501 1386.78 Q172.501 1378.03 175.556 1373.44 Q178.635 1368.84 184.445 1368.84 Z" fill="#000000" fill-rule="nonzero" fill-opacity="1"></path><path clip-path="url(#clip230)" d="M144.329 962.99 L162.686 962.99 L162.686 966.925 L148.612 966.925 L148.612 975.398 Q149.63 975.05 150.649 974.888 Q151.667 974.703 152.686 974.703 Q158.473 974.703 161.852 977.874 Q165.232 981.046 165.232 986.462 Q165.232 992.041 161.76 995.143 Q158.288 998.222 151.968 998.222 Q149.792 998.222 147.524 997.851 Q145.279 997.481 142.871 996.74 L142.871 992.041 Q144.954 993.175 147.177 993.731 Q149.399 994.286 151.876 994.286 Q155.88 994.286 158.218 992.18 Q160.556 990.073 160.556 986.462 Q160.556 982.851 158.218 980.745 Q155.88 978.638 151.876 978.638 Q150.001 978.638 148.126 979.055 Q146.274 979.472 144.329 980.351 L144.329 962.99 Z" fill="#000000" fill-rule="nonzero" fill-opacity="1"></path><path clip-path="url(#clip230)" d="M184.445 966.069 Q180.834 966.069 179.005 969.634 Q177.2 973.175 177.2 980.305 Q177.2 987.411 179.005 990.976 Q180.834 994.518 184.445 994.518 Q188.079 994.518 189.885 990.976 Q191.713 987.411 191.713 980.305 Q191.713 973.175 189.885 969.634 Q188.079 966.069 184.445 966.069 M184.445 962.365 Q190.255 962.365 193.311 966.972 Q196.389 971.555 196.389 980.305 Q196.389 989.032 193.311 993.638 Q190.255 998.222 184.445 998.222 Q178.635 998.222 175.556 993.638 Q172.501 989.032 172.501 980.305 Q172.501 971.555 175.556 966.972 Q178.635 962.365 184.445 962.365 Z" fill="#000000" fill-rule="nonzero" fill-opacity="1"></path><path clip-path="url(#clip230)" d="M114.931 587.144 L122.57 587.144 L122.57 560.778 L114.26 562.445 L114.26 558.186 L122.524 556.519 L127.2 556.519 L127.2 587.144 L134.839 587.144 L134.839 591.079 L114.931 591.079 L114.931 587.144 Z" fill="#000000" fill-rule="nonzero" fill-opacity="1"></path><path clip-path="url(#clip230)" d="M154.283 559.598 Q150.672 559.598 148.843 563.163 Q147.038 566.704 147.038 573.834 Q147.038 580.94 148.843 584.505 Q150.672 588.047 154.283 588.047 Q157.917 588.047 159.723 584.505 Q161.552 580.94 161.552 573.834 Q161.552 566.704 159.723 563.163 Q157.917 559.598 154.283 559.598 M154.283 555.894 Q160.093 555.894 163.149 560.501 Q166.227 565.084 166.227 573.834 Q166.227 582.561 163.149 587.167 Q160.093 591.751 154.283 591.751 Q148.473 591.751 145.394 587.167 Q142.339 582.561 142.339 573.834 Q142.339 565.084 145.394 560.501 Q148.473 555.894 154.283 555.894 Z" fill="#000000" fill-rule="nonzero" fill-opacity="1"></path><path clip-path="url(#clip230)" d="M184.445 559.598 Q180.834 559.598 179.005 563.163 Q177.2 566.704 177.2 573.834 Q177.2 580.94 179.005 584.505 Q180.834 588.047 184.445 588.047 Q188.079 588.047 189.885 584.505 Q191.713 580.94 191.713 573.834 Q191.713 566.704 189.885 563.163 Q188.079 559.598 184.445 559.598 M184.445 555.894 Q190.255 555.894 193.311 560.501 Q196.389 565.084 196.389 573.834 Q196.389 582.561 193.311 587.167 Q190.255 591.751 184.445 591.751 Q178.635 591.751 175.556 587.167 Q172.501 582.561 172.501 573.834 Q172.501 565.084 175.556 560.501 Q178.635 555.894 184.445 555.894 Z" fill="#000000" fill-rule="nonzero" fill-opacity="1"></path><path clip-path="url(#clip230)" d="M114.931 180.673 L122.57 180.673 L122.57 154.307 L114.26 155.974 L114.26 151.715 L122.524 150.048 L127.2 150.048 L127.2 180.673 L134.839 180.673 L134.839 184.608 L114.931 184.608 L114.931 180.673 Z" fill="#000000" fill-rule="nonzero" fill-opacity="1"></path><path clip-path="url(#clip230)" d="M144.329 150.048 L162.686 150.048 L162.686 153.983 L148.612 153.983 L148.612 162.455 Q149.63 162.108 150.649 161.946 Q151.667 161.761 152.686 161.761 Q158.473 161.761 161.852 164.932 Q165.232 168.104 165.232 173.52 Q165.232 179.099 161.76 182.201 Q158.288 185.279 151.968 185.279 Q149.792 185.279 147.524 184.909 Q145.279 184.539 142.871 183.798 L142.871 179.099 Q144.954 180.233 147.177 180.789 Q149.399 181.344 151.876 181.344 Q155.88 181.344 158.218 179.238 Q160.556 177.131 160.556 173.52 Q160.556 169.909 158.218 167.803 Q155.88 165.696 151.876 165.696 Q150.001 165.696 148.126 166.113 Q146.274 166.53 144.329 167.409 L144.329 150.048 Z" fill="#000000" fill-rule="nonzero" fill-opacity="1"></path><path clip-path="url(#clip230)" d="M184.445 153.127 Q180.834 153.127 179.005 156.692 Q177.2 160.233 177.2 167.363 Q177.2 174.469 179.005 178.034 Q180.834 181.576 184.445 181.576 Q188.079 181.576 189.885 178.034 Q191.713 174.469 191.713 167.363 Q191.713 160.233 189.885 156.692 Q188.079 153.127 184.445 153.127 M184.445 149.423 Q190.255 149.423 193.311 154.03 Q196.389 158.613 196.389 167.363 Q196.389 176.09 193.311 180.696 Q190.255 185.279 184.445 185.279 Q178.635 185.279 175.556 180.696 Q172.501 176.09 172.501 167.363 Q172.501 158.613 175.556 154.03 Q178.635 149.423 184.445 149.423 Z" fill="#000000" fill-rule="nonzero" fill-opacity="1"></path><path clip-path="url(#clip230)" d="M18.0438 1123.57 L24.314 1123.57 Q22.5634 1127.23 21.704 1130.47 Q20.8447 1133.72 20.8447 1136.74 Q20.8447 1142 22.8817 1144.86 Q24.9187 1147.69 28.6745 1147.69 Q31.8255 1147.69 33.4488 1145.82 Q35.0402 1143.91 36.0269 1138.62 L36.8226 1134.74 Q38.1912 1127.55 41.6605 1124.14 Q45.098 1120.7 50.8908 1120.7 Q57.7976 1120.7 61.3624 1125.35 Q64.9272 1129.96 64.9272 1138.91 Q64.9272 1142.28 64.1633 1146.1 Q63.3994 1149.89 61.9035 1153.96 L55.2831 1153.96 Q57.4793 1150.05 58.5933 1146.29 Q59.7073 1142.54 59.7073 1138.91 Q59.7073 1133.4 57.543 1130.41 Q55.3786 1127.42 51.3682 1127.42 Q47.8671 1127.42 45.8937 1129.58 Q43.9204 1131.72 42.9337 1136.62 L42.1698 1140.53 Q40.7375 1147.73 37.682 1150.94 Q34.6264 1154.15 29.1837 1154.15 Q22.8817 1154.15 19.2532 1149.73 Q15.6248 1145.27 15.6248 1137.48 Q15.6248 1134.13 16.2295 1130.66 Q16.8343 1127.2 18.0438 1123.57 Z" fill="#000000" fill-rule="nonzero" fill-opacity="1"></path><path clip-path="url(#clip230)" d="M32.4621 1097.12 Q32.4621 1101.83 36.1542 1104.57 Q39.8145 1107.3 46.212 1107.3 Q52.6095 1107.3 56.3017 1104.6 Q59.9619 1101.86 59.9619 1097.12 Q59.9619 1092.44 56.2698 1089.7 Q52.5777 1086.96 46.212 1086.96 Q39.8781 1086.96 36.186 1089.7 Q32.4621 1092.44 32.4621 1097.12 M27.4968 1097.12 Q27.4968 1089.48 32.4621 1085.12 Q37.4273 1080.76 46.212 1080.76 Q54.9649 1080.76 59.9619 1085.12 Q64.9272 1089.48 64.9272 1097.12 Q64.9272 1104.79 59.9619 1109.15 Q54.9649 1113.48 46.212 1113.48 Q37.4273 1113.48 32.4621 1109.15 Q27.4968 1104.79 27.4968 1097.12 Z" fill="#000000" fill-rule="nonzero" fill-opacity="1"></path><path clip-path="url(#clip230)" d="M14.479 1071.05 L14.479 1065.19 L64.0042 1065.19 L64.0042 1071.05 L14.479 1071.05 Z" fill="#000000" fill-rule="nonzero" fill-opacity="1"></path><path clip-path="url(#clip230)" d="M49.9359 1053.54 L28.3562 1053.54 L28.3562 1047.69 L49.7131 1047.69 Q54.7739 1047.69 57.3202 1045.71 Q59.8346 1043.74 59.8346 1039.79 Q59.8346 1035.05 56.8109 1032.31 Q53.7872 1029.55 48.5673 1029.55 L28.3562 1029.55 L28.3562 1023.69 L64.0042 1023.69 L64.0042 1029.55 L58.5296 1029.55 Q61.7762 1031.68 63.3676 1034.51 Q64.9272 1037.31 64.9272 1041.04 Q64.9272 1047.18 61.1078 1050.36 Q57.2883 1053.54 49.9359 1053.54 M27.4968 1038.81 L27.4968 1038.81 Z" fill="#000000" fill-rule="nonzero" fill-opacity="1"></path><path clip-path="url(#clip230)" d="M18.2347 1005.83 L28.3562 1005.83 L28.3562 993.77 L32.9077 993.77 L32.9077 1005.83 L52.2594 1005.83 Q56.6199 1005.83 57.8613 1004.66 Q59.1026 1003.45 59.1026 999.786 L59.1026 993.77 L64.0042 993.77 L64.0042 999.786 Q64.0042 1006.57 61.4897 1009.14 Q58.9434 1011.72 52.2594 1011.72 L32.9077 1011.72 L32.9077 1016.02 L28.3562 1016.02 L28.3562 1011.72 L18.2347 1011.72 L18.2347 1005.83 Z" fill="#000000" fill-rule="nonzero" fill-opacity="1"></path><path clip-path="url(#clip230)" d="M28.3562 986.068 L28.3562 980.211 L64.0042 980.211 L64.0042 986.068 L28.3562 986.068 M14.479 986.068 L14.479 980.211 L21.895 980.211 L21.895 986.068 L14.479 986.068 Z" fill="#000000" fill-rule="nonzero" fill-opacity="1"></path><path clip-path="url(#clip230)" d="M32.4621 954.144 Q32.4621 958.855 36.1542 961.592 Q39.8145 964.329 46.212 964.329 Q52.6095 964.329 56.3017 961.624 Q59.9619 958.886 59.9619 954.144 Q59.9619 949.465 56.2698 946.728 Q52.5777 943.991 46.212 943.991 Q39.8781 943.991 36.186 946.728 Q32.4621 949.465 32.4621 954.144 M27.4968 954.144 Q27.4968 946.505 32.4621 942.145 Q37.4273 937.784 46.212 937.784 Q54.9649 937.784 59.9619 942.145 Q64.9272 946.505 64.9272 954.144 Q64.9272 961.815 59.9619 966.175 Q54.9649 970.504 46.212 970.504 Q37.4273 970.504 32.4621 966.175 Q27.4968 961.815 27.4968 954.144 Z" fill="#000000" fill-rule="nonzero" fill-opacity="1"></path><path clip-path="url(#clip230)" d="M42.4881 898.444 L64.0042 898.444 L64.0042 904.3 L42.679 904.3 Q37.6183 904.3 35.1038 906.274 Q32.5894 908.247 32.5894 912.194 Q32.5894 916.936 35.6131 919.674 Q38.6368 922.411 43.8567 922.411 L64.0042 922.411 L64.0042 928.299 L28.3562 928.299 L28.3562 922.411 L33.8944 922.411 Q30.6797 920.31 29.0883 917.477 Q27.4968 914.613 27.4968 910.889 Q27.4968 904.746 31.3163 901.595 Q35.1038 898.444 42.4881 898.444 Z" fill="#000000" fill-rule="nonzero" fill-opacity="1"></path><path clip-path="url(#clip230)" d="M18.2347 860.25 L28.3562 860.25 L28.3562 848.187 L32.9077 848.187 L32.9077 860.25 L52.2594 860.25 Q56.6199 860.25 57.8613 859.072 Q59.1026 857.863 59.1026 854.202 L59.1026 848.187 L64.0042 848.187 L64.0042 854.202 Q64.0042 860.982 61.4897 863.56 Q58.9434 866.138 52.2594 866.138 L32.9077 866.138 L32.9077 870.435 L28.3562 870.435 L28.3562 866.138 L18.2347 866.138 L18.2347 860.25 Z" fill="#000000" fill-rule="nonzero" fill-opacity="1"></path><path clip-path="url(#clip230)" d="M28.3562 840.484 L28.3562 834.628 L64.0042 834.628 L64.0042 840.484 L28.3562 840.484 M14.479 840.484 L14.479 834.628 L21.895 834.628 L21.895 840.484 L14.479 840.484 Z" fill="#000000" fill-rule="nonzero" fill-opacity="1"></path><path clip-path="url(#clip230)" d="M35.1993 794.619 Q31.2526 792.423 29.3747 789.368 Q27.4968 786.312 27.4968 782.174 Q27.4968 776.604 31.4117 773.581 Q35.2948 770.557 42.4881 770.557 L64.0042 770.557 L64.0042 776.445 L42.679 776.445 Q37.5546 776.445 35.072 778.259 Q32.5894 780.074 32.5894 783.798 Q32.5894 788.349 35.6131 790.991 Q38.6368 793.633 43.8567 793.633 L64.0042 793.633 L64.0042 799.521 L42.679 799.521 Q37.5228 799.521 35.072 801.335 Q32.5894 803.149 32.5894 806.937 Q32.5894 811.425 35.6449 814.067 Q38.6686 816.708 43.8567 816.708 L64.0042 816.708 L64.0042 822.597 L28.3562 822.597 L28.3562 816.708 L33.8944 816.708 Q30.616 814.703 29.0564 811.902 Q27.4968 809.101 27.4968 805.25 Q27.4968 801.367 29.4702 798.661 Q31.4436 795.924 35.1993 794.619 Z" fill="#000000" fill-rule="nonzero" fill-opacity="1"></path><path clip-path="url(#clip230)" d="M44.7161 728.384 L47.5806 728.384 L47.5806 755.311 Q53.6281 754.929 56.8109 751.683 Q59.9619 748.404 59.9619 742.58 Q59.9619 739.206 59.1344 736.055 Q58.3069 732.872 56.6518 729.753 L62.1899 729.753 Q63.5267 732.904 64.227 736.214 Q64.9272 739.524 64.9272 742.93 Q64.9272 751.46 59.9619 756.457 Q54.9967 761.422 46.5303 761.422 Q37.7774 761.422 32.6531 756.711 Q27.4968 751.969 27.4968 743.948 Q27.4968 736.755 32.1438 732.585 Q36.7589 728.384 44.7161 728.384 M42.9973 734.241 Q38.1912 734.304 35.3266 736.946 Q32.4621 739.556 32.4621 743.885 Q32.4621 748.786 35.2312 751.746 Q38.0002 754.674 43.0292 755.12 L42.9973 734.241 Z" fill="#000000" fill-rule="nonzero" fill-opacity="1"></path><path clip-path="url(#clip230)" d="M14.5426 683.983 Q21.8632 688.248 29.0246 690.317 Q36.186 692.386 43.5384 692.386 Q50.8908 692.386 58.1159 690.317 Q65.3091 688.216 72.5979 683.983 L72.5979 689.076 Q65.1182 693.85 57.8931 696.237 Q50.668 698.593 43.5384 698.593 Q36.4406 698.593 29.2474 696.237 Q22.0542 693.882 14.5426 689.076 L14.5426 683.983 Z" fill="#000000" fill-rule="nonzero" fill-opacity="1"></path><path clip-path="url(#clip230)" d="M29.4065 649.895 L34.9447 649.895 Q33.6716 652.378 33.035 655.051 Q32.3984 657.725 32.3984 660.589 Q32.3984 664.95 33.7352 667.146 Q35.072 669.31 37.7456 669.31 Q39.7826 669.31 40.9603 667.751 Q42.1061 666.191 43.1565 661.481 L43.6021 659.475 Q44.9389 653.237 47.3897 650.627 Q49.8086 647.985 54.1691 647.985 Q59.1344 647.985 62.0308 651.932 Q64.9272 655.847 64.9272 662.722 Q64.9272 665.586 64.3543 668.706 Q63.8132 671.793 62.6992 675.23 L56.6518 675.23 Q58.3387 671.984 59.198 668.833 Q60.0256 665.682 60.0256 662.595 Q60.0256 658.457 58.6251 656.229 Q57.1929 654.001 54.6147 654.001 Q52.2276 654.001 50.9545 655.624 Q49.6813 657.215 48.5037 662.658 L48.0262 664.695 Q46.8804 670.138 44.5251 672.557 Q42.138 674.976 38.0002 674.976 Q32.9713 674.976 30.2341 671.411 Q27.4968 667.846 27.4968 661.29 Q27.4968 658.043 27.9743 655.178 Q28.4517 652.314 29.4065 649.895 Z" fill="#000000" fill-rule="nonzero" fill-opacity="1"></path><path clip-path="url(#clip230)" d="M44.7161 608.168 L47.5806 608.168 L47.5806 635.095 Q53.6281 634.713 56.8109 631.466 Q59.9619 628.188 59.9619 622.363 Q59.9619 618.989 59.1344 615.838 Q58.3069 612.656 56.6518 609.536 L62.1899 609.536 Q63.5267 612.687 64.227 615.998 Q64.9272 619.308 64.9272 622.713 Q64.9272 631.243 59.9619 636.24 Q54.9967 641.206 46.5303 641.206 Q37.7774 641.206 32.6531 636.495 Q27.4968 631.753 27.4968 623.732 Q27.4968 616.539 32.1438 612.369 Q36.7589 608.168 44.7161 608.168 M42.9973 614.024 Q38.1912 614.088 35.3266 616.73 Q32.4621 619.34 32.4621 623.668 Q32.4621 628.57 35.2312 631.53 Q38.0002 634.458 43.0292 634.904 L42.9973 614.024 Z" fill="#000000" fill-rule="nonzero" fill-opacity="1"></path><path clip-path="url(#clip230)" d="M29.7248 572.902 L35.1993 572.902 Q33.8307 575.384 33.1623 577.899 Q32.4621 580.381 32.4621 582.928 Q32.4621 588.625 36.0905 591.776 Q39.6872 594.927 46.212 594.927 Q52.7369 594.927 56.3653 591.776 Q59.9619 588.625 59.9619 582.928 Q59.9619 580.381 59.2935 577.899 Q58.5933 575.384 57.2247 572.902 L62.6355 572.902 Q63.7814 575.353 64.3543 577.994 Q64.9272 580.604 64.9272 583.564 Q64.9272 591.617 59.8664 596.359 Q54.8057 601.102 46.212 601.102 Q37.491 601.102 32.4939 596.328 Q27.4968 591.521 27.4968 583.182 Q27.4968 580.477 28.0697 577.899 Q28.6108 575.321 29.7248 572.902 Z" fill="#000000" fill-rule="nonzero" fill-opacity="1"></path><path clip-path="url(#clip230)" d="M32.4621 548.903 Q32.4621 553.614 36.1542 556.351 Q39.8145 559.088 46.212 559.088 Q52.6095 559.088 56.3017 556.383 Q59.9619 553.645 59.9619 548.903 Q59.9619 544.224 56.2698 541.487 Q52.5777 538.75 46.212 538.75 Q39.8781 538.75 36.186 541.487 Q32.4621 544.224 32.4621 548.903 M27.4968 548.903 Q27.4968 541.264 32.4621 536.904 Q37.4273 532.543 46.212 532.543 Q54.9649 532.543 59.9619 536.904 Q64.9272 541.264 64.9272 548.903 Q64.9272 556.574 59.9619 560.934 Q54.9649 565.263 46.212 565.263 Q37.4273 565.263 32.4621 560.934 Q27.4968 556.574 27.4968 548.903 Z" fill="#000000" fill-rule="nonzero" fill-opacity="1"></path><path clip-path="url(#clip230)" d="M42.4881 493.203 L64.0042 493.203 L64.0042 499.06 L42.679 499.06 Q37.6183 499.06 35.1038 501.033 Q32.5894 503.006 32.5894 506.953 Q32.5894 511.695 35.6131 514.433 Q38.6368 517.17 43.8567 517.17 L64.0042 517.17 L64.0042 523.058 L28.3562 523.058 L28.3562 517.17 L33.8944 517.17 Q30.6797 515.069 29.0883 512.237 Q27.4968 509.372 27.4968 505.648 Q27.4968 499.505 31.3163 496.354 Q35.1038 493.203 42.4881 493.203 Z" fill="#000000" fill-rule="nonzero" fill-opacity="1"></path><path clip-path="url(#clip230)" d="M33.7671 458.064 L14.479 458.064 L14.479 452.208 L64.0042 452.208 L64.0042 458.064 L58.657 458.064 Q61.8398 459.91 63.3994 462.743 Q64.9272 465.544 64.9272 469.491 Q64.9272 475.952 59.771 480.026 Q54.6147 484.068 46.212 484.068 Q37.8093 484.068 32.6531 480.026 Q27.4968 475.952 27.4968 469.491 Q27.4968 465.544 29.0564 462.743 Q30.5842 459.91 33.7671 458.064 M46.212 478.021 Q52.6732 478.021 56.3653 475.379 Q60.0256 472.705 60.0256 468.059 Q60.0256 463.412 56.3653 460.738 Q52.6732 458.064 46.212 458.064 Q39.7508 458.064 36.0905 460.738 Q32.3984 463.412 32.3984 468.059 Q32.3984 472.705 36.0905 475.379 Q39.7508 478.021 46.212 478.021 Z" fill="#000000" fill-rule="nonzero" fill-opacity="1"></path><path clip-path="url(#clip230)" d="M29.4065 417.419 L34.9447 417.419 Q33.6716 419.902 33.035 422.576 Q32.3984 425.249 32.3984 428.114 Q32.3984 432.474 33.7352 434.67 Q35.072 436.835 37.7456 436.835 Q39.7826 436.835 40.9603 435.275 Q42.1061 433.716 43.1565 429.005 L43.6021 427 Q44.9389 420.761 47.3897 418.151 Q49.8086 415.51 54.1691 415.51 Q59.1344 415.51 62.0308 419.456 Q64.9272 423.371 64.9272 430.246 Q64.9272 433.111 64.3543 436.23 Q63.8132 439.317 62.6992 442.755 L56.6518 442.755 Q58.3387 439.508 59.198 436.357 Q60.0256 433.206 60.0256 430.119 Q60.0256 425.981 58.6251 423.753 Q57.1929 421.525 54.6147 421.525 Q52.2276 421.525 50.9545 423.148 Q49.6813 424.74 48.5037 430.183 L48.0262 432.22 Q46.8804 437.662 44.5251 440.081 Q42.138 442.5 38.0002 442.5 Q32.9713 442.5 30.2341 438.935 Q27.4968 435.371 27.4968 428.814 Q27.4968 425.567 27.9743 422.703 Q28.4517 419.838 29.4065 417.419 Z" fill="#000000" fill-rule="nonzero" fill-opacity="1"></path><path clip-path="url(#clip230)" d="M14.5426 407.107 L14.5426 402.014 Q22.0542 397.24 29.2474 394.885 Q36.4406 392.498 43.5384 392.498 Q50.668 392.498 57.8931 394.885 Q65.1182 397.24 72.5979 402.014 L72.5979 407.107 Q65.3091 402.874 58.1159 400.805 Q50.8908 398.704 43.5384 398.704 Q36.186 398.704 29.0246 400.805 Q21.8632 402.874 14.5426 407.107 Z" fill="#000000" fill-rule="nonzero" fill-opacity="1"></path><path clip-path="url(#clip230)" d="M345.572 17.6457 Q336.661 17.6457 331.394 24.2892 Q326.169 30.9327 326.169 42.3968 Q326.169 53.8203 331.394 60.4638 Q336.661 67.1073 345.572 67.1073 Q354.484 67.1073 359.67 60.4638 Q364.895 53.8203 364.895 42.3968 Q364.895 30.9327 359.67 24.2892 Q354.484 17.6457 345.572 17.6457 M345.572 11.0023 Q358.292 11.0023 365.908 19.5497 Q373.524 28.0566 373.524 42.3968 Q373.524 56.6965 365.908 65.2439 Q358.292 73.7508 345.572 73.7508 Q332.812 73.7508 325.156 65.2439 Q317.54 56.737 317.54 42.3968 Q317.54 28.0566 325.156 19.5497 Q332.812 11.0023 345.572 11.0023 Z" fill="#000000" fill-rule="nonzero" fill-opacity="1"></path><path clip-path="url(#clip230)" d="M393.211 65.7705 L393.211 89.8329 L385.717 89.8329 L385.717 27.2059 L393.211 27.2059 L393.211 34.0924 Q395.561 30.0415 399.125 28.0971 Q402.731 26.1121 407.713 26.1121 Q415.977 26.1121 421.122 32.6746 Q426.307 39.2371 426.307 49.9314 Q426.307 60.6258 421.122 67.1883 Q415.977 73.7508 407.713 73.7508 Q402.731 73.7508 399.125 71.8063 Q395.561 69.8214 393.211 65.7705 M418.57 49.9314 Q418.57 41.7081 415.167 37.0496 Q411.805 32.3505 405.89 32.3505 Q399.976 32.3505 396.573 37.0496 Q393.211 41.7081 393.211 49.9314 Q393.211 58.1548 396.573 62.8538 Q399.976 67.5124 405.89 67.5124 Q411.805 67.5124 415.167 62.8538 Q418.57 58.1548 418.57 49.9314 Z" fill="#000000" fill-rule="nonzero" fill-opacity="1"></path><path clip-path="url(#clip230)" d="M446.035 14.324 L446.035 27.2059 L461.388 27.2059 L461.388 32.9987 L446.035 32.9987 L446.035 57.6282 Q446.035 63.1779 447.534 64.7578 Q449.073 66.3376 453.732 66.3376 L461.388 66.3376 L461.388 72.576 L453.732 72.576 Q445.103 72.576 441.822 69.3758 Q438.541 66.1351 438.541 57.6282 L438.541 32.9987 L433.072 32.9987 L433.072 27.2059 L438.541 27.2059 L438.541 14.324 L446.035 14.324 Z" fill="#000000" fill-rule="nonzero" fill-opacity="1"></path><path clip-path="url(#clip230)" d="M471.191 27.2059 L478.645 27.2059 L478.645 72.576 L471.191 72.576 L471.191 27.2059 M471.191 9.54393 L478.645 9.54393 L478.645 18.9825 L471.191 18.9825 L471.191 9.54393 Z" fill="#000000" fill-rule="nonzero" fill-opacity="1"></path><path clip-path="url(#clip230)" d="M529.565 35.9153 Q532.36 30.8922 536.249 28.5022 Q540.137 26.1121 545.404 26.1121 Q552.493 26.1121 556.341 31.0947 Q560.189 36.0368 560.189 45.1919 L560.189 72.576 L552.695 72.576 L552.695 45.4349 Q552.695 38.913 550.386 35.7533 Q548.077 32.5936 543.338 32.5936 Q537.545 32.5936 534.183 36.4419 Q530.82 40.2903 530.82 46.9338 L530.82 72.576 L523.326 72.576 L523.326 45.4349 Q523.326 38.8725 521.017 35.7533 Q518.708 32.5936 513.888 32.5936 Q508.176 32.5936 504.814 36.4824 Q501.451 40.3308 501.451 46.9338 L501.451 72.576 L493.957 72.576 L493.957 27.2059 L501.451 27.2059 L501.451 34.2544 Q504.003 30.082 507.568 28.0971 Q511.133 26.1121 516.035 26.1121 Q520.977 26.1121 524.42 28.6237 Q527.904 31.1352 529.565 35.9153 Z" fill="#000000" fill-rule="nonzero" fill-opacity="1"></path><path clip-path="url(#clip230)" d="M575.056 27.2059 L582.51 27.2059 L582.51 72.576 L575.056 72.576 L575.056 27.2059 M575.056 9.54393 L582.51 9.54393 L582.51 18.9825 L575.056 18.9825 L575.056 9.54393 Z" fill="#000000" fill-rule="nonzero" fill-opacity="1"></path><path clip-path="url(#clip230)" d="M594.865 27.2059 L630.27 27.2059 L630.27 34.0114 L602.238 66.6212 L630.27 66.6212 L630.27 72.576 L593.852 72.576 L593.852 65.7705 L621.885 33.1607 L594.865 33.1607 L594.865 27.2059 Z" fill="#000000" fill-rule="nonzero" fill-opacity="1"></path><path clip-path="url(#clip230)" d="M662.272 49.7694 Q653.239 49.7694 649.755 51.8354 Q646.271 53.9013 646.271 58.8839 Q646.271 62.8538 648.864 65.2034 Q651.497 67.5124 655.993 67.5124 Q662.191 67.5124 665.918 63.1374 Q669.685 58.7219 669.685 51.4303 L669.685 49.7694 L662.272 49.7694 M677.139 46.6907 L677.139 72.576 L669.685 72.576 L669.685 65.6895 Q667.133 69.8214 663.325 71.8063 Q659.518 73.7508 654.008 73.7508 Q647.041 73.7508 642.909 69.8619 Q638.817 65.9325 638.817 59.3701 Q638.817 51.7138 643.922 47.825 Q649.066 43.9361 659.234 43.9361 L669.685 43.9361 L669.685 43.2069 Q669.685 38.0623 666.283 35.2672 Q662.92 32.4315 656.803 32.4315 Q652.915 32.4315 649.228 33.3632 Q645.542 34.295 642.139 36.1584 L642.139 29.2718 Q646.231 27.692 650.079 26.9223 Q653.927 26.1121 657.573 26.1121 Q667.417 26.1121 672.278 31.2163 Q677.139 36.3204 677.139 46.6907 Z" fill="#000000" fill-rule="nonzero" fill-opacity="1"></path><path clip-path="url(#clip230)" d="M699.865 14.324 L699.865 27.2059 L715.218 27.2059 L715.218 32.9987 L699.865 32.9987 L699.865 57.6282 Q699.865 63.1779 701.363 64.7578 Q702.903 66.3376 707.561 66.3376 L715.218 66.3376 L715.218 72.576 L707.561 72.576 Q698.933 72.576 695.652 69.3758 Q692.37 66.1351 692.37 57.6282 L692.37 32.9987 L686.902 32.9987 L686.902 27.2059 L692.37 27.2059 L692.37 14.324 L699.865 14.324 Z" fill="#000000" fill-rule="nonzero" fill-opacity="1"></path><path clip-path="url(#clip230)" d="M725.021 27.2059 L732.474 27.2059 L732.474 72.576 L725.021 72.576 L725.021 27.2059 M725.021 9.54393 L732.474 9.54393 L732.474 18.9825 L725.021 18.9825 L725.021 9.54393 Z" fill="#000000" fill-rule="nonzero" fill-opacity="1"></path><path clip-path="url(#clip230)" d="M765.651 32.4315 Q759.656 32.4315 756.172 37.1306 Q752.688 41.7891 752.688 49.9314 Q752.688 58.0738 756.132 62.7728 Q759.615 67.4314 765.651 67.4314 Q771.606 67.4314 775.09 62.7323 Q778.574 58.0333 778.574 49.9314 Q778.574 41.8701 775.09 37.1711 Q771.606 32.4315 765.651 32.4315 M765.651 26.1121 Q775.373 26.1121 780.923 32.4315 Q786.473 38.7509 786.473 49.9314 Q786.473 61.0714 780.923 67.4314 Q775.373 73.7508 765.651 73.7508 Q755.889 73.7508 750.339 67.4314 Q744.83 61.0714 744.83 49.9314 Q744.83 38.7509 750.339 32.4315 Q755.889 26.1121 765.651 26.1121 Z" fill="#000000" fill-rule="nonzero" fill-opacity="1"></path><path clip-path="url(#clip230)" d="M836.542 45.1919 L836.542 72.576 L829.088 72.576 L829.088 45.4349 Q829.088 38.994 826.577 35.7938 Q824.065 32.5936 819.042 32.5936 Q813.006 32.5936 809.523 36.4419 Q806.039 40.2903 806.039 46.9338 L806.039 72.576 L798.545 72.576 L798.545 27.2059 L806.039 27.2059 L806.039 34.2544 Q808.712 30.163 812.318 28.1376 Q815.963 26.1121 820.703 26.1121 Q828.521 26.1121 832.532 30.9732 Q836.542 35.7938 836.542 45.1919 Z" fill="#000000" fill-rule="nonzero" fill-opacity="1"></path><path clip-path="url(#clip230)" d="M884.991 65.7705 L884.991 89.8329 L877.497 89.8329 L877.497 27.2059 L884.991 27.2059 L884.991 34.0924 Q887.34 30.0415 890.905 28.0971 Q894.511 26.1121 899.493 26.1121 Q907.757 26.1121 912.902 32.6746 Q918.087 39.2371 918.087 49.9314 Q918.087 60.6258 912.902 67.1883 Q907.757 73.7508 899.493 73.7508 Q894.511 73.7508 890.905 71.8063 Q887.34 69.8214 884.991 65.7705 M910.35 49.9314 Q910.35 41.7081 906.947 37.0496 Q903.585 32.3505 897.67 32.3505 Q891.756 32.3505 888.353 37.0496 Q884.991 41.7081 884.991 49.9314 Q884.991 58.1548 888.353 62.8538 Q891.756 67.5124 897.67 67.5124 Q903.585 67.5124 906.947 62.8538 Q910.35 58.1548 910.35 49.9314 Z" fill="#000000" fill-rule="nonzero" fill-opacity="1"></path><path clip-path="url(#clip230)" d="M969.25 48.0275 L969.25 51.6733 L934.979 51.6733 Q935.465 59.3701 939.597 63.421 Q943.77 67.4314 951.183 67.4314 Q955.477 67.4314 959.487 66.3781 Q963.538 65.3249 967.508 63.2184 L967.508 70.267 Q963.497 71.9684 959.284 72.8596 Q955.072 73.7508 950.737 73.7508 Q939.881 73.7508 933.521 67.4314 Q927.201 61.1119 927.201 50.3365 Q927.201 39.1965 933.197 32.6746 Q939.233 26.1121 949.441 26.1121 Q958.596 26.1121 963.903 32.0264 Q969.25 37.9003 969.25 48.0275 M961.796 45.84 Q961.715 39.7232 958.353 36.0774 Q955.031 32.4315 949.522 32.4315 Q943.283 32.4315 939.516 35.9558 Q935.789 39.4801 935.222 45.8805 L961.796 45.84 Z" fill="#000000" fill-rule="nonzero" fill-opacity="1"></path><path clip-path="url(#clip230)" d="M1007.77 34.1734 Q1006.52 33.4443 1005.02 33.1202 Q1003.56 32.7556 1001.78 32.7556 Q995.459 32.7556 992.056 36.8875 Q988.694 40.9789 988.694 48.6757 L988.694 72.576 L981.2 72.576 L981.2 27.2059 L988.694 27.2059 L988.694 34.2544 Q991.044 30.1225 994.811 28.1376 Q998.578 26.1121 1003.97 26.1121 Q1004.74 26.1121 1005.67 26.2337 Q1006.6 26.3147 1007.73 26.5172 L1007.77 34.1734 Z" fill="#000000" fill-rule="nonzero" fill-opacity="1"></path><path clip-path="url(#clip230)" d="M1038.56 9.54393 L1038.56 15.7418 L1031.43 15.7418 Q1027.42 15.7418 1025.84 17.3622 Q1024.3 18.9825 1024.3 23.1955 L1024.3 27.2059 L1036.58 27.2059 L1036.58 32.9987 L1024.3 32.9987 L1024.3 72.576 L1016.81 72.576 L1016.81 32.9987 L1009.68 32.9987 L1009.68 27.2059 L1016.81 27.2059 L1016.81 24.0462 Q1016.81 16.471 1020.33 13.0277 Q1023.86 9.54393 1031.51 9.54393 L1038.56 9.54393 Z" fill="#000000" fill-rule="nonzero" fill-opacity="1"></path><path clip-path="url(#clip230)" d="M1062.38 32.4315 Q1056.38 32.4315 1052.9 37.1306 Q1049.42 41.7891 1049.42 49.9314 Q1049.42 58.0738 1052.86 62.7728 Q1056.34 67.4314 1062.38 67.4314 Q1068.33 67.4314 1071.82 62.7323 Q1075.3 58.0333 1075.3 49.9314 Q1075.3 41.8701 1071.82 37.1711 Q1068.33 32.4315 1062.38 32.4315 M1062.38 26.1121 Q1072.1 26.1121 1077.65 32.4315 Q1083.2 38.7509 1083.2 49.9314 Q1083.2 61.0714 1077.65 67.4314 Q1072.1 73.7508 1062.38 73.7508 Q1052.62 73.7508 1047.07 67.4314 Q1041.56 61.0714 1041.56 49.9314 Q1041.56 38.7509 1047.07 32.4315 Q1052.62 26.1121 1062.38 26.1121 Z" fill="#000000" fill-rule="nonzero" fill-opacity="1"></path><path clip-path="url(#clip230)" d="M1121.85 34.1734 Q1120.59 33.4443 1119.09 33.1202 Q1117.63 32.7556 1115.85 32.7556 Q1109.53 32.7556 1106.13 36.8875 Q1102.77 40.9789 1102.77 48.6757 L1102.77 72.576 L1095.27 72.576 L1095.27 27.2059 L1102.77 27.2059 L1102.77 34.2544 Q1105.12 30.1225 1108.88 28.1376 Q1112.65 26.1121 1118.04 26.1121 Q1118.81 26.1121 1119.74 26.2337 Q1120.67 26.3147 1121.81 26.5172 L1121.85 34.1734 Z" fill="#000000" fill-rule="nonzero" fill-opacity="1"></path><path clip-path="url(#clip230)" d="M1163.53 35.9153 Q1166.33 30.8922 1170.22 28.5022 Q1174.1 26.1121 1179.37 26.1121 Q1186.46 26.1121 1190.31 31.0947 Q1194.16 36.0368 1194.16 45.1919 L1194.16 72.576 L1186.66 72.576 L1186.66 45.4349 Q1186.66 38.913 1184.35 35.7533 Q1182.04 32.5936 1177.3 32.5936 Q1171.51 32.5936 1168.15 36.4419 Q1164.79 40.2903 1164.79 46.9338 L1164.79 72.576 L1157.29 72.576 L1157.29 45.4349 Q1157.29 38.8725 1154.98 35.7533 Q1152.67 32.5936 1147.85 32.5936 Q1142.14 32.5936 1138.78 36.4824 Q1135.42 40.3308 1135.42 46.9338 L1135.42 72.576 L1127.92 72.576 L1127.92 27.2059 L1135.42 27.2059 L1135.42 34.2544 Q1137.97 30.082 1141.53 28.0971 Q1145.1 26.1121 1150 26.1121 Q1154.94 26.1121 1158.39 28.6237 Q1161.87 31.1352 1163.53 35.9153 Z" fill="#000000" fill-rule="nonzero" fill-opacity="1"></path><path clip-path="url(#clip230)" d="M1229.64 49.7694 Q1220.61 49.7694 1217.12 51.8354 Q1213.64 53.9013 1213.64 58.8839 Q1213.64 62.8538 1216.23 65.2034 Q1218.87 67.5124 1223.36 67.5124 Q1229.56 67.5124 1233.29 63.1374 Q1237.05 58.7219 1237.05 51.4303 L1237.05 49.7694 L1229.64 49.7694 M1244.51 46.6907 L1244.51 72.576 L1237.05 72.576 L1237.05 65.6895 Q1234.5 69.8214 1230.7 71.8063 Q1226.89 73.7508 1221.38 73.7508 Q1214.41 73.7508 1210.28 69.8619 Q1206.19 65.9325 1206.19 59.3701 Q1206.19 51.7138 1211.29 47.825 Q1216.44 43.9361 1226.6 43.9361 L1237.05 43.9361 L1237.05 43.2069 Q1237.05 38.0623 1233.65 35.2672 Q1230.29 32.4315 1224.17 32.4315 Q1220.28 32.4315 1216.6 33.3632 Q1212.91 34.295 1209.51 36.1584 L1209.51 29.2718 Q1213.6 27.692 1217.45 26.9223 Q1221.3 26.1121 1224.94 26.1121 Q1234.79 26.1121 1239.65 31.2163 Q1244.51 36.3204 1244.51 46.6907 Z" fill="#000000" fill-rule="nonzero" fill-opacity="1"></path><path clip-path="url(#clip230)" d="M1297.58 45.1919 L1297.58 72.576 L1290.12 72.576 L1290.12 45.4349 Q1290.12 38.994 1287.61 35.7938 Q1285.1 32.5936 1280.08 32.5936 Q1274.04 32.5936 1270.56 36.4419 Q1267.07 40.2903 1267.07 46.9338 L1267.07 72.576 L1259.58 72.576 L1259.58 27.2059 L1267.07 27.2059 L1267.07 34.2544 Q1269.75 30.163 1273.35 28.1376 Q1277 26.1121 1281.74 26.1121 Q1289.55 26.1121 1293.57 30.9732 Q1297.58 35.7938 1297.58 45.1919 Z" fill="#000000" fill-rule="nonzero" fill-opacity="1"></path><path clip-path="url(#clip230)" d="M1345.09 28.9478 L1345.09 35.9153 Q1341.93 34.1734 1338.73 33.3227 Q1335.57 32.4315 1332.33 32.4315 Q1325.08 32.4315 1321.07 37.0496 Q1317.06 41.6271 1317.06 49.9314 Q1317.06 58.2358 1321.07 62.8538 Q1325.08 67.4314 1332.33 67.4314 Q1335.57 67.4314 1338.73 66.5807 Q1341.93 65.6895 1345.09 63.9476 L1345.09 70.8341 Q1341.97 72.2924 1338.61 73.0216 Q1335.29 73.7508 1331.52 73.7508 Q1321.27 73.7508 1315.24 67.3098 Q1309.2 60.8689 1309.2 49.9314 Q1309.2 38.832 1315.28 32.472 Q1321.39 26.1121 1332.01 26.1121 Q1335.45 26.1121 1338.73 26.8413 Q1342.01 27.5299 1345.09 28.9478 Z" fill="#000000" fill-rule="nonzero" fill-opacity="1"></path><path clip-path="url(#clip230)" d="M1396.86 48.0275 L1396.86 51.6733 L1362.59 51.6733 Q1363.08 59.3701 1367.21 63.421 Q1371.38 67.4314 1378.8 67.4314 Q1383.09 67.4314 1387.1 66.3781 Q1391.15 65.3249 1395.12 63.2184 L1395.12 70.267 Q1391.11 71.9684 1386.9 72.8596 Q1382.68 73.7508 1378.35 73.7508 Q1367.49 73.7508 1361.13 67.4314 Q1354.81 61.1119 1354.81 50.3365 Q1354.81 39.1965 1360.81 32.6746 Q1366.85 26.1121 1377.05 26.1121 Q1386.21 26.1121 1391.52 32.0264 Q1396.86 37.9003 1396.86 48.0275 M1389.41 45.84 Q1389.33 39.7232 1385.97 36.0774 Q1382.64 32.4315 1377.14 32.4315 Q1370.9 32.4315 1367.13 35.9558 Q1363.4 39.4801 1362.84 45.8805 L1389.41 45.84 Z" fill="#000000" fill-rule="nonzero" fill-opacity="1"></path><path clip-path="url(#clip230)" d="M1458.44 9.54393 L1458.44 15.7418 L1451.31 15.7418 Q1447.3 15.7418 1445.72 17.3622 Q1444.18 18.9825 1444.18 23.1955 L1444.18 27.2059 L1456.45 27.2059 L1456.45 32.9987 L1444.18 32.9987 L1444.18 72.576 L1436.68 72.576 L1436.68 32.9987 L1429.55 32.9987 L1429.55 27.2059 L1436.68 27.2059 L1436.68 24.0462 Q1436.68 16.471 1440.21 13.0277 Q1443.73 9.54393 1451.39 9.54393 L1458.44 9.54393 Z" fill="#000000" fill-rule="nonzero" fill-opacity="1"></path><path clip-path="url(#clip230)" d="M1482.26 32.4315 Q1476.26 32.4315 1472.78 37.1306 Q1469.29 41.7891 1469.29 49.9314 Q1469.29 58.0738 1472.74 62.7728 Q1476.22 67.4314 1482.26 67.4314 Q1488.21 67.4314 1491.69 62.7323 Q1495.18 58.0333 1495.18 49.9314 Q1495.18 41.8701 1491.69 37.1711 Q1488.21 32.4315 1482.26 32.4315 M1482.26 26.1121 Q1491.98 26.1121 1497.53 32.4315 Q1503.08 38.7509 1503.08 49.9314 Q1503.08 61.0714 1497.53 67.4314 Q1491.98 73.7508 1482.26 73.7508 Q1472.49 73.7508 1466.94 67.4314 Q1461.43 61.0714 1461.43 49.9314 Q1461.43 38.7509 1466.94 32.4315 Q1472.49 26.1121 1482.26 26.1121 Z" fill="#000000" fill-rule="nonzero" fill-opacity="1"></path><path clip-path="url(#clip230)" d="M1541.72 34.1734 Q1540.47 33.4443 1538.97 33.1202 Q1537.51 32.7556 1535.73 32.7556 Q1529.41 32.7556 1526.01 36.8875 Q1522.64 40.9789 1522.64 48.6757 L1522.64 72.576 L1515.15 72.576 L1515.15 27.2059 L1522.64 27.2059 L1522.64 34.2544 Q1524.99 30.1225 1528.76 28.1376 Q1532.53 26.1121 1537.92 26.1121 Q1538.69 26.1121 1539.62 26.2337 Q1540.55 26.3147 1541.68 26.5172 L1541.72 34.1734 Z" fill="#000000" fill-rule="nonzero" fill-opacity="1"></path><path clip-path="url(#clip230)" d="M1608.56 28.9478 L1608.56 35.9153 Q1605.4 34.1734 1602.2 33.3227 Q1599.04 32.4315 1595.8 32.4315 Q1588.55 32.4315 1584.54 37.0496 Q1580.53 41.6271 1580.53 49.9314 Q1580.53 58.2358 1584.54 62.8538 Q1588.55 67.4314 1595.8 67.4314 Q1599.04 67.4314 1602.2 66.5807 Q1605.4 65.6895 1608.56 63.9476 L1608.56 70.8341 Q1605.44 72.2924 1602.08 73.0216 Q1598.76 73.7508 1594.99 73.7508 Q1584.74 73.7508 1578.71 67.3098 Q1572.67 60.8689 1572.67 49.9314 Q1572.67 38.832 1578.75 32.472 Q1584.87 26.1121 1595.48 26.1121 Q1598.92 26.1121 1602.2 26.8413 Q1605.48 27.5299 1608.56 28.9478 Z" fill="#000000" fill-rule="nonzero" fill-opacity="1"></path><path clip-path="url(#clip230)" d="M1639.11 32.4315 Q1633.11 32.4315 1629.63 37.1306 Q1626.14 41.7891 1626.14 49.9314 Q1626.14 58.0738 1629.59 62.7728 Q1633.07 67.4314 1639.11 67.4314 Q1645.06 67.4314 1648.55 62.7323 Q1652.03 58.0333 1652.03 49.9314 Q1652.03 41.8701 1648.55 37.1711 Q1645.06 32.4315 1639.11 32.4315 M1639.11 26.1121 Q1648.83 26.1121 1654.38 32.4315 Q1659.93 38.7509 1659.93 49.9314 Q1659.93 61.0714 1654.38 67.4314 Q1648.83 73.7508 1639.11 73.7508 Q1629.34 73.7508 1623.79 67.4314 Q1618.29 61.0714 1618.29 49.9314 Q1618.29 38.7509 1623.79 32.4315 Q1629.34 26.1121 1639.11 26.1121 Z" fill="#000000" fill-rule="nonzero" fill-opacity="1"></path><path clip-path="url(#clip230)" d="M1710 45.1919 L1710 72.576 L1702.54 72.576 L1702.54 45.4349 Q1702.54 38.994 1700.03 35.7938 Q1697.52 32.5936 1692.5 32.5936 Q1686.46 32.5936 1682.98 36.4419 Q1679.49 40.2903 1679.49 46.9338 L1679.49 72.576 L1672 72.576 L1672 27.2059 L1679.49 27.2059 L1679.49 34.2544 Q1682.17 30.163 1685.77 28.1376 Q1689.42 26.1121 1694.16 26.1121 Q1701.98 26.1121 1705.99 30.9732 Q1710 35.7938 1710 45.1919 Z" fill="#000000" fill-rule="nonzero" fill-opacity="1"></path><path clip-path="url(#clip230)" d="M1757.52 28.9478 L1757.52 35.9153 Q1754.36 34.1734 1751.16 33.3227 Q1748 32.4315 1744.75 32.4315 Q1737.5 32.4315 1733.49 37.0496 Q1729.48 41.6271 1729.48 49.9314 Q1729.48 58.2358 1733.49 62.8538 Q1737.5 67.4314 1744.75 67.4314 Q1748 67.4314 1751.16 66.5807 Q1754.36 65.6895 1757.52 63.9476 L1757.52 70.8341 Q1754.4 72.2924 1751.03 73.0216 Q1747.71 73.7508 1743.94 73.7508 Q1733.7 73.7508 1727.66 67.3098 Q1721.62 60.8689 1721.62 49.9314 Q1721.62 38.832 1727.7 32.472 Q1733.82 26.1121 1744.43 26.1121 Q1747.87 26.1121 1751.16 26.8413 Q1754.44 27.5299 1757.52 28.9478 Z" fill="#000000" fill-rule="nonzero" fill-opacity="1"></path><path clip-path="url(#clip230)" d="M1796.77 34.1734 Q1795.51 33.4443 1794.01 33.1202 Q1792.56 32.7556 1790.77 32.7556 Q1784.45 32.7556 1781.05 36.8875 Q1777.69 40.9789 1777.69 48.6757 L1777.69 72.576 L1770.19 72.576 L1770.19 27.2059 L1777.69 27.2059 L1777.69 34.2544 Q1780.04 30.1225 1783.81 28.1376 Q1787.57 26.1121 1792.96 26.1121 Q1793.73 26.1121 1794.66 26.2337 Q1795.59 26.3147 1796.73 26.5172 L1796.77 34.1734 Z" fill="#000000" fill-rule="nonzero" fill-opacity="1"></path><path clip-path="url(#clip230)" d="M1841.57 48.0275 L1841.57 51.6733 L1807.3 51.6733 Q1807.79 59.3701 1811.92 63.421 Q1816.09 67.4314 1823.5 67.4314 Q1827.8 67.4314 1831.81 66.3781 Q1835.86 65.3249 1839.83 63.2184 L1839.83 70.267 Q1835.82 71.9684 1831.61 72.8596 Q1827.39 73.7508 1823.06 73.7508 Q1812.2 73.7508 1805.84 67.4314 Q1799.52 61.1119 1799.52 50.3365 Q1799.52 39.1965 1805.52 32.6746 Q1811.55 26.1121 1821.76 26.1121 Q1830.92 26.1121 1836.22 32.0264 Q1841.57 37.9003 1841.57 48.0275 M1834.12 45.84 Q1834.04 39.7232 1830.67 36.0774 Q1827.35 32.4315 1821.84 32.4315 Q1815.61 32.4315 1811.84 35.9558 Q1808.11 39.4801 1807.54 45.8805 L1834.12 45.84 Z" fill="#000000" fill-rule="nonzero" fill-opacity="1"></path><path clip-path="url(#clip230)" d="M1861.18 14.324 L1861.18 27.2059 L1876.53 27.2059 L1876.53 32.9987 L1861.18 32.9987 L1861.18 57.6282 Q1861.18 63.1779 1862.68 64.7578 Q1864.22 66.3376 1868.87 66.3376 L1876.53 66.3376 L1876.53 72.576 L1868.87 72.576 Q1860.25 72.576 1856.96 69.3758 Q1853.68 66.1351 1853.68 57.6282 L1853.68 32.9987 L1848.21 32.9987 L1848.21 27.2059 L1853.68 27.2059 L1853.68 14.324 L1861.18 14.324 Z" fill="#000000" fill-rule="nonzero" fill-opacity="1"></path><path clip-path="url(#clip230)" d="M1925.14 48.0275 L1925.14 51.6733 L1890.87 51.6733 Q1891.36 59.3701 1895.49 63.421 Q1899.66 67.4314 1907.07 67.4314 Q1911.37 67.4314 1915.38 66.3781 Q1919.43 65.3249 1923.4 63.2184 L1923.4 70.267 Q1919.39 71.9684 1915.18 72.8596 Q1910.96 73.7508 1906.63 73.7508 Q1895.77 73.7508 1889.41 67.4314 Q1883.09 61.1119 1883.09 50.3365 Q1883.09 39.1965 1889.09 32.6746 Q1895.12 26.1121 1905.33 26.1121 Q1914.49 26.1121 1919.79 32.0264 Q1925.14 37.9003 1925.14 48.0275 M1917.69 45.84 Q1917.61 39.7232 1914.24 36.0774 Q1910.92 32.4315 1905.41 32.4315 Q1899.18 32.4315 1895.41 35.9558 Q1891.68 39.4801 1891.11 45.8805 L1917.69 45.84 Z" fill="#000000" fill-rule="nonzero" fill-opacity="1"></path><path clip-path="url(#clip230)" d="M1993.6 34.0924 L1993.6 9.54393 L2001.06 9.54393 L2001.06 72.576 L1993.6 72.576 L1993.6 65.7705 Q1991.25 69.8214 1987.65 71.8063 Q1984.08 73.7508 1979.06 73.7508 Q1970.84 73.7508 1965.65 67.1883 Q1960.51 60.6258 1960.51 49.9314 Q1960.51 39.2371 1965.65 32.6746 Q1970.84 26.1121 1979.06 26.1121 Q1984.08 26.1121 1987.65 28.0971 Q1991.25 30.0415 1993.6 34.0924 M1968.2 49.9314 Q1968.2 58.1548 1971.56 62.8538 Q1974.97 67.5124 1980.88 67.5124 Q1986.8 67.5124 1990.2 62.8538 Q1993.6 58.1548 1993.6 49.9314 Q1993.6 41.7081 1990.2 37.0496 Q1986.8 32.3505 1980.88 32.3505 Q1974.97 32.3505 1971.56 37.0496 Q1968.2 41.7081 1968.2 49.9314 Z" fill="#000000" fill-rule="nonzero" fill-opacity="1"></path><path clip-path="url(#clip230)" d="M2037.03 49.7694 Q2027.99 49.7694 2024.51 51.8354 Q2021.03 53.9013 2021.03 58.8839 Q2021.03 62.8538 2023.62 65.2034 Q2026.25 67.5124 2030.75 67.5124 Q2036.95 67.5124 2040.67 63.1374 Q2044.44 58.7219 2044.44 51.4303 L2044.44 49.7694 L2037.03 49.7694 M2051.89 46.6907 L2051.89 72.576 L2044.44 72.576 L2044.44 65.6895 Q2041.89 69.8214 2038.08 71.8063 Q2034.27 73.7508 2028.76 73.7508 Q2021.8 73.7508 2017.66 69.8619 Q2013.57 65.9325 2013.57 59.3701 Q2013.57 51.7138 2018.68 47.825 Q2023.82 43.9361 2033.99 43.9361 L2044.44 43.9361 L2044.44 43.2069 Q2044.44 38.0623 2041.04 35.2672 Q2037.68 32.4315 2031.56 32.4315 Q2027.67 32.4315 2023.98 33.3632 Q2020.3 34.295 2016.89 36.1584 L2016.89 29.2718 Q2020.99 27.692 2024.83 26.9223 Q2028.68 26.1121 2032.33 26.1121 Q2042.17 26.1121 2047.03 31.2163 Q2051.89 36.3204 2051.89 46.6907 Z" fill="#000000" fill-rule="nonzero" fill-opacity="1"></path><path clip-path="url(#clip230)" d="M2074.62 14.324 L2074.62 27.2059 L2089.97 27.2059 L2089.97 32.9987 L2074.62 32.9987 L2074.62 57.6282 Q2074.62 63.1779 2076.12 64.7578 Q2077.66 66.3376 2082.32 66.3376 L2089.97 66.3376 L2089.97 72.576 L2082.32 72.576 Q2073.69 72.576 2070.41 69.3758 Q2067.13 66.1351 2067.13 57.6282 L2067.13 32.9987 L2061.66 32.9987 L2061.66 27.2059 L2067.13 27.2059 L2067.13 14.324 L2074.62 14.324 Z" fill="#000000" fill-rule="nonzero" fill-opacity="1"></path><path clip-path="url(#clip230)" d="M2120.4 49.7694 Q2111.36 49.7694 2107.88 51.8354 Q2104.39 53.9013 2104.39 58.8839 Q2104.39 62.8538 2106.99 65.2034 Q2109.62 67.5124 2114.12 67.5124 Q2120.31 67.5124 2124.04 63.1374 Q2127.81 58.7219 2127.81 51.4303 L2127.81 49.7694 L2120.4 49.7694 M2135.26 46.6907 L2135.26 72.576 L2127.81 72.576 L2127.81 65.6895 Q2125.26 69.8214 2121.45 71.8063 Q2117.64 73.7508 2112.13 73.7508 Q2105.16 73.7508 2101.03 69.8619 Q2096.94 65.9325 2096.94 59.3701 Q2096.94 51.7138 2102.04 47.825 Q2107.19 43.9361 2117.36 43.9361 L2127.81 43.9361 L2127.81 43.2069 Q2127.81 38.0623 2124.41 35.2672 Q2121.04 32.4315 2114.93 32.4315 Q2111.04 32.4315 2107.35 33.3632 Q2103.66 34.295 2100.26 36.1584 L2100.26 29.2718 Q2104.35 27.692 2108.2 26.9223 Q2112.05 26.1121 2115.7 26.1121 Q2125.54 26.1121 2130.4 31.2163 Q2135.26 36.3204 2135.26 46.6907 Z" fill="#000000" fill-rule="nonzero" fill-opacity="1"></path><path clip-path="url(#clip230)" d="M2179.54 28.5427 L2179.54 35.5912 Q2176.38 33.9709 2172.98 33.1607 Q2169.57 32.3505 2165.93 32.3505 Q2160.38 32.3505 2157.58 34.0519 Q2154.83 35.7533 2154.83 39.156 Q2154.83 41.7486 2156.81 43.2475 Q2158.8 44.7058 2164.79 46.0426 L2167.35 46.6097 Q2175.28 48.3111 2178.61 51.4303 Q2181.97 54.509 2181.97 60.0587 Q2181.97 66.3781 2176.95 70.0644 Q2171.96 73.7508 2163.21 73.7508 Q2159.57 73.7508 2155.6 73.0216 Q2151.67 72.3329 2147.29 70.9151 L2147.29 63.2184 Q2151.43 65.3654 2155.44 66.4591 Q2159.45 67.5124 2163.38 67.5124 Q2168.64 67.5124 2171.48 65.73 Q2174.31 63.9071 2174.31 60.6258 Q2174.31 57.5877 2172.25 55.9673 Q2170.22 54.3469 2163.29 52.8481 L2160.7 52.2405 Q2153.77 50.7821 2150.7 47.7845 Q2147.62 44.7463 2147.62 39.4801 Q2147.62 33.0797 2152.15 29.5959 Q2156.69 26.1121 2165.04 26.1121 Q2169.17 26.1121 2172.81 26.7198 Q2176.46 27.3274 2179.54 28.5427 Z" fill="#000000" fill-rule="nonzero" fill-opacity="1"></path><path clip-path="url(#clip230)" d="M2232.65 48.0275 L2232.65 51.6733 L2198.38 51.6733 Q2198.86 59.3701 2202.99 63.421 Q2207.17 67.4314 2214.58 67.4314 Q2218.87 67.4314 2222.88 66.3781 Q2226.93 65.3249 2230.9 63.2184 L2230.9 70.267 Q2226.89 71.9684 2222.68 72.8596 Q2218.47 73.7508 2214.13 73.7508 Q2203.28 73.7508 2196.92 67.4314 Q2190.6 61.1119 2190.6 50.3365 Q2190.6 39.1965 2196.59 32.6746 Q2202.63 26.1121 2212.84 26.1121 Q2221.99 26.1121 2227.3 32.0264 Q2232.65 37.9003 2232.65 48.0275 M2225.19 45.84 Q2225.11 39.7232 2221.75 36.0774 Q2218.43 32.4315 2212.92 32.4315 Q2206.68 32.4315 2202.91 35.9558 Q2199.19 39.4801 2198.62 45.8805 L2225.19 45.84 Z" fill="#000000" fill-rule="nonzero" fill-opacity="1"></path><path clip-path="url(#clip230)" d="M2252.25 14.324 L2252.25 27.2059 L2267.61 27.2059 L2267.61 32.9987 L2252.25 32.9987 L2252.25 57.6282 Q2252.25 63.1779 2253.75 64.7578 Q2255.29 66.3376 2259.95 66.3376 L2267.61 66.3376 L2267.61 72.576 L2259.95 72.576 Q2251.32 72.576 2248.04 69.3758 Q2244.76 66.1351 2244.76 57.6282 L2244.76 32.9987 L2239.29 32.9987 L2239.29 27.2059 L2244.76 27.2059 L2244.76 14.324 L2252.25 14.324 Z" fill="#000000" fill-rule="nonzero" fill-opacity="1"></path><polyline clip-path="url(#clip232)" style="stroke:#800080; stroke-linecap:round; stroke-linejoin:round; stroke-width:4; stroke-opacity:1; fill:none" points="292.4,1386.27 397.681,1379.96 608.244,1339.45 924.088,1228.54 1239.93,1107.68 1766.34,767.875 2292.75,160.256 "></polyline>
<line clip-path="url(#clip232)" x1="292.4" y1="1386.27" x2="276.4" y2="1370.27" style="stroke:#800080; stroke-width:4; stroke-opacity:1"></line>
<line clip-path="url(#clip232)" x1="292.4" y1="1386.27" x2="276.4" y2="1402.27" style="stroke:#800080; stroke-width:4; stroke-opacity:1"></line>
<line clip-path="url(#clip232)" x1="292.4" y1="1386.27" x2="308.4" y2="1402.27" style="stroke:#800080; stroke-width:4; stroke-opacity:1"></line>
<line clip-path="url(#clip232)" x1="292.4" y1="1386.27" x2="308.4" y2="1370.27" style="stroke:#800080; stroke-width:4; stroke-opacity:1"></line>
<line clip-path="url(#clip232)" x1="397.681" y1="1379.96" x2="381.681" y2="1363.96" style="stroke:#800080; stroke-width:4; stroke-opacity:1"></line>
<line clip-path="url(#clip232)" x1="397.681" y1="1379.96" x2="381.681" y2="1395.96" style="stroke:#800080; stroke-width:4; stroke-opacity:1"></line>
<line clip-path="url(#clip232)" x1="397.681" y1="1379.96" x2="413.681" y2="1395.96" style="stroke:#800080; stroke-width:4; stroke-opacity:1"></line>
<line clip-path="url(#clip232)" x1="397.681" y1="1379.96" x2="413.681" y2="1363.96" style="stroke:#800080; stroke-width:4; stroke-opacity:1"></line>
<line clip-path="url(#clip232)" x1="608.244" y1="1339.45" x2="592.244" y2="1323.45" style="stroke:#800080; stroke-width:4; stroke-opacity:1"></line>
<line clip-path="url(#clip232)" x1="608.244" y1="1339.45" x2="592.244" y2="1355.45" style="stroke:#800080; stroke-width:4; stroke-opacity:1"></line>
<line clip-path="url(#clip232)" x1="608.244" y1="1339.45" x2="624.244" y2="1355.45" style="stroke:#800080; stroke-width:4; stroke-opacity:1"></line>
<line clip-path="url(#clip232)" x1="608.244" y1="1339.45" x2="624.244" y2="1323.45" style="stroke:#800080; stroke-width:4; stroke-opacity:1"></line>
<line clip-path="url(#clip232)" x1="924.088" y1="1228.54" x2="908.088" y2="1212.54" style="stroke:#800080; stroke-width:4; stroke-opacity:1"></line>
<line clip-path="url(#clip232)" x1="924.088" y1="1228.54" x2="908.088" y2="1244.54" style="stroke:#800080; stroke-width:4; stroke-opacity:1"></line>
<line clip-path="url(#clip232)" x1="924.088" y1="1228.54" x2="940.088" y2="1244.54" style="stroke:#800080; stroke-width:4; stroke-opacity:1"></line>
<line clip-path="url(#clip232)" x1="924.088" y1="1228.54" x2="940.088" y2="1212.54" style="stroke:#800080; stroke-width:4; stroke-opacity:1"></line>
<line clip-path="url(#clip232)" x1="1239.93" y1="1107.68" x2="1223.93" y2="1091.68" style="stroke:#800080; stroke-width:4; stroke-opacity:1"></line>
<line clip-path="url(#clip232)" x1="1239.93" y1="1107.68" x2="1223.93" y2="1123.68" style="stroke:#800080; stroke-width:4; stroke-opacity:1"></line>
<line clip-path="url(#clip232)" x1="1239.93" y1="1107.68" x2="1255.93" y2="1123.68" style="stroke:#800080; stroke-width:4; stroke-opacity:1"></line>
<line clip-path="url(#clip232)" x1="1239.93" y1="1107.68" x2="1255.93" y2="1091.68" style="stroke:#800080; stroke-width:4; stroke-opacity:1"></line>
<line clip-path="url(#clip232)" x1="1766.34" y1="767.875" x2="1750.34" y2="751.875" style="stroke:#800080; stroke-width:4; stroke-opacity:1"></line>
<line clip-path="url(#clip232)" x1="1766.34" y1="767.875" x2="1750.34" y2="783.875" style="stroke:#800080; stroke-width:4; stroke-opacity:1"></line>
<line clip-path="url(#clip232)" x1="1766.34" y1="767.875" x2="1782.34" y2="783.875" style="stroke:#800080; stroke-width:4; stroke-opacity:1"></line>
<line clip-path="url(#clip232)" x1="1766.34" y1="767.875" x2="1782.34" y2="751.875" style="stroke:#800080; stroke-width:4; stroke-opacity:1"></line>
<line clip-path="url(#clip232)" x1="2292.75" y1="160.256" x2="2276.75" y2="144.256" style="stroke:#800080; stroke-width:4; stroke-opacity:1"></line>
<line clip-path="url(#clip232)" x1="2292.75" y1="160.256" x2="2276.75" y2="176.256" style="stroke:#800080; stroke-width:4; stroke-opacity:1"></line>
<line clip-path="url(#clip232)" x1="2292.75" y1="160.256" x2="2308.75" y2="176.256" style="stroke:#800080; stroke-width:4; stroke-opacity:1"></line>
<line clip-path="url(#clip232)" x1="2292.75" y1="160.256" x2="2308.75" y2="144.256" style="stroke:#800080; stroke-width:4; stroke-opacity:1"></line>
<polyline clip-path="url(#clip232)" style="stroke:#0000ff; stroke-linecap:round; stroke-linejoin:round; stroke-width:4; stroke-opacity:1; fill:none" points="292.4,1386.4 397.681,1385.49 608.244,1382.05 924.088,1366.74 1239.93,1346.02 1766.34,1292.51 2292.75,1244.22 "></polyline>
<line clip-path="url(#clip232)" x1="292.4" y1="1386.4" x2="276.4" y2="1370.4" style="stroke:#0000ff; stroke-width:4; stroke-opacity:1"></line>
<line clip-path="url(#clip232)" x1="292.4" y1="1386.4" x2="276.4" y2="1402.4" style="stroke:#0000ff; stroke-width:4; stroke-opacity:1"></line>
<line clip-path="url(#clip232)" x1="292.4" y1="1386.4" x2="308.4" y2="1402.4" style="stroke:#0000ff; stroke-width:4; stroke-opacity:1"></line>
<line clip-path="url(#clip232)" x1="292.4" y1="1386.4" x2="308.4" y2="1370.4" style="stroke:#0000ff; stroke-width:4; stroke-opacity:1"></line>
<line clip-path="url(#clip232)" x1="397.681" y1="1385.49" x2="381.681" y2="1369.49" style="stroke:#0000ff; stroke-width:4; stroke-opacity:1"></line>
<line clip-path="url(#clip232)" x1="397.681" y1="1385.49" x2="381.681" y2="1401.49" style="stroke:#0000ff; stroke-width:4; stroke-opacity:1"></line>
<line clip-path="url(#clip232)" x1="397.681" y1="1385.49" x2="413.681" y2="1401.49" style="stroke:#0000ff; stroke-width:4; stroke-opacity:1"></line>
<line clip-path="url(#clip232)" x1="397.681" y1="1385.49" x2="413.681" y2="1369.49" style="stroke:#0000ff; stroke-width:4; stroke-opacity:1"></line>
<line clip-path="url(#clip232)" x1="608.244" y1="1382.05" x2="592.244" y2="1366.05" style="stroke:#0000ff; stroke-width:4; stroke-opacity:1"></line>
<line clip-path="url(#clip232)" x1="608.244" y1="1382.05" x2="592.244" y2="1398.05" style="stroke:#0000ff; stroke-width:4; stroke-opacity:1"></line>
<line clip-path="url(#clip232)" x1="608.244" y1="1382.05" x2="624.244" y2="1398.05" style="stroke:#0000ff; stroke-width:4; stroke-opacity:1"></line>
<line clip-path="url(#clip232)" x1="608.244" y1="1382.05" x2="624.244" y2="1366.05" style="stroke:#0000ff; stroke-width:4; stroke-opacity:1"></line>
<line clip-path="url(#clip232)" x1="924.088" y1="1366.74" x2="908.088" y2="1350.74" style="stroke:#0000ff; stroke-width:4; stroke-opacity:1"></line>
<line clip-path="url(#clip232)" x1="924.088" y1="1366.74" x2="908.088" y2="1382.74" style="stroke:#0000ff; stroke-width:4; stroke-opacity:1"></line>
<line clip-path="url(#clip232)" x1="924.088" y1="1366.74" x2="940.088" y2="1382.74" style="stroke:#0000ff; stroke-width:4; stroke-opacity:1"></line>
<line clip-path="url(#clip232)" x1="924.088" y1="1366.74" x2="940.088" y2="1350.74" style="stroke:#0000ff; stroke-width:4; stroke-opacity:1"></line>
<line clip-path="url(#clip232)" x1="1239.93" y1="1346.02" x2="1223.93" y2="1330.02" style="stroke:#0000ff; stroke-width:4; stroke-opacity:1"></line>
<line clip-path="url(#clip232)" x1="1239.93" y1="1346.02" x2="1223.93" y2="1362.02" style="stroke:#0000ff; stroke-width:4; stroke-opacity:1"></line>
<line clip-path="url(#clip232)" x1="1239.93" y1="1346.02" x2="1255.93" y2="1362.02" style="stroke:#0000ff; stroke-width:4; stroke-opacity:1"></line>
<line clip-path="url(#clip232)" x1="1239.93" y1="1346.02" x2="1255.93" y2="1330.02" style="stroke:#0000ff; stroke-width:4; stroke-opacity:1"></line>
<line clip-path="url(#clip232)" x1="1766.34" y1="1292.51" x2="1750.34" y2="1276.51" style="stroke:#0000ff; stroke-width:4; stroke-opacity:1"></line>
<line clip-path="url(#clip232)" x1="1766.34" y1="1292.51" x2="1750.34" y2="1308.51" style="stroke:#0000ff; stroke-width:4; stroke-opacity:1"></line>
<line clip-path="url(#clip232)" x1="1766.34" y1="1292.51" x2="1782.34" y2="1308.51" style="stroke:#0000ff; stroke-width:4; stroke-opacity:1"></line>
<line clip-path="url(#clip232)" x1="1766.34" y1="1292.51" x2="1782.34" y2="1276.51" style="stroke:#0000ff; stroke-width:4; stroke-opacity:1"></line>
<line clip-path="url(#clip232)" x1="2292.75" y1="1244.22" x2="2276.75" y2="1228.22" style="stroke:#0000ff; stroke-width:4; stroke-opacity:1"></line>
<line clip-path="url(#clip232)" x1="2292.75" y1="1244.22" x2="2276.75" y2="1260.22" style="stroke:#0000ff; stroke-width:4; stroke-opacity:1"></line>
<line clip-path="url(#clip232)" x1="2292.75" y1="1244.22" x2="2308.75" y2="1260.22" style="stroke:#0000ff; stroke-width:4; stroke-opacity:1"></line>
<line clip-path="url(#clip232)" x1="2292.75" y1="1244.22" x2="2308.75" y2="1228.22" style="stroke:#0000ff; stroke-width:4; stroke-opacity:1"></line>
<path clip-path="url(#clip230)" d="M303.068 322.316 L941.052 322.316 L941.052 166.796 L303.068 166.796  Z" fill="#ffffff" fill-rule="evenodd" fill-opacity="1"></path>
<polyline clip-path="url(#clip230)" style="stroke:#000000; stroke-linecap:round; stroke-linejoin:round; stroke-width:4; stroke-opacity:1; fill:none" points="303.068,322.316 941.052,322.316 941.052,166.796 303.068,166.796 303.068,322.316 "></polyline>
<polyline clip-path="url(#clip230)" style="stroke:#800080; stroke-linecap:round; stroke-linejoin:round; stroke-width:4; stroke-opacity:1; fill:none" points="326.628,218.636 467.986,218.636 "></polyline>
<line clip-path="url(#clip230)" x1="397.307" y1="218.636" x2="375.492" y2="196.821" style="stroke:#800080; stroke-width:4.55111; stroke-opacity:1"></line>
<line clip-path="url(#clip230)" x1="397.307" y1="218.636" x2="375.492" y2="240.45" style="stroke:#800080; stroke-width:4.55111; stroke-opacity:1"></line>
<line clip-path="url(#clip230)" x1="397.307" y1="218.636" x2="419.121" y2="240.45" style="stroke:#800080; stroke-width:4.55111; stroke-opacity:1"></line>
<line clip-path="url(#clip230)" x1="397.307" y1="218.636" x2="419.121" y2="196.821" style="stroke:#800080; stroke-width:4.55111; stroke-opacity:1"></line>
<path clip-path="url(#clip230)" d="M491.545 201.356 L497.842 201.356 L513.166 230.268 L513.166 201.356 L517.703 201.356 L517.703 235.916 L511.406 235.916 L496.082 207.004 L496.082 235.916 L491.545 235.916 L491.545 201.356 Z" fill="#000000" fill-rule="nonzero" fill-opacity="1"></path><path clip-path="url(#clip230)" d="M536.869 212.976 Q533.443 212.976 531.452 215.661 Q529.462 218.323 529.462 222.976 Q529.462 227.629 531.429 230.314 Q533.42 232.976 536.869 232.976 Q540.272 232.976 542.263 230.291 Q544.253 227.606 544.253 222.976 Q544.253 218.37 542.263 215.684 Q540.272 212.976 536.869 212.976 M536.869 209.365 Q542.425 209.365 545.596 212.976 Q548.767 216.587 548.767 222.976 Q548.767 229.342 545.596 232.976 Q542.425 236.587 536.869 236.587 Q531.29 236.587 528.119 232.976 Q524.971 229.342 524.971 222.976 Q524.971 216.587 528.119 212.976 Q531.29 209.365 536.869 209.365 Z" fill="#000000" fill-rule="nonzero" fill-opacity="1"></path><path clip-path="url(#clip230)" d="M570.85 213.971 Q570.133 213.555 569.276 213.37 Q568.443 213.161 567.424 213.161 Q563.813 213.161 561.869 215.522 Q559.948 217.86 559.948 222.258 L559.948 235.916 L555.665 235.916 L555.665 209.99 L559.948 209.99 L559.948 214.018 Q561.29 211.657 563.443 210.522 Q565.596 209.365 568.674 209.365 Q569.114 209.365 569.647 209.434 Q570.179 209.481 570.827 209.596 L570.85 213.971 Z" fill="#000000" fill-rule="nonzero" fill-opacity="1"></path><path clip-path="url(#clip230)" d="M594.67 214.967 Q596.267 212.096 598.489 210.731 Q600.711 209.365 603.721 209.365 Q607.771 209.365 609.971 212.212 Q612.17 215.036 612.17 220.268 L612.17 235.916 L607.887 235.916 L607.887 220.407 Q607.887 216.68 606.568 214.874 Q605.248 213.069 602.54 213.069 Q599.23 213.069 597.309 215.268 Q595.387 217.467 595.387 221.263 L595.387 235.916 L591.105 235.916 L591.105 220.407 Q591.105 216.657 589.785 214.874 Q588.466 213.069 585.711 213.069 Q582.448 213.069 580.526 215.291 Q578.605 217.49 578.605 221.263 L578.605 235.916 L574.323 235.916 L574.323 209.99 L578.605 209.99 L578.605 214.018 Q580.063 211.633 582.1 210.499 Q584.137 209.365 586.938 209.365 Q589.762 209.365 591.73 210.8 Q593.721 212.235 594.67 214.967 Z" fill="#000000" fill-rule="nonzero" fill-opacity="1"></path><path clip-path="url(#clip230)" d="M632.447 222.883 Q627.285 222.883 625.295 224.064 Q623.304 225.244 623.304 228.092 Q623.304 230.36 624.785 231.703 Q626.29 233.022 628.859 233.022 Q632.401 233.022 634.531 230.522 Q636.683 227.999 636.683 223.832 L636.683 222.883 L632.447 222.883 M640.943 221.124 L640.943 235.916 L636.683 235.916 L636.683 231.981 Q635.225 234.342 633.049 235.476 Q630.873 236.587 627.725 236.587 Q623.744 236.587 621.383 234.365 Q619.045 232.119 619.045 228.369 Q619.045 223.994 621.961 221.772 Q624.901 219.55 630.711 219.55 L636.683 219.55 L636.683 219.133 Q636.683 216.194 634.739 214.596 Q632.818 212.976 629.322 212.976 Q627.1 212.976 624.994 213.508 Q622.887 214.041 620.943 215.106 L620.943 211.17 Q623.281 210.268 625.48 209.828 Q627.679 209.365 629.762 209.365 Q635.387 209.365 638.165 212.282 Q640.943 215.198 640.943 221.124 Z" fill="#000000" fill-rule="nonzero" fill-opacity="1"></path><path clip-path="url(#clip230)" d="M649.716 199.897 L653.975 199.897 L653.975 235.916 L649.716 235.916 L649.716 199.897 Z" fill="#000000" fill-rule="nonzero" fill-opacity="1"></path><path clip-path="url(#clip230)" d="M695.016 213.925 L695.016 199.897 L699.276 199.897 L699.276 235.916 L695.016 235.916 L695.016 232.027 Q693.674 234.342 691.614 235.476 Q689.577 236.587 686.706 236.587 Q682.007 236.587 679.044 232.837 Q676.104 229.087 676.104 222.976 Q676.104 216.865 679.044 213.115 Q682.007 209.365 686.706 209.365 Q689.577 209.365 691.614 210.499 Q693.674 211.61 695.016 213.925 M680.503 222.976 Q680.503 227.675 682.424 230.36 Q684.368 233.022 687.748 233.022 Q691.128 233.022 693.072 230.36 Q695.016 227.675 695.016 222.976 Q695.016 218.277 693.072 215.615 Q691.128 212.93 687.748 212.93 Q684.368 212.93 682.424 215.615 Q680.503 218.277 680.503 222.976 Z" fill="#000000" fill-rule="nonzero" fill-opacity="1"></path><path clip-path="url(#clip230)" d="M730.225 221.888 L730.225 223.971 L710.641 223.971 Q710.919 228.369 713.28 230.684 Q715.664 232.976 719.901 232.976 Q722.354 232.976 724.646 232.374 Q726.961 231.772 729.229 230.569 L729.229 234.596 Q726.938 235.568 724.53 236.078 Q722.123 236.587 719.646 236.587 Q713.442 236.587 709.808 232.976 Q706.197 229.365 706.197 223.207 Q706.197 216.842 709.623 213.115 Q713.072 209.365 718.905 209.365 Q724.137 209.365 727.169 212.745 Q730.225 216.101 730.225 221.888 M725.965 220.638 Q725.919 217.143 723.998 215.059 Q722.1 212.976 718.951 212.976 Q715.387 212.976 713.234 214.99 Q711.104 217.004 710.78 220.661 L725.965 220.638 Z" fill="#000000" fill-rule="nonzero" fill-opacity="1"></path><path clip-path="url(#clip230)" d="M741.336 232.027 L741.336 245.777 L737.053 245.777 L737.053 209.99 L741.336 209.99 L741.336 213.925 Q742.678 211.61 744.715 210.499 Q746.775 209.365 749.623 209.365 Q754.345 209.365 757.285 213.115 Q760.248 216.865 760.248 222.976 Q760.248 229.087 757.285 232.837 Q754.345 236.587 749.623 236.587 Q746.775 236.587 744.715 235.476 Q742.678 234.342 741.336 232.027 M755.826 222.976 Q755.826 218.277 753.882 215.615 Q751.961 212.93 748.581 212.93 Q745.201 212.93 743.257 215.615 Q741.336 218.277 741.336 222.976 Q741.336 227.675 743.257 230.36 Q745.201 233.022 748.581 233.022 Q751.961 233.022 753.882 230.36 Q755.826 227.675 755.826 222.976 Z" fill="#000000" fill-rule="nonzero" fill-opacity="1"></path><path clip-path="url(#clip230)" d="M771.521 202.629 L771.521 209.99 L780.294 209.99 L780.294 213.3 L771.521 213.3 L771.521 227.374 Q771.521 230.545 772.377 231.448 Q773.257 232.351 775.919 232.351 L780.294 232.351 L780.294 235.916 L775.919 235.916 Q770.988 235.916 769.113 234.087 Q767.238 232.235 767.238 227.374 L767.238 213.3 L764.113 213.3 L764.113 209.99 L767.238 209.99 L767.238 202.629 L771.521 202.629 Z" fill="#000000" fill-rule="nonzero" fill-opacity="1"></path><path clip-path="url(#clip230)" d="M807.446 220.268 L807.446 235.916 L803.187 235.916 L803.187 220.407 Q803.187 216.726 801.752 214.897 Q800.317 213.069 797.446 213.069 Q793.997 213.069 792.007 215.268 Q790.016 217.467 790.016 221.263 L790.016 235.916 L785.733 235.916 L785.733 199.897 L790.016 199.897 L790.016 214.018 Q791.544 211.68 793.604 210.522 Q795.687 209.365 798.395 209.365 Q802.863 209.365 805.155 212.143 Q807.446 214.897 807.446 220.268 Z" fill="#000000" fill-rule="nonzero" fill-opacity="1"></path><path clip-path="url(#clip230)" d="M831.659 201.356 L850.016 201.356 L850.016 205.291 L835.942 205.291 L835.942 213.763 Q836.96 213.416 837.979 213.254 Q838.997 213.069 840.016 213.069 Q845.803 213.069 849.182 216.24 Q852.562 219.411 852.562 224.828 Q852.562 230.406 849.09 233.508 Q845.617 236.587 839.298 236.587 Q837.122 236.587 834.854 236.217 Q832.608 235.846 830.201 235.106 L830.201 230.406 Q832.284 231.541 834.506 232.096 Q836.729 232.652 839.205 232.652 Q843.21 232.652 845.548 230.545 Q847.886 228.439 847.886 224.828 Q847.886 221.217 845.548 219.11 Q843.21 217.004 839.205 217.004 Q837.33 217.004 835.455 217.42 Q833.604 217.837 831.659 218.717 L831.659 201.356 Z" fill="#000000" fill-rule="nonzero" fill-opacity="1"></path><polyline clip-path="url(#clip230)" style="stroke:#0000ff; stroke-linecap:round; stroke-linejoin:round; stroke-width:4; stroke-opacity:1; fill:none" points="326.628,270.476 467.986,270.476 "></polyline>
<line clip-path="url(#clip230)" x1="397.307" y1="270.476" x2="375.492" y2="248.661" style="stroke:#0000ff; stroke-width:4.55111; stroke-opacity:1"></line>
<line clip-path="url(#clip230)" x1="397.307" y1="270.476" x2="375.492" y2="292.29" style="stroke:#0000ff; stroke-width:4.55111; stroke-opacity:1"></line>
<line clip-path="url(#clip230)" x1="397.307" y1="270.476" x2="419.121" y2="292.29" style="stroke:#0000ff; stroke-width:4.55111; stroke-opacity:1"></line>
<line clip-path="url(#clip230)" x1="397.307" y1="270.476" x2="419.121" y2="248.661" style="stroke:#0000ff; stroke-width:4.55111; stroke-opacity:1"></line>
<path clip-path="url(#clip230)" d="M507.379 257.802 L501.036 275.001 L513.744 275.001 L507.379 257.802 M504.74 253.196 L510.041 253.196 L523.212 287.756 L518.351 287.756 L515.203 278.89 L499.624 278.89 L496.476 287.756 L491.545 287.756 L504.74 253.196 Z" fill="#000000" fill-rule="nonzero" fill-opacity="1"></path><path clip-path="url(#clip230)" d="M528.073 251.737 L532.332 251.737 L532.332 287.756 L528.073 287.756 L528.073 251.737 Z" fill="#000000" fill-rule="nonzero" fill-opacity="1"></path><path clip-path="url(#clip230)" d="M558.304 274.492 Q558.304 269.862 556.383 267.316 Q554.485 264.77 551.036 264.77 Q547.61 264.77 545.688 267.316 Q543.79 269.862 543.79 274.492 Q543.79 279.098 545.688 281.645 Q547.61 284.191 551.036 284.191 Q554.485 284.191 556.383 281.645 Q558.304 279.098 558.304 274.492 M562.563 284.538 Q562.563 291.158 559.624 294.376 Q556.684 297.617 550.619 297.617 Q548.374 297.617 546.383 297.27 Q544.392 296.945 542.517 296.251 L542.517 292.108 Q544.392 293.126 546.221 293.612 Q548.05 294.098 549.948 294.098 Q554.138 294.098 556.221 291.899 Q558.304 289.723 558.304 285.302 L558.304 283.196 Q556.985 285.487 554.925 286.621 Q552.864 287.756 549.994 287.756 Q545.226 287.756 542.309 284.121 Q539.392 280.487 539.392 274.492 Q539.392 268.473 542.309 264.839 Q545.226 261.205 549.994 261.205 Q552.864 261.205 554.925 262.339 Q556.985 263.473 558.304 265.765 L558.304 261.83 L562.563 261.83 L562.563 284.538 Z" fill="#000000" fill-rule="nonzero" fill-opacity="1"></path><path clip-path="url(#clip230)" d="M581.383 264.816 Q577.957 264.816 575.966 267.501 Q573.975 270.163 573.975 274.816 Q573.975 279.469 575.943 282.154 Q577.934 284.816 581.383 284.816 Q584.786 284.816 586.776 282.131 Q588.767 279.446 588.767 274.816 Q588.767 270.21 586.776 267.524 Q584.786 264.816 581.383 264.816 M581.383 261.205 Q586.938 261.205 590.11 264.816 Q593.281 268.427 593.281 274.816 Q593.281 281.182 590.11 284.816 Q586.938 288.427 581.383 288.427 Q575.804 288.427 572.633 284.816 Q569.485 281.182 569.485 274.816 Q569.485 268.427 572.633 264.816 Q575.804 261.205 581.383 261.205 Z" fill="#000000" fill-rule="nonzero" fill-opacity="1"></path><path clip-path="url(#clip230)" d="M615.364 265.811 Q614.646 265.395 613.79 265.21 Q612.957 265.001 611.938 265.001 Q608.327 265.001 606.383 267.362 Q604.461 269.7 604.461 274.098 L604.461 287.756 L600.179 287.756 L600.179 261.83 L604.461 261.83 L604.461 265.858 Q605.804 263.497 607.957 262.362 Q610.109 261.205 613.188 261.205 Q613.628 261.205 614.16 261.274 Q614.693 261.321 615.341 261.436 L615.364 265.811 Z" fill="#000000" fill-rule="nonzero" fill-opacity="1"></path><path clip-path="url(#clip230)" d="M619.832 261.83 L624.091 261.83 L624.091 287.756 L619.832 287.756 L619.832 261.83 M619.832 251.737 L624.091 251.737 L624.091 257.131 L619.832 257.131 L619.832 251.737 Z" fill="#000000" fill-rule="nonzero" fill-opacity="1"></path><path clip-path="url(#clip230)" d="M637.216 254.469 L637.216 261.83 L645.989 261.83 L645.989 265.14 L637.216 265.14 L637.216 279.214 Q637.216 282.385 638.072 283.288 Q638.952 284.191 641.614 284.191 L645.989 284.191 L645.989 287.756 L641.614 287.756 Q636.683 287.756 634.808 285.927 Q632.933 284.075 632.933 279.214 L632.933 265.14 L629.808 265.14 L629.808 261.83 L632.933 261.83 L632.933 254.469 L637.216 254.469 Z" fill="#000000" fill-rule="nonzero" fill-opacity="1"></path><path clip-path="url(#clip230)" d="M673.142 272.108 L673.142 287.756 L668.882 287.756 L668.882 272.247 Q668.882 268.566 667.447 266.737 Q666.012 264.909 663.142 264.909 Q659.693 264.909 657.702 267.108 Q655.711 269.307 655.711 273.103 L655.711 287.756 L651.429 287.756 L651.429 251.737 L655.711 251.737 L655.711 265.858 Q657.239 263.52 659.299 262.362 Q661.382 261.205 664.091 261.205 Q668.558 261.205 670.85 263.983 Q673.142 266.737 673.142 272.108 Z" fill="#000000" fill-rule="nonzero" fill-opacity="1"></path><path clip-path="url(#clip230)" d="M701.822 266.807 Q703.419 263.936 705.641 262.571 Q707.864 261.205 710.873 261.205 Q714.924 261.205 717.123 264.052 Q719.322 266.876 719.322 272.108 L719.322 287.756 L715.039 287.756 L715.039 272.247 Q715.039 268.52 713.72 266.714 Q712.401 264.909 709.692 264.909 Q706.382 264.909 704.461 267.108 Q702.539 269.307 702.539 273.103 L702.539 287.756 L698.257 287.756 L698.257 272.247 Q698.257 268.497 696.938 266.714 Q695.618 264.909 692.864 264.909 Q689.6 264.909 687.678 267.131 Q685.757 269.33 685.757 273.103 L685.757 287.756 L681.475 287.756 L681.475 261.83 L685.757 261.83 L685.757 265.858 Q687.216 263.473 689.253 262.339 Q691.29 261.205 694.09 261.205 Q696.915 261.205 698.882 262.64 Q700.873 264.075 701.822 266.807 Z" fill="#000000" fill-rule="nonzero" fill-opacity="1"></path><path clip-path="url(#clip230)" d="M759.947 265.765 L759.947 251.737 L764.206 251.737 L764.206 287.756 L759.947 287.756 L759.947 283.867 Q758.604 286.182 756.544 287.316 Q754.507 288.427 751.636 288.427 Q746.937 288.427 743.974 284.677 Q741.035 280.927 741.035 274.816 Q741.035 268.705 743.974 264.955 Q746.937 261.205 751.636 261.205 Q754.507 261.205 756.544 262.339 Q758.604 263.45 759.947 265.765 M745.433 274.816 Q745.433 279.515 747.354 282.2 Q749.299 284.862 752.678 284.862 Q756.058 284.862 758.002 282.2 Q759.947 279.515 759.947 274.816 Q759.947 270.117 758.002 267.455 Q756.058 264.77 752.678 264.77 Q749.299 264.77 747.354 267.455 Q745.433 270.117 745.433 274.816 Z" fill="#000000" fill-rule="nonzero" fill-opacity="1"></path><path clip-path="url(#clip230)" d="M795.155 273.728 L795.155 275.811 L775.572 275.811 Q775.849 280.209 778.21 282.524 Q780.595 284.816 784.831 284.816 Q787.284 284.816 789.576 284.214 Q791.891 283.612 794.159 282.409 L794.159 286.436 Q791.868 287.408 789.46 287.918 Q787.053 288.427 784.576 288.427 Q778.372 288.427 774.738 284.816 Q771.127 281.205 771.127 275.047 Q771.127 268.682 774.553 264.955 Q778.002 261.205 783.835 261.205 Q789.067 261.205 792.099 264.585 Q795.155 267.941 795.155 273.728 M790.896 272.478 Q790.849 268.983 788.928 266.899 Q787.03 264.816 783.882 264.816 Q780.317 264.816 778.164 266.83 Q776.034 268.844 775.71 272.501 L790.896 272.478 Z" fill="#000000" fill-rule="nonzero" fill-opacity="1"></path><path clip-path="url(#clip230)" d="M806.266 283.867 L806.266 297.617 L801.983 297.617 L801.983 261.83 L806.266 261.83 L806.266 265.765 Q807.608 263.45 809.645 262.339 Q811.706 261.205 814.553 261.205 Q819.275 261.205 822.215 264.955 Q825.178 268.705 825.178 274.816 Q825.178 280.927 822.215 284.677 Q819.275 288.427 814.553 288.427 Q811.706 288.427 809.645 287.316 Q807.608 286.182 806.266 283.867 M820.756 274.816 Q820.756 270.117 818.812 267.455 Q816.891 264.77 813.511 264.77 Q810.132 264.77 808.187 267.455 Q806.266 270.117 806.266 274.816 Q806.266 279.515 808.187 282.2 Q810.132 284.862 813.511 284.862 Q816.891 284.862 818.812 282.2 Q820.756 279.515 820.756 274.816 Z" fill="#000000" fill-rule="nonzero" fill-opacity="1"></path><path clip-path="url(#clip230)" d="M836.451 254.469 L836.451 261.83 L845.224 261.83 L845.224 265.14 L836.451 265.14 L836.451 279.214 Q836.451 282.385 837.307 283.288 Q838.187 284.191 840.849 284.191 L845.224 284.191 L845.224 287.756 L840.849 287.756 Q835.918 287.756 834.043 285.927 Q832.168 284.075 832.168 279.214 L832.168 265.14 L829.043 265.14 L829.043 261.83 L832.168 261.83 L832.168 254.469 L836.451 254.469 Z" fill="#000000" fill-rule="nonzero" fill-opacity="1"></path><path clip-path="url(#clip230)" d="M872.377 272.108 L872.377 287.756 L868.117 287.756 L868.117 272.247 Q868.117 268.566 866.682 266.737 Q865.247 264.909 862.377 264.909 Q858.928 264.909 856.937 267.108 Q854.946 269.307 854.946 273.103 L854.946 287.756 L850.664 287.756 L850.664 251.737 L854.946 251.737 L854.946 265.858 Q856.474 263.52 858.534 262.362 Q860.617 261.205 863.326 261.205 Q867.793 261.205 870.085 263.983 Q872.377 266.737 872.377 272.108 Z" fill="#000000" fill-rule="nonzero" fill-opacity="1"></path><path clip-path="url(#clip230)" d="M896.589 253.196 L914.946 253.196 L914.946 257.131 L900.872 257.131 L900.872 265.603 Q901.89 265.256 902.909 265.094 Q903.927 264.909 904.946 264.909 Q910.733 264.909 914.112 268.08 Q917.492 271.251 917.492 276.668 Q917.492 282.246 914.02 285.348 Q910.548 288.427 904.228 288.427 Q902.052 288.427 899.784 288.057 Q897.538 287.686 895.131 286.946 L895.131 282.246 Q897.214 283.381 899.437 283.936 Q901.659 284.492 904.136 284.492 Q908.14 284.492 910.478 282.385 Q912.816 280.279 912.816 276.668 Q912.816 273.057 910.478 270.95 Q908.14 268.844 904.136 268.844 Q902.261 268.844 900.386 269.26 Q898.534 269.677 896.589 270.557 L896.589 253.196 Z" fill="#000000" fill-rule="nonzero" fill-opacity="1"></path></svg>