<svg xmlns="http://www.w3.org/2000/svg" xmlns:xlink="http://www.w3.org/1999/xlink" width="600" height="400" viewBox="0 0 2400 1600">
<defs>
  <clipPath id="clip270">
    <rect x="0" y="0" width="2400" height="1600"></rect>
  </clipPath>
</defs>
<path clip-path="url(#clip270)" d="M0 1600 L2400 1600 L2400 0 L0 0  Z" fill="#ffffff" fill-rule="evenodd" fill-opacity="1"></path>
<defs>
  <clipPath id="clip271">
    <rect x="480" y="0" width="1681" height="1600"></rect>
  </clipPath>
</defs>
<path clip-path="url(#clip270)" d="M235.283 1423.18 L2352.76 1423.18 L2352.76 123.472 L235.283 123.472  Z" fill="#ffffff" fill-rule="evenodd" fill-opacity="1"></path>
<defs>
  <clipPath id="clip272">
    <rect x="235" y="123" width="2118" height="1301"></rect>
  </clipPath>
</defs>
<polyline clip-path="url(#clip272)" style="stroke:#000000; stroke-linecap:round; stroke-linejoin:round; stroke-width:2; stroke-opacity:0.1; fill:none" points="610.624,1423.18 610.624,123.472 "></polyline>
<polyline clip-path="url(#clip272)" style="stroke:#000000; stroke-linecap:round; stroke-linejoin:round; stroke-width:2; stroke-opacity:0.1; fill:none" points="1031.18,1423.18 1031.18,123.472 "></polyline>
<polyline clip-path="url(#clip272)" style="stroke:#000000; stroke-linecap:round; stroke-linejoin:round; stroke-width:2; stroke-opacity:0.1; fill:none" points="1451.73,1423.18 1451.73,123.472 "></polyline>
<polyline clip-path="url(#clip272)" style="stroke:#000000; stroke-linecap:round; stroke-linejoin:round; stroke-width:2; stroke-opacity:0.1; fill:none" points="1872.28,1423.18 1872.28,123.472 "></polyline>
<polyline clip-path="url(#clip272)" style="stroke:#000000; stroke-linecap:round; stroke-linejoin:round; stroke-width:2; stroke-opacity:0.1; fill:none" points="2292.83,1423.18 2292.83,123.472 "></polyline>
<polyline clip-path="url(#clip270)" style="stroke:#000000; stroke-linecap:round; stroke-linejoin:round; stroke-width:4; stroke-opacity:1; fill:none" points="235.283,1423.18 2352.76,1423.18 "></polyline>
<polyline clip-path="url(#clip270)" style="stroke:#000000; stroke-linecap:round; stroke-linejoin:round; stroke-width:4; stroke-opacity:1; fill:none" points="610.624,1423.18 610.624,1404.28 "></polyline>
<polyline clip-path="url(#clip270)" style="stroke:#000000; stroke-linecap:round; stroke-linejoin:round; stroke-width:4; stroke-opacity:1; fill:none" points="1031.18,1423.18 1031.18,1404.28 "></polyline>
<polyline clip-path="url(#clip270)" style="stroke:#000000; stroke-linecap:round; stroke-linejoin:round; stroke-width:4; stroke-opacity:1; fill:none" points="1451.73,1423.18 1451.73,1404.28 "></polyline>
<polyline clip-path="url(#clip270)" style="stroke:#000000; stroke-linecap:round; stroke-linejoin:round; stroke-width:4; stroke-opacity:1; fill:none" points="1872.28,1423.18 1872.28,1404.28 "></polyline>
<polyline clip-path="url(#clip270)" style="stroke:#000000; stroke-linecap:round; stroke-linejoin:round; stroke-width:4; stroke-opacity:1; fill:none" points="2292.83,1423.18 2292.83,1404.28 "></polyline>
<path clip-path="url(#clip270)" d="M574.317 1481.64 L590.636 1481.64 L590.636 1485.58 L568.692 1485.58 L568.692 1481.64 Q571.354 1478.89 575.937 1474.26 Q580.544 1469.61 581.724 1468.27 Q583.969 1465.74 584.849 1464.01 Q585.752 1462.25 585.752 1460.56 Q585.752 1457.8 583.807 1456.07 Q581.886 1454.33 578.784 1454.33 Q576.585 1454.33 574.132 1455.09 Q571.701 1455.86 568.923 1457.41 L568.923 1452.69 Q571.747 1451.55 574.201 1450.97 Q576.655 1450.39 578.692 1450.39 Q584.062 1450.39 587.256 1453.08 Q590.451 1455.77 590.451 1460.26 Q590.451 1462.39 589.641 1464.31 Q588.854 1466.2 586.747 1468.8 Q586.169 1469.47 583.067 1472.69 Q579.965 1475.88 574.317 1481.64 Z" fill="#000000" fill-rule="nonzero" fill-opacity="1"></path><path clip-path="url(#clip270)" d="M610.451 1454.1 Q606.84 1454.1 605.011 1457.66 Q603.205 1461.2 603.205 1468.33 Q603.205 1475.44 605.011 1479.01 Q606.84 1482.55 610.451 1482.55 Q614.085 1482.55 615.891 1479.01 Q617.719 1475.44 617.719 1468.33 Q617.719 1461.2 615.891 1457.66 Q614.085 1454.1 610.451 1454.1 M610.451 1450.39 Q616.261 1450.39 619.316 1455 Q622.395 1459.58 622.395 1468.33 Q622.395 1477.06 619.316 1481.67 Q616.261 1486.25 610.451 1486.25 Q604.641 1486.25 601.562 1481.67 Q598.506 1477.06 598.506 1468.33 Q598.506 1459.58 601.562 1455 Q604.641 1450.39 610.451 1450.39 Z" fill="#000000" fill-rule="nonzero" fill-opacity="1"></path><path clip-path="url(#clip270)" d="M640.613 1454.1 Q637.002 1454.1 635.173 1457.66 Q633.367 1461.2 633.367 1468.33 Q633.367 1475.44 635.173 1479.01 Q637.002 1482.55 640.613 1482.55 Q644.247 1482.55 646.052 1479.01 Q647.881 1475.44 647.881 1468.33 Q647.881 1461.2 646.052 1457.66 Q644.247 1454.1 640.613 1454.1 M640.613 1450.39 Q646.423 1450.39 649.478 1455 Q652.557 1459.58 652.557 1468.33 Q652.557 1477.06 649.478 1481.67 Q646.423 1486.25 640.613 1486.25 Q634.803 1486.25 631.724 1481.67 Q628.668 1477.06 628.668 1468.33 Q628.668 1459.58 631.724 1455 Q634.803 1450.39 640.613 1450.39 Z" fill="#000000" fill-rule="nonzero" fill-opacity="1"></path><path clip-path="url(#clip270)" d="M1004.27 1455.09 L992.46 1473.54 L1004.27 1473.54 L1004.27 1455.09 M1003.04 1451.02 L1008.92 1451.02 L1008.92 1473.54 L1013.85 1473.54 L1013.85 1477.43 L1008.92 1477.43 L1008.92 1485.58 L1004.27 1485.58 L1004.27 1477.43 L988.664 1477.43 L988.664 1472.92 L1003.04 1451.02 Z" fill="#000000" fill-rule="nonzero" fill-opacity="1"></path><path clip-path="url(#clip270)" d="M1031.58 1454.1 Q1027.97 1454.1 1026.14 1457.66 Q1024.33 1461.2 1024.33 1468.33 Q1024.33 1475.44 1026.14 1479.01 Q1027.97 1482.55 1031.58 1482.55 Q1035.21 1482.55 1037.02 1479.01 Q1038.85 1475.44 1038.85 1468.33 Q1038.85 1461.2 1037.02 1457.66 Q1035.21 1454.1 1031.58 1454.1 M1031.58 1450.39 Q1037.39 1450.39 1040.45 1455 Q1043.52 1459.58 1043.52 1468.33 Q1043.52 1477.06 1040.45 1481.67 Q1037.39 1486.25 1031.58 1486.25 Q1025.77 1486.25 1022.69 1481.67 Q1019.64 1477.06 1019.64 1468.33 Q1019.64 1459.58 1022.69 1455 Q1025.77 1450.39 1031.58 1450.39 Z" fill="#000000" fill-rule="nonzero" fill-opacity="1"></path><path clip-path="url(#clip270)" d="M1061.74 1454.1 Q1058.13 1454.1 1056.3 1457.66 Q1054.5 1461.2 1054.5 1468.33 Q1054.5 1475.44 1056.3 1479.01 Q1058.13 1482.55 1061.74 1482.55 Q1065.38 1482.55 1067.18 1479.01 Q1069.01 1475.44 1069.01 1468.33 Q1069.01 1461.2 1067.18 1457.66 Q1065.38 1454.1 1061.74 1454.1 M1061.74 1450.39 Q1067.55 1450.39 1070.61 1455 Q1073.69 1459.58 1073.69 1468.33 Q1073.69 1477.06 1070.61 1481.67 Q1067.55 1486.25 1061.74 1486.25 Q1055.93 1486.25 1052.85 1481.67 Q1049.8 1477.06 1049.8 1468.33 Q1049.8 1459.58 1052.85 1455 Q1055.93 1450.39 1061.74 1450.39 Z" fill="#000000" fill-rule="nonzero" fill-opacity="1"></path><path clip-path="url(#clip270)" d="M1422.05 1466.44 Q1418.9 1466.44 1417.05 1468.59 Q1415.22 1470.74 1415.22 1474.49 Q1415.22 1478.22 1417.05 1480.39 Q1418.9 1482.55 1422.05 1482.55 Q1425.2 1482.55 1427.03 1480.39 Q1428.88 1478.22 1428.88 1474.49 Q1428.88 1470.74 1427.03 1468.59 Q1425.2 1466.44 1422.05 1466.44 M1431.33 1451.78 L1431.33 1456.04 Q1429.57 1455.21 1427.77 1454.77 Q1425.99 1454.33 1424.23 1454.33 Q1419.6 1454.33 1417.14 1457.45 Q1414.71 1460.58 1414.37 1466.9 Q1415.73 1464.89 1417.79 1463.82 Q1419.85 1462.73 1422.33 1462.73 Q1427.54 1462.73 1430.55 1465.9 Q1433.58 1469.05 1433.58 1474.49 Q1433.58 1479.82 1430.43 1483.03 Q1427.28 1486.25 1422.05 1486.25 Q1416.05 1486.25 1412.88 1481.67 Q1409.71 1477.06 1409.71 1468.33 Q1409.71 1460.14 1413.6 1455.28 Q1417.49 1450.39 1424.04 1450.39 Q1425.8 1450.39 1427.58 1450.74 Q1429.39 1451.09 1431.33 1451.78 Z" fill="#000000" fill-rule="nonzero" fill-opacity="1"></path><path clip-path="url(#clip270)" d="M1451.63 1454.1 Q1448.02 1454.1 1446.19 1457.66 Q1444.39 1461.2 1444.39 1468.33 Q1444.39 1475.44 1446.19 1479.01 Q1448.02 1482.55 1451.63 1482.55 Q1455.27 1482.55 1457.07 1479.01 Q1458.9 1475.44 1458.9 1468.33 Q1458.9 1461.2 1457.07 1457.66 Q1455.27 1454.1 1451.63 1454.1 M1451.63 1450.39 Q1457.44 1450.39 1460.5 1455 Q1463.58 1459.58 1463.58 1468.33 Q1463.58 1477.06 1460.5 1481.67 Q1457.44 1486.25 1451.63 1486.25 Q1445.82 1486.25 1442.74 1481.67 Q1439.69 1477.06 1439.69 1468.33 Q1439.69 1459.58 1442.74 1455 Q1445.82 1450.39 1451.63 1450.39 Z" fill="#000000" fill-rule="nonzero" fill-opacity="1"></path><path clip-path="url(#clip270)" d="M1481.8 1454.1 Q1478.18 1454.1 1476.36 1457.66 Q1474.55 1461.2 1474.55 1468.33 Q1474.55 1475.44 1476.36 1479.01 Q1478.18 1482.55 1481.8 1482.55 Q1485.43 1482.55 1487.23 1479.01 Q1489.06 1475.44 1489.06 1468.33 Q1489.06 1461.2 1487.23 1457.66 Q1485.43 1454.1 1481.8 1454.1 M1481.8 1450.39 Q1487.61 1450.39 1490.66 1455 Q1493.74 1459.58 1493.74 1468.33 Q1493.74 1477.06 1490.66 1481.67 Q1487.61 1486.25 1481.8 1486.25 Q1475.99 1486.25 1472.91 1481.67 Q1469.85 1477.06 1469.85 1468.33 Q1469.85 1459.58 1472.91 1455 Q1475.99 1450.39 1481.8 1450.39 Z" fill="#000000" fill-rule="nonzero" fill-opacity="1"></path><path clip-path="url(#clip270)" d="M1842.07 1469.17 Q1838.74 1469.17 1836.81 1470.95 Q1834.92 1472.73 1834.92 1475.86 Q1834.92 1478.98 1836.81 1480.77 Q1838.74 1482.55 1842.07 1482.55 Q1845.4 1482.55 1847.32 1480.77 Q1849.24 1478.96 1849.24 1475.86 Q1849.24 1472.73 1847.32 1470.95 Q1845.42 1469.17 1842.07 1469.17 M1837.39 1467.18 Q1834.38 1466.44 1832.69 1464.38 Q1831.03 1462.32 1831.03 1459.35 Q1831.03 1455.21 1833.97 1452.8 Q1836.93 1450.39 1842.07 1450.39 Q1847.23 1450.39 1850.17 1452.8 Q1853.11 1455.21 1853.11 1459.35 Q1853.11 1462.32 1851.42 1464.38 Q1849.75 1466.44 1846.77 1467.18 Q1850.15 1467.96 1852.02 1470.26 Q1853.92 1472.55 1853.92 1475.86 Q1853.92 1480.88 1850.84 1483.57 Q1847.79 1486.25 1842.07 1486.25 Q1836.35 1486.25 1833.27 1483.57 Q1830.22 1480.88 1830.22 1475.86 Q1830.22 1472.55 1832.11 1470.26 Q1834.01 1467.96 1837.39 1467.18 M1835.68 1459.79 Q1835.68 1462.48 1837.35 1463.98 Q1839.04 1465.49 1842.07 1465.49 Q1845.08 1465.49 1846.77 1463.98 Q1848.48 1462.48 1848.48 1459.79 Q1848.48 1457.11 1846.77 1455.6 Q1845.08 1454.1 1842.07 1454.1 Q1839.04 1454.1 1837.35 1455.6 Q1835.68 1457.11 1835.68 1459.79 Z" fill="#000000" fill-rule="nonzero" fill-opacity="1"></path><path clip-path="url(#clip270)" d="M1872.23 1454.1 Q1868.62 1454.1 1866.79 1457.66 Q1864.99 1461.2 1864.99 1468.33 Q1864.99 1475.44 1866.79 1479.01 Q1868.62 1482.55 1872.23 1482.55 Q1875.86 1482.55 1877.67 1479.01 Q1879.5 1475.44 1879.5 1468.33 Q1879.5 1461.2 1877.67 1457.66 Q1875.86 1454.1 1872.23 1454.1 M1872.23 1450.39 Q1878.04 1450.39 1881.1 1455 Q1884.17 1459.58 1884.17 1468.33 Q1884.17 1477.06 1881.1 1481.67 Q1878.04 1486.25 1872.23 1486.25 Q1866.42 1486.25 1863.34 1481.67 Q1860.29 1477.06 1860.29 1468.33 Q1860.29 1459.58 1863.34 1455 Q1866.42 1450.39 1872.23 1450.39 Z" fill="#000000" fill-rule="nonzero" fill-opacity="1"></path><path clip-path="url(#clip270)" d="M1902.39 1454.1 Q1898.78 1454.1 1896.95 1457.66 Q1895.15 1461.2 1895.15 1468.33 Q1895.15 1475.44 1896.95 1479.01 Q1898.78 1482.55 1902.39 1482.55 Q1906.03 1482.55 1907.83 1479.01 Q1909.66 1475.44 1909.66 1468.33 Q1909.66 1461.2 1907.83 1457.66 Q1906.03 1454.1 1902.39 1454.1 M1902.39 1450.39 Q1908.2 1450.39 1911.26 1455 Q1914.34 1459.58 1914.34 1468.33 Q1914.34 1477.06 1911.26 1481.67 Q1908.2 1486.25 1902.39 1486.25 Q1896.58 1486.25 1893.5 1481.67 Q1890.45 1477.06 1890.45 1468.33 Q1890.45 1459.58 1893.5 1455 Q1896.58 1450.39 1902.39 1450.39 Z" fill="#000000" fill-rule="nonzero" fill-opacity="1"></path><path clip-path="url(#clip270)" d="M2237.35 1481.64 L2244.99 1481.64 L2244.99 1455.28 L2236.68 1456.95 L2236.68 1452.69 L2244.95 1451.02 L2249.62 1451.02 L2249.62 1481.64 L2257.26 1481.64 L2257.26 1485.58 L2237.35 1485.58 L2237.35 1481.64 Z" fill="#000000" fill-rule="nonzero" fill-opacity="1"></path><path clip-path="url(#clip270)" d="M2276.7 1454.1 Q2273.09 1454.1 2271.27 1457.66 Q2269.46 1461.2 2269.46 1468.33 Q2269.46 1475.44 2271.27 1479.01 Q2273.09 1482.55 2276.7 1482.55 Q2280.34 1482.55 2282.14 1479.01 Q2283.97 1475.44 2283.97 1468.33 Q2283.97 1461.2 2282.14 1457.66 Q2280.34 1454.1 2276.7 1454.1 M2276.7 1450.39 Q2282.51 1450.39 2285.57 1455 Q2288.65 1459.58 2288.65 1468.33 Q2288.65 1477.06 2285.57 1481.67 Q2282.51 1486.25 2276.7 1486.25 Q2270.89 1486.25 2267.82 1481.67 Q2264.76 1477.06 2264.76 1468.33 Q2264.76 1459.58 2267.82 1455 Q2270.89 1450.39 2276.7 1450.39 Z" fill="#000000" fill-rule="nonzero" fill-opacity="1"></path><path clip-path="url(#clip270)" d="M2306.87 1454.1 Q2303.26 1454.1 2301.43 1457.66 Q2299.62 1461.2 2299.62 1468.33 Q2299.62 1475.44 2301.43 1479.01 Q2303.26 1482.55 2306.87 1482.55 Q2310.5 1482.55 2312.31 1479.01 Q2314.14 1475.44 2314.14 1468.33 Q2314.14 1461.2 2312.31 1457.66 Q2310.5 1454.1 2306.87 1454.1 M2306.87 1450.39 Q2312.68 1450.39 2315.73 1455 Q2318.81 1459.58 2318.81 1468.33 Q2318.81 1477.06 2315.73 1481.67 Q2312.68 1486.25 2306.87 1486.25 Q2301.06 1486.25 2297.98 1481.67 Q2294.92 1477.06 2294.92 1468.33 Q2294.92 1459.58 2297.98 1455 Q2301.06 1450.39 2306.87 1450.39 Z" fill="#000000" fill-rule="nonzero" fill-opacity="1"></path><path clip-path="url(#clip270)" d="M2337.03 1454.1 Q2333.42 1454.1 2331.59 1457.66 Q2329.78 1461.2 2329.78 1468.33 Q2329.78 1475.44 2331.59 1479.01 Q2333.42 1482.55 2337.03 1482.55 Q2340.66 1482.55 2342.47 1479.01 Q2344.3 1475.44 2344.3 1468.33 Q2344.3 1461.2 2342.47 1457.66 Q2340.66 1454.1 2337.03 1454.1 M2337.03 1450.39 Q2342.84 1450.39 2345.89 1455 Q2348.97 1459.58 2348.97 1468.33 Q2348.97 1477.06 2345.89 1481.67 Q2342.84 1486.25 2337.03 1486.25 Q2331.22 1486.25 2328.14 1481.67 Q2325.08 1477.06 2325.08 1468.33 Q2325.08 1459.58 2328.14 1455 Q2331.22 1450.39 2337.03 1450.39 Z" fill="#000000" fill-rule="nonzero" fill-opacity="1"></path><path clip-path="url(#clip270)" d="M1033.2 1520.52 L1041.86 1520.52 L1062.93 1560.28 L1062.93 1520.52 L1069.17 1520.52 L1069.17 1568.04 L1060.51 1568.04 L1039.44 1528.29 L1039.44 1568.04 L1033.2 1568.04 L1033.2 1520.52 Z" fill="#000000" fill-rule="nonzero" fill-opacity="1"></path><path clip-path="url(#clip270)" d="M1081.1 1553.98 L1081.1 1532.4 L1086.96 1532.4 L1086.96 1553.75 Q1086.96 1558.81 1088.93 1561.36 Q1090.91 1563.87 1094.85 1563.87 Q1099.59 1563.87 1102.33 1560.85 Q1105.1 1557.83 1105.1 1552.61 L1105.1 1532.4 L1110.96 1532.4 L1110.96 1568.04 L1105.1 1568.04 L1105.1 1562.57 Q1102.97 1565.82 1100.14 1567.41 Q1097.33 1568.97 1093.61 1568.97 Q1087.47 1568.97 1084.29 1565.15 Q1081.1 1561.33 1081.1 1553.98 M1095.84 1531.54 L1095.84 1531.54 Z" fill="#000000" fill-rule="nonzero" fill-opacity="1"></path><path clip-path="url(#clip270)" d="M1150.78 1539.24 Q1152.97 1535.29 1156.03 1533.41 Q1159.08 1531.54 1163.22 1531.54 Q1168.79 1531.54 1171.81 1535.45 Q1174.84 1539.33 1174.84 1546.53 L1174.84 1568.04 L1168.95 1568.04 L1168.95 1546.72 Q1168.95 1541.59 1167.13 1539.11 Q1165.32 1536.63 1161.6 1536.63 Q1157.05 1536.63 1154.4 1539.65 Q1151.76 1542.68 1151.76 1547.9 L1151.76 1568.04 L1145.87 1568.04 L1145.87 1546.72 Q1145.87 1541.56 1144.06 1539.11 Q1142.25 1536.63 1138.46 1536.63 Q1133.97 1536.63 1131.33 1539.68 Q1128.69 1542.71 1128.69 1547.9 L1128.69 1568.04 L1122.8 1568.04 L1122.8 1532.4 L1128.69 1532.4 L1128.69 1537.93 Q1130.69 1534.66 1133.49 1533.1 Q1136.29 1531.54 1140.14 1531.54 Q1144.03 1531.54 1146.73 1533.51 Q1149.47 1535.48 1150.78 1539.24 Z" fill="#000000" fill-rule="nonzero" fill-opacity="1"></path><path clip-path="url(#clip270)" d="M1212.11 1550.25 Q1212.11 1543.79 1209.44 1540.13 Q1206.79 1536.44 1202.15 1536.44 Q1197.5 1536.44 1194.83 1540.13 Q1192.18 1543.79 1192.18 1550.25 Q1192.18 1556.71 1194.83 1560.4 Q1197.5 1564.07 1202.15 1564.07 Q1206.79 1564.07 1209.44 1560.4 Q1212.11 1556.71 1212.11 1550.25 M1192.18 1537.81 Q1194.03 1534.62 1196.83 1533.1 Q1199.66 1531.54 1203.58 1531.54 Q1210.07 1531.54 1214.11 1536.69 Q1218.19 1541.85 1218.19 1550.25 Q1218.19 1558.65 1214.11 1563.81 Q1210.07 1568.97 1203.58 1568.97 Q1199.66 1568.97 1196.83 1567.44 Q1194.03 1565.88 1192.18 1562.7 L1192.18 1568.04 L1186.3 1568.04 L1186.3 1518.52 L1192.18 1518.52 L1192.18 1537.81 Z" fill="#000000" fill-rule="nonzero" fill-opacity="1"></path><path clip-path="url(#clip270)" d="M1258.39 1548.76 L1258.39 1551.62 L1231.46 1551.62 Q1231.84 1557.67 1235.09 1560.85 Q1238.37 1564 1244.19 1564 Q1247.57 1564 1250.72 1563.17 Q1253.9 1562.35 1257.02 1560.69 L1257.02 1566.23 Q1253.87 1567.57 1250.56 1568.27 Q1247.25 1568.97 1243.84 1568.97 Q1235.31 1568.97 1230.31 1564 Q1225.35 1559.04 1225.35 1550.57 Q1225.35 1541.82 1230.06 1536.69 Q1234.8 1531.54 1242.82 1531.54 Q1250.02 1531.54 1254.19 1536.18 Q1258.39 1540.8 1258.39 1548.76 M1252.53 1547.04 Q1252.47 1542.23 1249.83 1539.37 Q1247.22 1536.5 1242.89 1536.5 Q1237.99 1536.5 1235.03 1539.27 Q1232.1 1542.04 1231.65 1547.07 L1252.53 1547.04 Z" fill="#000000" fill-rule="nonzero" fill-opacity="1"></path><path clip-path="url(#clip270)" d="M1288.66 1537.87 Q1287.67 1537.3 1286.49 1537.04 Q1285.35 1536.76 1283.95 1536.76 Q1278.98 1536.76 1276.31 1540 Q1273.67 1543.22 1273.67 1549.27 L1273.67 1568.04 L1267.78 1568.04 L1267.78 1532.4 L1273.67 1532.4 L1273.67 1537.93 Q1275.51 1534.69 1278.47 1533.13 Q1281.43 1531.54 1285.66 1531.54 Q1286.27 1531.54 1287 1531.63 Q1287.73 1531.7 1288.62 1531.85 L1288.66 1537.87 Z" fill="#000000" fill-rule="nonzero" fill-opacity="1"></path><path clip-path="url(#clip270)" d="M1329.33 1536.5 Q1324.62 1536.5 1321.89 1540.19 Q1319.15 1543.85 1319.15 1550.25 Q1319.15 1556.65 1321.85 1560.34 Q1324.59 1564 1329.33 1564 Q1334.01 1564 1336.75 1560.31 Q1339.49 1556.62 1339.49 1550.25 Q1339.49 1543.92 1336.75 1540.23 Q1334.01 1536.5 1329.33 1536.5 M1329.33 1531.54 Q1336.97 1531.54 1341.33 1536.5 Q1345.69 1541.47 1345.69 1550.25 Q1345.69 1559 1341.33 1564 Q1336.97 1568.97 1329.33 1568.97 Q1321.66 1568.97 1317.3 1564 Q1312.97 1559 1312.97 1550.25 Q1312.97 1541.47 1317.3 1536.5 Q1321.66 1531.54 1329.33 1531.54 Z" fill="#000000" fill-rule="nonzero" fill-opacity="1"></path><path clip-path="url(#clip270)" d="M1373.45 1518.52 L1373.45 1523.39 L1367.85 1523.39 Q1364.69 1523.39 1363.45 1524.66 Q1362.24 1525.93 1362.24 1529.24 L1362.24 1532.4 L1371.89 1532.4 L1371.89 1536.95 L1362.24 1536.95 L1362.24 1568.04 L1356.36 1568.04 L1356.36 1536.95 L1350.75 1536.95 L1350.75 1532.4 L1356.36 1532.4 L1356.36 1529.91 Q1356.36 1523.96 1359.12 1521.26 Q1361.89 1518.52 1367.91 1518.52 L1373.45 1518.52 Z" fill="#000000" fill-rule="nonzero" fill-opacity="1"></path><path clip-path="url(#clip270)" d="M1404.86 1522.27 L1404.86 1532.4 L1416.93 1532.4 L1416.93 1536.95 L1404.86 1536.95 L1404.86 1556.3 Q1404.86 1560.66 1406.04 1561.9 Q1407.25 1563.14 1410.91 1563.14 L1416.93 1563.14 L1416.93 1568.04 L1410.91 1568.04 Q1404.13 1568.04 1401.55 1565.53 Q1398.97 1562.98 1398.97 1556.3 L1398.97 1536.95 L1394.68 1536.95 L1394.68 1532.4 L1398.97 1532.4 L1398.97 1522.27 L1404.86 1522.27 Z" fill="#000000" fill-rule="nonzero" fill-opacity="1"></path><path clip-path="url(#clip270)" d="M1445.28 1537.87 Q1444.3 1537.3 1443.12 1537.04 Q1441.97 1536.76 1440.57 1536.76 Q1435.61 1536.76 1432.94 1540 Q1430.29 1543.22 1430.29 1549.27 L1430.29 1568.04 L1424.4 1568.04 L1424.4 1532.4 L1430.29 1532.4 L1430.29 1537.93 Q1432.14 1534.69 1435.1 1533.13 Q1438.06 1531.54 1442.29 1531.54 Q1442.9 1531.54 1443.63 1531.63 Q1444.36 1531.7 1445.25 1531.85 L1445.28 1537.87 Z" fill="#000000" fill-rule="nonzero" fill-opacity="1"></path><path clip-path="url(#clip270)" d="M1480.49 1548.76 L1480.49 1551.62 L1453.56 1551.62 Q1453.94 1557.67 1457.19 1560.85 Q1460.47 1564 1466.29 1564 Q1469.67 1564 1472.82 1563.17 Q1476 1562.35 1479.12 1560.69 L1479.12 1566.23 Q1475.97 1567.57 1472.66 1568.27 Q1469.35 1568.97 1465.94 1568.97 Q1457.41 1568.97 1452.41 1564 Q1447.45 1559.04 1447.45 1550.57 Q1447.45 1541.82 1452.16 1536.69 Q1456.9 1531.54 1464.92 1531.54 Q1472.12 1531.54 1476.29 1536.18 Q1480.49 1540.8 1480.49 1548.76 M1474.63 1547.04 Q1474.57 1542.23 1471.92 1539.37 Q1469.32 1536.5 1464.99 1536.5 Q1460.08 1536.5 1457.12 1539.27 Q1454.2 1542.04 1453.75 1547.07 L1474.63 1547.04 Z" fill="#000000" fill-rule="nonzero" fill-opacity="1"></path><path clip-path="url(#clip270)" d="M1520.59 1548.76 L1520.59 1551.62 L1493.66 1551.62 Q1494.05 1557.67 1497.29 1560.85 Q1500.57 1564 1506.4 1564 Q1509.77 1564 1512.92 1563.17 Q1516.1 1562.35 1519.22 1560.69 L1519.22 1566.23 Q1516.07 1567.57 1512.76 1568.27 Q1509.45 1568.97 1506.05 1568.97 Q1497.52 1568.97 1492.52 1564 Q1487.55 1559.04 1487.55 1550.57 Q1487.55 1541.82 1492.26 1536.69 Q1497.01 1531.54 1505.03 1531.54 Q1512.22 1531.54 1516.39 1536.18 Q1520.59 1540.8 1520.59 1548.76 M1514.73 1547.04 Q1514.67 1542.23 1512.03 1539.37 Q1509.42 1536.5 1505.09 1536.5 Q1500.19 1536.5 1497.23 1539.27 Q1494.3 1542.04 1493.85 1547.07 L1514.73 1547.04 Z" fill="#000000" fill-rule="nonzero" fill-opacity="1"></path><path clip-path="url(#clip270)" d="M1552.93 1533.45 L1552.93 1538.98 Q1550.45 1537.71 1547.77 1537.07 Q1545.1 1536.44 1542.23 1536.44 Q1537.87 1536.44 1535.68 1537.77 Q1533.51 1539.11 1533.51 1541.79 Q1533.51 1543.82 1535.07 1545 Q1536.63 1546.15 1541.34 1547.2 L1543.35 1547.64 Q1549.59 1548.98 1552.2 1551.43 Q1554.84 1553.85 1554.84 1558.21 Q1554.84 1563.17 1550.89 1566.07 Q1546.98 1568.97 1540.1 1568.97 Q1537.24 1568.97 1534.12 1568.39 Q1531.03 1567.85 1527.59 1566.74 L1527.59 1560.69 Q1530.84 1562.38 1533.99 1563.24 Q1537.14 1564.07 1540.23 1564.07 Q1544.37 1564.07 1546.59 1562.66 Q1548.82 1561.23 1548.82 1558.65 Q1548.82 1556.27 1547.2 1554.99 Q1545.61 1553.72 1540.17 1552.54 L1538.13 1552.07 Q1532.69 1550.92 1530.27 1548.56 Q1527.85 1546.18 1527.85 1542.04 Q1527.85 1537.01 1531.41 1534.27 Q1534.98 1531.54 1541.53 1531.54 Q1544.78 1531.54 1547.65 1532.01 Q1550.51 1532.49 1552.93 1533.45 Z" fill="#000000" fill-rule="nonzero" fill-opacity="1"></path><polyline clip-path="url(#clip272)" style="stroke:#000000; stroke-linecap:round; stroke-linejoin:round; stroke-width:2; stroke-opacity:0.1; fill:none" points="235.283,1387.01 2352.76,1387.01 "></polyline>
<polyline clip-path="url(#clip272)" style="stroke:#000000; stroke-linecap:round; stroke-linejoin:round; stroke-width:2; stroke-opacity:0.1; fill:none" points="235.283,1101.43 2352.76,1101.43 "></polyline>
<polyline clip-path="url(#clip272)" style="stroke:#000000; stroke-linecap:round; stroke-linejoin:round; stroke-width:2; stroke-opacity:0.1; fill:none" points="235.283,815.854 2352.76,815.854 "></polyline>
<polyline clip-path="url(#clip272)" style="stroke:#000000; stroke-linecap:round; stroke-linejoin:round; stroke-width:2; stroke-opacity:0.1; fill:none" points="235.283,530.274 2352.76,530.274 "></polyline>
<polyline clip-path="url(#clip272)" style="stroke:#000000; stroke-linecap:round; stroke-linejoin:round; stroke-width:2; stroke-opacity:0.1; fill:none" points="235.283,244.695 2352.76,244.695 "></polyline>
<polyline clip-path="url(#clip270)" style="stroke:#000000; stroke-linecap:round; stroke-linejoin:round; stroke-width:4; stroke-opacity:1; fill:none" points="235.283,1423.18 235.283,123.472 "></polyline>
<polyline clip-path="url(#clip270)" style="stroke:#000000; stroke-linecap:round; stroke-linejoin:round; stroke-width:4; stroke-opacity:1; fill:none" points="235.283,1387.01 254.18,1387.01 "></polyline>
<polyline clip-path="url(#clip270)" style="stroke:#000000; stroke-linecap:round; stroke-linejoin:round; stroke-width:4; stroke-opacity:1; fill:none" points="235.283,1101.43 254.18,1101.43 "></polyline>
<polyline clip-path="url(#clip270)" style="stroke:#000000; stroke-linecap:round; stroke-linejoin:round; stroke-width:4; stroke-opacity:1; fill:none" points="235.283,815.854 254.18,815.854 "></polyline>
<polyline clip-path="url(#clip270)" style="stroke:#000000; stroke-linecap:round; stroke-linejoin:round; stroke-width:4; stroke-opacity:1; fill:none" points="235.283,530.274 254.18,530.274 "></polyline>
<polyline clip-path="url(#clip270)" style="stroke:#000000; stroke-linecap:round; stroke-linejoin:round; stroke-width:4; stroke-opacity:1; fill:none" points="235.283,244.695 254.18,244.695 "></polyline>
<path clip-path="url(#clip270)" d="M187.338 1372.81 Q183.727 1372.81 181.899 1376.38 Q180.093 1379.92 180.093 1387.05 Q180.093 1394.15 181.899 1397.72 Q183.727 1401.26 187.338 1401.26 Q190.973 1401.26 192.778 1397.72 Q194.607 1394.15 194.607 1387.05 Q194.607 1379.92 192.778 1376.38 Q190.973 1372.81 187.338 1372.81 M187.338 1369.11 Q193.149 1369.11 196.204 1373.71 Q199.283 1378.3 199.283 1387.05 Q199.283 1395.77 196.204 1400.38 Q193.149 1404.96 187.338 1404.96 Q181.528 1404.96 178.45 1400.38 Q175.394 1395.77 175.394 1387.05 Q175.394 1378.3 178.45 1373.71 Q181.528 1369.11 187.338 1369.11 Z" fill="#000000" fill-rule="nonzero" fill-opacity="1"></path><path clip-path="url(#clip270)" d="M121.043 1114.78 L137.362 1114.78 L137.362 1118.71 L115.418 1118.71 L115.418 1114.78 Q118.08 1112.02 122.663 1107.39 Q127.269 1102.74 128.45 1101.4 Q130.695 1098.88 131.575 1097.14 Q132.478 1095.38 132.478 1093.69 Q132.478 1090.94 130.533 1089.2 Q128.612 1087.46 125.51 1087.46 Q123.311 1087.46 120.857 1088.23 Q118.427 1088.99 115.649 1090.54 L115.649 1085.82 Q118.473 1084.69 120.927 1084.11 Q123.38 1083.53 125.418 1083.53 Q130.788 1083.53 133.982 1086.21 Q137.177 1088.9 137.177 1093.39 Q137.177 1095.52 136.367 1097.44 Q135.579 1099.34 133.473 1101.93 Q132.894 1102.6 129.792 1105.82 Q126.691 1109.01 121.043 1114.78 Z" fill="#000000" fill-rule="nonzero" fill-opacity="1"></path><path clip-path="url(#clip270)" d="M157.177 1087.23 Q153.566 1087.23 151.737 1090.8 Q149.931 1094.34 149.931 1101.47 Q149.931 1108.57 151.737 1112.14 Q153.566 1115.68 157.177 1115.68 Q160.811 1115.68 162.616 1112.14 Q164.445 1108.57 164.445 1101.47 Q164.445 1094.34 162.616 1090.8 Q160.811 1087.23 157.177 1087.23 M157.177 1083.53 Q162.987 1083.53 166.042 1088.13 Q169.121 1092.72 169.121 1101.47 Q169.121 1110.19 166.042 1114.8 Q162.987 1119.38 157.177 1119.38 Q151.366 1119.38 148.288 1114.8 Q145.232 1110.19 145.232 1101.47 Q145.232 1092.72 148.288 1088.13 Q151.366 1083.53 157.177 1083.53 Z" fill="#000000" fill-rule="nonzero" fill-opacity="1"></path><path clip-path="url(#clip270)" d="M187.338 1087.23 Q183.727 1087.23 181.899 1090.8 Q180.093 1094.34 180.093 1101.47 Q180.093 1108.57 181.899 1112.14 Q183.727 1115.68 187.338 1115.68 Q190.973 1115.68 192.778 1112.14 Q194.607 1108.57 194.607 1101.47 Q194.607 1094.34 192.778 1090.8 Q190.973 1087.23 187.338 1087.23 M187.338 1083.53 Q193.149 1083.53 196.204 1088.13 Q199.283 1092.72 199.283 1101.47 Q199.283 1110.19 196.204 1114.8 Q193.149 1119.38 187.338 1119.38 Q181.528 1119.38 178.45 1114.8 Q175.394 1110.19 175.394 1101.47 Q175.394 1092.72 178.45 1088.13 Q181.528 1083.53 187.338 1083.53 Z" fill="#000000" fill-rule="nonzero" fill-opacity="1"></path><path clip-path="url(#clip270)" d="M129.862 802.648 L118.056 821.097 L129.862 821.097 L129.862 802.648 M128.635 798.574 L134.515 798.574 L134.515 821.097 L139.445 821.097 L139.445 824.986 L134.515 824.986 L134.515 833.134 L129.862 833.134 L129.862 824.986 L114.26 824.986 L114.26 820.472 L128.635 798.574 Z" fill="#000000" fill-rule="nonzero" fill-opacity="1"></path><path clip-path="url(#clip270)" d="M157.177 801.652 Q153.566 801.652 151.737 805.217 Q149.931 808.759 149.931 815.888 Q149.931 822.995 151.737 826.56 Q153.566 830.101 157.177 830.101 Q160.811 830.101 162.616 826.56 Q164.445 822.995 164.445 815.888 Q164.445 808.759 162.616 805.217 Q160.811 801.652 157.177 801.652 M157.177 797.949 Q162.987 797.949 166.042 802.555 Q169.121 807.139 169.121 815.888 Q169.121 824.615 166.042 829.222 Q162.987 833.805 157.177 833.805 Q151.366 833.805 148.288 829.222 Q145.232 824.615 145.232 815.888 Q145.232 807.139 148.288 802.555 Q151.366 797.949 157.177 797.949 Z" fill="#000000" fill-rule="nonzero" fill-opacity="1"></path><path clip-path="url(#clip270)" d="M187.338 801.652 Q183.727 801.652 181.899 805.217 Q180.093 808.759 180.093 815.888 Q180.093 822.995 181.899 826.56 Q183.727 830.101 187.338 830.101 Q190.973 830.101 192.778 826.56 Q194.607 822.995 194.607 815.888 Q194.607 808.759 192.778 805.217 Q190.973 801.652 187.338 801.652 M187.338 797.949 Q193.149 797.949 196.204 802.555 Q199.283 807.139 199.283 815.888 Q199.283 824.615 196.204 829.222 Q193.149 833.805 187.338 833.805 Q181.528 833.805 178.45 829.222 Q175.394 824.615 175.394 815.888 Q175.394 807.139 178.45 802.555 Q181.528 797.949 187.338 797.949 Z" fill="#000000" fill-rule="nonzero" fill-opacity="1"></path><path clip-path="url(#clip270)" d="M127.593 528.411 Q124.445 528.411 122.593 530.564 Q120.765 532.717 120.765 536.467 Q120.765 540.193 122.593 542.369 Q124.445 544.522 127.593 544.522 Q130.742 544.522 132.57 542.369 Q134.422 540.193 134.422 536.467 Q134.422 532.717 132.57 530.564 Q130.742 528.411 127.593 528.411 M136.876 513.758 L136.876 518.018 Q135.117 517.184 133.311 516.744 Q131.529 516.305 129.769 516.305 Q125.14 516.305 122.686 519.43 Q120.255 522.555 119.908 528.874 Q121.274 526.86 123.334 525.795 Q125.394 524.707 127.871 524.707 Q133.08 524.707 136.089 527.879 Q139.121 531.027 139.121 536.467 Q139.121 541.791 135.973 545.008 Q132.825 548.226 127.593 548.226 Q121.598 548.226 118.427 543.642 Q115.256 539.036 115.256 530.309 Q115.256 522.115 119.144 517.254 Q123.033 512.369 129.584 512.369 Q131.343 512.369 133.126 512.717 Q134.931 513.064 136.876 513.758 Z" fill="#000000" fill-rule="nonzero" fill-opacity="1"></path><path clip-path="url(#clip270)" d="M157.177 516.073 Q153.566 516.073 151.737 519.638 Q149.931 523.18 149.931 530.309 Q149.931 537.416 151.737 540.98 Q153.566 544.522 157.177 544.522 Q160.811 544.522 162.616 540.98 Q164.445 537.416 164.445 530.309 Q164.445 523.18 162.616 519.638 Q160.811 516.073 157.177 516.073 M157.177 512.369 Q162.987 512.369 166.042 516.976 Q169.121 521.559 169.121 530.309 Q169.121 539.036 166.042 543.642 Q162.987 548.226 157.177 548.226 Q151.366 548.226 148.288 543.642 Q145.232 539.036 145.232 530.309 Q145.232 521.559 148.288 516.976 Q151.366 512.369 157.177 512.369 Z" fill="#000000" fill-rule="nonzero" fill-opacity="1"></path><path clip-path="url(#clip270)" d="M187.338 516.073 Q183.727 516.073 181.899 519.638 Q180.093 523.18 180.093 530.309 Q180.093 537.416 181.899 540.98 Q183.727 544.522 187.338 544.522 Q190.973 544.522 192.778 540.98 Q194.607 537.416 194.607 530.309 Q194.607 523.18 192.778 519.638 Q190.973 516.073 187.338 516.073 M187.338 512.369 Q193.149 512.369 196.204 516.976 Q199.283 521.559 199.283 530.309 Q199.283 539.036 196.204 543.642 Q193.149 548.226 187.338 548.226 Q181.528 548.226 178.45 543.642 Q175.394 539.036 175.394 530.309 Q175.394 521.559 178.45 516.976 Q181.528 512.369 187.338 512.369 Z" fill="#000000" fill-rule="nonzero" fill-opacity="1"></path><path clip-path="url(#clip270)" d="M127.015 245.563 Q123.681 245.563 121.76 247.346 Q119.862 249.128 119.862 252.253 Q119.862 255.378 121.76 257.16 Q123.681 258.943 127.015 258.943 Q130.348 258.943 132.269 257.16 Q134.191 255.355 134.191 252.253 Q134.191 249.128 132.269 247.346 Q130.371 245.563 127.015 245.563 M122.339 243.572 Q119.33 242.832 117.64 240.772 Q115.973 238.711 115.973 235.748 Q115.973 231.605 118.913 229.198 Q121.876 226.79 127.015 226.79 Q132.177 226.79 135.117 229.198 Q138.056 231.605 138.056 235.748 Q138.056 238.711 136.367 240.772 Q134.7 242.832 131.714 243.572 Q135.093 244.36 136.968 246.651 Q138.867 248.943 138.867 252.253 Q138.867 257.276 135.788 259.961 Q132.732 262.646 127.015 262.646 Q121.297 262.646 118.218 259.961 Q115.163 257.276 115.163 252.253 Q115.163 248.943 117.061 246.651 Q118.959 244.36 122.339 243.572 M120.626 236.188 Q120.626 238.873 122.293 240.378 Q123.982 241.883 127.015 241.883 Q130.024 241.883 131.714 240.378 Q133.427 238.873 133.427 236.188 Q133.427 233.503 131.714 231.998 Q130.024 230.494 127.015 230.494 Q123.982 230.494 122.293 231.998 Q120.626 233.503 120.626 236.188 Z" fill="#000000" fill-rule="nonzero" fill-opacity="1"></path><path clip-path="url(#clip270)" d="M157.177 230.494 Q153.566 230.494 151.737 234.059 Q149.931 237.6 149.931 244.73 Q149.931 251.836 151.737 255.401 Q153.566 258.943 157.177 258.943 Q160.811 258.943 162.616 255.401 Q164.445 251.836 164.445 244.73 Q164.445 237.6 162.616 234.059 Q160.811 230.494 157.177 230.494 M157.177 226.79 Q162.987 226.79 166.042 231.397 Q169.121 235.98 169.121 244.73 Q169.121 253.457 166.042 258.063 Q162.987 262.646 157.177 262.646 Q151.366 262.646 148.288 258.063 Q145.232 253.457 145.232 244.73 Q145.232 235.98 148.288 231.397 Q151.366 226.79 157.177 226.79 Z" fill="#000000" fill-rule="nonzero" fill-opacity="1"></path><path clip-path="url(#clip270)" d="M187.338 230.494 Q183.727 230.494 181.899 234.059 Q180.093 237.6 180.093 244.73 Q180.093 251.836 181.899 255.401 Q183.727 258.943 187.338 258.943 Q190.973 258.943 192.778 255.401 Q194.607 251.836 194.607 244.73 Q194.607 237.6 192.778 234.059 Q190.973 230.494 187.338 230.494 M187.338 226.79 Q193.149 226.79 196.204 231.397 Q199.283 235.98 199.283 244.73 Q199.283 253.457 196.204 258.063 Q193.149 262.646 187.338 262.646 Q181.528 262.646 178.45 258.063 Q175.394 253.457 175.394 244.73 Q175.394 235.98 178.45 231.397 Q181.528 226.79 187.338 226.79 Z" fill="#000000" fill-rule="nonzero" fill-opacity="1"></path><path clip-path="url(#clip270)" d="M18.0438 1123.57 L24.314 1123.57 Q22.5634 1127.23 21.704 1130.47 Q20.8447 1133.72 20.8447 1136.74 Q20.8447 1142 22.8817 1144.86 Q24.9187 1147.69 28.6745 1147.69 Q31.8255 1147.69 33.4488 1145.82 Q35.0402 1143.91 36.0269 1138.62 L36.8226 1134.74 Q38.1912 1127.55 41.6605 1124.14 Q45.098 1120.7 50.8908 1120.7 Q57.7976 1120.7 61.3624 1125.35 Q64.9272 1129.96 64.9272 1138.91 Q64.9272 1142.28 64.1633 1146.1 Q63.3994 1149.89 61.9035 1153.96 L55.2831 1153.96 Q57.4793 1150.05 58.5933 1146.29 Q59.7073 1142.54 59.7073 1138.91 Q59.7073 1133.4 57.543 1130.41 Q55.3786 1127.42 51.3682 1127.42 Q47.8671 1127.42 45.8937 1129.58 Q43.9204 1131.72 42.9337 1136.62 L42.1698 1140.53 Q40.7375 1147.73 37.682 1150.94 Q34.6264 1154.15 29.1837 1154.15 Q22.8817 1154.15 19.2532 1149.73 Q15.6248 1145.27 15.6248 1137.48 Q15.6248 1134.13 16.2295 1130.66 Q16.8343 1127.2 18.0438 1123.57 Z" fill="#000000" fill-rule="nonzero" fill-opacity="1"></path><path clip-path="url(#clip270)" d="M32.4621 1097.12 Q32.4621 1101.83 36.1542 1104.57 Q39.8145 1107.3 46.212 1107.3 Q52.6095 1107.3 56.3017 1104.6 Q59.9619 1101.86 59.9619 1097.12 Q59.9619 1092.44 56.2698 1089.7 Q52.5777 1086.96 46.212 1086.96 Q39.8781 1086.96 36.186 1089.7 Q32.4621 1092.44 32.4621 1097.12 M27.4968 1097.12 Q27.4968 1089.48 32.4621 1085.12 Q37.4273 1080.76 46.212 1080.76 Q54.9649 1080.76 59.9619 1085.12 Q64.9272 1089.48 64.9272 1097.12 Q64.9272 1104.79 59.9619 1109.15 Q54.9649 1113.48 46.212 1113.48 Q37.4273 1113.48 32.4621 1109.15 Q27.4968 1104.79 27.4968 1097.12 Z" fill="#000000" fill-rule="nonzero" fill-opacity="1"></path><path clip-path="url(#clip270)" d="M14.479 1071.05 L14.479 1065.19 L64.0042 1065.19 L64.0042 1071.05 L14.479 1071.05 Z" fill="#000000" fill-rule="nonzero" fill-opacity="1"></path><path clip-path="url(#clip270)" d="M49.9359 1053.54 L28.3562 1053.54 L28.3562 1047.69 L49.7131 1047.69 Q54.7739 1047.69 57.3202 1045.71 Q59.8346 1043.74 59.8346 1039.79 Q59.8346 1035.05 56.8109 1032.31 Q53.7872 1029.55 48.5673 1029.55 L28.3562 1029.55 L28.3562 1023.69 L64.0042 1023.69 L64.0042 1029.55 L58.5296 1029.55 Q61.7762 1031.68 63.3676 1034.51 Q64.9272 1037.31 64.9272 1041.04 Q64.9272 1047.18 61.1078 1050.36 Q57.2883 1053.54 49.9359 1053.54 M27.4968 1038.81 L27.4968 1038.81 Z" fill="#000000" fill-rule="nonzero" fill-opacity="1"></path><path clip-path="url(#clip270)" d="M18.2347 1005.83 L28.3562 1005.83 L28.3562 993.77 L32.9077 993.77 L32.9077 1005.83 L52.2594 1005.83 Q56.6199 1005.83 57.8613 1004.66 Q59.1026 1003.45 59.1026 999.786 L59.1026 993.77 L64.0042 993.77 L64.0042 999.786 Q64.0042 1006.57 61.4897 1009.14 Q58.9434 1011.72 52.2594 1011.72 L32.9077 1011.72 L32.9077 1016.02 L28.3562 1016.02 L28.3562 1011.72 L18.2347 1011.72 L18.2347 1005.83 Z" fill="#000000" fill-rule="nonzero" fill-opacity="1"></path><path clip-path="url(#clip270)" d="M28.3562 986.068 L28.3562 980.211 L64.0042 980.211 L64.0042 986.068 L28.3562 986.068 M14.479 986.068 L14.479 980.211 L21.895 980.211 L21.895 986.068 L14.479 986.068 Z" fill="#000000" fill-rule="nonzero" fill-opacity="1"></path><path clip-path="url(#clip270)" d="M32.4621 954.144 Q32.4621 958.855 36.1542 961.592 Q39.8145 964.329 46.212 964.329 Q52.6095 964.329 56.3017 961.624 Q59.9619 958.886 59.9619 954.144 Q59.9619 949.465 56.2698 946.728 Q52.5777 943.991 46.212 943.991 Q39.8781 943.991 36.186 946.728 Q32.4621 949.465 32.4621 954.144 M27.4968 954.144 Q27.4968 946.505 32.4621 942.145 Q37.4273 937.784 46.212 937.784 Q54.9649 937.784 59.9619 942.145 Q64.9272 946.505 64.9272 954.144 Q64.9272 961.815 59.9619 966.175 Q54.9649 970.504 46.212 970.504 Q37.4273 970.504 32.4621 966.175 Q27.4968 961.815 27.4968 954.144 Z" fill="#000000" fill-rule="nonzero" fill-opacity="1"></path><path clip-path="url(#clip270)" d="M42.4881 898.444 L64.0042 898.444 L64.0042 904.3 L42.679 904.3 Q37.6183 904.3 35.1038 906.274 Q32.5894 908.247 32.5894 912.194 Q32.5894 916.936 35.6131 919.674 Q38.6368 922.411 43.8567 922.411 L64.0042 922.411 L64.0042 928.299 L28.3562 928.299 L28.3562 922.411 L33.8944 922.411 Q30.6797 920.31 29.0883 917.477 Q27.4968 914.613 27.4968 910.889 Q27.4968 904.746 31.3163 901.595 Q35.1038 898.444 42.4881 898.444 Z" fill="#000000" fill-rule="nonzero" fill-opacity="1"></path><path clip-path="url(#clip270)" d="M18.2347 860.25 L28.3562 860.25 L28.3562 848.187 L32.9077 848.187 L32.9077 860.25 L52.2594 860.25 Q56.6199 860.25 57.8613 859.072 Q59.1026 857.863 59.1026 854.202 L59.1026 848.187 L64.0042 848.187 L64.0042 854.202 Q64.0042 860.982 61.4897 863.56 Q58.9434 866.138 52.2594 866.138 L32.9077 866.138 L32.9077 870.435 L28.3562 870.435 L28.3562 866.138 L18.2347 866.138 L18.2347 860.25 Z" fill="#000000" fill-rule="nonzero" fill-opacity="1"></path><path clip-path="url(#clip270)" d="M28.3562 840.484 L28.3562 834.628 L64.0042 834.628 L64.0042 840.484 L28.3562 840.484 M14.479 840.484 L14.479 834.628 L21.895 834.628 L21.895 840.484 L14.479 840.484 Z" fill="#000000" fill-rule="nonzero" fill-opacity="1"></path><path clip-path="url(#clip270)" d="M35.1993 794.619 Q31.2526 792.423 29.3747 789.368 Q27.4968 786.312 27.4968 782.174 Q27.4968 776.604 31.4117 773.581 Q35.2948 770.557 42.4881 770.557 L64.0042 770.557 L64.0042 776.445 L42.679 776.445 Q37.5546 776.445 35.072 778.259 Q32.5894 780.074 32.5894 783.798 Q32.5894 788.349 35.6131 790.991 Q38.6368 793.633 43.8567 793.633 L64.0042 793.633 L64.0042 799.521 L42.679 799.521 Q37.5228 799.521 35.072 801.335 Q32.5894 803.149 32.5894 806.937 Q32.5894 811.425 35.6449 814.067 Q38.6686 816.708 43.8567 816.708 L64.0042 816.708 L64.0042 822.597 L28.3562 822.597 L28.3562 816.708 L33.8944 816.708 Q30.616 814.703 29.0564 811.902 Q27.4968 809.101 27.4968 805.25 Q27.4968 801.367 29.4702 798.661 Q31.4436 795.924 35.1993 794.619 Z" fill="#000000" fill-rule="nonzero" fill-opacity="1"></path><path clip-path="url(#clip270)" d="M44.7161 728.384 L47.5806 728.384 L47.5806 755.311 Q53.6281 754.929 56.8109 751.683 Q59.9619 748.404 59.9619 742.58 Q59.9619 739.206 59.1344 736.055 Q58.3069 732.872 56.6518 729.753 L62.1899 729.753 Q63.5267 732.904 64.227 736.214 Q64.9272 739.524 64.9272 742.93 Q64.9272 751.46 59.9619 756.457 Q54.9967 761.422 46.5303 761.422 Q37.7774 761.422 32.6531 756.711 Q27.4968 751.969 27.4968 743.948 Q27.4968 736.755 32.1438 732.585 Q36.7589 728.384 44.7161 728.384 M42.9973 734.241 Q38.1912 734.304 35.3266 736.946 Q32.4621 739.556 32.4621 743.885 Q32.4621 748.786 35.2312 751.746 Q38.0002 754.674 43.0292 755.12 L42.9973 734.241 Z" fill="#000000" fill-rule="nonzero" fill-opacity="1"></path><path clip-path="url(#clip270)" d="M14.5426 683.983 Q21.8632 688.248 29.0246 690.317 Q36.186 692.386 43.5384 692.386 Q50.8908 692.386 58.1159 690.317 Q65.3091 688.216 72.5979 683.983 L72.5979 689.076 Q65.1182 693.85 57.8931 696.237 Q50.668 698.593 43.5384 698.593 Q36.4406 698.593 29.2474 696.237 Q22.0542 693.882 14.5426 689.076 L14.5426 683.983 Z" fill="#000000" fill-rule="nonzero" fill-opacity="1"></path><path clip-path="url(#clip270)" d="M29.4065 649.895 L34.9447 649.895 Q33.6716 652.378 33.035 655.051 Q32.3984 657.725 32.3984 660.589 Q32.3984 664.95 33.7352 667.146 Q35.072 669.31 37.7456 669.31 Q39.7826 669.31 40.9603 667.751 Q42.1061 666.191 43.1565 661.481 L43.6021 659.475 Q44.9389 653.237 47.3897 650.627 Q49.8086 647.985 54.1691 647.985 Q59.1344 647.985 62.0308 651.932 Q64.9272 655.847 64.9272 662.722 Q64.9272 665.586 64.3543 668.706 Q63.8132 671.793 62.6992 675.23 L56.6518 675.23 Q58.3387 671.984 59.198 668.833 Q60.0256 665.682 60.0256 662.595 Q60.0256 658.457 58.6251 656.229 Q57.1929 654.001 54.6147 654.001 Q52.2276 654.001 50.9545 655.624 Q49.6813 657.215 48.5037 662.658 L48.0262 664.695 Q46.8804 670.138 44.5251 672.557 Q42.138 674.976 38.0002 674.976 Q32.9713 674.976 30.2341 671.411 Q27.4968 667.846 27.4968 661.29 Q27.4968 658.043 27.9743 655.178 Q28.4517 652.314 29.4065 649.895 Z" fill="#000000" fill-rule="nonzero" fill-opacity="1"></path><path clip-path="url(#clip270)" d="M44.7161 608.168 L47.5806 608.168 L47.5806 635.095 Q53.6281 634.713 56.8109 631.466 Q59.9619 628.188 59.9619 622.363 Q59.9619 618.989 59.1344 615.838 Q58.3069 612.656 56.6518 609.536 L62.1899 609.536 Q63.5267 612.687 64.227 615.998 Q64.9272 619.308 64.9272 622.713 Q64.9272 631.243 59.9619 636.24 Q54.9967 641.206 46.5303 641.206 Q37.7774 641.206 32.6531 636.495 Q27.4968 631.753 27.4968 623.732 Q27.4968 616.539 32.1438 612.369 Q36.7589 608.168 44.7161 608.168 M42.9973 614.024 Q38.1912 614.088 35.3266 616.73 Q32.4621 619.34 32.4621 623.668 Q32.4621 628.57 35.2312 631.53 Q38.0002 634.458 43.0292 634.904 L42.9973 614.024 Z" fill="#000000" fill-rule="nonzero" fill-opacity="1"></path><path clip-path="url(#clip270)" d="M29.7248 572.902 L35.1993 572.902 Q33.8307 575.384 33.1623 577.899 Q32.4621 580.381 32.4621 582.928 Q32.4621 588.625 36.0905 591.776 Q39.6872 594.927 46.212 594.927 Q52.7369 594.927 56.3653 591.776 Q59.9619 588.625 59.9619 582.928 Q59.9619 580.381 59.2935 577.899 Q58.5933 575.384 57.2247 572.902 L62.6355 572.902 Q63.7814 575.353 64.3543 577.994 Q64.9272 580.604 64.9272 583.564 Q64.9272 591.617 59.8664 596.359 Q54.8057 601.102 46.212 601.102 Q37.491 601.102 32.4939 596.328 Q27.4968 591.521 27.4968 583.182 Q27.4968 580.477 28.0697 577.899 Q28.6108 575.321 29.7248 572.902 Z" fill="#000000" fill-rule="nonzero" fill-opacity="1"></path><path clip-path="url(#clip270)" d="M32.4621 548.903 Q32.4621 553.614 36.1542 556.351 Q39.8145 559.088 46.212 559.088 Q52.6095 559.088 56.3017 556.383 Q59.9619 553.645 59.9619 548.903 Q59.9619 544.224 56.2698 541.487 Q52.5777 538.75 46.212 538.75 Q39.8781 538.75 36.186 541.487 Q32.4621 544.224 32.4621 548.903 M27.4968 548.903 Q27.4968 541.264 32.4621 536.904 Q37.4273 532.543 46.212 532.543 Q54.9649 532.543 59.9619 536.904 Q64.9272 541.264 64.9272 548.903 Q64.9272 556.574 59.9619 560.934 Q54.9649 565.263 46.212 565.263 Q37.4273 565.263 32.4621 560.934 Q27.4968 556.574 27.4968 548.903 Z" fill="#000000" fill-rule="nonzero" fill-opacity="1"></path><path clip-path="url(#clip270)" d="M42.4881 493.203 L64.0042 493.203 L64.0042 499.06 L42.679 499.06 Q37.6183 499.06 35.1038 501.033 Q32.5894 503.006 32.5894 506.953 Q32.5894 511.695 35.6131 514.433 Q38.6368 517.17 43.8567 517.17 L64.0042 517.17 L64.0042 523.058 L28.3562 523.058 L28.3562 517.17 L33.8944 517.17 Q30.6797 515.069 29.0883 512.237 Q27.4968 509.372 27.4968 505.648 Q27.4968 499.505 31.3163 496.354 Q35.1038 493.203 42.4881 493.203 Z" fill="#000000" fill-rule="nonzero" fill-opacity="1"></path><path clip-path="url(#clip270)" d="M33.7671 458.064 L14.479 458.064 L14.479 452.208 L64.0042 452.208 L64.0042 458.064 L58.657 458.064 Q61.8398 459.91 63.3994 462.743 Q64.9272 465.544 64.9272 469.491 Q64.9272 475.952 59.771 480.026 Q54.6147 484.068 46.212 484.068 Q37.8093 484.068 32.6531 480.026 Q27.4968 475.952 27.4968 469.491 Q27.4968 465.544 29.0564 462.743 Q30.5842 459.91 33.7671 458.064 M46.212 478.021 Q52.6732 478.021 56.3653 475.379 Q60.0256 472.705 60.0256 468.059 Q60.0256 463.412 56.3653 460.738 Q52.6732 458.064 46.212 458.064 Q39.7508 458.064 36.0905 460.738 Q32.3984 463.412 32.3984 468.059 Q32.3984 472.705 36.0905 475.379 Q39.7508 478.021 46.212 478.021 Z" fill="#000000" fill-rule="nonzero" fill-opacity="1"></path><path clip-path="url(#clip270)" d="M29.4065 417.419 L34.9447 417.419 Q33.6716 419.902 33.035 422.576 Q32.3984 425.249 32.3984 428.114 Q32.3984 432.474 33.7352 434.67 Q35.072 436.835 37.7456 436.835 Q39.7826 436.835 40.9603 435.275 Q42.1061 433.716 43.1565 429.005 L43.6021 427 Q44.9389 420.761 47.3897 418.151 Q49.8086 415.51 54.1691 415.51 Q59.1344 415.51 62.0308 419.456 Q64.9272 423.371 64.9272 430.246 Q64.9272 433.111 64.3543 436.23 Q63.8132 439.317 62.6992 442.755 L56.6518 442.755 Q58.3387 439.508 59.198 436.357 Q60.0256 433.206 60.0256 430.119 Q60.0256 425.981 58.6251 423.753 Q57.1929 421.525 54.6147 421.525 Q52.2276 421.525 50.9545 423.148 Q49.6813 424.74 48.5037 430.183 L48.0262 432.22 Q46.8804 437.662 44.5251 440.081 Q42.138 442.5 38.0002 442.5 Q32.9713 442.5 30.2341 438.935 Q27.4968 435.371 27.4968 428.814 Q27.4968 425.567 27.9743 422.703 Q28.4517 419.838 29.4065 417.419 Z" fill="#000000" fill-rule="nonzero" fill-opacity="1"></path><path clip-path="url(#clip270)" d="M14.5426 407.107 L14.5426 402.014 Q22.0542 397.24 29.2474 394.885 Q36.4406 392.498 43.5384 392.498 Q50.668 392.498 57.8931 394.885 Q65.1182 397.24 72.5979 402.014 L72.5979 407.107 Q65.3091 402.874 58.1159 400.805 Q50.8908 398.704 43.5384 398.704 Q36.186 398.704 29.0246 400.805 Q21.8632 402.874 14.5426 407.107 Z" fill="#000000" fill-rule="nonzero" fill-opacity="1"></path><path clip-path="url(#clip270)" d="M347.019 17.6457 Q338.107 17.6457 332.841 24.2892 Q327.615 30.9327 327.615 42.3968 Q327.615 53.8203 332.841 60.4638 Q338.107 67.1073 347.019 67.1073 Q355.931 67.1073 361.116 60.4638 Q366.342 53.8203 366.342 42.3968 Q366.342 30.9327 361.116 24.2892 Q355.931 17.6457 347.019 17.6457 M347.019 11.0023 Q359.739 11.0023 367.355 19.5497 Q374.97 28.0566 374.97 42.3968 Q374.97 56.6965 367.355 65.2439 Q359.739 73.7508 347.019 73.7508 Q334.259 73.7508 326.603 65.2439 Q318.987 56.737 318.987 42.3968 Q318.987 28.0566 326.603 19.5497 Q334.259 11.0023 347.019 11.0023 Z" fill="#000000" fill-rule="nonzero" fill-opacity="1"></path><path clip-path="url(#clip270)" d="M394.658 65.7705 L394.658 89.8329 L387.164 89.8329 L387.164 27.2059 L394.658 27.2059 L394.658 34.0924 Q397.007 30.0415 400.572 28.0971 Q404.178 26.1121 409.16 26.1121 Q417.424 26.1121 422.569 32.6746 Q427.754 39.2371 427.754 49.9314 Q427.754 60.6258 422.569 67.1883 Q417.424 73.7508 409.16 73.7508 Q404.178 73.7508 400.572 71.8063 Q397.007 69.8214 394.658 65.7705 M420.017 49.9314 Q420.017 41.7081 416.614 37.0496 Q413.252 32.3505 407.337 32.3505 Q401.423 32.3505 398.02 37.0496 Q394.658 41.7081 394.658 49.9314 Q394.658 58.1548 398.02 62.8538 Q401.423 67.5124 407.337 67.5124 Q413.252 67.5124 416.614 62.8538 Q420.017 58.1548 420.017 49.9314 Z" fill="#000000" fill-rule="nonzero" fill-opacity="1"></path><path clip-path="url(#clip270)" d="M447.482 14.324 L447.482 27.2059 L462.835 27.2059 L462.835 32.9987 L447.482 32.9987 L447.482 57.6282 Q447.482 63.1779 448.981 64.7578 Q450.52 66.3376 455.178 66.3376 L462.835 66.3376 L462.835 72.576 L455.178 72.576 Q446.55 72.576 443.269 69.3758 Q439.987 66.1351 439.987 57.6282 L439.987 32.9987 L434.519 32.9987 L434.519 27.2059 L439.987 27.2059 L439.987 14.324 L447.482 14.324 Z" fill="#000000" fill-rule="nonzero" fill-opacity="1"></path><path clip-path="url(#clip270)" d="M472.638 27.2059 L480.091 27.2059 L480.091 72.576 L472.638 72.576 L472.638 27.2059 M472.638 9.54393 L480.091 9.54393 L480.091 18.9825 L472.638 18.9825 L472.638 9.54393 Z" fill="#000000" fill-rule="nonzero" fill-opacity="1"></path><path clip-path="url(#clip270)" d="M531.011 35.9153 Q533.806 30.8922 537.695 28.5022 Q541.584 26.1121 546.85 26.1121 Q553.939 26.1121 557.788 31.0947 Q561.636 36.0368 561.636 45.1919 L561.636 72.576 L554.142 72.576 L554.142 45.4349 Q554.142 38.913 551.833 35.7533 Q549.524 32.5936 544.784 32.5936 Q538.992 32.5936 535.629 36.4419 Q532.267 40.2903 532.267 46.9338 L532.267 72.576 L524.773 72.576 L524.773 45.4349 Q524.773 38.8725 522.464 35.7533 Q520.155 32.5936 515.334 32.5936 Q509.623 32.5936 506.26 36.4824 Q502.898 40.3308 502.898 46.9338 L502.898 72.576 L495.404 72.576 L495.404 27.2059 L502.898 27.2059 L502.898 34.2544 Q505.45 30.082 509.015 28.0971 Q512.58 26.1121 517.481 26.1121 Q522.423 26.1121 525.867 28.6237 Q529.35 31.1352 531.011 35.9153 Z" fill="#000000" fill-rule="nonzero" fill-opacity="1"></path><path clip-path="url(#clip270)" d="M576.503 27.2059 L583.957 27.2059 L583.957 72.576 L576.503 72.576 L576.503 27.2059 M576.503 9.54393 L583.957 9.54393 L583.957 18.9825 L576.503 18.9825 L576.503 9.54393 Z" fill="#000000" fill-rule="nonzero" fill-opacity="1"></path><path clip-path="url(#clip270)" d="M596.312 27.2059 L631.717 27.2059 L631.717 34.0114 L603.685 66.6212 L631.717 66.6212 L631.717 72.576 L595.299 72.576 L595.299 65.7705 L623.331 33.1607 L596.312 33.1607 L596.312 27.2059 Z" fill="#000000" fill-rule="nonzero" fill-opacity="1"></path><path clip-path="url(#clip270)" d="M663.719 49.7694 Q654.685 49.7694 651.202 51.8354 Q647.718 53.9013 647.718 58.8839 Q647.718 62.8538 650.31 65.2034 Q652.944 67.5124 657.44 67.5124 Q663.638 67.5124 667.365 63.1374 Q671.132 58.7219 671.132 51.4303 L671.132 49.7694 L663.719 49.7694 M678.586 46.6907 L678.586 72.576 L671.132 72.576 L671.132 65.6895 Q668.58 69.8214 664.772 71.8063 Q660.964 73.7508 655.455 73.7508 Q648.488 73.7508 644.356 69.8619 Q640.264 65.9325 640.264 59.3701 Q640.264 51.7138 645.368 47.825 Q650.513 43.9361 660.681 43.9361 L671.132 43.9361 L671.132 43.2069 Q671.132 38.0623 667.729 35.2672 Q664.367 32.4315 658.25 32.4315 Q654.361 32.4315 650.675 33.3632 Q646.989 34.295 643.586 36.1584 L643.586 29.2718 Q647.677 27.692 651.526 26.9223 Q655.374 26.1121 659.02 26.1121 Q668.864 26.1121 673.725 31.2163 Q678.586 36.3204 678.586 46.6907 Z" fill="#000000" fill-rule="nonzero" fill-opacity="1"></path><path clip-path="url(#clip270)" d="M701.311 14.324 L701.311 27.2059 L716.664 27.2059 L716.664 32.9987 L701.311 32.9987 L701.311 57.6282 Q701.311 63.1779 702.81 64.7578 Q704.35 66.3376 709.008 66.3376 L716.664 66.3376 L716.664 72.576 L709.008 72.576 Q700.38 72.576 697.098 69.3758 Q693.817 66.1351 693.817 57.6282 L693.817 32.9987 L688.348 32.9987 L688.348 27.2059 L693.817 27.2059 L693.817 14.324 L701.311 14.324 Z" fill="#000000" fill-rule="nonzero" fill-opacity="1"></path><path clip-path="url(#clip270)" d="M726.467 27.2059 L733.921 27.2059 L733.921 72.576 L726.467 72.576 L726.467 27.2059 M726.467 9.54393 L733.921 9.54393 L733.921 18.9825 L726.467 18.9825 L726.467 9.54393 Z" fill="#000000" fill-rule="nonzero" fill-opacity="1"></path><path clip-path="url(#clip270)" d="M767.098 32.4315 Q761.103 32.4315 757.619 37.1306 Q754.135 41.7891 754.135 49.9314 Q754.135 58.0738 757.578 62.7728 Q761.062 67.4314 767.098 67.4314 Q773.053 67.4314 776.537 62.7323 Q780.02 58.0333 780.02 49.9314 Q780.02 41.8701 776.537 37.1711 Q773.053 32.4315 767.098 32.4315 M767.098 26.1121 Q776.82 26.1121 782.37 32.4315 Q787.92 38.7509 787.92 49.9314 Q787.92 61.0714 782.37 67.4314 Q776.82 73.7508 767.098 73.7508 Q757.335 73.7508 751.786 67.4314 Q746.276 61.0714 746.276 49.9314 Q746.276 38.7509 751.786 32.4315 Q757.335 26.1121 767.098 26.1121 Z" fill="#000000" fill-rule="nonzero" fill-opacity="1"></path><path clip-path="url(#clip270)" d="M837.989 45.1919 L837.989 72.576 L830.535 72.576 L830.535 45.4349 Q830.535 38.994 828.024 35.7938 Q825.512 32.5936 820.489 32.5936 Q814.453 32.5936 810.969 36.4419 Q807.486 40.2903 807.486 46.9338 L807.486 72.576 L799.991 72.576 L799.991 27.2059 L807.486 27.2059 L807.486 34.2544 Q810.159 30.163 813.764 28.1376 Q817.41 26.1121 822.15 26.1121 Q829.968 26.1121 833.978 30.9732 Q837.989 35.7938 837.989 45.1919 Z" fill="#000000" fill-rule="nonzero" fill-opacity="1"></path><path clip-path="url(#clip270)" d="M886.438 65.7705 L886.438 89.8329 L878.943 89.8329 L878.943 27.2059 L886.438 27.2059 L886.438 34.0924 Q888.787 30.0415 892.352 28.0971 Q895.957 26.1121 900.94 26.1121 Q909.204 26.1121 914.348 32.6746 Q919.534 39.2371 919.534 49.9314 Q919.534 60.6258 914.348 67.1883 Q909.204 73.7508 900.94 73.7508 Q895.957 73.7508 892.352 71.8063 Q888.787 69.8214 886.438 65.7705 M911.796 49.9314 Q911.796 41.7081 908.394 37.0496 Q905.031 32.3505 899.117 32.3505 Q893.203 32.3505 889.8 37.0496 Q886.438 41.7081 886.438 49.9314 Q886.438 58.1548 889.8 62.8538 Q893.203 67.5124 899.117 67.5124 Q905.031 67.5124 908.394 62.8538 Q911.796 58.1548 911.796 49.9314 Z" fill="#000000" fill-rule="nonzero" fill-opacity="1"></path><path clip-path="url(#clip270)" d="M970.696 48.0275 L970.696 51.6733 L936.426 51.6733 Q936.912 59.3701 941.044 63.421 Q945.216 67.4314 952.629 67.4314 Q956.923 67.4314 960.934 66.3781 Q964.985 65.3249 968.955 63.2184 L968.955 70.267 Q964.944 71.9684 960.731 72.8596 Q956.518 73.7508 952.184 73.7508 Q941.327 73.7508 934.967 67.4314 Q928.648 61.1119 928.648 50.3365 Q928.648 39.1965 934.643 32.6746 Q940.679 26.1121 950.888 26.1121 Q960.043 26.1121 965.349 32.0264 Q970.696 37.9003 970.696 48.0275 M963.243 45.84 Q963.162 39.7232 959.8 36.0774 Q956.478 32.4315 950.969 32.4315 Q944.73 32.4315 940.963 35.9558 Q937.236 39.4801 936.669 45.8805 L963.243 45.84 Z" fill="#000000" fill-rule="nonzero" fill-opacity="1"></path><path clip-path="url(#clip270)" d="M1009.22 34.1734 Q1007.96 33.4443 1006.47 33.1202 Q1005.01 32.7556 1003.23 32.7556 Q996.906 32.7556 993.503 36.8875 Q990.141 40.9789 990.141 48.6757 L990.141 72.576 L982.647 72.576 L982.647 27.2059 L990.141 27.2059 L990.141 34.2544 Q992.49 30.1225 996.258 28.1376 Q1000.03 26.1121 1005.41 26.1121 Q1006.18 26.1121 1007.11 26.2337 Q1008.05 26.3147 1009.18 26.5172 L1009.22 34.1734 Z" fill="#000000" fill-rule="nonzero" fill-opacity="1"></path><path clip-path="url(#clip270)" d="M1040.01 9.54393 L1040.01 15.7418 L1032.88 15.7418 Q1028.87 15.7418 1027.29 17.3622 Q1025.75 18.9825 1025.75 23.1955 L1025.75 27.2059 L1038.02 27.2059 L1038.02 32.9987 L1025.75 32.9987 L1025.75 72.576 L1018.25 72.576 L1018.25 32.9987 L1011.12 32.9987 L1011.12 27.2059 L1018.25 27.2059 L1018.25 24.0462 Q1018.25 16.471 1021.78 13.0277 Q1025.3 9.54393 1032.96 9.54393 L1040.01 9.54393 Z" fill="#000000" fill-rule="nonzero" fill-opacity="1"></path><path clip-path="url(#clip270)" d="M1063.83 32.4315 Q1057.83 32.4315 1054.35 37.1306 Q1050.86 41.7891 1050.86 49.9314 Q1050.86 58.0738 1054.31 62.7728 Q1057.79 67.4314 1063.83 67.4314 Q1069.78 67.4314 1073.27 62.7323 Q1076.75 58.0333 1076.75 49.9314 Q1076.75 41.8701 1073.27 37.1711 Q1069.78 32.4315 1063.83 32.4315 M1063.83 26.1121 Q1073.55 26.1121 1079.1 32.4315 Q1084.65 38.7509 1084.65 49.9314 Q1084.65 61.0714 1079.1 67.4314 Q1073.55 73.7508 1063.83 73.7508 Q1054.06 73.7508 1048.51 67.4314 Q1043.01 61.0714 1043.01 49.9314 Q1043.01 38.7509 1048.51 32.4315 Q1054.06 26.1121 1063.83 26.1121 Z" fill="#000000" fill-rule="nonzero" fill-opacity="1"></path><path clip-path="url(#clip270)" d="M1123.29 34.1734 Q1122.04 33.4443 1120.54 33.1202 Q1119.08 32.7556 1117.3 32.7556 Q1110.98 32.7556 1107.58 36.8875 Q1104.21 40.9789 1104.21 48.6757 L1104.21 72.576 L1096.72 72.576 L1096.72 27.2059 L1104.21 27.2059 L1104.21 34.2544 Q1106.56 30.1225 1110.33 28.1376 Q1114.1 26.1121 1119.49 26.1121 Q1120.26 26.1121 1121.19 26.2337 Q1122.12 26.3147 1123.25 26.5172 L1123.29 34.1734 Z" fill="#000000" fill-rule="nonzero" fill-opacity="1"></path><path clip-path="url(#clip270)" d="M1164.98 35.9153 Q1167.77 30.8922 1171.66 28.5022 Q1175.55 26.1121 1180.82 26.1121 Q1187.91 26.1121 1191.75 31.0947 Q1195.6 36.0368 1195.6 45.1919 L1195.6 72.576 L1188.11 72.576 L1188.11 45.4349 Q1188.11 38.913 1185.8 35.7533 Q1183.49 32.5936 1178.75 32.5936 Q1172.96 32.5936 1169.6 36.4419 Q1166.23 40.2903 1166.23 46.9338 L1166.23 72.576 L1158.74 72.576 L1158.74 45.4349 Q1158.74 38.8725 1156.43 35.7533 Q1154.12 32.5936 1149.3 32.5936 Q1143.59 32.5936 1140.23 36.4824 Q1136.86 40.3308 1136.86 46.9338 L1136.86 72.576 L1129.37 72.576 L1129.37 27.2059 L1136.86 27.2059 L1136.86 34.2544 Q1139.42 30.082 1142.98 28.0971 Q1146.55 26.1121 1151.45 26.1121 Q1156.39 26.1121 1159.83 28.6237 Q1163.32 31.1352 1164.98 35.9153 Z" fill="#000000" fill-rule="nonzero" fill-opacity="1"></path><path clip-path="url(#clip270)" d="M1231.09 49.7694 Q1222.06 49.7694 1218.57 51.8354 Q1215.09 53.9013 1215.09 58.8839 Q1215.09 62.8538 1217.68 65.2034 Q1220.31 67.5124 1224.81 67.5124 Q1231.01 67.5124 1234.73 63.1374 Q1238.5 58.7219 1238.5 51.4303 L1238.5 49.7694 L1231.09 49.7694 M1245.96 46.6907 L1245.96 72.576 L1238.5 72.576 L1238.5 65.6895 Q1235.95 69.8214 1232.14 71.8063 Q1228.33 73.7508 1222.82 73.7508 Q1215.86 73.7508 1211.73 69.8619 Q1207.63 65.9325 1207.63 59.3701 Q1207.63 51.7138 1212.74 47.825 Q1217.88 43.9361 1228.05 43.9361 L1238.5 43.9361 L1238.5 43.2069 Q1238.5 38.0623 1235.1 35.2672 Q1231.74 32.4315 1225.62 32.4315 Q1221.73 32.4315 1218.04 33.3632 Q1214.36 34.295 1210.96 36.1584 L1210.96 29.2718 Q1215.05 27.692 1218.9 26.9223 Q1222.74 26.1121 1226.39 26.1121 Q1236.23 26.1121 1241.09 31.2163 Q1245.96 36.3204 1245.96 46.6907 Z" fill="#000000" fill-rule="nonzero" fill-opacity="1"></path><path clip-path="url(#clip270)" d="M1299.02 45.1919 L1299.02 72.576 L1291.57 72.576 L1291.57 45.4349 Q1291.57 38.994 1289.06 35.7938 Q1286.55 32.5936 1281.52 32.5936 Q1275.49 32.5936 1272 36.4419 Q1268.52 40.2903 1268.52 46.9338 L1268.52 72.576 L1261.02 72.576 L1261.02 27.2059 L1268.52 27.2059 L1268.52 34.2544 Q1271.19 30.163 1274.8 28.1376 Q1278.44 26.1121 1283.18 26.1121 Q1291 26.1121 1295.01 30.9732 Q1299.02 35.7938 1299.02 45.1919 Z" fill="#000000" fill-rule="nonzero" fill-opacity="1"></path><path clip-path="url(#clip270)" d="M1346.54 28.9478 L1346.54 35.9153 Q1343.38 34.1734 1340.18 33.3227 Q1337.02 32.4315 1333.78 32.4315 Q1326.53 32.4315 1322.52 37.0496 Q1318.51 41.6271 1318.51 49.9314 Q1318.51 58.2358 1322.52 62.8538 Q1326.53 67.4314 1333.78 67.4314 Q1337.02 67.4314 1340.18 66.5807 Q1343.38 65.6895 1346.54 63.9476 L1346.54 70.8341 Q1343.42 72.2924 1340.06 73.0216 Q1336.74 73.7508 1332.97 73.7508 Q1322.72 73.7508 1316.68 67.3098 Q1310.65 60.8689 1310.65 49.9314 Q1310.65 38.832 1316.72 32.472 Q1322.84 26.1121 1333.45 26.1121 Q1336.9 26.1121 1340.18 26.8413 Q1343.46 27.5299 1346.54 28.9478 Z" fill="#000000" fill-rule="nonzero" fill-opacity="1"></path><path clip-path="url(#clip270)" d="M1398.31 48.0275 L1398.31 51.6733 L1364.04 51.6733 Q1364.53 59.3701 1368.66 63.421 Q1372.83 67.4314 1380.24 67.4314 Q1384.54 67.4314 1388.55 66.3781 Q1392.6 65.3249 1396.57 63.2184 L1396.57 70.267 Q1392.56 71.9684 1388.34 72.8596 Q1384.13 73.7508 1379.8 73.7508 Q1368.94 73.7508 1362.58 67.4314 Q1356.26 61.1119 1356.26 50.3365 Q1356.26 39.1965 1362.26 32.6746 Q1368.29 26.1121 1378.5 26.1121 Q1387.66 26.1121 1392.96 32.0264 Q1398.31 37.9003 1398.31 48.0275 M1390.86 45.84 Q1390.78 39.7232 1387.41 36.0774 Q1384.09 32.4315 1378.58 32.4315 Q1372.34 32.4315 1368.58 35.9558 Q1364.85 39.4801 1364.28 45.8805 L1390.86 45.84 Z" fill="#000000" fill-rule="nonzero" fill-opacity="1"></path><path clip-path="url(#clip270)" d="M1459.88 9.54393 L1459.88 15.7418 L1452.75 15.7418 Q1448.74 15.7418 1447.16 17.3622 Q1445.62 18.9825 1445.62 23.1955 L1445.62 27.2059 L1457.9 27.2059 L1457.9 32.9987 L1445.62 32.9987 L1445.62 72.576 L1438.13 72.576 L1438.13 32.9987 L1431 32.9987 L1431 27.2059 L1438.13 27.2059 L1438.13 24.0462 Q1438.13 16.471 1441.65 13.0277 Q1445.18 9.54393 1452.84 9.54393 L1459.88 9.54393 Z" fill="#000000" fill-rule="nonzero" fill-opacity="1"></path><path clip-path="url(#clip270)" d="M1483.7 32.4315 Q1477.71 32.4315 1474.22 37.1306 Q1470.74 41.7891 1470.74 49.9314 Q1470.74 58.0738 1474.18 62.7728 Q1477.67 67.4314 1483.7 67.4314 Q1489.66 67.4314 1493.14 62.7323 Q1496.63 58.0333 1496.63 49.9314 Q1496.63 41.8701 1493.14 37.1711 Q1489.66 32.4315 1483.7 32.4315 M1483.7 26.1121 Q1493.43 26.1121 1498.97 32.4315 Q1504.52 38.7509 1504.52 49.9314 Q1504.52 61.0714 1498.97 67.4314 Q1493.43 73.7508 1483.7 73.7508 Q1473.94 73.7508 1468.39 67.4314 Q1462.88 61.0714 1462.88 49.9314 Q1462.88 38.7509 1468.39 32.4315 Q1473.94 26.1121 1483.7 26.1121 Z" fill="#000000" fill-rule="nonzero" fill-opacity="1"></path><path clip-path="url(#clip270)" d="M1543.17 34.1734 Q1541.91 33.4443 1540.42 33.1202 Q1538.96 32.7556 1537.17 32.7556 Q1530.86 32.7556 1527.45 36.8875 Q1524.09 40.9789 1524.09 48.6757 L1524.09 72.576 L1516.6 72.576 L1516.6 27.2059 L1524.09 27.2059 L1524.09 34.2544 Q1526.44 30.1225 1530.21 28.1376 Q1533.97 26.1121 1539.36 26.1121 Q1540.13 26.1121 1541.06 26.2337 Q1542 26.3147 1543.13 26.5172 L1543.17 34.1734 Z" fill="#000000" fill-rule="nonzero" fill-opacity="1"></path><path clip-path="url(#clip270)" d="M1610.01 28.9478 L1610.01 35.9153 Q1606.85 34.1734 1603.65 33.3227 Q1600.49 32.4315 1597.25 32.4315 Q1590 32.4315 1585.99 37.0496 Q1581.98 41.6271 1581.98 49.9314 Q1581.98 58.2358 1585.99 62.8538 Q1590 67.4314 1597.25 67.4314 Q1600.49 67.4314 1603.65 66.5807 Q1606.85 65.6895 1610.01 63.9476 L1610.01 70.8341 Q1606.89 72.2924 1603.53 73.0216 Q1600.21 73.7508 1596.44 73.7508 Q1586.19 73.7508 1580.15 67.3098 Q1574.12 60.8689 1574.12 49.9314 Q1574.12 38.832 1580.2 32.472 Q1586.31 26.1121 1596.93 26.1121 Q1600.37 26.1121 1603.65 26.8413 Q1606.93 27.5299 1610.01 28.9478 Z" fill="#000000" fill-rule="nonzero" fill-opacity="1"></path><path clip-path="url(#clip270)" d="M1640.55 32.4315 Q1634.56 32.4315 1631.07 37.1306 Q1627.59 41.7891 1627.59 49.9314 Q1627.59 58.0738 1631.03 62.7728 Q1634.52 67.4314 1640.55 67.4314 Q1646.51 67.4314 1649.99 62.7323 Q1653.48 58.0333 1653.48 49.9314 Q1653.48 41.8701 1649.99 37.1711 Q1646.51 32.4315 1640.55 32.4315 M1640.55 26.1121 Q1650.28 26.1121 1655.83 32.4315 Q1661.38 38.7509 1661.38 49.9314 Q1661.38 61.0714 1655.83 67.4314 Q1650.28 73.7508 1640.55 73.7508 Q1630.79 73.7508 1625.24 67.4314 Q1619.73 61.0714 1619.73 49.9314 Q1619.73 38.7509 1625.24 32.4315 Q1630.79 26.1121 1640.55 26.1121 Z" fill="#000000" fill-rule="nonzero" fill-opacity="1"></path><path clip-path="url(#clip270)" d="M1711.44 45.1919 L1711.44 72.576 L1703.99 72.576 L1703.99 45.4349 Q1703.99 38.994 1701.48 35.7938 Q1698.97 32.5936 1693.94 32.5936 Q1687.91 32.5936 1684.43 36.4419 Q1680.94 40.2903 1680.94 46.9338 L1680.94 72.576 L1673.45 72.576 L1673.45 27.2059 L1680.94 27.2059 L1680.94 34.2544 Q1683.62 30.163 1687.22 28.1376 Q1690.87 26.1121 1695.61 26.1121 Q1703.42 26.1121 1707.43 30.9732 Q1711.44 35.7938 1711.44 45.1919 Z" fill="#000000" fill-rule="nonzero" fill-opacity="1"></path><path clip-path="url(#clip270)" d="M1758.96 28.9478 L1758.96 35.9153 Q1755.8 34.1734 1752.6 33.3227 Q1749.44 32.4315 1746.2 32.4315 Q1738.95 32.4315 1734.94 37.0496 Q1730.93 41.6271 1730.93 49.9314 Q1730.93 58.2358 1734.94 62.8538 Q1738.95 67.4314 1746.2 67.4314 Q1749.44 67.4314 1752.6 66.5807 Q1755.8 65.6895 1758.96 63.9476 L1758.96 70.8341 Q1755.84 72.2924 1752.48 73.0216 Q1749.16 73.7508 1745.39 73.7508 Q1735.14 73.7508 1729.11 67.3098 Q1723.07 60.8689 1723.07 49.9314 Q1723.07 38.832 1729.15 32.472 Q1735.26 26.1121 1745.88 26.1121 Q1749.32 26.1121 1752.6 26.8413 Q1755.88 27.5299 1758.96 28.9478 Z" fill="#000000" fill-rule="nonzero" fill-opacity="1"></path><path clip-path="url(#clip270)" d="M1798.22 34.1734 Q1796.96 33.4443 1795.46 33.1202 Q1794 32.7556 1792.22 32.7556 Q1785.9 32.7556 1782.5 36.8875 Q1779.14 40.9789 1779.14 48.6757 L1779.14 72.576 L1771.64 72.576 L1771.64 27.2059 L1779.14 27.2059 L1779.14 34.2544 Q1781.48 30.1225 1785.25 28.1376 Q1789.02 26.1121 1794.41 26.1121 Q1795.18 26.1121 1796.11 26.2337 Q1797.04 26.3147 1798.17 26.5172 L1798.22 34.1734 Z" fill="#000000" fill-rule="nonzero" fill-opacity="1"></path><path clip-path="url(#clip270)" d="M1843.02 48.0275 L1843.02 51.6733 L1808.75 51.6733 Q1809.23 59.3701 1813.37 63.421 Q1817.54 67.4314 1824.95 67.4314 Q1829.25 67.4314 1833.26 66.3781 Q1837.31 65.3249 1841.28 63.2184 L1841.28 70.267 Q1837.27 71.9684 1833.05 72.8596 Q1828.84 73.7508 1824.51 73.7508 Q1813.65 73.7508 1807.29 67.4314 Q1800.97 61.1119 1800.97 50.3365 Q1800.97 39.1965 1806.97 32.6746 Q1813 26.1121 1823.21 26.1121 Q1832.36 26.1121 1837.67 32.0264 Q1843.02 37.9003 1843.02 48.0275 M1835.56 45.84 Q1835.48 39.7232 1832.12 36.0774 Q1828.8 32.4315 1823.29 32.4315 Q1817.05 32.4315 1813.28 35.9558 Q1809.56 39.4801 1808.99 45.8805 L1835.56 45.84 Z" fill="#000000" fill-rule="nonzero" fill-opacity="1"></path><path clip-path="url(#clip270)" d="M1862.62 14.324 L1862.62 27.2059 L1877.98 27.2059 L1877.98 32.9987 L1862.62 32.9987 L1862.62 57.6282 Q1862.62 63.1779 1864.12 64.7578 Q1865.66 66.3376 1870.32 66.3376 L1877.98 66.3376 L1877.98 72.576 L1870.32 72.576 Q1861.69 72.576 1858.41 69.3758 Q1855.13 66.1351 1855.13 57.6282 L1855.13 32.9987 L1849.66 32.9987 L1849.66 27.2059 L1855.13 27.2059 L1855.13 14.324 L1862.62 14.324 Z" fill="#000000" fill-rule="nonzero" fill-opacity="1"></path><path clip-path="url(#clip270)" d="M1926.59 48.0275 L1926.59 51.6733 L1892.32 51.6733 Q1892.8 59.3701 1896.94 63.421 Q1901.11 67.4314 1908.52 67.4314 Q1912.82 67.4314 1916.83 66.3781 Q1920.88 65.3249 1924.85 63.2184 L1924.85 70.267 Q1920.84 71.9684 1916.62 72.8596 Q1912.41 73.7508 1908.08 73.7508 Q1897.22 73.7508 1890.86 67.4314 Q1884.54 61.1119 1884.54 50.3365 Q1884.54 39.1965 1890.54 32.6746 Q1896.57 26.1121 1906.78 26.1121 Q1915.93 26.1121 1921.24 32.0264 Q1926.59 37.9003 1926.59 48.0275 M1919.13 45.84 Q1919.05 39.7232 1915.69 36.0774 Q1912.37 32.4315 1906.86 32.4315 Q1900.62 32.4315 1896.85 35.9558 Q1893.13 39.4801 1892.56 45.8805 L1919.13 45.84 Z" fill="#000000" fill-rule="nonzero" fill-opacity="1"></path><path clip-path="url(#clip270)" d="M1995.05 34.0924 L1995.05 9.54393 L2002.5 9.54393 L2002.5 72.576 L1995.05 72.576 L1995.05 65.7705 Q1992.7 69.8214 1989.09 71.8063 Q1985.53 73.7508 1980.51 73.7508 Q1972.28 73.7508 1967.1 67.1883 Q1961.95 60.6258 1961.95 49.9314 Q1961.95 39.2371 1967.1 32.6746 Q1972.28 26.1121 1980.51 26.1121 Q1985.53 26.1121 1989.09 28.0971 Q1992.7 30.0415 1995.05 34.0924 M1969.65 49.9314 Q1969.65 58.1548 1973.01 62.8538 Q1976.41 67.5124 1982.33 67.5124 Q1988.24 67.5124 1991.65 62.8538 Q1995.05 58.1548 1995.05 49.9314 Q1995.05 41.7081 1991.65 37.0496 Q1988.24 32.3505 1982.33 32.3505 Q1976.41 32.3505 1973.01 37.0496 Q1969.65 41.7081 1969.65 49.9314 Z" fill="#000000" fill-rule="nonzero" fill-opacity="1"></path><path clip-path="url(#clip270)" d="M2038.47 49.7694 Q2029.44 49.7694 2025.96 51.8354 Q2022.47 53.9013 2022.47 58.8839 Q2022.47 62.8538 2025.07 65.2034 Q2027.7 67.5124 2032.2 67.5124 Q2038.39 67.5124 2042.12 63.1374 Q2045.89 58.7219 2045.89 51.4303 L2045.89 49.7694 L2038.47 49.7694 M2053.34 46.6907 L2053.34 72.576 L2045.89 72.576 L2045.89 65.6895 Q2043.34 69.8214 2039.53 71.8063 Q2035.72 73.7508 2030.21 73.7508 Q2023.24 73.7508 2019.11 69.8619 Q2015.02 65.9325 2015.02 59.3701 Q2015.02 51.7138 2020.12 47.825 Q2025.27 43.9361 2035.44 43.9361 L2045.89 43.9361 L2045.89 43.2069 Q2045.89 38.0623 2042.48 35.2672 Q2039.12 32.4315 2033.01 32.4315 Q2029.12 32.4315 2025.43 33.3632 Q2021.74 34.295 2018.34 36.1584 L2018.34 29.2718 Q2022.43 27.692 2026.28 26.9223 Q2030.13 26.1121 2033.78 26.1121 Q2043.62 26.1121 2048.48 31.2163 Q2053.34 36.3204 2053.34 46.6907 Z" fill="#000000" fill-rule="nonzero" fill-opacity="1"></path><path clip-path="url(#clip270)" d="M2076.07 14.324 L2076.07 27.2059 L2091.42 27.2059 L2091.42 32.9987 L2076.07 32.9987 L2076.07 57.6282 Q2076.07 63.1779 2077.57 64.7578 Q2079.1 66.3376 2083.76 66.3376 L2091.42 66.3376 L2091.42 72.576 L2083.76 72.576 Q2075.13 72.576 2071.85 69.3758 Q2068.57 66.1351 2068.57 57.6282 L2068.57 32.9987 L2063.1 32.9987 L2063.1 27.2059 L2068.57 27.2059 L2068.57 14.324 L2076.07 14.324 Z" fill="#000000" fill-rule="nonzero" fill-opacity="1"></path><path clip-path="url(#clip270)" d="M2121.84 49.7694 Q2112.81 49.7694 2109.32 51.8354 Q2105.84 53.9013 2105.84 58.8839 Q2105.84 62.8538 2108.43 65.2034 Q2111.07 67.5124 2115.56 67.5124 Q2121.76 67.5124 2125.49 63.1374 Q2129.26 58.7219 2129.26 51.4303 L2129.26 49.7694 L2121.84 49.7694 M2136.71 46.6907 L2136.71 72.576 L2129.26 72.576 L2129.26 65.6895 Q2126.7 69.8214 2122.9 71.8063 Q2119.09 73.7508 2113.58 73.7508 Q2106.61 73.7508 2102.48 69.8619 Q2098.39 65.9325 2098.39 59.3701 Q2098.39 51.7138 2103.49 47.825 Q2108.64 43.9361 2118.8 43.9361 L2129.26 43.9361 L2129.26 43.2069 Q2129.26 38.0623 2125.85 35.2672 Q2122.49 32.4315 2116.37 32.4315 Q2112.48 32.4315 2108.8 33.3632 Q2105.11 34.295 2101.71 36.1584 L2101.71 29.2718 Q2105.8 27.692 2109.65 26.9223 Q2113.5 26.1121 2117.14 26.1121 Q2126.99 26.1121 2131.85 31.2163 Q2136.71 36.3204 2136.71 46.6907 Z" fill="#000000" fill-rule="nonzero" fill-opacity="1"></path><path clip-path="url(#clip270)" d="M2180.99 28.5427 L2180.99 35.5912 Q2177.83 33.9709 2174.42 33.1607 Q2171.02 32.3505 2167.37 32.3505 Q2161.82 32.3505 2159.03 34.0519 Q2156.27 35.7533 2156.27 39.156 Q2156.27 41.7486 2158.26 43.2475 Q2160.24 44.7058 2166.24 46.0426 L2168.79 46.6097 Q2176.73 48.3111 2180.05 51.4303 Q2183.42 54.509 2183.42 60.0587 Q2183.42 66.3781 2178.39 70.0644 Q2173.41 73.7508 2164.66 73.7508 Q2161.01 73.7508 2157.04 73.0216 Q2153.11 72.3329 2148.74 70.9151 L2148.74 63.2184 Q2152.87 65.3654 2156.88 66.4591 Q2160.89 67.5124 2164.82 67.5124 Q2170.09 67.5124 2172.92 65.73 Q2175.76 63.9071 2175.76 60.6258 Q2175.76 57.5877 2173.69 55.9673 Q2171.67 54.3469 2164.74 52.8481 L2162.15 52.2405 Q2155.22 50.7821 2152.14 47.7845 Q2149.06 44.7463 2149.06 39.4801 Q2149.06 33.0797 2153.6 29.5959 Q2158.14 26.1121 2166.48 26.1121 Q2170.61 26.1121 2174.26 26.7198 Q2177.91 27.3274 2180.99 28.5427 Z" fill="#000000" fill-rule="nonzero" fill-opacity="1"></path><path clip-path="url(#clip270)" d="M2234.09 48.0275 L2234.09 51.6733 L2199.82 51.6733 Q2200.31 59.3701 2204.44 63.421 Q2208.61 67.4314 2216.03 67.4314 Q2220.32 67.4314 2224.33 66.3781 Q2228.38 65.3249 2232.35 63.2184 L2232.35 70.267 Q2228.34 71.9684 2224.13 72.8596 Q2219.91 73.7508 2215.58 73.7508 Q2204.72 73.7508 2198.36 67.4314 Q2192.04 61.1119 2192.04 50.3365 Q2192.04 39.1965 2198.04 32.6746 Q2204.08 26.1121 2214.28 26.1121 Q2223.44 26.1121 2228.75 32.0264 Q2234.09 37.9003 2234.09 48.0275 M2226.64 45.84 Q2226.56 39.7232 2223.2 36.0774 Q2219.87 32.4315 2214.36 32.4315 Q2208.13 32.4315 2204.36 35.9558 Q2200.63 39.4801 2200.06 45.8805 L2226.64 45.84 Z" fill="#000000" fill-rule="nonzero" fill-opacity="1"></path><path clip-path="url(#clip270)" d="M2253.7 14.324 L2253.7 27.2059 L2269.05 27.2059 L2269.05 32.9987 L2253.7 32.9987 L2253.7 57.6282 Q2253.7 63.1779 2255.2 64.7578 Q2256.74 66.3376 2261.4 66.3376 L2269.05 66.3376 L2269.05 72.576 L2261.4 72.576 Q2252.77 72.576 2249.49 69.3758 Q2246.2 66.1351 2246.2 57.6282 L2246.2 32.9987 L2240.74 32.9987 L2240.74 27.2059 L2246.2 27.2059 L2246.2 14.324 L2253.7 14.324 Z" fill="#000000" fill-rule="nonzero" fill-opacity="1"></path><polyline clip-path="url(#clip272)" style="stroke:#800080; stroke-linecap:round; stroke-linejoin:round; stroke-width:4; stroke-opacity:1; fill:none" points="295.211,1379.88 400.349,1374.02 610.624,1339.64 926.037,1234.97 1241.45,1049.15 1767.14,709.692 2292.83,160.256 "></polyline>
<line clip-path="url(#clip272)" x1="295.211" y1="1379.88" x2="279.211" y2="1363.88" style="stroke:#800080; stroke-width:4; stroke-opacity:1"></line>
<line clip-path="url(#clip272)" x1="295.211" y1="1379.88" x2="279.211" y2="1395.88" style="stroke:#800080; stroke-width:4; stroke-opacity:1"></line>
<line clip-path="url(#clip272)" x1="295.211" y1="1379.88" x2="311.211" y2="1395.88" style="stroke:#800080; stroke-width:4; stroke-opacity:1"></line>
<line clip-path="url(#clip272)" x1="295.211" y1="1379.88" x2="311.211" y2="1363.88" style="stroke:#800080; stroke-width:4; stroke-opacity:1"></line>
<line clip-path="url(#clip272)" x1="400.349" y1="1374.02" x2="384.349" y2="1358.02" style="stroke:#800080; stroke-width:4; stroke-opacity:1"></line>
<line clip-path="url(#clip272)" x1="400.349" y1="1374.02" x2="384.349" y2="1390.02" style="stroke:#800080; stroke-width:4; stroke-opacity:1"></line>
<line clip-path="url(#clip272)" x1="400.349" y1="1374.02" x2="416.349" y2="1390.02" style="stroke:#800080; stroke-width:4; stroke-opacity:1"></line>
<line clip-path="url(#clip272)" x1="400.349" y1="1374.02" x2="416.349" y2="1358.02" style="stroke:#800080; stroke-width:4; stroke-opacity:1"></line>
<line clip-path="url(#clip272)" x1="610.624" y1="1339.64" x2="594.624" y2="1323.64" style="stroke:#800080; stroke-width:4; stroke-opacity:1"></line>
<line clip-path="url(#clip272)" x1="610.624" y1="1339.64" x2="594.624" y2="1355.64" style="stroke:#800080; stroke-width:4; stroke-opacity:1"></line>
<line clip-path="url(#clip272)" x1="610.624" y1="1339.64" x2="626.624" y2="1355.64" style="stroke:#800080; stroke-width:4; stroke-opacity:1"></line>
<line clip-path="url(#clip272)" x1="610.624" y1="1339.64" x2="626.624" y2="1323.64" style="stroke:#800080; stroke-width:4; stroke-opacity:1"></line>
<line clip-path="url(#clip272)" x1="926.037" y1="1234.97" x2="910.037" y2="1218.97" style="stroke:#800080; stroke-width:4; stroke-opacity:1"></line>
<line clip-path="url(#clip272)" x1="926.037" y1="1234.97" x2="910.037" y2="1250.97" style="stroke:#800080; stroke-width:4; stroke-opacity:1"></line>
<line clip-path="url(#clip272)" x1="926.037" y1="1234.97" x2="942.037" y2="1250.97" style="stroke:#800080; stroke-width:4; stroke-opacity:1"></line>
<line clip-path="url(#clip272)" x1="926.037" y1="1234.97" x2="942.037" y2="1218.97" style="stroke:#800080; stroke-width:4; stroke-opacity:1"></line>
<line clip-path="url(#clip272)" x1="1241.45" y1="1049.15" x2="1225.45" y2="1033.15" style="stroke:#800080; stroke-width:4; stroke-opacity:1"></line>
<line clip-path="url(#clip272)" x1="1241.45" y1="1049.15" x2="1225.45" y2="1065.15" style="stroke:#800080; stroke-width:4; stroke-opacity:1"></line>
<line clip-path="url(#clip272)" x1="1241.45" y1="1049.15" x2="1257.45" y2="1065.15" style="stroke:#800080; stroke-width:4; stroke-opacity:1"></line>
<line clip-path="url(#clip272)" x1="1241.45" y1="1049.15" x2="1257.45" y2="1033.15" style="stroke:#800080; stroke-width:4; stroke-opacity:1"></line>
<line clip-path="url(#clip272)" x1="1767.14" y1="709.692" x2="1751.14" y2="693.692" style="stroke:#800080; stroke-width:4; stroke-opacity:1"></line>
<line clip-path="url(#clip272)" x1="1767.14" y1="709.692" x2="1751.14" y2="725.692" style="stroke:#800080; stroke-width:4; stroke-opacity:1"></line>
<line clip-path="url(#clip272)" x1="1767.14" y1="709.692" x2="1783.14" y2="725.692" style="stroke:#800080; stroke-width:4; stroke-opacity:1"></line>
<line clip-path="url(#clip272)" x1="1767.14" y1="709.692" x2="1783.14" y2="693.692" style="stroke:#800080; stroke-width:4; stroke-opacity:1"></line>
<line clip-path="url(#clip272)" x1="2292.83" y1="160.256" x2="2276.83" y2="144.256" style="stroke:#800080; stroke-width:4; stroke-opacity:1"></line>
<line clip-path="url(#clip272)" x1="2292.83" y1="160.256" x2="2276.83" y2="176.256" style="stroke:#800080; stroke-width:4; stroke-opacity:1"></line>
<line clip-path="url(#clip272)" x1="2292.83" y1="160.256" x2="2308.83" y2="176.256" style="stroke:#800080; stroke-width:4; stroke-opacity:1"></line>
<line clip-path="url(#clip272)" x1="2292.83" y1="160.256" x2="2308.83" y2="144.256" style="stroke:#800080; stroke-width:4; stroke-opacity:1"></line>
<polyline clip-path="url(#clip272)" style="stroke:#0000ff; stroke-linecap:round; stroke-linejoin:round; stroke-width:4; stroke-opacity:1; fill:none" points="295.211,1386.4 400.349,1385.19 610.624,1375.1 926.037,1365 1241.45,1253.12 1767.14,1069.66 2292.83,821.831 "></polyline>
<line clip-path="url(#clip272)" x1="295.211" y1="1386.4" x2="279.211" y2="1370.4" style="stroke:#0000ff; stroke-width:4; stroke-opacity:1"></line>
<line clip-path="url(#clip272)" x1="295.211" y1="1386.4" x2="279.211" y2="1402.4" style="stroke:#0000ff; stroke-width:4; stroke-opacity:1"></line>
<line clip-path="url(#clip272)" x1="295.211" y1="1386.4" x2="311.211" y2="1402.4" style="stroke:#0000ff; stroke-width:4; stroke-opacity:1"></line>
<line clip-path="url(#clip272)" x1="295.211" y1="1386.4" x2="311.211" y2="1370.4" style="stroke:#0000ff; stroke-width:4; stroke-opacity:1"></line>
<line clip-path="url(#clip272)" x1="400.349" y1="1385.19" x2="384.349" y2="1369.19" style="stroke:#0000ff; stroke-width:4; stroke-opacity:1"></line>
<line clip-path="url(#clip272)" x1="400.349" y1="1385.19" x2="384.349" y2="1401.19" style="stroke:#0000ff; stroke-width:4; stroke-opacity:1"></line>
<line clip-path="url(#clip272)" x1="400.349" y1="1385.19" x2="416.349" y2="1401.19" style="stroke:#0000ff; stroke-width:4; stroke-opacity:1"></line>
<line clip-path="url(#clip272)" x1="400.349" y1="1385.19" x2="416.349" y2="1369.19" style="stroke:#0000ff; stroke-width:4; stroke-opacity:1"></line>
<line clip-path="url(#clip272)" x1="610.624" y1="1375.1" x2="594.624" y2="1359.1" style="stroke:#0000ff; stroke-width:4; stroke-opacity:1"></line>
<line clip-path="url(#clip272)" x1="610.624" y1="1375.1" x2="594.624" y2="1391.1" style="stroke:#0000ff; stroke-width:4; stroke-opacity:1"></line>
<line clip-path="url(#clip272)" x1="610.624" y1="1375.1" x2="626.624" y2="1391.1" style="stroke:#0000ff; stroke-width:4; stroke-opacity:1"></line>
<line clip-path="url(#clip272)" x1="610.624" y1="1375.1" x2="626.624" y2="1359.1" style="stroke:#0000ff; stroke-width:4; stroke-opacity:1"></line>
<line clip-path="url(#clip272)" x1="926.037" y1="1365" x2="910.037" y2="1349" style="stroke:#0000ff; stroke-width:4; stroke-opacity:1"></line>
<line clip-path="url(#clip272)" x1="926.037" y1="1365" x2="910.037" y2="1381" style="stroke:#0000ff; stroke-width:4; stroke-opacity:1"></line>
<line clip-path="url(#clip272)" x1="926.037" y1="1365" x2="942.037" y2="1381" style="stroke:#0000ff; stroke-width:4; stroke-opacity:1"></line>
<line clip-path="url(#clip272)" x1="926.037" y1="1365" x2="942.037" y2="1349" style="stroke:#0000ff; stroke-width:4; stroke-opacity:1"></line>
<line clip-path="url(#clip272)" x1="1241.45" y1="1253.12" x2="1225.45" y2="1237.12" style="stroke:#0000ff; stroke-width:4; stroke-opacity:1"></line>
<line clip-path="url(#clip272)" x1="1241.45" y1="1253.12" x2="1225.45" y2="1269.12" style="stroke:#0000ff; stroke-width:4; stroke-opacity:1"></line>
<line clip-path="url(#clip272)" x1="1241.45" y1="1253.12" x2="1257.45" y2="1269.12" style="stroke:#0000ff; stroke-width:4; stroke-opacity:1"></line>
<line clip-path="url(#clip272)" x1="1241.45" y1="1253.12" x2="1257.45" y2="1237.12" style="stroke:#0000ff; stroke-width:4; stroke-opacity:1"></line>
<line clip-path="url(#clip272)" x1="1767.14" y1="1069.66" x2="1751.14" y2="1053.66" style="stroke:#0000ff; stroke-width:4; stroke-opacity:1"></line>
<line clip-path="url(#clip272)" x1="1767.14" y1="1069.66" x2="1751.14" y2="1085.66" style="stroke:#0000ff; stroke-width:4; stroke-opacity:1"></line>
<line clip-path="url(#clip272)" x1="1767.14" y1="1069.66" x2="1783.14" y2="1085.66" style="stroke:#0000ff; stroke-width:4; stroke-opacity:1"></line>
<line clip-path="url(#clip272)" x1="1767.14" y1="1069.66" x2="1783.14" y2="1053.66" style="stroke:#0000ff; stroke-width:4; stroke-opacity:1"></line>
<line clip-path="url(#clip272)" x1="2292.83" y1="821.831" x2="2276.83" y2="805.831" style="stroke:#0000ff; stroke-width:4; stroke-opacity:1"></line>
<line clip-path="url(#clip272)" x1="2292.83" y1="821.831" x2="2276.83" y2="837.831" style="stroke:#0000ff; stroke-width:4; stroke-opacity:1"></line>
<line clip-path="url(#clip272)" x1="2292.83" y1="821.831" x2="2308.83" y2="837.831" style="stroke:#0000ff; stroke-width:4; stroke-opacity:1"></line>
<line clip-path="url(#clip272)" x1="2292.83" y1="821.831" x2="2308.83" y2="805.831" style="stroke:#0000ff; stroke-width:4; stroke-opacity:1"></line>
<path clip-path="url(#clip270)" d="M305.865 322.316 L943.652 322.316 L943.652 166.796 L305.865 166.796  Z" fill="#ffffff" fill-rule="evenodd" fill-opacity="1"></path>
<polyline clip-path="url(#clip270)" style="stroke:#000000; stroke-linecap:round; stroke-linejoin:round; stroke-width:4; stroke-opacity:1; fill:none" points="305.865,322.316 943.652,322.316 943.652,166.796 305.865,166.796 305.865,322.316 "></polyline>
<polyline clip-path="url(#clip270)" style="stroke:#800080; stroke-linecap:round; stroke-linejoin:round; stroke-width:4; stroke-opacity:1; fill:none" points="329.393,218.636 470.558,218.636 "></polyline>
<line clip-path="url(#clip270)" x1="399.975" y1="218.636" x2="378.19" y2="196.851" style="stroke:#800080; stroke-width:4.55111; stroke-opacity:1"></line>
<line clip-path="url(#clip270)" x1="399.975" y1="218.636" x2="378.19" y2="240.42" style="stroke:#800080; stroke-width:4.55111; stroke-opacity:1"></line>
<line clip-path="url(#clip270)" x1="399.975" y1="218.636" x2="421.76" y2="240.42" style="stroke:#800080; stroke-width:4.55111; stroke-opacity:1"></line>
<line clip-path="url(#clip270)" x1="399.975" y1="218.636" x2="421.76" y2="196.851" style="stroke:#800080; stroke-width:4.55111; stroke-opacity:1"></line>
<path clip-path="url(#clip270)" d="M494.085 201.356 L500.381 201.356 L515.705 230.268 L515.705 201.356 L520.242 201.356 L520.242 235.916 L513.946 235.916 L498.622 207.004 L498.622 235.916 L494.085 235.916 L494.085 201.356 Z" fill="#000000" fill-rule="nonzero" fill-opacity="1"></path><path clip-path="url(#clip270)" d="M539.409 212.976 Q535.983 212.976 533.992 215.661 Q532.002 218.323 532.002 222.976 Q532.002 227.629 533.969 230.314 Q535.96 232.976 539.409 232.976 Q542.812 232.976 544.802 230.291 Q546.793 227.606 546.793 222.976 Q546.793 218.37 544.802 215.684 Q542.812 212.976 539.409 212.976 M539.409 209.365 Q544.964 209.365 548.136 212.976 Q551.307 216.587 551.307 222.976 Q551.307 229.342 548.136 232.976 Q544.964 236.587 539.409 236.587 Q533.83 236.587 530.659 232.976 Q527.511 229.342 527.511 222.976 Q527.511 216.587 530.659 212.976 Q533.83 209.365 539.409 209.365 Z" fill="#000000" fill-rule="nonzero" fill-opacity="1"></path><path clip-path="url(#clip270)" d="M573.39 213.971 Q572.673 213.555 571.816 213.37 Q570.983 213.161 569.964 213.161 Q566.353 213.161 564.409 215.522 Q562.488 217.86 562.488 222.258 L562.488 235.916 L558.205 235.916 L558.205 209.99 L562.488 209.99 L562.488 214.018 Q563.83 211.657 565.983 210.522 Q568.136 209.365 571.214 209.365 Q571.654 209.365 572.187 209.434 Q572.719 209.481 573.367 209.596 L573.39 213.971 Z" fill="#000000" fill-rule="nonzero" fill-opacity="1"></path><path clip-path="url(#clip270)" d="M597.21 214.967 Q598.807 212.096 601.029 210.731 Q603.251 209.365 606.26 209.365 Q610.311 209.365 612.51 212.212 Q614.709 215.036 614.709 220.268 L614.709 235.916 L610.427 235.916 L610.427 220.407 Q610.427 216.68 609.108 214.874 Q607.788 213.069 605.08 213.069 Q601.77 213.069 599.848 215.268 Q597.927 217.467 597.927 221.263 L597.927 235.916 L593.645 235.916 L593.645 220.407 Q593.645 216.657 592.325 214.874 Q591.006 213.069 588.251 213.069 Q584.987 213.069 583.066 215.291 Q581.145 217.49 581.145 221.263 L581.145 235.916 L576.862 235.916 L576.862 209.99 L581.145 209.99 L581.145 214.018 Q582.603 211.633 584.64 210.499 Q586.677 209.365 589.478 209.365 Q592.302 209.365 594.27 210.8 Q596.26 212.235 597.21 214.967 Z" fill="#000000" fill-rule="nonzero" fill-opacity="1"></path><path clip-path="url(#clip270)" d="M634.987 222.883 Q629.825 222.883 627.834 224.064 Q625.844 225.244 625.844 228.092 Q625.844 230.36 627.325 231.703 Q628.83 233.022 631.399 233.022 Q634.941 233.022 637.07 230.522 Q639.223 227.999 639.223 223.832 L639.223 222.883 L634.987 222.883 M643.482 221.124 L643.482 235.916 L639.223 235.916 L639.223 231.981 Q637.765 234.342 635.589 235.476 Q633.413 236.587 630.265 236.587 Q626.283 236.587 623.922 234.365 Q621.584 232.119 621.584 228.369 Q621.584 223.994 624.501 221.772 Q627.441 219.55 633.251 219.55 L639.223 219.55 L639.223 219.133 Q639.223 216.194 637.279 214.596 Q635.358 212.976 631.862 212.976 Q629.64 212.976 627.533 213.508 Q625.427 214.041 623.483 215.106 L623.483 211.17 Q625.821 210.268 628.02 209.828 Q630.219 209.365 632.302 209.365 Q637.927 209.365 640.705 212.282 Q643.482 215.198 643.482 221.124 Z" fill="#000000" fill-rule="nonzero" fill-opacity="1"></path><path clip-path="url(#clip270)" d="M652.256 199.897 L656.515 199.897 L656.515 235.916 L652.256 235.916 L652.256 199.897 Z" fill="#000000" fill-rule="nonzero" fill-opacity="1"></path><path clip-path="url(#clip270)" d="M697.556 213.925 L697.556 199.897 L701.815 199.897 L701.815 235.916 L697.556 235.916 L697.556 232.027 Q696.214 234.342 694.153 235.476 Q692.116 236.587 689.246 236.587 Q684.547 236.587 681.584 232.837 Q678.644 229.087 678.644 222.976 Q678.644 216.865 681.584 213.115 Q684.547 209.365 689.246 209.365 Q692.116 209.365 694.153 210.499 Q696.214 211.61 697.556 213.925 M683.042 222.976 Q683.042 227.675 684.964 230.36 Q686.908 233.022 690.288 233.022 Q693.667 233.022 695.612 230.36 Q697.556 227.675 697.556 222.976 Q697.556 218.277 695.612 215.615 Q693.667 212.93 690.288 212.93 Q686.908 212.93 684.964 215.615 Q683.042 218.277 683.042 222.976 Z" fill="#000000" fill-rule="nonzero" fill-opacity="1"></path><path clip-path="url(#clip270)" d="M732.764 221.888 L732.764 223.971 L713.181 223.971 Q713.459 228.369 715.82 230.684 Q718.204 232.976 722.44 232.976 Q724.894 232.976 727.186 232.374 Q729.501 231.772 731.769 230.569 L731.769 234.596 Q729.477 235.568 727.07 236.078 Q724.663 236.587 722.186 236.587 Q715.982 236.587 712.348 232.976 Q708.737 229.365 708.737 223.207 Q708.737 216.842 712.163 213.115 Q715.612 209.365 721.445 209.365 Q726.676 209.365 729.709 212.745 Q732.764 216.101 732.764 221.888 M728.505 220.638 Q728.459 217.143 726.538 215.059 Q724.639 212.976 721.491 212.976 Q717.927 212.976 715.774 214.99 Q713.644 217.004 713.32 220.661 L728.505 220.638 Z" fill="#000000" fill-rule="nonzero" fill-opacity="1"></path><path clip-path="url(#clip270)" d="M743.875 232.027 L743.875 245.777 L739.593 245.777 L739.593 209.99 L743.875 209.99 L743.875 213.925 Q745.218 211.61 747.255 210.499 Q749.315 209.365 752.162 209.365 Q756.885 209.365 759.824 213.115 Q762.787 216.865 762.787 222.976 Q762.787 229.087 759.824 232.837 Q756.885 236.587 752.162 236.587 Q749.315 236.587 747.255 235.476 Q745.218 234.342 743.875 232.027 M758.366 222.976 Q758.366 218.277 756.422 215.615 Q754.5 212.93 751.121 212.93 Q747.741 212.93 745.797 215.615 Q743.875 218.277 743.875 222.976 Q743.875 227.675 745.797 230.36 Q747.741 233.022 751.121 233.022 Q754.5 233.022 756.422 230.36 Q758.366 227.675 758.366 222.976 Z" fill="#000000" fill-rule="nonzero" fill-opacity="1"></path><path clip-path="url(#clip270)" d="M774.06 202.629 L774.06 209.99 L782.834 209.99 L782.834 213.3 L774.06 213.3 L774.06 227.374 Q774.06 230.545 774.917 231.448 Q775.797 232.351 778.459 232.351 L782.834 232.351 L782.834 235.916 L778.459 235.916 Q773.528 235.916 771.653 234.087 Q769.778 232.235 769.778 227.374 L769.778 213.3 L766.653 213.3 L766.653 209.99 L769.778 209.99 L769.778 202.629 L774.06 202.629 Z" fill="#000000" fill-rule="nonzero" fill-opacity="1"></path><path clip-path="url(#clip270)" d="M809.986 220.268 L809.986 235.916 L805.727 235.916 L805.727 220.407 Q805.727 216.726 804.292 214.897 Q802.857 213.069 799.986 213.069 Q796.537 213.069 794.546 215.268 Q792.556 217.467 792.556 221.263 L792.556 235.916 L788.273 235.916 L788.273 199.897 L792.556 199.897 L792.556 214.018 Q794.084 211.68 796.144 210.522 Q798.227 209.365 800.935 209.365 Q805.403 209.365 807.695 212.143 Q809.986 214.897 809.986 220.268 Z" fill="#000000" fill-rule="nonzero" fill-opacity="1"></path><path clip-path="url(#clip270)" d="M832.972 201.356 L855.194 201.356 L855.194 203.346 L842.648 235.916 L837.764 235.916 L849.569 205.291 L832.972 205.291 L832.972 201.356 Z" fill="#000000" fill-rule="nonzero" fill-opacity="1"></path><polyline clip-path="url(#clip270)" style="stroke:#0000ff; stroke-linecap:round; stroke-linejoin:round; stroke-width:4; stroke-opacity:1; fill:none" points="329.393,270.476 470.558,270.476 "></polyline>
<line clip-path="url(#clip270)" x1="399.975" y1="270.476" x2="378.19" y2="248.691" style="stroke:#0000ff; stroke-width:4.55111; stroke-opacity:1"></line>
<line clip-path="url(#clip270)" x1="399.975" y1="270.476" x2="378.19" y2="292.26" style="stroke:#0000ff; stroke-width:4.55111; stroke-opacity:1"></line>
<line clip-path="url(#clip270)" x1="399.975" y1="270.476" x2="421.76" y2="292.26" style="stroke:#0000ff; stroke-width:4.55111; stroke-opacity:1"></line>
<line clip-path="url(#clip270)" x1="399.975" y1="270.476" x2="421.76" y2="248.691" style="stroke:#0000ff; stroke-width:4.55111; stroke-opacity:1"></line>
<path clip-path="url(#clip270)" d="M509.918 257.802 L503.576 275.001 L516.284 275.001 L509.918 257.802 M507.279 253.196 L512.58 253.196 L525.752 287.756 L520.891 287.756 L517.742 278.89 L502.164 278.89 L499.016 287.756 L494.085 287.756 L507.279 253.196 Z" fill="#000000" fill-rule="nonzero" fill-opacity="1"></path><path clip-path="url(#clip270)" d="M530.613 251.737 L534.872 251.737 L534.872 287.756 L530.613 287.756 L530.613 251.737 Z" fill="#000000" fill-rule="nonzero" fill-opacity="1"></path><path clip-path="url(#clip270)" d="M560.844 274.492 Q560.844 269.862 558.923 267.316 Q557.025 264.77 553.576 264.77 Q550.15 264.77 548.228 267.316 Q546.33 269.862 546.33 274.492 Q546.33 279.098 548.228 281.645 Q550.15 284.191 553.576 284.191 Q557.025 284.191 558.923 281.645 Q560.844 279.098 560.844 274.492 M565.103 284.538 Q565.103 291.158 562.163 294.376 Q559.224 297.617 553.159 297.617 Q550.914 297.617 548.923 297.27 Q546.932 296.945 545.057 296.251 L545.057 292.108 Q546.932 293.126 548.761 293.612 Q550.589 294.098 552.488 294.098 Q556.677 294.098 558.761 291.899 Q560.844 289.723 560.844 285.302 L560.844 283.196 Q559.525 285.487 557.464 286.621 Q555.404 287.756 552.534 287.756 Q547.765 287.756 544.849 284.121 Q541.932 280.487 541.932 274.492 Q541.932 268.473 544.849 264.839 Q547.765 261.205 552.534 261.205 Q555.404 261.205 557.464 262.339 Q559.525 263.473 560.844 265.765 L560.844 261.83 L565.103 261.83 L565.103 284.538 Z" fill="#000000" fill-rule="nonzero" fill-opacity="1"></path><path clip-path="url(#clip270)" d="M583.923 264.816 Q580.497 264.816 578.506 267.501 Q576.515 270.163 576.515 274.816 Q576.515 279.469 578.483 282.154 Q580.474 284.816 583.923 284.816 Q587.325 284.816 589.316 282.131 Q591.307 279.446 591.307 274.816 Q591.307 270.21 589.316 267.524 Q587.325 264.816 583.923 264.816 M583.923 261.205 Q589.478 261.205 592.649 264.816 Q595.821 268.427 595.821 274.816 Q595.821 281.182 592.649 284.816 Q589.478 288.427 583.923 288.427 Q578.344 288.427 575.173 284.816 Q572.025 281.182 572.025 274.816 Q572.025 268.427 575.173 264.816 Q578.344 261.205 583.923 261.205 Z" fill="#000000" fill-rule="nonzero" fill-opacity="1"></path><path clip-path="url(#clip270)" d="M617.904 265.811 Q617.186 265.395 616.33 265.21 Q615.496 265.001 614.478 265.001 Q610.867 265.001 608.922 267.362 Q607.001 269.7 607.001 274.098 L607.001 287.756 L602.719 287.756 L602.719 261.83 L607.001 261.83 L607.001 265.858 Q608.344 263.497 610.497 262.362 Q612.649 261.205 615.728 261.205 Q616.168 261.205 616.7 261.274 Q617.233 261.321 617.881 261.436 L617.904 265.811 Z" fill="#000000" fill-rule="nonzero" fill-opacity="1"></path><path clip-path="url(#clip270)" d="M622.371 261.83 L626.631 261.83 L626.631 287.756 L622.371 287.756 L622.371 261.83 M622.371 251.737 L626.631 251.737 L626.631 257.131 L622.371 257.131 L622.371 251.737 Z" fill="#000000" fill-rule="nonzero" fill-opacity="1"></path><path clip-path="url(#clip270)" d="M639.756 254.469 L639.756 261.83 L648.529 261.83 L648.529 265.14 L639.756 265.14 L639.756 279.214 Q639.756 282.385 640.612 283.288 Q641.492 284.191 644.154 284.191 L648.529 284.191 L648.529 287.756 L644.154 287.756 Q639.223 287.756 637.348 285.927 Q635.473 284.075 635.473 279.214 L635.473 265.14 L632.348 265.14 L632.348 261.83 L635.473 261.83 L635.473 254.469 L639.756 254.469 Z" fill="#000000" fill-rule="nonzero" fill-opacity="1"></path><path clip-path="url(#clip270)" d="M675.681 272.108 L675.681 287.756 L671.422 287.756 L671.422 272.247 Q671.422 268.566 669.987 266.737 Q668.552 264.909 665.681 264.909 Q662.232 264.909 660.242 267.108 Q658.251 269.307 658.251 273.103 L658.251 287.756 L653.969 287.756 L653.969 251.737 L658.251 251.737 L658.251 265.858 Q659.779 263.52 661.839 262.362 Q663.922 261.205 666.63 261.205 Q671.098 261.205 673.39 263.983 Q675.681 266.737 675.681 272.108 Z" fill="#000000" fill-rule="nonzero" fill-opacity="1"></path><path clip-path="url(#clip270)" d="M704.362 266.807 Q705.959 263.936 708.181 262.571 Q710.403 261.205 713.413 261.205 Q717.464 261.205 719.663 264.052 Q721.862 266.876 721.862 272.108 L721.862 287.756 L717.579 287.756 L717.579 272.247 Q717.579 268.52 716.26 266.714 Q714.94 264.909 712.232 264.909 Q708.922 264.909 707.001 267.108 Q705.079 269.307 705.079 273.103 L705.079 287.756 L700.797 287.756 L700.797 272.247 Q700.797 268.497 699.478 266.714 Q698.158 264.909 695.403 264.909 Q692.14 264.909 690.218 267.131 Q688.297 269.33 688.297 273.103 L688.297 287.756 L684.015 287.756 L684.015 261.83 L688.297 261.83 L688.297 265.858 Q689.755 263.473 691.792 262.339 Q693.829 261.205 696.63 261.205 Q699.454 261.205 701.422 262.64 Q703.413 264.075 704.362 266.807 Z" fill="#000000" fill-rule="nonzero" fill-opacity="1"></path><path clip-path="url(#clip270)" d="M762.486 265.765 L762.486 251.737 L766.746 251.737 L766.746 287.756 L762.486 287.756 L762.486 283.867 Q761.144 286.182 759.084 287.316 Q757.047 288.427 754.176 288.427 Q749.477 288.427 746.514 284.677 Q743.575 280.927 743.575 274.816 Q743.575 268.705 746.514 264.955 Q749.477 261.205 754.176 261.205 Q757.047 261.205 759.084 262.339 Q761.144 263.45 762.486 265.765 M747.973 274.816 Q747.973 279.515 749.894 282.2 Q751.838 284.862 755.218 284.862 Q758.598 284.862 760.542 282.2 Q762.486 279.515 762.486 274.816 Q762.486 270.117 760.542 267.455 Q758.598 264.77 755.218 264.77 Q751.838 264.77 749.894 267.455 Q747.973 270.117 747.973 274.816 Z" fill="#000000" fill-rule="nonzero" fill-opacity="1"></path><path clip-path="url(#clip270)" d="M797.695 273.728 L797.695 275.811 L778.111 275.811 Q778.389 280.209 780.75 282.524 Q783.134 284.816 787.371 284.816 Q789.824 284.816 792.116 284.214 Q794.431 283.612 796.699 282.409 L796.699 286.436 Q794.408 287.408 792 287.918 Q789.593 288.427 787.116 288.427 Q780.912 288.427 777.278 284.816 Q773.667 281.205 773.667 275.047 Q773.667 268.682 777.093 264.955 Q780.542 261.205 786.375 261.205 Q791.607 261.205 794.639 264.585 Q797.695 267.941 797.695 273.728 M793.435 272.478 Q793.389 268.983 791.468 266.899 Q789.57 264.816 786.422 264.816 Q782.857 264.816 780.704 266.83 Q778.574 268.844 778.25 272.501 L793.435 272.478 Z" fill="#000000" fill-rule="nonzero" fill-opacity="1"></path><path clip-path="url(#clip270)" d="M808.806 283.867 L808.806 297.617 L804.523 297.617 L804.523 261.83 L808.806 261.83 L808.806 265.765 Q810.148 263.45 812.185 262.339 Q814.245 261.205 817.093 261.205 Q821.815 261.205 824.755 264.955 Q827.718 268.705 827.718 274.816 Q827.718 280.927 824.755 284.677 Q821.815 288.427 817.093 288.427 Q814.245 288.427 812.185 287.316 Q810.148 286.182 808.806 283.867 M823.296 274.816 Q823.296 270.117 821.352 267.455 Q819.431 264.77 816.051 264.77 Q812.671 264.77 810.727 267.455 Q808.806 270.117 808.806 274.816 Q808.806 279.515 810.727 282.2 Q812.671 284.862 816.051 284.862 Q819.431 284.862 821.352 282.2 Q823.296 279.515 823.296 274.816 Z" fill="#000000" fill-rule="nonzero" fill-opacity="1"></path><path clip-path="url(#clip270)" d="M838.991 254.469 L838.991 261.83 L847.764 261.83 L847.764 265.14 L838.991 265.14 L838.991 279.214 Q838.991 282.385 839.847 283.288 Q840.727 284.191 843.389 284.191 L847.764 284.191 L847.764 287.756 L843.389 287.756 Q838.458 287.756 836.583 285.927 Q834.708 284.075 834.708 279.214 L834.708 265.14 L831.583 265.14 L831.583 261.83 L834.708 261.83 L834.708 254.469 L838.991 254.469 Z" fill="#000000" fill-rule="nonzero" fill-opacity="1"></path><path clip-path="url(#clip270)" d="M874.916 272.108 L874.916 287.756 L870.657 287.756 L870.657 272.247 Q870.657 268.566 869.222 266.737 Q867.787 264.909 864.916 264.909 Q861.467 264.909 859.477 267.108 Q857.486 269.307 857.486 273.103 L857.486 287.756 L853.204 287.756 L853.204 251.737 L857.486 251.737 L857.486 265.858 Q859.014 263.52 861.074 262.362 Q863.157 261.205 865.866 261.205 Q870.333 261.205 872.625 263.983 Q874.916 266.737 874.916 272.108 Z" fill="#000000" fill-rule="nonzero" fill-opacity="1"></path><path clip-path="url(#clip270)" d="M897.902 253.196 L920.124 253.196 L920.124 255.186 L907.578 287.756 L902.694 287.756 L914.5 257.131 L897.902 257.131 L897.902 253.196 Z" fill="#000000" fill-rule="nonzero" fill-opacity="1"></path></svg>