<svg xmlns="http://www.w3.org/2000/svg" xmlns:xlink="http://www.w3.org/1999/xlink" width="600" height="400" viewBox="0 0 2400 1600">
<defs>
  <clipPath id="clip470">
    <rect x="0" y="0" width="2400" height="1600"></rect>
  </clipPath>
</defs>
<path clip-path="url(#clip470)" d="M0 1600 L2400 1600 L2400 0 L0 0  Z" fill="#ffffff" fill-rule="evenodd" fill-opacity="1"></path>
<defs>
  <clipPath id="clip471">
    <rect x="480" y="0" width="1681" height="1600"></rect>
  </clipPath>
</defs>
<path clip-path="url(#clip470)" d="M337.944 1423.18 L2352.76 1423.18 L2352.76 123.472 L337.944 123.472  Z" fill="#ffffff" fill-rule="evenodd" fill-opacity="1"></path>
<defs>
  <clipPath id="clip472">
    <rect x="337" y="123" width="2016" height="1301"></rect>
  </clipPath>
</defs>
<polyline clip-path="url(#clip472)" style="stroke:#000000; stroke-linecap:round; stroke-linejoin:round; stroke-width:2; stroke-opacity:0.1; fill:none" points="394.967,1423.18 394.967,123.472 "></polyline>
<polyline clip-path="url(#clip472)" style="stroke:#000000; stroke-linecap:round; stroke-linejoin:round; stroke-width:2; stroke-opacity:0.1; fill:none" points="817.36,1423.18 817.36,123.472 "></polyline>
<polyline clip-path="url(#clip472)" style="stroke:#000000; stroke-linecap:round; stroke-linejoin:round; stroke-width:2; stroke-opacity:0.1; fill:none" points="1239.75,1423.18 1239.75,123.472 "></polyline>
<polyline clip-path="url(#clip472)" style="stroke:#000000; stroke-linecap:round; stroke-linejoin:round; stroke-width:2; stroke-opacity:0.1; fill:none" points="1662.14,1423.18 1662.14,123.472 "></polyline>
<polyline clip-path="url(#clip472)" style="stroke:#000000; stroke-linecap:round; stroke-linejoin:round; stroke-width:2; stroke-opacity:0.1; fill:none" points="2295.73,1423.18 2295.73,123.472 "></polyline>
<polyline clip-path="url(#clip470)" style="stroke:#000000; stroke-linecap:round; stroke-linejoin:round; stroke-width:4; stroke-opacity:1; fill:none" points="337.944,1423.18 2352.76,1423.18 "></polyline>
<polyline clip-path="url(#clip470)" style="stroke:#000000; stroke-linecap:round; stroke-linejoin:round; stroke-width:4; stroke-opacity:1; fill:none" points="394.967,1423.18 394.967,1404.28 "></polyline>
<polyline clip-path="url(#clip470)" style="stroke:#000000; stroke-linecap:round; stroke-linejoin:round; stroke-width:4; stroke-opacity:1; fill:none" points="817.36,1423.18 817.36,1404.28 "></polyline>
<polyline clip-path="url(#clip470)" style="stroke:#000000; stroke-linecap:round; stroke-linejoin:round; stroke-width:4; stroke-opacity:1; fill:none" points="1239.75,1423.18 1239.75,1404.28 "></polyline>
<polyline clip-path="url(#clip470)" style="stroke:#000000; stroke-linecap:round; stroke-linejoin:round; stroke-width:4; stroke-opacity:1; fill:none" points="1662.14,1423.18 1662.14,1404.28 "></polyline>
<polyline clip-path="url(#clip470)" style="stroke:#000000; stroke-linecap:round; stroke-linejoin:round; stroke-width:4; stroke-opacity:1; fill:none" points="2295.73,1423.18 2295.73,1404.28 "></polyline>
<path clip-path="url(#clip470)" d="M399.215 1466.95 Q402.571 1467.66 404.446 1469.93 Q406.345 1472.2 406.345 1475.53 Q406.345 1480.65 402.826 1483.45 Q399.308 1486.25 392.826 1486.25 Q390.65 1486.25 388.335 1485.81 Q386.044 1485.39 383.59 1484.54 L383.59 1480.02 Q385.534 1481.16 387.849 1481.74 Q390.164 1482.32 392.687 1482.32 Q397.085 1482.32 399.377 1480.58 Q401.692 1478.84 401.692 1475.53 Q401.692 1472.48 399.539 1470.77 Q397.409 1469.03 393.59 1469.03 L389.562 1469.03 L389.562 1465.19 L393.775 1465.19 Q397.224 1465.19 399.053 1463.82 Q400.882 1462.43 400.882 1459.84 Q400.882 1457.18 398.983 1455.77 Q397.108 1454.33 393.59 1454.33 Q391.669 1454.33 389.47 1454.75 Q387.271 1455.16 384.632 1456.04 L384.632 1451.88 Q387.294 1451.14 389.609 1450.77 Q391.946 1450.39 394.007 1450.39 Q399.331 1450.39 402.433 1452.83 Q405.534 1455.23 405.534 1459.35 Q405.534 1462.22 403.891 1464.21 Q402.247 1466.18 399.215 1466.95 Z" fill="#000000" fill-rule="nonzero" fill-opacity="1"></path><path clip-path="url(#clip470)" d="M807.637 1451.02 L825.994 1451.02 L825.994 1454.96 L811.92 1454.96 L811.92 1463.43 Q812.938 1463.08 813.957 1462.92 Q814.975 1462.73 815.994 1462.73 Q821.781 1462.73 825.161 1465.9 Q828.54 1469.08 828.54 1474.49 Q828.54 1480.07 825.068 1483.17 Q821.596 1486.25 815.276 1486.25 Q813.1 1486.25 810.832 1485.88 Q808.587 1485.51 806.179 1484.77 L806.179 1480.07 Q808.262 1481.2 810.485 1481.76 Q812.707 1482.32 815.184 1482.32 Q819.188 1482.32 821.526 1480.21 Q823.864 1478.1 823.864 1474.49 Q823.864 1470.88 821.526 1468.77 Q819.188 1466.67 815.184 1466.67 Q813.309 1466.67 811.434 1467.08 Q809.582 1467.5 807.637 1468.38 L807.637 1451.02 Z" fill="#000000" fill-rule="nonzero" fill-opacity="1"></path><path clip-path="url(#clip470)" d="M1228.64 1451.02 L1250.86 1451.02 L1250.86 1453.01 L1238.32 1485.58 L1233.43 1485.58 L1245.24 1454.96 L1228.64 1454.96 L1228.64 1451.02 Z" fill="#000000" fill-rule="nonzero" fill-opacity="1"></path><path clip-path="url(#clip470)" d="M1652.45 1484.86 L1652.45 1480.6 Q1654.2 1481.44 1656.01 1481.88 Q1657.82 1482.32 1659.55 1482.32 Q1664.18 1482.32 1666.61 1479.21 Q1669.07 1476.09 1669.41 1469.75 Q1668.07 1471.74 1666.01 1472.8 Q1663.95 1473.87 1661.45 1473.87 Q1656.26 1473.87 1653.23 1470.74 Q1650.22 1467.59 1650.22 1462.15 Q1650.22 1456.83 1653.37 1453.61 Q1656.52 1450.39 1661.75 1450.39 Q1667.75 1450.39 1670.89 1455 Q1674.07 1459.58 1674.07 1468.33 Q1674.07 1476.51 1670.18 1481.39 Q1666.31 1486.25 1659.76 1486.25 Q1658 1486.25 1656.2 1485.9 Q1654.39 1485.56 1652.45 1484.86 M1661.75 1470.21 Q1664.9 1470.21 1666.73 1468.06 Q1668.58 1465.9 1668.58 1462.15 Q1668.58 1458.43 1666.73 1456.27 Q1664.9 1454.1 1661.75 1454.1 Q1658.6 1454.1 1656.75 1456.27 Q1654.92 1458.43 1654.92 1462.15 Q1654.92 1465.9 1656.75 1468.06 Q1658.6 1470.21 1661.75 1470.21 Z" fill="#000000" fill-rule="nonzero" fill-opacity="1"></path><path clip-path="url(#clip470)" d="M2271.22 1481.64 L2278.86 1481.64 L2278.86 1455.28 L2270.55 1456.95 L2270.55 1452.69 L2278.81 1451.02 L2283.49 1451.02 L2283.49 1481.64 L2291.13 1481.64 L2291.13 1485.58 L2271.22 1485.58 L2271.22 1481.64 Z" fill="#000000" fill-rule="nonzero" fill-opacity="1"></path><path clip-path="url(#clip470)" d="M2304.6 1481.64 L2320.92 1481.64 L2320.92 1485.58 L2298.97 1485.58 L2298.97 1481.64 Q2301.64 1478.89 2306.22 1474.26 Q2310.83 1469.61 2312.01 1468.27 Q2314.25 1465.74 2315.13 1464.01 Q2316.03 1462.25 2316.03 1460.56 Q2316.03 1457.8 2314.09 1456.07 Q2312.17 1454.33 2309.07 1454.33 Q2306.87 1454.33 2304.41 1455.09 Q2301.98 1455.86 2299.21 1457.41 L2299.21 1452.69 Q2302.03 1451.55 2304.48 1450.97 Q2306.94 1450.39 2308.97 1450.39 Q2314.34 1450.39 2317.54 1453.08 Q2320.73 1455.77 2320.73 1460.26 Q2320.73 1462.39 2319.92 1464.31 Q2319.14 1466.2 2317.03 1468.8 Q2316.45 1469.47 2313.35 1472.69 Q2310.25 1475.88 2304.6 1481.64 Z" fill="#000000" fill-rule="nonzero" fill-opacity="1"></path><path clip-path="url(#clip470)" d="M1258.47 1525.81 L1258.47 1562.76 L1266.24 1562.76 Q1276.08 1562.76 1280.63 1558.3 Q1285.21 1553.85 1285.21 1544.24 Q1285.21 1534.69 1280.63 1530.26 Q1276.08 1525.81 1266.24 1525.81 L1258.47 1525.81 M1252.04 1520.52 L1265.25 1520.52 Q1279.07 1520.52 1285.53 1526.28 Q1291.99 1532.01 1291.99 1544.24 Q1291.99 1556.52 1285.5 1562.28 Q1279 1568.04 1265.25 1568.04 L1252.04 1568.04 L1252.04 1520.52 Z" fill="#000000" fill-rule="nonzero" fill-opacity="1"></path><path clip-path="url(#clip470)" d="M1332.48 1548.76 L1332.48 1551.62 L1305.55 1551.62 Q1305.93 1557.67 1309.18 1560.85 Q1312.46 1564 1318.28 1564 Q1321.65 1564 1324.8 1563.17 Q1327.99 1562.35 1331.11 1560.69 L1331.11 1566.23 Q1327.96 1567.57 1324.65 1568.27 Q1321.34 1568.97 1317.93 1568.97 Q1309.4 1568.97 1304.4 1564 Q1299.44 1559.04 1299.44 1550.57 Q1299.44 1541.82 1304.15 1536.69 Q1308.89 1531.54 1316.91 1531.54 Q1324.1 1531.54 1328.27 1536.18 Q1332.48 1540.8 1332.48 1548.76 M1326.62 1547.04 Q1326.56 1542.23 1323.91 1539.37 Q1321.3 1536.5 1316.97 1536.5 Q1312.07 1536.5 1309.11 1539.27 Q1306.19 1542.04 1305.74 1547.07 L1326.62 1547.04 Z" fill="#000000" fill-rule="nonzero" fill-opacity="1"></path><path clip-path="url(#clip470)" d="M1347.75 1562.7 L1347.75 1581.6 L1341.86 1581.6 L1341.86 1532.4 L1347.75 1532.4 L1347.75 1537.81 Q1349.6 1534.62 1352.4 1533.1 Q1355.23 1531.54 1359.15 1531.54 Q1365.64 1531.54 1369.68 1536.69 Q1373.76 1541.85 1373.76 1550.25 Q1373.76 1558.65 1369.68 1563.81 Q1365.64 1568.97 1359.15 1568.97 Q1355.23 1568.97 1352.4 1567.44 Q1349.6 1565.88 1347.75 1562.7 M1367.68 1550.25 Q1367.68 1543.79 1365 1540.13 Q1362.36 1536.44 1357.72 1536.44 Q1353.07 1536.44 1350.39 1540.13 Q1347.75 1543.79 1347.75 1550.25 Q1347.75 1556.71 1350.39 1560.4 Q1353.07 1564.07 1357.72 1564.07 Q1362.36 1564.07 1365 1560.4 Q1367.68 1556.71 1367.68 1550.25 Z" fill="#000000" fill-rule="nonzero" fill-opacity="1"></path><path clip-path="url(#clip470)" d="M1389.26 1522.27 L1389.26 1532.4 L1401.32 1532.4 L1401.32 1536.95 L1389.26 1536.95 L1389.26 1556.3 Q1389.26 1560.66 1390.44 1561.9 Q1391.64 1563.14 1395.31 1563.14 L1401.32 1563.14 L1401.32 1568.04 L1395.31 1568.04 Q1388.53 1568.04 1385.95 1565.53 Q1383.37 1562.98 1383.37 1556.3 L1383.37 1536.95 L1379.07 1536.95 L1379.07 1532.4 L1383.37 1532.4 L1383.37 1522.27 L1389.26 1522.27 Z" fill="#000000" fill-rule="nonzero" fill-opacity="1"></path><path clip-path="url(#clip470)" d="M1438.66 1546.53 L1438.66 1568.04 L1432.8 1568.04 L1432.8 1546.72 Q1432.8 1541.66 1430.83 1539.14 Q1428.85 1536.63 1424.91 1536.63 Q1420.16 1536.63 1417.43 1539.65 Q1414.69 1542.68 1414.69 1547.9 L1414.69 1568.04 L1408.8 1568.04 L1408.8 1518.52 L1414.69 1518.52 L1414.69 1537.93 Q1416.79 1534.72 1419.62 1533.13 Q1422.49 1531.54 1426.21 1531.54 Q1432.35 1531.54 1435.5 1535.36 Q1438.66 1539.14 1438.66 1546.53 Z" fill="#000000" fill-rule="nonzero" fill-opacity="1"></path><polyline clip-path="url(#clip472)" style="stroke:#000000; stroke-linecap:round; stroke-linejoin:round; stroke-width:2; stroke-opacity:0.1; fill:none" points="337.944,1422.98 2352.76,1422.98 "></polyline>
<polyline clip-path="url(#clip472)" style="stroke:#000000; stroke-linecap:round; stroke-linejoin:round; stroke-width:2; stroke-opacity:0.1; fill:none" points="337.944,1168.74 2352.76,1168.74 "></polyline>
<polyline clip-path="url(#clip472)" style="stroke:#000000; stroke-linecap:round; stroke-linejoin:round; stroke-width:2; stroke-opacity:0.1; fill:none" points="337.944,914.499 2352.76,914.499 "></polyline>
<polyline clip-path="url(#clip472)" style="stroke:#000000; stroke-linecap:round; stroke-linejoin:round; stroke-width:2; stroke-opacity:0.1; fill:none" points="337.944,660.259 2352.76,660.259 "></polyline>
<polyline clip-path="url(#clip472)" style="stroke:#000000; stroke-linecap:round; stroke-linejoin:round; stroke-width:2; stroke-opacity:0.1; fill:none" points="337.944,406.02 2352.76,406.02 "></polyline>
<polyline clip-path="url(#clip472)" style="stroke:#000000; stroke-linecap:round; stroke-linejoin:round; stroke-width:2; stroke-opacity:0.1; fill:none" points="337.944,151.78 2352.76,151.78 "></polyline>
<polyline clip-path="url(#clip470)" style="stroke:#000000; stroke-linecap:round; stroke-linejoin:round; stroke-width:4; stroke-opacity:1; fill:none" points="337.944,1423.18 337.944,123.472 "></polyline>
<polyline clip-path="url(#clip470)" style="stroke:#000000; stroke-linecap:round; stroke-linejoin:round; stroke-width:4; stroke-opacity:1; fill:none" points="337.944,1422.98 356.842,1422.98 "></polyline>
<polyline clip-path="url(#clip470)" style="stroke:#000000; stroke-linecap:round; stroke-linejoin:round; stroke-width:4; stroke-opacity:1; fill:none" points="337.944,1168.74 356.842,1168.74 "></polyline>
<polyline clip-path="url(#clip470)" style="stroke:#000000; stroke-linecap:round; stroke-linejoin:round; stroke-width:4; stroke-opacity:1; fill:none" points="337.944,914.499 356.842,914.499 "></polyline>
<polyline clip-path="url(#clip470)" style="stroke:#000000; stroke-linecap:round; stroke-linejoin:round; stroke-width:4; stroke-opacity:1; fill:none" points="337.944,660.259 356.842,660.259 "></polyline>
<polyline clip-path="url(#clip470)" style="stroke:#000000; stroke-linecap:round; stroke-linejoin:round; stroke-width:4; stroke-opacity:1; fill:none" points="337.944,406.02 356.842,406.02 "></polyline>
<polyline clip-path="url(#clip470)" style="stroke:#000000; stroke-linecap:round; stroke-linejoin:round; stroke-width:4; stroke-opacity:1; fill:none" points="337.944,151.78 356.842,151.78 "></polyline>
<path clip-path="url(#clip470)" d="M245.996 1408.78 Q242.384 1408.78 240.556 1412.34 Q238.75 1415.88 238.75 1423.01 Q238.75 1430.12 240.556 1433.68 Q242.384 1437.23 245.996 1437.23 Q249.63 1437.23 251.435 1433.68 Q253.264 1430.12 253.264 1423.01 Q253.264 1415.88 251.435 1412.34 Q249.63 1408.78 245.996 1408.78 M245.996 1405.07 Q251.806 1405.07 254.861 1409.68 Q257.94 1414.26 257.94 1423.01 Q257.94 1431.74 254.861 1436.35 Q251.806 1440.93 245.996 1440.93 Q240.185 1440.93 237.107 1436.35 Q234.051 1431.74 234.051 1423.01 Q234.051 1414.26 237.107 1409.68 Q240.185 1405.07 245.996 1405.07 Z" fill="#000000" fill-rule="nonzero" fill-opacity="1"></path><path clip-path="url(#clip470)" d="M266.157 1434.38 L271.042 1434.38 L271.042 1440.26 L266.157 1440.26 L266.157 1434.38 Z" fill="#000000" fill-rule="nonzero" fill-opacity="1"></path><path clip-path="url(#clip470)" d="M282.037 1436.32 L289.676 1436.32 L289.676 1409.96 L281.366 1411.62 L281.366 1407.36 L289.63 1405.7 L294.305 1405.7 L294.305 1436.32 L301.944 1436.32 L301.944 1440.26 L282.037 1440.26 L282.037 1436.32 Z" fill="#000000" fill-rule="nonzero" fill-opacity="1"></path><path clip-path="url(#clip470)" d="M235.579 1182.08 L243.218 1182.08 L243.218 1155.72 L234.908 1157.38 L234.908 1153.12 L243.172 1151.46 L247.847 1151.46 L247.847 1182.08 L255.486 1182.08 L255.486 1186.02 L235.579 1186.02 L235.579 1182.08 Z" fill="#000000" fill-rule="nonzero" fill-opacity="1"></path><path clip-path="url(#clip470)" d="M264.931 1180.14 L269.815 1180.14 L269.815 1186.02 L264.931 1186.02 L264.931 1180.14 Z" fill="#000000" fill-rule="nonzero" fill-opacity="1"></path><path clip-path="url(#clip470)" d="M290 1154.54 Q286.389 1154.54 284.56 1158.1 Q282.755 1161.64 282.755 1168.77 Q282.755 1175.88 284.56 1179.44 Q286.389 1182.99 290 1182.99 Q293.634 1182.99 295.44 1179.44 Q297.268 1175.88 297.268 1168.77 Q297.268 1161.64 295.44 1158.1 Q293.634 1154.54 290 1154.54 M290 1150.83 Q295.81 1150.83 298.866 1155.44 Q301.944 1160.02 301.944 1168.77 Q301.944 1177.5 298.866 1182.11 Q295.81 1186.69 290 1186.69 Q284.19 1186.69 281.111 1182.11 Q278.056 1177.5 278.056 1168.77 Q278.056 1160.02 281.111 1155.44 Q284.19 1150.83 290 1150.83 Z" fill="#000000" fill-rule="nonzero" fill-opacity="1"></path><path clip-path="url(#clip470)" d="M205.417 927.844 L213.056 927.844 L213.056 901.478 L204.746 903.145 L204.746 898.885 L213.01 897.219 L217.686 897.219 L217.686 927.844 L225.324 927.844 L225.324 931.779 L205.417 931.779 L205.417 927.844 Z" fill="#000000" fill-rule="nonzero" fill-opacity="1"></path><path clip-path="url(#clip470)" d="M244.769 900.297 Q241.158 900.297 239.329 903.862 Q237.523 907.404 237.523 914.533 Q237.523 921.64 239.329 925.205 Q241.158 928.746 244.769 928.746 Q248.403 928.746 250.209 925.205 Q252.037 921.64 252.037 914.533 Q252.037 907.404 250.209 903.862 Q248.403 900.297 244.769 900.297 M244.769 896.594 Q250.579 896.594 253.634 901.2 Q256.713 905.783 256.713 914.533 Q256.713 923.26 253.634 927.867 Q250.579 932.45 244.769 932.45 Q238.959 932.45 235.88 927.867 Q232.824 923.26 232.824 914.533 Q232.824 905.783 235.88 901.2 Q238.959 896.594 244.769 896.594 Z" fill="#000000" fill-rule="nonzero" fill-opacity="1"></path><path clip-path="url(#clip470)" d="M264.931 925.899 L269.815 925.899 L269.815 931.779 L264.931 931.779 L264.931 925.899 Z" fill="#000000" fill-rule="nonzero" fill-opacity="1"></path><path clip-path="url(#clip470)" d="M290 900.297 Q286.389 900.297 284.56 903.862 Q282.755 907.404 282.755 914.533 Q282.755 921.64 284.56 925.205 Q286.389 928.746 290 928.746 Q293.634 928.746 295.44 925.205 Q297.268 921.64 297.268 914.533 Q297.268 907.404 295.44 903.862 Q293.634 900.297 290 900.297 M290 896.594 Q295.81 896.594 298.866 901.2 Q301.944 905.783 301.944 914.533 Q301.944 923.26 298.866 927.867 Q295.81 932.45 290 932.45 Q284.19 932.45 281.111 927.867 Q278.056 923.26 278.056 914.533 Q278.056 905.783 281.111 901.2 Q284.19 896.594 290 896.594 Z" fill="#000000" fill-rule="nonzero" fill-opacity="1"></path><path clip-path="url(#clip470)" d="M175.255 673.604 L182.894 673.604 L182.894 647.238 L174.584 648.905 L174.584 644.646 L182.848 642.979 L187.524 642.979 L187.524 673.604 L195.163 673.604 L195.163 677.539 L175.255 677.539 L175.255 673.604 Z" fill="#000000" fill-rule="nonzero" fill-opacity="1"></path><path clip-path="url(#clip470)" d="M214.607 646.058 Q210.996 646.058 209.167 649.623 Q207.362 653.164 207.362 660.294 Q207.362 667.4 209.167 670.965 Q210.996 674.507 214.607 674.507 Q218.241 674.507 220.047 670.965 Q221.875 667.4 221.875 660.294 Q221.875 653.164 220.047 649.623 Q218.241 646.058 214.607 646.058 M214.607 642.354 Q220.417 642.354 223.473 646.961 Q226.551 651.544 226.551 660.294 Q226.551 669.021 223.473 673.627 Q220.417 678.21 214.607 678.21 Q208.797 678.21 205.718 673.627 Q202.662 669.021 202.662 660.294 Q202.662 651.544 205.718 646.961 Q208.797 642.354 214.607 642.354 Z" fill="#000000" fill-rule="nonzero" fill-opacity="1"></path><path clip-path="url(#clip470)" d="M244.769 646.058 Q241.158 646.058 239.329 649.623 Q237.523 653.164 237.523 660.294 Q237.523 667.4 239.329 670.965 Q241.158 674.507 244.769 674.507 Q248.403 674.507 250.209 670.965 Q252.037 667.4 252.037 660.294 Q252.037 653.164 250.209 649.623 Q248.403 646.058 244.769 646.058 M244.769 642.354 Q250.579 642.354 253.634 646.961 Q256.713 651.544 256.713 660.294 Q256.713 669.021 253.634 673.627 Q250.579 678.21 244.769 678.21 Q238.959 678.21 235.88 673.627 Q232.824 669.021 232.824 660.294 Q232.824 651.544 235.88 646.961 Q238.959 642.354 244.769 642.354 Z" fill="#000000" fill-rule="nonzero" fill-opacity="1"></path><path clip-path="url(#clip470)" d="M264.931 671.66 L269.815 671.66 L269.815 677.539 L264.931 677.539 L264.931 671.66 Z" fill="#000000" fill-rule="nonzero" fill-opacity="1"></path><path clip-path="url(#clip470)" d="M290 646.058 Q286.389 646.058 284.56 649.623 Q282.755 653.164 282.755 660.294 Q282.755 667.4 284.56 670.965 Q286.389 674.507 290 674.507 Q293.634 674.507 295.44 670.965 Q297.268 667.4 297.268 660.294 Q297.268 653.164 295.44 649.623 Q293.634 646.058 290 646.058 M290 642.354 Q295.81 642.354 298.866 646.961 Q301.944 651.544 301.944 660.294 Q301.944 669.021 298.866 673.627 Q295.81 678.21 290 678.21 Q284.19 678.21 281.111 673.627 Q278.056 669.021 278.056 660.294 Q278.056 651.544 281.111 646.961 Q284.19 642.354 290 642.354 Z" fill="#000000" fill-rule="nonzero" fill-opacity="1"></path><path clip-path="url(#clip470)" d="M145.093 419.364 L152.732 419.364 L152.732 392.999 L144.422 394.665 L144.422 390.406 L152.686 388.74 L157.362 388.74 L157.362 419.364 L165.001 419.364 L165.001 423.3 L145.093 423.3 L145.093 419.364 Z" fill="#000000" fill-rule="nonzero" fill-opacity="1"></path><path clip-path="url(#clip470)" d="M184.445 391.818 Q180.834 391.818 179.005 395.383 Q177.2 398.925 177.2 406.054 Q177.2 413.161 179.005 416.725 Q180.834 420.267 184.445 420.267 Q188.079 420.267 189.885 416.725 Q191.713 413.161 191.713 406.054 Q191.713 398.925 189.885 395.383 Q188.079 391.818 184.445 391.818 M184.445 388.115 Q190.255 388.115 193.311 392.721 Q196.389 397.304 196.389 406.054 Q196.389 414.781 193.311 419.388 Q190.255 423.971 184.445 423.971 Q178.635 423.971 175.556 419.388 Q172.501 414.781 172.501 406.054 Q172.501 397.304 175.556 392.721 Q178.635 388.115 184.445 388.115 Z" fill="#000000" fill-rule="nonzero" fill-opacity="1"></path><path clip-path="url(#clip470)" d="M214.607 391.818 Q210.996 391.818 209.167 395.383 Q207.362 398.925 207.362 406.054 Q207.362 413.161 209.167 416.725 Q210.996 420.267 214.607 420.267 Q218.241 420.267 220.047 416.725 Q221.875 413.161 221.875 406.054 Q221.875 398.925 220.047 395.383 Q218.241 391.818 214.607 391.818 M214.607 388.115 Q220.417 388.115 223.473 392.721 Q226.551 397.304 226.551 406.054 Q226.551 414.781 223.473 419.388 Q220.417 423.971 214.607 423.971 Q208.797 423.971 205.718 419.388 Q202.662 414.781 202.662 406.054 Q202.662 397.304 205.718 392.721 Q208.797 388.115 214.607 388.115 Z" fill="#000000" fill-rule="nonzero" fill-opacity="1"></path><path clip-path="url(#clip470)" d="M244.769 391.818 Q241.158 391.818 239.329 395.383 Q237.523 398.925 237.523 406.054 Q237.523 413.161 239.329 416.725 Q241.158 420.267 244.769 420.267 Q248.403 420.267 250.209 416.725 Q252.037 413.161 252.037 406.054 Q252.037 398.925 250.209 395.383 Q248.403 391.818 244.769 391.818 M244.769 388.115 Q250.579 388.115 253.634 392.721 Q256.713 397.304 256.713 406.054 Q256.713 414.781 253.634 419.388 Q250.579 423.971 244.769 423.971 Q238.959 423.971 235.88 419.388 Q232.824 414.781 232.824 406.054 Q232.824 397.304 235.88 392.721 Q238.959 388.115 244.769 388.115 Z" fill="#000000" fill-rule="nonzero" fill-opacity="1"></path><path clip-path="url(#clip470)" d="M264.931 417.42 L269.815 417.42 L269.815 423.3 L264.931 423.3 L264.931 417.42 Z" fill="#000000" fill-rule="nonzero" fill-opacity="1"></path><path clip-path="url(#clip470)" d="M290 391.818 Q286.389 391.818 284.56 395.383 Q282.755 398.925 282.755 406.054 Q282.755 413.161 284.56 416.725 Q286.389 420.267 290 420.267 Q293.634 420.267 295.44 416.725 Q297.268 413.161 297.268 406.054 Q297.268 398.925 295.44 395.383 Q293.634 391.818 290 391.818 M290 388.115 Q295.81 388.115 298.866 392.721 Q301.944 397.304 301.944 406.054 Q301.944 414.781 298.866 419.388 Q295.81 423.971 290 423.971 Q284.19 423.971 281.111 419.388 Q278.056 414.781 278.056 406.054 Q278.056 397.304 281.111 392.721 Q284.19 388.115 290 388.115 Z" fill="#000000" fill-rule="nonzero" fill-opacity="1"></path><path clip-path="url(#clip470)" d="M114.931 165.125 L122.57 165.125 L122.57 138.759 L114.26 140.426 L114.26 136.167 L122.524 134.5 L127.2 134.5 L127.2 165.125 L134.839 165.125 L134.839 169.06 L114.931 169.06 L114.931 165.125 Z" fill="#000000" fill-rule="nonzero" fill-opacity="1"></path><path clip-path="url(#clip470)" d="M154.283 137.579 Q150.672 137.579 148.843 141.143 Q147.038 144.685 147.038 151.815 Q147.038 158.921 148.843 162.486 Q150.672 166.028 154.283 166.028 Q157.917 166.028 159.723 162.486 Q161.552 158.921 161.552 151.815 Q161.552 144.685 159.723 141.143 Q157.917 137.579 154.283 137.579 M154.283 133.875 Q160.093 133.875 163.149 138.481 Q166.227 143.065 166.227 151.815 Q166.227 160.541 163.149 165.148 Q160.093 169.731 154.283 169.731 Q148.473 169.731 145.394 165.148 Q142.339 160.541 142.339 151.815 Q142.339 143.065 145.394 138.481 Q148.473 133.875 154.283 133.875 Z" fill="#000000" fill-rule="nonzero" fill-opacity="1"></path><path clip-path="url(#clip470)" d="M184.445 137.579 Q180.834 137.579 179.005 141.143 Q177.2 144.685 177.2 151.815 Q177.2 158.921 179.005 162.486 Q180.834 166.028 184.445 166.028 Q188.079 166.028 189.885 162.486 Q191.713 158.921 191.713 151.815 Q191.713 144.685 189.885 141.143 Q188.079 137.579 184.445 137.579 M184.445 133.875 Q190.255 133.875 193.311 138.481 Q196.389 143.065 196.389 151.815 Q196.389 160.541 193.311 165.148 Q190.255 169.731 184.445 169.731 Q178.635 169.731 175.556 165.148 Q172.501 160.541 172.501 151.815 Q172.501 143.065 175.556 138.481 Q178.635 133.875 184.445 133.875 Z" fill="#000000" fill-rule="nonzero" fill-opacity="1"></path><path clip-path="url(#clip470)" d="M214.607 137.579 Q210.996 137.579 209.167 141.143 Q207.362 144.685 207.362 151.815 Q207.362 158.921 209.167 162.486 Q210.996 166.028 214.607 166.028 Q218.241 166.028 220.047 162.486 Q221.875 158.921 221.875 151.815 Q221.875 144.685 220.047 141.143 Q218.241 137.579 214.607 137.579 M214.607 133.875 Q220.417 133.875 223.473 138.481 Q226.551 143.065 226.551 151.815 Q226.551 160.541 223.473 165.148 Q220.417 169.731 214.607 169.731 Q208.797 169.731 205.718 165.148 Q202.662 160.541 202.662 151.815 Q202.662 143.065 205.718 138.481 Q208.797 133.875 214.607 133.875 Z" fill="#000000" fill-rule="nonzero" fill-opacity="1"></path><path clip-path="url(#clip470)" d="M244.769 137.579 Q241.158 137.579 239.329 141.143 Q237.523 144.685 237.523 151.815 Q237.523 158.921 239.329 162.486 Q241.158 166.028 244.769 166.028 Q248.403 166.028 250.209 162.486 Q252.037 158.921 252.037 151.815 Q252.037 144.685 250.209 141.143 Q248.403 137.579 244.769 137.579 M244.769 133.875 Q250.579 133.875 253.634 138.481 Q256.713 143.065 256.713 151.815 Q256.713 160.541 253.634 165.148 Q250.579 169.731 244.769 169.731 Q238.959 169.731 235.88 165.148 Q232.824 160.541 232.824 151.815 Q232.824 143.065 235.88 138.481 Q238.959 133.875 244.769 133.875 Z" fill="#000000" fill-rule="nonzero" fill-opacity="1"></path><path clip-path="url(#clip470)" d="M264.931 163.18 L269.815 163.18 L269.815 169.06 L264.931 169.06 L264.931 163.18 Z" fill="#000000" fill-rule="nonzero" fill-opacity="1"></path><path clip-path="url(#clip470)" d="M290 137.579 Q286.389 137.579 284.56 141.143 Q282.755 144.685 282.755 151.815 Q282.755 158.921 284.56 162.486 Q286.389 166.028 290 166.028 Q293.634 166.028 295.44 162.486 Q297.268 158.921 297.268 151.815 Q297.268 144.685 295.44 141.143 Q293.634 137.579 290 137.579 M290 133.875 Q295.81 133.875 298.866 138.481 Q301.944 143.065 301.944 151.815 Q301.944 160.541 298.866 165.148 Q295.81 169.731 290 169.731 Q284.19 169.731 281.111 165.148 Q278.056 160.541 278.056 151.815 Q278.056 143.065 281.111 138.481 Q284.19 133.875 290 133.875 Z" fill="#000000" fill-rule="nonzero" fill-opacity="1"></path><path clip-path="url(#clip470)" d="M16.4842 984.286 L16.4842 944.086 L21.895 944.086 L21.895 960.955 L64.0042 960.955 L64.0042 967.416 L21.895 967.416 L21.895 984.286 L16.4842 984.286 Z" fill="#000000" fill-rule="nonzero" fill-opacity="1"></path><path clip-path="url(#clip470)" d="M33.8307 927.058 Q33.2578 928.044 33.0032 929.222 Q32.7167 930.368 32.7167 931.768 Q32.7167 936.734 35.9632 939.407 Q39.1779 942.049 45.2253 942.049 L64.0042 942.049 L64.0042 947.937 L28.3562 947.937 L28.3562 942.049 L33.8944 942.049 Q30.6479 940.203 29.0883 937.243 Q27.4968 934.283 27.4968 930.05 Q27.4968 929.445 27.5923 928.713 Q27.656 927.981 27.8151 927.09 L33.8307 927.058 Z" fill="#000000" fill-rule="nonzero" fill-opacity="1"></path><path clip-path="url(#clip470)" d="M46.0847 904.714 Q46.0847 911.812 47.7079 914.549 Q49.3312 917.286 53.2461 917.286 Q56.3653 917.286 58.2114 915.249 Q60.0256 913.181 60.0256 909.648 Q60.0256 904.778 56.5881 901.85 Q53.1188 898.89 47.3897 898.89 L46.0847 898.89 L46.0847 904.714 M43.6657 893.033 L64.0042 893.033 L64.0042 898.89 L58.5933 898.89 Q61.8398 900.895 63.3994 903.887 Q64.9272 906.879 64.9272 911.207 Q64.9272 916.682 61.8716 919.928 Q58.7843 923.143 53.6281 923.143 Q47.6125 923.143 44.5569 919.132 Q41.5014 915.09 41.5014 907.101 L41.5014 898.89 L40.9285 898.89 Q36.8862 898.89 34.6901 901.563 Q32.4621 904.205 32.4621 909.011 Q32.4621 912.067 33.1941 914.963 Q33.9262 917.859 35.3903 920.533 L29.9795 920.533 Q28.7381 917.318 28.1334 914.295 Q27.4968 911.271 27.4968 908.406 Q27.4968 900.672 31.5072 896.853 Q35.5176 893.033 43.6657 893.033 Z" fill="#000000" fill-rule="nonzero" fill-opacity="1"></path><path clip-path="url(#clip470)" d="M28.3562 880.97 L28.3562 875.114 L64.0042 875.114 L64.0042 880.97 L28.3562 880.97 M14.479 880.97 L14.479 875.114 L21.895 875.114 L21.895 880.97 L14.479 880.97 Z" fill="#000000" fill-rule="nonzero" fill-opacity="1"></path><path clip-path="url(#clip470)" d="M42.4881 833.227 L64.0042 833.227 L64.0042 839.084 L42.679 839.084 Q37.6183 839.084 35.1038 841.057 Q32.5894 843.03 32.5894 846.977 Q32.5894 851.72 35.6131 854.457 Q38.6368 857.194 43.8567 857.194 L64.0042 857.194 L64.0042 863.082 L28.3562 863.082 L28.3562 857.194 L33.8944 857.194 Q30.6797 855.093 29.0883 852.261 Q27.4968 849.396 27.4968 845.672 Q27.4968 839.529 31.3163 836.378 Q35.1038 833.227 42.4881 833.227 Z" fill="#000000" fill-rule="nonzero" fill-opacity="1"></path><path clip-path="url(#clip470)" d="M28.3562 821.546 L28.3562 815.69 L64.0042 815.69 L64.0042 821.546 L28.3562 821.546 M14.479 821.546 L14.479 815.69 L21.895 815.69 L21.895 821.546 L14.479 821.546 Z" fill="#000000" fill-rule="nonzero" fill-opacity="1"></path><path clip-path="url(#clip470)" d="M42.4881 773.803 L64.0042 773.803 L64.0042 779.66 L42.679 779.66 Q37.6183 779.66 35.1038 781.633 Q32.5894 783.607 32.5894 787.553 Q32.5894 792.296 35.6131 795.033 Q38.6368 797.77 43.8567 797.77 L64.0042 797.77 L64.0042 803.659 L28.3562 803.659 L28.3562 797.77 L33.8944 797.77 Q30.6797 795.67 29.0883 792.837 Q27.4968 789.972 27.4968 786.248 Q27.4968 780.105 31.3163 776.954 Q35.1038 773.803 42.4881 773.803 Z" fill="#000000" fill-rule="nonzero" fill-opacity="1"></path><path clip-path="url(#clip470)" d="M45.7664 738.665 Q39.4007 738.665 35.8996 741.306 Q32.3984 743.916 32.3984 748.659 Q32.3984 753.369 35.8996 756.011 Q39.4007 758.621 45.7664 758.621 Q52.1003 758.621 55.6014 756.011 Q59.1026 753.369 59.1026 748.659 Q59.1026 743.916 55.6014 741.306 Q52.1003 738.665 45.7664 738.665 M59.58 732.808 Q68.683 732.808 73.1071 736.85 Q77.5631 740.893 77.5631 749.232 Q77.5631 752.319 77.0857 755.056 Q76.6401 757.794 75.6852 760.372 L69.9879 760.372 Q71.3884 757.794 72.0568 755.279 Q72.7252 752.765 72.7252 750.155 Q72.7252 744.394 69.7015 741.529 Q66.7096 738.665 60.6303 738.665 L57.7339 738.665 Q60.885 740.479 62.4446 743.312 Q64.0042 746.144 64.0042 750.091 Q64.0042 756.648 59.0071 760.658 Q54.01 764.669 45.7664 764.669 Q37.491 764.669 32.4939 760.658 Q27.4968 756.648 27.4968 750.091 Q27.4968 746.144 29.0564 743.312 Q30.616 740.479 33.7671 738.665 L28.3562 738.665 L28.3562 732.808 L59.58 732.808 Z" fill="#000000" fill-rule="nonzero" fill-opacity="1"></path><path clip-path="url(#clip470)" d="M18.2347 694.232 L28.3562 694.232 L28.3562 682.169 L32.9077 682.169 L32.9077 694.232 L52.2594 694.232 Q56.6199 694.232 57.8613 693.054 Q59.1026 691.845 59.1026 688.185 L59.1026 682.169 L64.0042 682.169 L64.0042 688.185 Q64.0042 694.964 61.4897 697.542 Q58.9434 700.12 52.2594 700.12 L32.9077 700.12 L32.9077 704.417 L28.3562 704.417 L28.3562 700.12 L18.2347 700.12 L18.2347 694.232 Z" fill="#000000" fill-rule="nonzero" fill-opacity="1"></path><path clip-path="url(#clip470)" d="M28.3562 674.467 L28.3562 668.61 L64.0042 668.61 L64.0042 674.467 L28.3562 674.467 M14.479 674.467 L14.479 668.61 L21.895 668.61 L21.895 674.467 L14.479 674.467 Z" fill="#000000" fill-rule="nonzero" fill-opacity="1"></path><path clip-path="url(#clip470)" d="M35.1993 628.602 Q31.2526 626.405 29.3747 623.35 Q27.4968 620.294 27.4968 616.157 Q27.4968 610.587 31.4117 607.563 Q35.2948 604.539 42.4881 604.539 L64.0042 604.539 L64.0042 610.428 L42.679 610.428 Q37.5546 610.428 35.072 612.242 Q32.5894 614.056 32.5894 617.78 Q32.5894 622.331 35.6131 624.973 Q38.6368 627.615 43.8567 627.615 L64.0042 627.615 L64.0042 633.503 L42.679 633.503 Q37.5228 633.503 35.072 635.317 Q32.5894 637.132 32.5894 640.919 Q32.5894 645.407 35.6449 648.049 Q38.6686 650.691 43.8567 650.691 L64.0042 650.691 L64.0042 656.579 L28.3562 656.579 L28.3562 650.691 L33.8944 650.691 Q30.616 648.685 29.0564 645.885 Q27.4968 643.084 27.4968 639.232 Q27.4968 635.349 29.4702 632.644 Q31.4436 629.907 35.1993 628.602 Z" fill="#000000" fill-rule="nonzero" fill-opacity="1"></path><path clip-path="url(#clip470)" d="M44.7161 562.366 L47.5806 562.366 L47.5806 589.293 Q53.6281 588.911 56.8109 585.665 Q59.9619 582.387 59.9619 576.562 Q59.9619 573.188 59.1344 570.037 Q58.3069 566.854 56.6518 563.735 L62.1899 563.735 Q63.5267 566.886 64.227 570.196 Q64.9272 573.506 64.9272 576.912 Q64.9272 585.442 59.9619 590.439 Q54.9967 595.404 46.5303 595.404 Q37.7774 595.404 32.6531 590.694 Q27.4968 585.951 27.4968 577.931 Q27.4968 570.737 32.1438 566.568 Q36.7589 562.366 44.7161 562.366 M42.9973 568.223 Q38.1912 568.287 35.3266 570.928 Q32.4621 573.538 32.4621 577.867 Q32.4621 582.769 35.2312 585.729 Q38.0002 588.657 43.0292 589.102 L42.9973 568.223 Z" fill="#000000" fill-rule="nonzero" fill-opacity="1"></path><path clip-path="url(#clip470)" d="M924.502 12.096 L936.695 12.096 L952.129 53.2532 L967.644 12.096 L979.837 12.096 L979.837 72.576 L971.857 72.576 L971.857 19.4686 L956.261 60.9499 L948.037 60.9499 L932.441 19.4686 L932.441 72.576 L924.502 72.576 L924.502 12.096 Z" fill="#000000" fill-rule="nonzero" fill-opacity="1"></path><path clip-path="url(#clip470)" d="M1013.34 32.4315 Q1007.34 32.4315 1003.86 37.1306 Q1000.38 41.7891 1000.38 49.9314 Q1000.38 58.0738 1003.82 62.7728 Q1007.3 67.4314 1013.34 67.4314 Q1019.29 67.4314 1022.78 62.7323 Q1026.26 58.0333 1026.26 49.9314 Q1026.26 41.8701 1022.78 37.1711 Q1019.29 32.4315 1013.34 32.4315 M1013.34 26.1121 Q1023.06 26.1121 1028.61 32.4315 Q1034.16 38.7509 1034.16 49.9314 Q1034.16 61.0714 1028.61 67.4314 Q1023.06 73.7508 1013.34 73.7508 Q1003.58 73.7508 998.026 67.4314 Q992.516 61.0714 992.516 49.9314 Q992.516 38.7509 998.026 32.4315 Q1003.58 26.1121 1013.34 26.1121 Z" fill="#000000" fill-rule="nonzero" fill-opacity="1"></path><path clip-path="url(#clip470)" d="M1076.37 34.0924 L1076.37 9.54393 L1083.82 9.54393 L1083.82 72.576 L1076.37 72.576 L1076.37 65.7705 Q1074.02 69.8214 1070.42 71.8063 Q1066.85 73.7508 1061.83 73.7508 Q1053.6 73.7508 1048.42 67.1883 Q1043.27 60.6258 1043.27 49.9314 Q1043.27 39.2371 1048.42 32.6746 Q1053.6 26.1121 1061.83 26.1121 Q1066.85 26.1121 1070.42 28.0971 Q1074.02 30.0415 1076.37 34.0924 M1050.97 49.9314 Q1050.97 58.1548 1054.33 62.8538 Q1057.74 67.5124 1063.65 67.5124 Q1069.56 67.5124 1072.97 62.8538 Q1076.37 58.1548 1076.37 49.9314 Q1076.37 41.7081 1072.97 37.0496 Q1069.56 32.3505 1063.65 32.3505 Q1057.74 32.3505 1054.33 37.0496 Q1050.97 41.7081 1050.97 49.9314 Z" fill="#000000" fill-rule="nonzero" fill-opacity="1"></path><path clip-path="url(#clip470)" d="M1137.98 48.0275 L1137.98 51.6733 L1103.71 51.6733 Q1104.2 59.3701 1108.33 63.421 Q1112.5 67.4314 1119.92 67.4314 Q1124.21 67.4314 1128.22 66.3781 Q1132.27 65.3249 1136.24 63.2184 L1136.24 70.267 Q1132.23 71.9684 1128.02 72.8596 Q1123.81 73.7508 1119.47 73.7508 Q1108.62 73.7508 1102.26 67.4314 Q1095.94 61.1119 1095.94 50.3365 Q1095.94 39.1965 1101.93 32.6746 Q1107.97 26.1121 1118.18 26.1121 Q1127.33 26.1121 1132.64 32.0264 Q1137.98 37.9003 1137.98 48.0275 M1130.53 45.84 Q1130.45 39.7232 1127.09 36.0774 Q1123.77 32.4315 1118.26 32.4315 Q1112.02 32.4315 1108.25 35.9558 Q1104.52 39.4801 1103.96 45.8805 L1130.53 45.84 Z" fill="#000000" fill-rule="nonzero" fill-opacity="1"></path><path clip-path="url(#clip470)" d="M1150.22 9.54393 L1157.67 9.54393 L1157.67 72.576 L1150.22 72.576 L1150.22 9.54393 Z" fill="#000000" fill-rule="nonzero" fill-opacity="1"></path><path clip-path="url(#clip470)" d="M1207.01 14.324 L1207.01 27.2059 L1222.36 27.2059 L1222.36 32.9987 L1207.01 32.9987 L1207.01 57.6282 Q1207.01 63.1779 1208.51 64.7578 Q1210.05 66.3376 1214.71 66.3376 L1222.36 66.3376 L1222.36 72.576 L1214.71 72.576 Q1206.08 72.576 1202.8 69.3758 Q1199.52 66.1351 1199.52 57.6282 L1199.52 32.9987 L1194.05 32.9987 L1194.05 27.2059 L1199.52 27.2059 L1199.52 14.324 L1207.01 14.324 Z" fill="#000000" fill-rule="nonzero" fill-opacity="1"></path><path clip-path="url(#clip470)" d="M1258.46 34.1734 Q1257.2 33.4443 1255.7 33.1202 Q1254.25 32.7556 1252.46 32.7556 Q1246.14 32.7556 1242.74 36.8875 Q1239.38 40.9789 1239.38 48.6757 L1239.38 72.576 L1231.88 72.576 L1231.88 27.2059 L1239.38 27.2059 L1239.38 34.2544 Q1241.73 30.1225 1245.5 28.1376 Q1249.26 26.1121 1254.65 26.1121 Q1255.42 26.1121 1256.35 26.2337 Q1257.28 26.3147 1258.42 26.5172 L1258.46 34.1734 Z" fill="#000000" fill-rule="nonzero" fill-opacity="1"></path><path clip-path="url(#clip470)" d="M1286.9 49.7694 Q1277.86 49.7694 1274.38 51.8354 Q1270.89 53.9013 1270.89 58.8839 Q1270.89 62.8538 1273.49 65.2034 Q1276.12 67.5124 1280.62 67.5124 Q1286.81 67.5124 1290.54 63.1374 Q1294.31 58.7219 1294.31 51.4303 L1294.31 49.7694 L1286.9 49.7694 M1301.76 46.6907 L1301.76 72.576 L1294.31 72.576 L1294.31 65.6895 Q1291.76 69.8214 1287.95 71.8063 Q1284.14 73.7508 1278.63 73.7508 Q1271.66 73.7508 1267.53 69.8619 Q1263.44 65.9325 1263.44 59.3701 Q1263.44 51.7138 1268.54 47.825 Q1273.69 43.9361 1283.86 43.9361 L1294.31 43.9361 L1294.31 43.2069 Q1294.31 38.0623 1290.91 35.2672 Q1287.54 32.4315 1281.43 32.4315 Q1277.54 32.4315 1273.85 33.3632 Q1270.17 34.295 1266.76 36.1584 L1266.76 29.2718 Q1270.85 27.692 1274.7 26.9223 Q1278.55 26.1121 1282.2 26.1121 Q1292.04 26.1121 1296.9 31.2163 Q1301.76 36.3204 1301.76 46.6907 Z" fill="#000000" fill-rule="nonzero" fill-opacity="1"></path><path clip-path="url(#clip470)" d="M1317.12 27.2059 L1324.57 27.2059 L1324.57 72.576 L1317.12 72.576 L1317.12 27.2059 M1317.12 9.54393 L1324.57 9.54393 L1324.57 18.9825 L1317.12 18.9825 L1317.12 9.54393 Z" fill="#000000" fill-rule="nonzero" fill-opacity="1"></path><path clip-path="url(#clip470)" d="M1377.88 45.1919 L1377.88 72.576 L1370.43 72.576 L1370.43 45.4349 Q1370.43 38.994 1367.91 35.7938 Q1365.4 32.5936 1360.38 32.5936 Q1354.34 32.5936 1350.86 36.4419 Q1347.38 40.2903 1347.38 46.9338 L1347.38 72.576 L1339.88 72.576 L1339.88 27.2059 L1347.38 27.2059 L1347.38 34.2544 Q1350.05 30.163 1353.65 28.1376 Q1357.3 26.1121 1362.04 26.1121 Q1369.86 26.1121 1373.87 30.9732 Q1377.88 35.7938 1377.88 45.1919 Z" fill="#000000" fill-rule="nonzero" fill-opacity="1"></path><path clip-path="url(#clip470)" d="M1392.75 27.2059 L1400.2 27.2059 L1400.2 72.576 L1392.75 72.576 L1392.75 27.2059 M1392.75 9.54393 L1400.2 9.54393 L1400.2 18.9825 L1392.75 18.9825 L1392.75 9.54393 Z" fill="#000000" fill-rule="nonzero" fill-opacity="1"></path><path clip-path="url(#clip470)" d="M1453.51 45.1919 L1453.51 72.576 L1446.06 72.576 L1446.06 45.4349 Q1446.06 38.994 1443.54 35.7938 Q1441.03 32.5936 1436.01 32.5936 Q1429.97 32.5936 1426.49 36.4419 Q1423.01 40.2903 1423.01 46.9338 L1423.01 72.576 L1415.51 72.576 L1415.51 27.2059 L1423.01 27.2059 L1423.01 34.2544 Q1425.68 30.163 1429.28 28.1376 Q1432.93 26.1121 1437.67 26.1121 Q1445.49 26.1121 1449.5 30.9732 Q1453.51 35.7938 1453.51 45.1919 Z" fill="#000000" fill-rule="nonzero" fill-opacity="1"></path><path clip-path="url(#clip470)" d="M1498.23 49.3643 Q1498.23 41.2625 1494.87 36.8065 Q1491.55 32.3505 1485.51 32.3505 Q1479.52 32.3505 1476.15 36.8065 Q1472.83 41.2625 1472.83 49.3643 Q1472.83 57.4256 1476.15 61.8816 Q1479.52 66.3376 1485.51 66.3376 Q1491.55 66.3376 1494.87 61.8816 Q1498.23 57.4256 1498.23 49.3643 M1505.68 66.9452 Q1505.68 78.5308 1500.54 84.1616 Q1495.4 89.8329 1484.78 89.8329 Q1480.85 89.8329 1477.37 89.2252 Q1473.89 88.6581 1470.6 87.4428 L1470.6 80.1917 Q1473.89 81.9741 1477.09 82.8248 Q1480.29 83.6755 1483.61 83.6755 Q1490.94 83.6755 1494.59 79.8271 Q1498.23 76.0193 1498.23 68.282 L1498.23 64.5957 Q1495.92 68.6061 1492.32 70.5911 Q1488.71 72.576 1483.69 72.576 Q1475.34 72.576 1470.24 66.2161 Q1465.14 59.8562 1465.14 49.3643 Q1465.14 38.832 1470.24 32.472 Q1475.34 26.1121 1483.69 26.1121 Q1488.71 26.1121 1492.32 28.0971 Q1495.92 30.082 1498.23 34.0924 L1498.23 27.2059 L1505.68 27.2059 L1505.68 66.9452 Z" fill="#000000" fill-rule="nonzero" fill-opacity="1"></path><path clip-path="url(#clip470)" d="M1554.78 14.324 L1554.78 27.2059 L1570.13 27.2059 L1570.13 32.9987 L1554.78 32.9987 L1554.78 57.6282 Q1554.78 63.1779 1556.28 64.7578 Q1557.82 66.3376 1562.48 66.3376 L1570.13 66.3376 L1570.13 72.576 L1562.48 72.576 Q1553.85 72.576 1550.57 69.3758 Q1547.29 66.1351 1547.29 57.6282 L1547.29 32.9987 L1541.82 32.9987 L1541.82 27.2059 L1547.29 27.2059 L1547.29 14.324 L1554.78 14.324 Z" fill="#000000" fill-rule="nonzero" fill-opacity="1"></path><path clip-path="url(#clip470)" d="M1579.94 27.2059 L1587.39 27.2059 L1587.39 72.576 L1579.94 72.576 L1579.94 27.2059 M1579.94 9.54393 L1587.39 9.54393 L1587.39 18.9825 L1579.94 18.9825 L1579.94 9.54393 Z" fill="#000000" fill-rule="nonzero" fill-opacity="1"></path><path clip-path="url(#clip470)" d="M1638.31 35.9153 Q1641.11 30.8922 1645 28.5022 Q1648.88 26.1121 1654.15 26.1121 Q1661.24 26.1121 1665.09 31.0947 Q1668.94 36.0368 1668.94 45.1919 L1668.94 72.576 L1661.44 72.576 L1661.44 45.4349 Q1661.44 38.913 1659.13 35.7533 Q1656.82 32.5936 1652.08 32.5936 Q1646.29 32.5936 1642.93 36.4419 Q1639.57 40.2903 1639.57 46.9338 L1639.57 72.576 L1632.07 72.576 L1632.07 45.4349 Q1632.07 38.8725 1629.76 35.7533 Q1627.46 32.5936 1622.63 32.5936 Q1616.92 32.5936 1613.56 36.4824 Q1610.2 40.3308 1610.2 46.9338 L1610.2 72.576 L1602.7 72.576 L1602.7 27.2059 L1610.2 27.2059 L1610.2 34.2544 Q1612.75 30.082 1616.32 28.0971 Q1619.88 26.1121 1624.78 26.1121 Q1629.72 26.1121 1633.17 28.6237 Q1636.65 31.1352 1638.31 35.9153 Z" fill="#000000" fill-rule="nonzero" fill-opacity="1"></path><path clip-path="url(#clip470)" d="M1722.61 48.0275 L1722.61 51.6733 L1688.34 51.6733 Q1688.83 59.3701 1692.96 63.421 Q1697.13 67.4314 1704.54 67.4314 Q1708.84 67.4314 1712.85 66.3781 Q1716.9 65.3249 1720.87 63.2184 L1720.87 70.267 Q1716.86 71.9684 1712.65 72.8596 Q1708.43 73.7508 1704.1 73.7508 Q1693.24 73.7508 1686.88 67.4314 Q1680.56 61.1119 1680.56 50.3365 Q1680.56 39.1965 1686.56 32.6746 Q1692.59 26.1121 1702.8 26.1121 Q1711.96 26.1121 1717.26 32.0264 Q1722.61 37.9003 1722.61 48.0275 M1715.16 45.84 Q1715.08 39.7232 1711.71 36.0774 Q1708.39 32.4315 1702.88 32.4315 Q1696.64 32.4315 1692.88 35.9558 Q1689.15 39.4801 1688.58 45.8805 L1715.16 45.84 Z" fill="#000000" fill-rule="nonzero" fill-opacity="1"></path><path clip-path="url(#clip470)" d="M1763.77 28.5427 L1763.77 35.5912 Q1760.61 33.9709 1757.21 33.1607 Q1753.8 32.3505 1750.16 32.3505 Q1744.61 32.3505 1741.81 34.0519 Q1739.06 35.7533 1739.06 39.156 Q1739.06 41.7486 1741.04 43.2475 Q1743.03 44.7058 1749.02 46.0426 L1751.57 46.6097 Q1759.51 48.3111 1762.84 51.4303 Q1766.2 54.509 1766.2 60.0587 Q1766.2 66.3781 1761.18 70.0644 Q1756.19 73.7508 1747.44 73.7508 Q1743.8 73.7508 1739.83 73.0216 Q1735.9 72.3329 1731.52 70.9151 L1731.52 63.2184 Q1735.65 65.3654 1739.67 66.4591 Q1743.68 67.5124 1747.6 67.5124 Q1752.87 67.5124 1755.71 65.73 Q1758.54 63.9071 1758.54 60.6258 Q1758.54 57.5877 1756.48 55.9673 Q1754.45 54.3469 1747.52 52.8481 L1744.93 52.2405 Q1738 50.7821 1734.93 47.7845 Q1731.85 44.7463 1731.85 39.4801 Q1731.85 33.0797 1736.38 29.5959 Q1740.92 26.1121 1749.27 26.1121 Q1753.4 26.1121 1757.04 26.7198 Q1760.69 27.3274 1763.77 28.5427 Z" fill="#000000" fill-rule="nonzero" fill-opacity="1"></path><polyline clip-path="url(#clip472)" style="stroke:#800080; stroke-linecap:round; stroke-linejoin:round; stroke-width:4; stroke-opacity:1; fill:none" points="394.967,1386.4 817.36,1304.62 1239.75,1190.79 1662.14,1057.63 2295.73,932.261 "></polyline>
<line clip-path="url(#clip472)" x1="394.967" y1="1386.4" x2="378.967" y2="1370.4" style="stroke:#800080; stroke-width:4; stroke-opacity:1"></line>
<line clip-path="url(#clip472)" x1="394.967" y1="1386.4" x2="378.967" y2="1402.4" style="stroke:#800080; stroke-width:4; stroke-opacity:1"></line>
<line clip-path="url(#clip472)" x1="394.967" y1="1386.4" x2="410.967" y2="1402.4" style="stroke:#800080; stroke-width:4; stroke-opacity:1"></line>
<line clip-path="url(#clip472)" x1="394.967" y1="1386.4" x2="410.967" y2="1370.4" style="stroke:#800080; stroke-width:4; stroke-opacity:1"></line>
<line clip-path="url(#clip472)" x1="817.36" y1="1304.62" x2="801.36" y2="1288.62" style="stroke:#800080; stroke-width:4; stroke-opacity:1"></line>
<line clip-path="url(#clip472)" x1="817.36" y1="1304.62" x2="801.36" y2="1320.62" style="stroke:#800080; stroke-width:4; stroke-opacity:1"></line>
<line clip-path="url(#clip472)" x1="817.36" y1="1304.62" x2="833.36" y2="1320.62" style="stroke:#800080; stroke-width:4; stroke-opacity:1"></line>
<line clip-path="url(#clip472)" x1="817.36" y1="1304.62" x2="833.36" y2="1288.62" style="stroke:#800080; stroke-width:4; stroke-opacity:1"></line>
<line clip-path="url(#clip472)" x1="1239.75" y1="1190.79" x2="1223.75" y2="1174.79" style="stroke:#800080; stroke-width:4; stroke-opacity:1"></line>
<line clip-path="url(#clip472)" x1="1239.75" y1="1190.79" x2="1223.75" y2="1206.79" style="stroke:#800080; stroke-width:4; stroke-opacity:1"></line>
<line clip-path="url(#clip472)" x1="1239.75" y1="1190.79" x2="1255.75" y2="1206.79" style="stroke:#800080; stroke-width:4; stroke-opacity:1"></line>
<line clip-path="url(#clip472)" x1="1239.75" y1="1190.79" x2="1255.75" y2="1174.79" style="stroke:#800080; stroke-width:4; stroke-opacity:1"></line>
<line clip-path="url(#clip472)" x1="1662.14" y1="1057.63" x2="1646.14" y2="1041.63" style="stroke:#800080; stroke-width:4; stroke-opacity:1"></line>
<line clip-path="url(#clip472)" x1="1662.14" y1="1057.63" x2="1646.14" y2="1073.63" style="stroke:#800080; stroke-width:4; stroke-opacity:1"></line>
<line clip-path="url(#clip472)" x1="1662.14" y1="1057.63" x2="1678.14" y2="1073.63" style="stroke:#800080; stroke-width:4; stroke-opacity:1"></line>
<line clip-path="url(#clip472)" x1="1662.14" y1="1057.63" x2="1678.14" y2="1041.63" style="stroke:#800080; stroke-width:4; stroke-opacity:1"></line>
<line clip-path="url(#clip472)" x1="2295.73" y1="932.261" x2="2279.73" y2="916.261" style="stroke:#800080; stroke-width:4; stroke-opacity:1"></line>
<line clip-path="url(#clip472)" x1="2295.73" y1="932.261" x2="2279.73" y2="948.261" style="stroke:#800080; stroke-width:4; stroke-opacity:1"></line>
<line clip-path="url(#clip472)" x1="2295.73" y1="932.261" x2="2311.73" y2="948.261" style="stroke:#800080; stroke-width:4; stroke-opacity:1"></line>
<line clip-path="url(#clip472)" x1="2295.73" y1="932.261" x2="2311.73" y2="916.261" style="stroke:#800080; stroke-width:4; stroke-opacity:1"></line>
<polyline clip-path="url(#clip472)" style="stroke:#0000ff; stroke-linecap:round; stroke-linejoin:round; stroke-width:4; stroke-opacity:1; fill:none" points="394.967,555.18 817.36,530.899 1239.75,495.213 1662.14,451.384 2295.73,160.256 "></polyline>
<line clip-path="url(#clip472)" x1="394.967" y1="555.18" x2="378.967" y2="539.18" style="stroke:#0000ff; stroke-width:4; stroke-opacity:1"></line>
<line clip-path="url(#clip472)" x1="394.967" y1="555.18" x2="378.967" y2="571.18" style="stroke:#0000ff; stroke-width:4; stroke-opacity:1"></line>
<line clip-path="url(#clip472)" x1="394.967" y1="555.18" x2="410.967" y2="571.18" style="stroke:#0000ff; stroke-width:4; stroke-opacity:1"></line>
<line clip-path="url(#clip472)" x1="394.967" y1="555.18" x2="410.967" y2="539.18" style="stroke:#0000ff; stroke-width:4; stroke-opacity:1"></line>
<line clip-path="url(#clip472)" x1="817.36" y1="530.899" x2="801.36" y2="514.899" style="stroke:#0000ff; stroke-width:4; stroke-opacity:1"></line>
<line clip-path="url(#clip472)" x1="817.36" y1="530.899" x2="801.36" y2="546.899" style="stroke:#0000ff; stroke-width:4; stroke-opacity:1"></line>
<line clip-path="url(#clip472)" x1="817.36" y1="530.899" x2="833.36" y2="546.899" style="stroke:#0000ff; stroke-width:4; stroke-opacity:1"></line>
<line clip-path="url(#clip472)" x1="817.36" y1="530.899" x2="833.36" y2="514.899" style="stroke:#0000ff; stroke-width:4; stroke-opacity:1"></line>
<line clip-path="url(#clip472)" x1="1239.75" y1="495.213" x2="1223.75" y2="479.213" style="stroke:#0000ff; stroke-width:4; stroke-opacity:1"></line>
<line clip-path="url(#clip472)" x1="1239.75" y1="495.213" x2="1223.75" y2="511.213" style="stroke:#0000ff; stroke-width:4; stroke-opacity:1"></line>
<line clip-path="url(#clip472)" x1="1239.75" y1="495.213" x2="1255.75" y2="511.213" style="stroke:#0000ff; stroke-width:4; stroke-opacity:1"></line>
<line clip-path="url(#clip472)" x1="1239.75" y1="495.213" x2="1255.75" y2="479.213" style="stroke:#0000ff; stroke-width:4; stroke-opacity:1"></line>
<line clip-path="url(#clip472)" x1="1662.14" y1="451.384" x2="1646.14" y2="435.384" style="stroke:#0000ff; stroke-width:4; stroke-opacity:1"></line>
<line clip-path="url(#clip472)" x1="1662.14" y1="451.384" x2="1646.14" y2="467.384" style="stroke:#0000ff; stroke-width:4; stroke-opacity:1"></line>
<line clip-path="url(#clip472)" x1="1662.14" y1="451.384" x2="1678.14" y2="467.384" style="stroke:#0000ff; stroke-width:4; stroke-opacity:1"></line>
<line clip-path="url(#clip472)" x1="1662.14" y1="451.384" x2="1678.14" y2="435.384" style="stroke:#0000ff; stroke-width:4; stroke-opacity:1"></line>
<line clip-path="url(#clip472)" x1="2295.73" y1="160.256" x2="2279.73" y2="144.256" style="stroke:#0000ff; stroke-width:4; stroke-opacity:1"></line>
<line clip-path="url(#clip472)" x1="2295.73" y1="160.256" x2="2279.73" y2="176.256" style="stroke:#0000ff; stroke-width:4; stroke-opacity:1"></line>
<line clip-path="url(#clip472)" x1="2295.73" y1="160.256" x2="2311.73" y2="176.256" style="stroke:#0000ff; stroke-width:4; stroke-opacity:1"></line>
<line clip-path="url(#clip472)" x1="2295.73" y1="160.256" x2="2311.73" y2="144.256" style="stroke:#0000ff; stroke-width:4; stroke-opacity:1"></line>
<polyline clip-path="url(#clip472)" style="stroke:#008000; stroke-linecap:round; stroke-linejoin:round; stroke-width:4; stroke-opacity:1; fill:none" points="394.967,385.286 817.36,363.716 1239.75,335.407 1662.14,251.226 "></polyline>
<line clip-path="url(#clip472)" x1="394.967" y1="385.286" x2="378.967" y2="369.286" style="stroke:#008000; stroke-width:4; stroke-opacity:1"></line>
<line clip-path="url(#clip472)" x1="394.967" y1="385.286" x2="378.967" y2="401.286" style="stroke:#008000; stroke-width:4; stroke-opacity:1"></line>
<line clip-path="url(#clip472)" x1="394.967" y1="385.286" x2="410.967" y2="401.286" style="stroke:#008000; stroke-width:4; stroke-opacity:1"></line>
<line clip-path="url(#clip472)" x1="394.967" y1="385.286" x2="410.967" y2="369.286" style="stroke:#008000; stroke-width:4; stroke-opacity:1"></line>
<line clip-path="url(#clip472)" x1="817.36" y1="363.716" x2="801.36" y2="347.716" style="stroke:#008000; stroke-width:4; stroke-opacity:1"></line>
<line clip-path="url(#clip472)" x1="817.36" y1="363.716" x2="801.36" y2="379.716" style="stroke:#008000; stroke-width:4; stroke-opacity:1"></line>
<line clip-path="url(#clip472)" x1="817.36" y1="363.716" x2="833.36" y2="379.716" style="stroke:#008000; stroke-width:4; stroke-opacity:1"></line>
<line clip-path="url(#clip472)" x1="817.36" y1="363.716" x2="833.36" y2="347.716" style="stroke:#008000; stroke-width:4; stroke-opacity:1"></line>
<line clip-path="url(#clip472)" x1="1239.75" y1="335.407" x2="1223.75" y2="319.407" style="stroke:#008000; stroke-width:4; stroke-opacity:1"></line>
<line clip-path="url(#clip472)" x1="1239.75" y1="335.407" x2="1223.75" y2="351.407" style="stroke:#008000; stroke-width:4; stroke-opacity:1"></line>
<line clip-path="url(#clip472)" x1="1239.75" y1="335.407" x2="1255.75" y2="351.407" style="stroke:#008000; stroke-width:4; stroke-opacity:1"></line>
<line clip-path="url(#clip472)" x1="1239.75" y1="335.407" x2="1255.75" y2="319.407" style="stroke:#008000; stroke-width:4; stroke-opacity:1"></line>
<line clip-path="url(#clip472)" x1="1662.14" y1="251.226" x2="1646.14" y2="235.226" style="stroke:#008000; stroke-width:4; stroke-opacity:1"></line>
<line clip-path="url(#clip472)" x1="1662.14" y1="251.226" x2="1646.14" y2="267.226" style="stroke:#008000; stroke-width:4; stroke-opacity:1"></line>
<line clip-path="url(#clip472)" x1="1662.14" y1="251.226" x2="1678.14" y2="267.226" style="stroke:#008000; stroke-width:4; stroke-opacity:1"></line>
<line clip-path="url(#clip472)" x1="1662.14" y1="251.226" x2="1678.14" y2="235.226" style="stroke:#008000; stroke-width:4; stroke-opacity:1"></line>
<path clip-path="url(#clip470)" d="M1882.7 1379.86 L2285.6 1379.86 L2285.6 1172.5 L1882.7 1172.5  Z" fill="#ffffff" fill-rule="evenodd" fill-opacity="1"></path>
<polyline clip-path="url(#clip470)" style="stroke:#000000; stroke-linecap:round; stroke-linejoin:round; stroke-width:4; stroke-opacity:1; fill:none" points="1882.7,1379.86 2285.6,1379.86 2285.6,1172.5 1882.7,1172.5 1882.7,1379.86 "></polyline>
<polyline clip-path="url(#clip470)" style="stroke:#800080; stroke-linecap:round; stroke-linejoin:round; stroke-width:4; stroke-opacity:1; fill:none" points="1905.09,1224.34 2039.41,1224.34 "></polyline>
<line clip-path="url(#clip470)" x1="1972.25" y1="1224.34" x2="1951.52" y2="1203.61" style="stroke:#800080; stroke-width:4.55111; stroke-opacity:1"></line>
<line clip-path="url(#clip470)" x1="1972.25" y1="1224.34" x2="1951.52" y2="1245.06" style="stroke:#800080; stroke-width:4.55111; stroke-opacity:1"></line>
<line clip-path="url(#clip470)" x1="1972.25" y1="1224.34" x2="1992.98" y2="1245.06" style="stroke:#800080; stroke-width:4.55111; stroke-opacity:1"></line>
<line clip-path="url(#clip470)" x1="1972.25" y1="1224.34" x2="1992.98" y2="1203.61" style="stroke:#800080; stroke-width:4.55111; stroke-opacity:1"></line>
<path clip-path="url(#clip470)" d="M2082.31 1216.69 L2082.31 1220.67 Q2080.5 1219.67 2078.67 1219.19 Q2076.87 1218.68 2075.02 1218.68 Q2070.87 1218.68 2068.58 1221.32 Q2066.29 1223.93 2066.29 1228.68 Q2066.29 1233.42 2068.58 1236.06 Q2070.87 1238.68 2075.02 1238.68 Q2076.87 1238.68 2078.67 1238.19 Q2080.5 1237.68 2082.31 1236.69 L2082.31 1240.62 Q2080.52 1241.45 2078.6 1241.87 Q2076.71 1242.29 2074.55 1242.29 Q2068.7 1242.29 2065.25 1238.61 Q2061.8 1234.93 2061.8 1228.68 Q2061.8 1222.33 2065.27 1218.7 Q2068.77 1215.07 2074.83 1215.07 Q2076.8 1215.07 2078.67 1215.48 Q2080.55 1215.88 2082.31 1216.69 Z" fill="#000000" fill-rule="nonzero" fill-opacity="1"></path><path clip-path="url(#clip470)" d="M2099.76 1218.68 Q2096.33 1218.68 2094.34 1221.36 Q2092.35 1224.02 2092.35 1228.68 Q2092.35 1233.33 2094.32 1236.01 Q2096.31 1238.68 2099.76 1238.68 Q2103.16 1238.68 2105.15 1235.99 Q2107.14 1233.31 2107.14 1228.68 Q2107.14 1224.07 2105.15 1221.38 Q2103.16 1218.68 2099.76 1218.68 M2099.76 1215.07 Q2105.32 1215.07 2108.49 1218.68 Q2111.66 1222.29 2111.66 1228.68 Q2111.66 1235.04 2108.49 1238.68 Q2105.32 1242.29 2099.76 1242.29 Q2094.18 1242.29 2091.01 1238.68 Q2087.86 1235.04 2087.86 1228.68 Q2087.86 1222.29 2091.01 1218.68 Q2094.18 1215.07 2099.76 1215.07 Z" fill="#000000" fill-rule="nonzero" fill-opacity="1"></path><path clip-path="url(#clip470)" d="M2140.27 1225.97 L2140.27 1241.62 L2136.01 1241.62 L2136.01 1226.11 Q2136.01 1222.43 2134.58 1220.6 Q2133.14 1218.77 2130.27 1218.77 Q2126.82 1218.77 2124.83 1220.97 Q2122.84 1223.17 2122.84 1226.96 L2122.84 1241.62 L2118.56 1241.62 L2118.56 1215.69 L2122.84 1215.69 L2122.84 1219.72 Q2124.37 1217.38 2126.43 1216.22 Q2128.51 1215.07 2131.22 1215.07 Q2135.69 1215.07 2137.98 1217.84 Q2140.27 1220.6 2140.27 1225.97 Z" fill="#000000" fill-rule="nonzero" fill-opacity="1"></path><path clip-path="url(#clip470)" d="M2167.42 1216.69 L2167.42 1220.67 Q2165.62 1219.67 2163.79 1219.19 Q2161.98 1218.68 2160.13 1218.68 Q2155.99 1218.68 2153.7 1221.32 Q2151.4 1223.93 2151.4 1228.68 Q2151.4 1233.42 2153.7 1236.06 Q2155.99 1238.68 2160.13 1238.68 Q2161.98 1238.68 2163.79 1238.19 Q2165.62 1237.68 2167.42 1236.69 L2167.42 1240.62 Q2165.64 1241.45 2163.72 1241.87 Q2161.82 1242.29 2159.67 1242.29 Q2153.81 1242.29 2150.36 1238.61 Q2146.91 1234.93 2146.91 1228.68 Q2146.91 1222.33 2150.39 1218.7 Q2153.88 1215.07 2159.95 1215.07 Q2161.91 1215.07 2163.79 1215.48 Q2165.66 1215.88 2167.42 1216.69 Z" fill="#000000" fill-rule="nonzero" fill-opacity="1"></path><path clip-path="url(#clip470)" d="M2189.85 1219.67 Q2189.14 1219.26 2188.28 1219.07 Q2187.45 1218.86 2186.43 1218.86 Q2182.82 1218.86 2180.87 1221.22 Q2178.95 1223.56 2178.95 1227.96 L2178.95 1241.62 L2174.67 1241.62 L2174.67 1215.69 L2178.95 1215.69 L2178.95 1219.72 Q2180.29 1217.36 2182.45 1216.22 Q2184.6 1215.07 2187.68 1215.07 Q2188.12 1215.07 2188.65 1215.13 Q2189.18 1215.18 2189.83 1215.3 L2189.85 1219.67 Z" fill="#000000" fill-rule="nonzero" fill-opacity="1"></path><path clip-path="url(#clip470)" d="M2215.45 1227.59 L2215.45 1229.67 L2195.87 1229.67 Q2196.15 1234.07 2198.51 1236.38 Q2200.89 1238.68 2205.13 1238.68 Q2207.58 1238.68 2209.88 1238.07 Q2212.19 1237.47 2214.46 1236.27 L2214.46 1240.3 Q2212.17 1241.27 2209.76 1241.78 Q2207.35 1242.29 2204.88 1242.29 Q2198.67 1242.29 2195.04 1238.68 Q2191.43 1235.07 2191.43 1228.91 Q2191.43 1222.54 2194.85 1218.82 Q2198.3 1215.07 2204.13 1215.07 Q2209.37 1215.07 2212.4 1218.45 Q2215.45 1221.8 2215.45 1227.59 M2211.2 1226.34 Q2211.15 1222.84 2209.23 1220.76 Q2207.33 1218.68 2204.18 1218.68 Q2200.62 1218.68 2198.46 1220.69 Q2196.33 1222.7 2196.01 1226.36 L2211.2 1226.34 Z" fill="#000000" fill-rule="nonzero" fill-opacity="1"></path><path clip-path="url(#clip470)" d="M2226.66 1208.33 L2226.66 1215.69 L2235.43 1215.69 L2235.43 1219 L2226.66 1219 L2226.66 1233.07 Q2226.66 1236.25 2227.51 1237.15 Q2228.39 1238.05 2231.06 1238.05 L2235.43 1238.05 L2235.43 1241.62 L2231.06 1241.62 Q2226.13 1241.62 2224.25 1239.79 Q2222.38 1237.94 2222.38 1233.07 L2222.38 1219 L2219.25 1219 L2219.25 1215.69 L2222.38 1215.69 L2222.38 1208.33 L2226.66 1208.33 Z" fill="#000000" fill-rule="nonzero" fill-opacity="1"></path><path clip-path="url(#clip470)" d="M2263.21 1227.59 L2263.21 1229.67 L2243.63 1229.67 Q2243.9 1234.07 2246.26 1236.38 Q2248.65 1238.68 2252.88 1238.68 Q2255.34 1238.68 2257.63 1238.07 Q2259.94 1237.47 2262.21 1236.27 L2262.21 1240.3 Q2259.92 1241.27 2257.51 1241.78 Q2255.11 1242.29 2252.63 1242.29 Q2246.43 1242.29 2242.79 1238.68 Q2239.18 1235.07 2239.18 1228.91 Q2239.18 1222.54 2242.61 1218.82 Q2246.06 1215.07 2251.89 1215.07 Q2257.12 1215.07 2260.15 1218.45 Q2263.21 1221.8 2263.21 1227.59 M2258.95 1226.34 Q2258.9 1222.84 2256.98 1220.76 Q2255.08 1218.68 2251.94 1218.68 Q2248.37 1218.68 2246.22 1220.69 Q2244.09 1222.7 2243.76 1226.36 L2258.95 1226.34 Z" fill="#000000" fill-rule="nonzero" fill-opacity="1"></path><polyline clip-path="url(#clip470)" style="stroke:#0000ff; stroke-linecap:round; stroke-linejoin:round; stroke-width:4; stroke-opacity:1; fill:none" points="1905.09,1276.18 2039.41,1276.18 "></polyline>
<line clip-path="url(#clip470)" x1="1972.25" y1="1276.18" x2="1951.52" y2="1255.45" style="stroke:#0000ff; stroke-width:4.55111; stroke-opacity:1"></line>
<line clip-path="url(#clip470)" x1="1972.25" y1="1276.18" x2="1951.52" y2="1296.9" style="stroke:#0000ff; stroke-width:4.55111; stroke-opacity:1"></line>
<line clip-path="url(#clip470)" x1="1972.25" y1="1276.18" x2="1992.98" y2="1296.9" style="stroke:#0000ff; stroke-width:4.55111; stroke-opacity:1"></line>
<line clip-path="url(#clip470)" x1="1972.25" y1="1276.18" x2="1992.98" y2="1255.45" style="stroke:#0000ff; stroke-width:4.55111; stroke-opacity:1"></line>
<path clip-path="url(#clip470)" d="M2077.82 1262.07 Q2072.72 1262.07 2069.71 1265.86 Q2066.73 1269.66 2066.73 1276.21 Q2066.73 1282.74 2069.71 1286.53 Q2072.72 1290.33 2077.82 1290.33 Q2082.91 1290.33 2085.87 1286.53 Q2088.86 1282.74 2088.86 1276.21 Q2088.86 1269.66 2085.87 1265.86 Q2082.91 1262.07 2077.82 1262.07 M2077.82 1258.27 Q2085.08 1258.27 2089.44 1263.16 Q2093.79 1268.02 2093.79 1276.21 Q2093.79 1284.38 2089.44 1289.27 Q2085.08 1294.13 2077.82 1294.13 Q2070.52 1294.13 2066.15 1289.27 Q2061.8 1284.41 2061.8 1276.21 Q2061.8 1268.02 2066.15 1263.16 Q2070.52 1258.27 2077.82 1258.27 Z" fill="#000000" fill-rule="nonzero" fill-opacity="1"></path><path clip-path="url(#clip470)" d="M2096.4 1258.9 L2101.43 1258.9 L2110.02 1271.74 L2118.65 1258.9 L2123.67 1258.9 L2112.56 1275.49 L2124.41 1293.46 L2119.39 1293.46 L2109.67 1278.76 L2099.88 1293.46 L2094.83 1293.46 L2107.17 1275.01 L2096.4 1258.9 Z" fill="#000000" fill-rule="nonzero" fill-opacity="1"></path><path clip-path="url(#clip470)" d="M2134.99 1289.52 L2151.31 1289.52 L2151.31 1293.46 L2129.37 1293.46 L2129.37 1289.52 Q2132.03 1286.77 2136.61 1282.14 Q2141.22 1277.48 2142.4 1276.14 Q2144.64 1273.62 2145.52 1271.88 Q2146.43 1270.12 2146.43 1268.43 Q2146.43 1265.68 2144.48 1263.94 Q2142.56 1262.21 2139.46 1262.21 Q2137.26 1262.21 2134.81 1262.97 Q2132.38 1263.73 2129.6 1265.29 L2129.6 1260.56 Q2132.42 1259.43 2134.88 1258.85 Q2137.33 1258.27 2139.37 1258.27 Q2144.74 1258.27 2147.93 1260.96 Q2151.13 1263.64 2151.13 1268.13 Q2151.13 1270.26 2150.32 1272.18 Q2149.53 1274.08 2147.42 1276.67 Q2146.84 1277.35 2143.74 1280.56 Q2140.64 1283.76 2134.99 1289.52 Z" fill="#000000" fill-rule="nonzero" fill-opacity="1"></path><polyline clip-path="url(#clip470)" style="stroke:#008000; stroke-linecap:round; stroke-linejoin:round; stroke-width:4; stroke-opacity:1; fill:none" points="1905.09,1328.02 2039.41,1328.02 "></polyline>
<line clip-path="url(#clip470)" x1="1972.25" y1="1328.02" x2="1951.52" y2="1307.29" style="stroke:#008000; stroke-width:4.55111; stroke-opacity:1"></line>
<line clip-path="url(#clip470)" x1="1972.25" y1="1328.02" x2="1951.52" y2="1348.74" style="stroke:#008000; stroke-width:4.55111; stroke-opacity:1"></line>
<line clip-path="url(#clip470)" x1="1972.25" y1="1328.02" x2="1992.98" y2="1348.74" style="stroke:#008000; stroke-width:4.55111; stroke-opacity:1"></line>
<line clip-path="url(#clip470)" x1="1972.25" y1="1328.02" x2="1992.98" y2="1307.29" style="stroke:#008000; stroke-width:4.55111; stroke-opacity:1"></line>
<path clip-path="url(#clip470)" d="M2077.42 1326.66 Q2080.78 1327.38 2082.65 1329.65 Q2084.55 1331.92 2084.55 1335.25 Q2084.55 1340.37 2081.03 1343.17 Q2077.52 1345.97 2071.03 1345.97 Q2068.86 1345.97 2066.54 1345.53 Q2064.25 1345.11 2061.8 1344.25 L2061.8 1339.74 Q2063.74 1340.87 2066.06 1341.45 Q2068.37 1342.03 2070.89 1342.03 Q2075.29 1342.03 2077.58 1340.3 Q2079.9 1338.56 2079.9 1335.25 Q2079.9 1332.19 2077.75 1330.48 Q2075.62 1328.75 2071.8 1328.75 L2067.77 1328.75 L2067.77 1324.9 L2071.98 1324.9 Q2075.43 1324.9 2077.26 1323.54 Q2079.09 1322.15 2079.09 1319.56 Q2079.09 1316.89 2077.19 1315.48 Q2075.32 1314.05 2071.8 1314.05 Q2069.88 1314.05 2067.68 1314.46 Q2065.48 1314.88 2062.84 1315.76 L2062.84 1311.59 Q2065.5 1310.85 2067.82 1310.48 Q2070.15 1310.11 2072.21 1310.11 Q2077.54 1310.11 2080.64 1312.54 Q2083.74 1314.95 2083.74 1319.07 Q2083.74 1321.94 2082.1 1323.93 Q2080.46 1325.9 2077.42 1326.66 Z" fill="#000000" fill-rule="nonzero" fill-opacity="1"></path><path clip-path="url(#clip470)" d="M2104.55 1315.34 L2098.21 1332.54 L2110.92 1332.54 L2104.55 1315.34 M2101.91 1310.74 L2107.21 1310.74 L2120.39 1345.3 L2115.52 1345.3 L2112.38 1336.43 L2096.8 1336.43 L2093.65 1345.3 L2088.72 1345.3 L2101.91 1310.74 Z" fill="#000000" fill-rule="nonzero" fill-opacity="1"></path><path clip-path="url(#clip470)" d="M2138.7 1314.81 L2126.89 1333.26 L2138.7 1333.26 L2138.7 1314.81 M2137.47 1310.74 L2143.35 1310.74 L2143.35 1333.26 L2148.28 1333.26 L2148.28 1337.15 L2143.35 1337.15 L2143.35 1345.3 L2138.7 1345.3 L2138.7 1337.15 L2123.09 1337.15 L2123.09 1332.63 L2137.47 1310.74 Z" fill="#000000" fill-rule="nonzero" fill-opacity="1"></path></svg>